<svg width="24" height="25" viewBox="0 0 24 25" fill="none" xmlns="http://www.w3.org/2000/svg">
<path fill-rule="evenodd" clip-rule="evenodd" d="M4.29041 15.2416C1.93054 15.241 0 13.31 0 10.9501C0 8.58979 1.93115 6.65864 4.29149 6.65864L7.98537 6.65869C7.98537 9.48459 8.08119 12.4519 7.98537 15.2416H4.29041ZM8.0398 16.8663C8.1139 17.578 8.25711 18.283 8.48103 18.9559C8.81989 19.9743 9.36612 20.9727 10.1697 21.6987C10.3243 21.8385 10.3851 22.0345 10.3446 22.238L9.98721 24.0347C9.94873 24.2282 9.82695 24.376 9.64376 24.4499C9.45514 24.5259 9.26951 24.5041 9.10297 24.3882C7.78006 23.4674 6.81392 22.1145 6.18233 20.6455C5.66858 19.4507 5.36502 18.1652 5.24474 16.8663H8.0398ZM9.61001 6.46851V15.3981C14.176 16.392 17.9731 19.1189 21.6012 21.3801C22.0404 21.6539 22.5923 21.4814 23.0182 21.1998C23.4441 20.9182 23.6766 20.4977 23.6766 20.0086V1.97893C23.6766 1.49157 23.4458 1.07228 23.0222 0.790417C22.5987 0.508605 22.0798 0.390058 21.6107 0.60437C18.3155 2.11098 14.1191 5.28361 9.61001 6.46851Z" fill="white"/>
</svg>
