<svg width="24" height="25" viewBox="0 0 24 25" fill="none" xmlns="http://www.w3.org/2000/svg">
<path d="M21.744 15.4625C21.7445 15.4622 21.745 15.4619 21.7456 15.4616V9.51592C21.745 9.51559 21.7445 9.51526 21.744 9.51494C22.5359 9.21048 23.1043 8.43957 23.1043 7.54575C23.1043 6.38895 22.1527 5.43737 20.9959 5.43737C20.4664 5.43737 19.9803 5.63715 19.6084 5.96433C19.6083 5.96297 19.6082 5.96161 19.6081 5.96025L14.0814 2.93964C14.0812 2.93973 14.081 2.93978 14.0808 2.93987C14.0988 2.82996 14.1085 2.71742 14.1085 2.60277C14.1085 1.44597 13.1569 0.494385 12.0001 0.494385C10.8433 0.494385 9.89176 1.44597 9.89176 2.60277C9.89176 2.71746 9.90146 2.83 9.91945 2.93992C9.91926 2.93983 9.91912 2.93973 9.91894 2.93964L4.39216 5.96025C4.39216 5.9617 4.39221 5.96311 4.39221 5.96456C4.02024 5.63724 3.534 5.43737 3.00438 5.43737C1.84758 5.43737 0.895996 6.38895 0.895996 7.54575C0.895996 8.43947 1.46423 9.21025 2.256 9.51484C2.25557 9.51522 2.25515 9.51559 2.25473 9.51592V15.4616C2.2552 15.4619 2.25572 15.4622 2.25618 15.4626C1.46432 15.7671 0.895996 16.5379 0.895996 17.4317C0.895996 18.5885 1.84758 19.5401 3.00438 19.5401C3.53429 19.5401 4.02081 19.34 4.39287 19.0124C4.39263 19.014 4.3924 19.0156 4.39216 19.0173L9.91894 22.0379C9.91987 22.0374 9.92081 22.0369 9.9217 22.0363C9.90235 22.1502 9.89176 22.2669 9.89176 22.386C9.89176 23.5428 10.8433 24.4944 12.0001 24.4944C13.1569 24.4944 14.1085 23.5428 14.1085 22.386C14.1085 22.267 14.0979 22.1504 14.0786 22.0366C14.0795 22.037 14.0805 22.0375 14.0814 22.0379L19.6081 19.0173C19.6079 19.0157 19.6078 19.0141 19.6077 19.0126C19.9797 19.3401 20.4661 19.5402 20.9959 19.5402C22.1527 19.5402 23.1043 18.5886 23.1043 17.4318C23.1043 16.5379 22.5359 15.767 21.744 15.4625ZM14.0814 12.8261C14.0812 12.8262 14.0809 12.8263 14.0807 12.8265C14.1176 12.6073 14.1176 12.3702 14.0807 12.151C14.0809 12.1512 14.0812 12.1513 14.0814 12.1514L19.6067 9.12985C19.6069 9.12859 19.607 9.12737 19.6071 9.1261C19.8191 9.31281 20.0681 9.45791 20.3414 9.54829C20.3409 9.54858 20.3404 9.54886 20.34 9.54914V15.4282C20.3404 15.4285 20.3408 15.4289 20.3412 15.4291C20.0679 15.5196 19.8187 15.6648 19.6067 15.8517C19.6067 15.8503 19.6067 15.8489 19.6067 15.8476L14.0814 12.8261ZM18.9185 7.18499C18.9188 7.18475 18.9192 7.18452 18.9196 7.18428C18.899 7.30193 18.8875 7.42258 18.8875 7.54575C18.8875 7.66804 18.8988 7.78784 18.9192 7.90465C18.9188 7.90451 18.9184 7.90432 18.918 7.90418L13.4057 10.9187C13.4056 10.9201 13.4056 10.9214 13.4055 10.9227C13.2021 10.7398 12.9634 10.5957 12.7015 10.5021C12.702 10.5018 12.7025 10.5015 12.7029 10.5012V4.59027C12.7027 4.58989 12.7024 4.58952 12.7021 4.58919C12.9639 4.49558 13.2024 4.35151 13.4057 4.16864C13.4059 4.16972 13.4061 4.17079 13.4062 4.17187L18.9185 7.18499ZM10.5941 4.17187C10.5941 4.17065 10.5941 4.16939 10.5941 4.16817C10.7976 4.35137 11.0365 4.49567 11.2987 4.58938C11.2982 4.58971 11.2978 4.58999 11.2973 4.59032V10.5013C11.2977 10.5016 11.2981 10.5019 11.2985 10.5023C11.0392 10.595 10.8027 10.7373 10.6007 10.9177C10.6007 10.9163 10.6007 10.9149 10.6006 10.9136L5.08793 7.87002C5.08774 7.87012 5.08755 7.87021 5.08737 7.8703C5.104 7.76442 5.11276 7.65604 5.11276 7.5458C5.11276 7.42262 5.10138 7.30193 5.08067 7.18428C5.08104 7.18452 5.08146 7.18475 5.08184 7.18503L10.5941 4.17187ZM9.92109 12.835C9.92086 12.8348 9.92058 12.8347 9.92034 12.8345L4.41981 15.8706C4.41971 15.8718 4.41967 15.8731 4.41957 15.8743C4.20208 15.6763 3.94331 15.5232 3.65873 15.4291C3.65924 15.4289 3.65976 15.4286 3.66032 15.4283V9.54918C3.6599 9.54886 3.65952 9.54858 3.6591 9.54825C3.94345 9.45417 4.20199 9.30119 4.41938 9.10333C4.41952 9.1045 4.41967 9.10572 4.41981 9.10689L9.92034 12.143C9.92058 12.1428 9.92086 12.1427 9.92109 12.1425C9.88225 12.3671 9.88225 12.6105 9.92109 12.835ZM5.08184 17.7925C5.08142 17.7928 5.08104 17.7931 5.08062 17.7935C5.10133 17.6757 5.11276 17.555 5.11276 17.4317C5.11276 17.3214 5.104 17.2131 5.08737 17.1072C5.08755 17.1073 5.08774 17.1074 5.08793 17.1075L10.6006 14.0639C10.6005 14.0624 10.6004 14.061 10.6003 14.0595C10.8024 14.2401 11.0391 14.3825 11.2986 14.4753C11.2982 14.4756 11.2978 14.4759 11.2973 14.4762V20.3872C11.3001 20.3905 11.3028 20.3938 11.3055 20.397C11.0413 20.4904 10.8006 20.6351 10.5956 20.8192C10.5951 20.8146 10.5946 20.8101 10.5941 20.8056L5.08184 17.7925ZM13.4062 20.8056C13.4058 20.8102 13.4055 20.8149 13.4051 20.8196C13.1998 20.6351 12.9586 20.4902 12.6938 20.3967C12.6969 20.3935 12.6999 20.3903 12.7029 20.3872V14.4762C12.7025 14.4759 12.7021 14.4756 12.7017 14.4753C12.9634 14.3817 13.202 14.2377 13.4053 14.0549C13.4054 14.0562 13.4056 14.0575 13.4057 14.0588L18.918 17.0733C18.9184 17.073 18.9188 17.0727 18.9192 17.0725C18.8988 17.1894 18.8875 17.3093 18.8875 17.4317C18.8875 17.5549 18.8989 17.6755 18.9196 17.793C18.9192 17.7928 18.9188 17.7927 18.9185 17.7925L13.4062 20.8056Z" fill="#C8C8DB"/>
</svg>
