<svg width="24" height="25" viewBox="0 0 24 25" fill="none" xmlns="http://www.w3.org/2000/svg">
<path fill-rule="evenodd" clip-rule="evenodd" d="M16 0.494385V4.49438C16 6.2617 17.4327 7.69439 19.2 7.69439H23.9908C23.9969 7.7749 24 7.85594 24 7.9373V18.0944C24 21.629 21.1346 24.4944 17.6 24.4944H6.4C2.86538 24.4944 0 21.629 0 18.0944V6.89438C0 3.35976 2.86538 0.494385 6.4 0.494385H16ZM16.4 12.4944C16.4 12.9362 16.0418 13.2944 15.6 13.2944H12.8V16.0944C12.8 16.5362 12.4418 16.8944 12 16.8944C11.5582 16.8944 11.2 16.5362 11.2 16.0944V13.2944H8.4C7.95816 13.2944 7.6 12.9362 7.6 12.4944C7.6 12.0525 7.95816 11.6944 8.4 11.6944H11.2V8.89439C11.2 8.45254 11.5582 8.09438 12 8.09438C12.4418 8.09438 12.8 8.45254 12.8 8.89439V11.6944H15.6C16.0418 11.6944 16.4 12.0525 16.4 12.4944Z" fill="#C8C8DB"/>
<path d="M17.6001 0.79126V4.49442C17.6001 5.37806 18.3165 6.09442 19.2001 6.09442H23.4161C23.2904 5.9159 23.1457 5.74938 22.9835 5.59798L18.4375 1.35504C18.1878 1.12197 17.9047 0.932492 17.6001 0.79126Z" fill="#5F5E70"/>
</svg>
