<svg width="24" height="25" viewBox="0 0 24 25" fill="none" xmlns="http://www.w3.org/2000/svg">
<path d="M9.19191 16.4943H1.59991C1.22391 16.4943 0.87991 16.3663 0.60791 16.1503L4.79991 8.89429L9.19191 16.4943Z" fill="#C8C8DB"/>
<path d="M12.0001 10.4944L15.3121 16.2144C15.0481 16.3904 14.7361 16.4944 14.4001 16.4944H10.5761L9.56006 14.7344L12.0001 10.4944Z" fill="#C8C8DB"/>
<path d="M14.4 0.494385H1.6C0.72 0.494385 0 1.21438 0 2.09438V14.8144L4.28 7.39038C4.496 7.02238 5.104 7.02238 5.32 7.39038L8.864 13.5264L11.48 8.99038C11.696 8.62238 12.304 8.62238 12.52 8.99038L15.992 15.0064C16 14.9744 16 14.9344 16 14.8944V2.09438C16 1.21438 15.28 0.494385 14.4 0.494385ZM8.8 6.69438C8.032 6.69438 7.4 6.06238 7.4 5.29438C7.4 4.52638 8.032 3.89438 8.8 3.89438C9.568 3.89438 10.2 4.52638 10.2 5.29438C10.2 6.06238 9.568 6.69438 8.8 6.69438Z" fill="#C8C8DB"/>
<path d="M22.4 8.49438H17.2V14.8944C17.2 16.4384 15.944 17.6944 14.4 17.6944H8V22.8944C8 23.7744 8.72 24.4944 9.6 24.4944H22.4C23.28 24.4944 24 23.7744 24 22.8944V10.0944C24 9.21438 23.28 8.49438 22.4 8.49438ZM20.8 21.8944H11.2C10.872 21.8944 10.6 21.6224 10.6 21.2944C10.6 20.9664 10.872 20.6944 11.2 20.6944H20.8C21.128 20.6944 21.4 20.9664 21.4 21.2944C21.4 21.6224 21.128 21.8944 20.8 21.8944ZM20.8 18.6944H17.6C17.272 18.6944 17 18.4224 17 18.0944C17 17.7664 17.272 17.4944 17.6 17.4944H20.8C21.128 17.4944 21.4 17.7664 21.4 18.0944C21.4 18.4224 21.128 18.6944 20.8 18.6944ZM20.8 15.4944H18.4C18.072 15.4944 17.8 15.2224 17.8 14.8944C17.8 14.5664 18.072 14.2944 18.4 14.2944H20.8C21.128 14.2944 21.4 14.5664 21.4 14.8944C21.4 15.2224 21.128 15.4944 20.8 15.4944ZM20.8 12.2944H18.4C18.072 12.2944 17.8 12.0224 17.8 11.6944C17.8 11.3664 18.072 11.0944 18.4 11.0944H20.8C21.128 11.0944 21.4 11.3664 21.4 11.6944C21.4 12.0224 21.128 12.2944 20.8 12.2944Z" fill="#C8C8DB"/>
</svg>
