<svg xmlns="http://www.w3.org/2000/svg" width="15.083" height="19.263" viewBox="0 0 15.083 19.263"><defs><style>.a,.b{fill:none;stroke:#115c42;stroke-linejoin:round;stroke-width:1.15px;}.b{stroke-linecap:round;}</style></defs><g transform="translate(0.575 0.575)"><path class="a" d="M20.683,10.918V19.4a2.09,2.09,0,0,1-2.09,2.09H8.84A2.09,2.09,0,0,1,6.75,19.4V5.465a2.09,2.09,0,0,1,2.09-2.09h4.3a1.393,1.393,0,0,1,.985.408l6.15,6.15a1.393,1.393,0,0,1,.408.985Z" transform="translate(-6.75 -3.375)"/><path class="b" d="M18,3.938V9.163a1.393,1.393,0,0,0,1.393,1.393h5.225" transform="translate(-11.034 -3.589)"/><path class="b" d="M12.375,20.25h6.966" transform="translate(-8.892 -9.8)"/><path class="b" d="M12.375,25.875h6.966" transform="translate(-8.892 -11.942)"/></g></svg>