<svg xmlns="http://www.w3.org/2000/svg" width="16.976" height="20.082" viewBox="0 0 16.976 20.082"><defs><style>.a{fill:#ed7b2e;stroke:#ed7b2e;stroke-width:0.25px;}</style></defs><g transform="translate(-39.972 0.125)"><g transform="translate(40.097)"><path class="a" d="M55.867,2.628H54.194V.956A.958.958,0,0,0,53.239,0H41.053A.959.959,0,0,0,40.1.956V16.248a.959.959,0,0,0,.956.956h1.673v1.673a.958.958,0,0,0,.956.956H51.8a2.789,2.789,0,0,0,1.652-.655l2.67-2.513a2.538,2.538,0,0,0,.7-1.611V3.584A.959.959,0,0,0,55.867,2.628Zm-13.142.956v12.9H41.053a.242.242,0,0,1-.239-.239V.956a.242.242,0,0,1,.239-.239H53.239a.242.242,0,0,1,.239.239V2.628h-9.8A.958.958,0,0,0,42.725,3.584Zm12.91,12.558-2.67,2.513a1.268,1.268,0,0,1-.2.15v-2.2a.6.6,0,0,1,.6-.6h2.391A1,1,0,0,1,55.635,16.142Zm.47-1.089a1.115,1.115,0,0,1-.032.239H53.358a1.317,1.317,0,0,0-1.314,1.314v2.48a1.249,1.249,0,0,1-.239.029H43.681a.242.242,0,0,1-.239-.239V3.584a.242.242,0,0,1,.239-.239H55.867a.242.242,0,0,1,.239.239Z" transform="translate(-40.097)"/></g><g transform="translate(45.951 5.973)"><path class="a" d="M198.523,154.216h-6.929a.358.358,0,1,0,0,.717h6.929a.358.358,0,0,0,0-.717Z" transform="translate(-191.235 -154.216)"/></g><g transform="translate(45.951 10.752)"><path class="a" d="M198.523,277.59h-6.929a.358.358,0,1,0,0,.717h6.929a.358.358,0,0,0,0-.717Z" transform="translate(-191.235 -277.59)"/></g><g transform="translate(45.951 13.142)"><path class="a" d="M195.417,339.277h-3.823a.358.358,0,1,0,0,.717h3.823a.358.358,0,0,0,0-.717Z" transform="translate(-191.236 -339.277)"/></g><g transform="translate(45.951 8.363)"><path class="a" d="M198.523,215.9h-6.929a.358.358,0,1,0,0,.717h6.929a.358.358,0,1,0,0-.717Z" transform="translate(-191.235 -215.903)"/></g></g></svg>