<svg xmlns="http://www.w3.org/2000/svg" width="85" height="33" viewBox="0 0 85 33"><defs><style>.a{fill:#fff;}.b{fill:#e8e0e0;}.c{fill:#cd201f;}.d,.e{fill:#081240;}.d{font-size:16px;font-family:SofiaPro-Regular, Sofia Pro;opacity:0.4;}.e{font-size:24px;font-family:SofiaPro-SemiBold, Sofia Pro;font-weight:600;opacity:0.8;}</style></defs><g transform="translate(-1124 -221.917)"><g transform="translate(1136.632 208.483)"><path class="a" d="M39.684,30.978c-4.4-2.352-8.615-4.514-12.923-6.772V37.711c4.533-2.464,9.311-4.721,12.941-6.733h-.019Z" transform="translate(-2.342 -1.179)"/><path class="b" d="M39.684,30.978c-4.4-2.352-12.923-6.772-12.923-6.772l11.362,7.636s-2.07,1.148,1.561-.865Z" transform="translate(-2.342 -1.179)"/><path class="c" d="M25.248,47.1c-9.141-.168-12.264-.32-14.183-.715A6.234,6.234,0,0,1,7.811,44.7a6.85,6.85,0,0,1-1.542-2.973A19.441,19.441,0,0,1,5.61,37.36a103.652,103.652,0,0,1,0-14.145C5.9,20.6,6.047,17.5,8,15.691a6.4,6.4,0,0,1,3.2-1.617c1.881-.357,9.894-.639,18.189-.639,8.277,0,16.308.282,18.19.639a6.257,6.257,0,0,1,3.743,2.219c1.781,2.8,1.812,6.285,1.993,9.01.075,1.3.075,8.671,0,9.97-.281,4.307-.508,5.83-1.147,7.41a5.463,5.463,0,0,1-1.317,2.107A6.309,6.309,0,0,1,47.5,46.5c-7.911.595-14.628.724-22.252.6ZM37.362,29.8c-4.4-2.352-8.615-4.533-12.923-6.79V36.514c4.533-2.464,9.311-4.722,12.941-6.734l-.019.019Z" transform="translate(0 0)"/></g><g transform="translate(1122.767 240)"><text class="d" transform="translate(1.233 66)"></text><text class="e" transform="translate(13.233 47)"></text></g></g></svg>