<svg xmlns="http://www.w3.org/2000/svg" width="56" height="56.042" viewBox="0 0 56 56.042"><defs><style>.a{fill:none;stroke:#16b979;stroke-linecap:round;stroke-linejoin:round;stroke-width:2px;}</style></defs><g transform="translate(1 1.043)"><path class="a" d="M50.645,5.048s-11.246,13.99-21.8,13.99H8.077A2.077,2.077,0,0,0,6,21.115V33.576a2.077,2.077,0,0,0,2.077,2.077H28.846c10.553,0,21.8,14.05,21.8,14.05.786,1.038,3.124.327,3.124-1.277V6.318C53.769,4.72,51.562,3.875,50.645,5.048Z" transform="translate(-3.923 -4.501)"/><path class="a" d="M6.577,26.308S4.5,25.528,4.5,22.154,6.577,18,6.577,18" transform="translate(-4.5 0.691)"/><path class="a" d="M42,24.65a3,3,0,0,0,0-5.713" transform="translate(9.923 1.052)"/><path class="a" d="M24,15V31.615" transform="translate(3 -0.462)"/><path class="a" d="M10.5,15V31.615" transform="translate(-2.192 -0.462)"/><path class="a" d="M13.5,27V48.807a1.038,1.038,0,0,0,1.038,1.038h6.88a2.077,2.077,0,0,0,1.984-2.69c-1.087-3.489-3.672-7.424-3.672-13.925h2.077a2.077,2.077,0,0,0,2.077-2.077V29.077A2.077,2.077,0,0,0,21.808,27H19.731" transform="translate(-1.039 4.153)"/></g></svg>