<svg xmlns="http://www.w3.org/2000/svg" width="46" height="54.543" viewBox="0 0 46 54.543"><defs><style>.a{fill:#16b979;}</style></defs><g transform="translate(-40.097)"><g transform="translate(40.097)"><path class="a" d="M83.468,7.229h-4.6v-4.6A2.636,2.636,0,0,0,76.24,0H42.726A2.636,2.636,0,0,0,40.1,2.629V44.686a2.636,2.636,0,0,0,2.629,2.629h4.6v4.6a2.636,2.636,0,0,0,2.629,2.629H72.3a7.67,7.67,0,0,0,4.542-1.8l7.343-6.912A6.979,6.979,0,0,0,86.1,41.4V9.857A2.637,2.637,0,0,0,83.468,7.229ZM47.325,9.857V45.343h-4.6a.666.666,0,0,1-.657-.657V2.629a.666.666,0,0,1,.657-.657H76.24a.666.666,0,0,1,.657.657v4.6H49.954A2.636,2.636,0,0,0,47.325,9.857Zm35.5,34.537-7.343,6.911a3.488,3.488,0,0,1-.563.412V45.671a1.648,1.648,0,0,1,1.643-1.643h6.575A2.76,2.76,0,0,1,82.83,44.394ZM84.124,41.4a3.065,3.065,0,0,1-.089.657H76.568a3.622,3.622,0,0,0-3.614,3.614v6.82a3.437,3.437,0,0,1-.657.079H49.954a.665.665,0,0,1-.657-.657V9.857a.666.666,0,0,1,.657-.657H83.468a.666.666,0,0,1,.657.657Z" transform="translate(-40.097)"/></g><g transform="translate(56.198 16.428)"><path class="a" d="M211.278,154.216H192.221a.986.986,0,1,0,0,1.971h19.057a.986.986,0,0,0,0-1.971Z" transform="translate(-191.235 -154.216)"/></g><g transform="translate(56.198 29.571)"><path class="a" d="M211.278,277.59H192.221a.986.986,0,1,0,0,1.971h19.057a.986.986,0,0,0,0-1.971Z" transform="translate(-191.235 -277.59)"/></g><g transform="translate(56.198 36.143)"><path class="a" d="M202.736,339.277H192.222a.986.986,0,0,0,0,1.971h10.514a.986.986,0,0,0,0-1.971Z" transform="translate(-191.236 -339.277)"/></g><g transform="translate(56.198 23)"><path class="a" d="M211.278,215.9H192.221a.986.986,0,1,0,0,1.971h19.057a.986.986,0,1,0,0-1.971Z" transform="translate(-191.235 -215.903)"/></g></g></svg>