<svg id="files" xmlns="http://www.w3.org/2000/svg" width="18" height="20.571" viewBox="0 0 18 20.571">
  <path id="Path_246" data-name="Path 246" d="M4.821,4.5H15.107a2.571,2.571,0,0,1,2.571,2.571V19.929A2.571,2.571,0,0,1,15.107,22.5H4.821A2.571,2.571,0,0,1,2.25,19.929V7.071A2.571,2.571,0,0,1,4.821,4.5Zm0,1.286A1.286,1.286,0,0,0,3.536,7.071V19.929a1.286,1.286,0,0,0,1.286,1.286H15.107a1.286,1.286,0,0,0,1.286-1.286V7.071a1.286,1.286,0,0,0-1.286-1.286Z" transform="translate(-2.25 -1.929)" fill-rule="evenodd" fill="#fff" stroke="#fff"/>
  <path id="Path_247" data-name="Path 247" d="M9.321,0H19.607a2.571,2.571,0,0,1,2.571,2.571V15.429A2.571,2.571,0,0,1,19.607,18V16.714a1.286,1.286,0,0,0,1.286-1.286V2.571a1.286,1.286,0,0,0-1.286-1.286H9.321A1.286,1.286,0,0,0,8.036,2.571H6.75A2.571,2.571,0,0,1,9.321,0Z" transform="translate(-4.179)" fill="#fff" stroke="#fff"/>
</svg>
