<svg xmlns="http://www.w3.org/2000/svg" width="18" height="18" viewBox="0 0 18 18">
  <path id="wizard" d="M17.649,17.648a1.147,1.147,0,0,1-.791.351,1,1,0,0,1-.773-.3L4.8,6.41a.993.993,0,0,1-.3-.772A1.2,1.2,0,0,1,5.644,4.5a1,1,0,0,1,.773.3L17.7,16.086a.993.993,0,0,1,.3.772A1.145,1.145,0,0,1,17.649,17.648ZM16.594,4.5l-1.406-.808L13.8,4.5l.3-1.633-1.16-1.141,1.582-.21L15.188,0l.686,1.51,1.582.21L16.3,2.863ZM2.568,4.2.3,1.914A.993.993,0,0,1,0,1.142,1.145,1.145,0,0,1,.353.352,1.147,1.147,0,0,1,1.144,0a1,1,0,0,1,.773.3L4.185,2.582a.993.993,0,0,1,.3.772,1.145,1.145,0,0,1-.351.79,1.147,1.147,0,0,1-.791.351A1,1,0,0,1,2.568,4.2ZM2.129,8.254l.686-1.51.668,1.51,1.582.21L3.9,9.606l.3,1.65-1.389-.808-1.406.808.3-1.65L.565,8.464Zm4.5,6.761.686-1.51.668,1.51,1.582.193L8.4,16.366,8.7,18l-1.389-.808L5.925,18l.3-1.633-1.16-1.159Z" transform="translate(-0.001 0)" fill="#fff"/>
</svg>
