<svg width="24" height="25" viewBox="0 0 24 25" fill="none" xmlns="http://www.w3.org/2000/svg">
<path d="M20.4 4.09438H19.2V1.69438C19.2 1.37612 19.0736 1.0709 18.8485 0.845857C18.6235 0.620813 18.3183 0.494385 18 0.494385C17.6817 0.494385 17.3765 0.620813 17.1515 0.845857C16.9264 1.0709 16.8 1.37612 16.8 1.69438V4.09438H7.2V1.69438C7.2 1.37612 7.07357 1.0709 6.84853 0.845857C6.62348 0.620813 6.31826 0.494385 6 0.494385C5.68174 0.494385 5.37652 0.620813 5.15147 0.845857C4.92643 1.0709 4.8 1.37612 4.8 1.69438V4.09438H3.6C2.64522 4.09438 1.72955 4.47367 1.05442 5.1488C0.379285 5.82393 0 6.73961 0 7.69439V8.89439H24V7.69439C24 6.73961 23.6207 5.82393 22.9456 5.1488C22.2705 4.47367 21.3548 4.09438 20.4 4.09438Z" fill="#C8C8DB"/>
<path d="M0 20.8942C0 21.849 0.379285 22.7646 1.05442 23.4398C1.72955 24.1149 2.64522 24.4942 3.6 24.4942H20.4C21.3548 24.4942 22.2705 24.1149 22.9456 23.4398C23.6207 22.7646 24 21.849 24 20.8942V11.2942H0V20.8942Z" fill="#C8C8DB"/>
</svg>
