<svg xmlns="http://www.w3.org/2000/svg" width="24" height="24" viewBox="0 0 24 24"><defs><style>.a{fill:#081240;}</style></defs><path class="a" d="M187.13,184.865a2.265,2.265,0,1,0-2.265,2.265A2.268,2.268,0,0,0,187.13,184.865Zm-2.265,1.38a1.38,1.38,0,1,1,1.38-1.38A1.382,1.382,0,0,1,184.865,186.244Z" transform="translate(-172.865 -172.865)"/><path class="a" d="M143.543,232a.443.443,0,1,0,.443.443A.444.444,0,0,0,143.543,232Z" transform="translate(-135.971 -220.443)"/><path class="a" d="M103.8,232.443a.443.443,0,1,0,.443-.443A.444.444,0,0,0,103.8,232.443Z" transform="translate(-98.629 -220.443)"/><path class="a" d="M3.264,201.334a1.632,1.632,0,1,0-1.63,1.634A1.637,1.637,0,0,0,3.264,201.334Zm-1.63.749a.749.749,0,1,1,.749-.749A.749.749,0,0,1,1.634,202.083Z" transform="translate(0 -189.334)"/><circle class="a" cx="0.443" cy="0.443" r="0.443" transform="translate(17.944 11.557)"/><path class="a" d="M321.343,232.885a.443.443,0,1,0-.443-.443A.444.444,0,0,0,321.343,232.885Z" transform="translate(-304.914 -220.443)"/><path class="a" d="M401.034,199.7a1.634,1.634,0,1,0,1.634,1.634A1.637,1.637,0,0,0,401.034,199.7Zm0,2.383a.749.749,0,1,1,.749-.749A.749.749,0,0,1,401.034,202.083Z" transform="translate(-378.668 -189.334)"/><path class="a" d="M232.443,320.9a.443.443,0,1,0,.443.443A.444.444,0,0,0,232.443,320.9Z" transform="translate(-220.443 -304.914)"/><path class="a" d="M232.443,360.2a.443.443,0,1,0,.443.443A.444.444,0,0,0,232.443,360.2Z" transform="translate(-220.443 -342.256)"/><path class="a" d="M201.334,399.5a1.632,1.632,0,1,0,1.634,1.63A1.637,1.637,0,0,0,201.334,399.5Zm0,2.379a.749.749,0,1,1,.749-.749A.749.749,0,0,1,201.334,401.879Z" transform="translate(-189.334 -378.764)"/><path class="a" d="M232.443,143.985a.443.443,0,1,0-.443-.443A.444.444,0,0,0,232.443,143.985Z" transform="translate(-220.443 -135.971)"/><circle class="a" cx="0.443" cy="0.443" r="0.443" transform="translate(11.557 5.171)"/><path class="a" d="M201.334,3.264a1.632,1.632,0,1,0-1.634-1.63A1.637,1.637,0,0,0,201.334,3.264Zm0-2.379a.749.749,0,1,1-.749.749A.749.749,0,0,1,201.334.885Z" transform="translate(-189.334 0)"/><path class="a" d="M169.305,295.005a.443.443,0,1,0,.627,0A.443.443,0,0,0,169.305,295.005Z" transform="translate(-160.747 -280.185)"/><circle class="a" cx="0.443" cy="0.443" r="0.443" transform="translate(7.044 16.071)"/><path class="a" d="M59,341.476a1.633,1.633,0,1,0,2.309,0A1.632,1.632,0,0,0,59,341.476Zm1.682,1.686a.746.746,0,1,1,0-1.055A.746.746,0,0,1,60.686,343.161Z" transform="translate(-56.366 -322.422)"/><circle class="a" cx="0.443" cy="0.443" r="0.443" transform="translate(16.071 7.044)"/><circle class="a" cx="0.443" cy="0.443" r="0.443" transform="translate(14.691 8.424)"/><path class="a" d="M343.713,61.313a1.633,1.633,0,1,0-2.309,0A1.632,1.632,0,0,0,343.713,61.313Zm-1.682-1.686a.746.746,0,1,1,0,1.055A.746.746,0,0,1,342.031,59.627Z" transform="translate(-322.35 -56.366)"/><circle class="a" cx="0.443" cy="0.443" r="0.443" transform="translate(16.071 16.071)"/><path class="a" d="M295.005,295.005a.443.443,0,1,0,.627,0A.443.443,0,0,0,295.005,295.005Z" transform="translate(-280.185 -280.185)"/><path class="a" d="M341.4,341.476a1.633,1.633,0,1,0,2.309,0A1.632,1.632,0,0,0,341.4,341.476Zm1.686,1.686a.746.746,0,1,1,0-1.055A.746.746,0,0,1,343.089,343.161Z" transform="translate(-322.35 -322.422)"/><circle class="a" cx="0.443" cy="0.443" r="0.443" transform="translate(8.424 8.424)"/><circle class="a" cx="0.443" cy="0.443" r="0.443" transform="translate(7.044 7.044)"/><path class="a" d="M61.313,61.313a1.633,1.633,0,1,0-2.309,0A1.632,1.632,0,0,0,61.313,61.313Zm-1.686-1.686a.746.746,0,1,1,0,1.055A.746.746,0,0,1,59.627,59.627Z" transform="translate(-56.366 -56.366)"/></svg>