<svg width="83" height="84" viewBox="0 0 83 84" fill="none" xmlns="http://www.w3.org/2000/svg">
<path d="M9.40594 0H73.5725C74.7893 0 75.9942 0.206926 77.1184 0.608964C78.2426 1.011 79.2641 1.60028 80.1245 2.34315C80.9849 3.08601 81.6674 3.96793 82.1331 4.93853C82.5988 5.90914 82.8384 6.94942 82.8384 8V76C82.8384 78.1217 81.8622 80.1566 80.1245 81.6569C78.3868 83.1571 76.03 84 73.5725 84H9.40594C6.94847 84 4.59164 83.1571 2.85394 81.6569C1.11624 80.1566 0.140015 78.1217 0.140015 76V8C0.140015 5.87827 1.11624 3.84344 2.85394 2.34315C4.59164 0.842855 6.94847 0 9.40594 0V0Z" fill="#FF808B" fill-opacity="0.1"/>
<path d="M31.3389 28H45.4694L52.9596 35.578V53.34C52.9596 53.788 52.7844 54.2176 52.4725 54.5343C52.1607 54.8511 51.7377 55.029 51.2967 55.029H31.3389C30.8978 55.029 30.4749 54.8511 30.1631 54.5343C29.8512 54.2176 29.676 53.788 29.676 53.34V29.689C29.676 29.241 29.8512 28.8114 30.1631 28.4947C30.4749 28.1779 30.8978 28 31.3389 28V28Z" fill="#E2574C"/>
<path d="M52.9358 35.6026H47.139C46.6981 35.6023 46.2753 35.4243 45.9635 35.1076C45.6517 34.7909 45.4765 34.3614 45.4762 33.9136V28.0176L52.9358 35.6026Z" fill="#B53629"/>
<path d="M46.7218 40.8079C46.8368 40.7911 46.9421 40.7327 47.0183 40.6434C47.0944 40.5542 47.1363 40.44 47.1363 40.3219C47.1363 40.2038 47.0944 40.0897 47.0183 40.0004C46.9421 39.9111 46.8368 39.8527 46.7218 39.8359H45.1347C45.0666 39.8368 44.9993 39.8521 44.9373 39.8808C44.8752 39.9095 44.8197 39.9509 44.7743 40.0026C44.7289 40.0542 44.6945 40.1148 44.6733 40.1806C44.6521 40.2464 44.6446 40.316 44.6513 40.3849V44.3459C44.6513 44.6989 44.8482 44.8949 45.117 44.8949C45.3858 44.8949 45.5817 44.6949 45.5817 44.3459V43.2589H46.5416C46.6035 43.2586 46.6646 43.2452 46.7213 43.2198C46.7779 43.1944 46.8287 43.1574 46.8707 43.1112C46.9126 43.0649 46.9447 43.0104 46.965 42.951C46.9853 42.8916 46.9933 42.8286 46.9885 42.7659C46.9928 42.704 46.9843 42.6418 46.9637 42.5834C46.9431 42.5249 46.9107 42.4714 46.8687 42.4263C46.8267 42.3812 46.776 42.3455 46.7196 42.3213C46.6633 42.2971 46.6027 42.2851 46.5416 42.2859H45.5817V40.8089L46.7218 40.8079ZM41.3592 39.8359H40.1974C40.1258 39.8322 40.0543 39.8438 39.9873 39.8699C39.9204 39.896 39.8596 39.936 39.8089 39.9875C39.7581 40.0389 39.7186 40.1006 39.6927 40.1686C39.6669 40.2365 39.6554 40.3092 39.6589 40.3819V44.3489C39.6572 44.4217 39.6705 44.4941 39.698 44.5613C39.7256 44.6285 39.7667 44.6891 39.8188 44.7392C39.8709 44.7893 39.9327 44.8276 40.0003 44.8519C40.0679 44.8761 40.1398 44.8857 40.2112 44.8799H41.434C41.755 44.8994 42.0765 44.8492 42.3769 44.7327C42.6774 44.6161 42.9499 44.4359 43.1764 44.204C43.403 43.9721 43.5783 43.6939 43.6907 43.3878C43.8031 43.0817 43.85 42.7548 43.8283 42.4289C43.8633 42.087 43.8242 41.7413 43.7138 41.4164C43.6033 41.0914 43.4241 40.7949 43.1888 40.5478C42.9534 40.3007 42.6677 40.1089 42.3516 39.9859C42.0355 39.8629 41.6968 39.8117 41.3592 39.8359ZM41.4153 43.9019H40.7074V40.8159H41.3454C42.3112 40.8159 42.7306 41.4739 42.7306 42.3819C42.7296 43.2299 42.32 43.9019 41.4143 43.9019H41.4153ZM37.1622 39.8359H36.0113C35.9409 39.832 35.8704 39.8439 35.805 39.8706C35.7395 39.8973 35.6806 39.9383 35.6323 39.9906C35.5841 40.0429 35.5477 40.1053 35.5258 40.1735C35.5038 40.2416 35.4969 40.3137 35.5053 40.3849V44.3459C35.4953 44.4168 35.5005 44.4891 35.5204 44.5578C35.5404 44.6265 35.5746 44.69 35.6208 44.7441C35.667 44.7982 35.7241 44.8416 35.7883 44.8713C35.8524 44.9011 35.9221 44.9164 35.9926 44.9164C36.0631 44.9164 36.1328 44.9011 36.197 44.8713C36.2611 44.8416 36.3182 44.7982 36.3644 44.7441C36.4106 44.69 36.4449 44.6265 36.4648 44.5578C36.4847 44.4891 36.4899 44.4168 36.4799 44.3459V43.1899H37.2006C37.4175 43.197 37.6335 43.1585 37.8351 43.0768C38.0366 42.9952 38.2194 42.8721 38.3719 42.7153C38.5244 42.5585 38.6434 42.3714 38.7214 42.1657C38.7994 41.96 38.8346 41.7401 38.825 41.5199C38.8343 41.2958 38.7975 41.0723 38.7172 40.8634C38.6368 40.6545 38.5146 40.4648 38.3582 40.3065C38.2018 40.1481 38.0148 40.0245 37.8089 39.9435C37.603 39.8625 37.3828 39.8259 37.1622 39.8359ZM37.1435 42.2599H36.4809V40.7659H37.1435C37.3272 40.7827 37.498 40.8686 37.6225 41.0068C37.7469 41.1451 37.8159 41.3256 37.8159 41.5129C37.8159 41.7002 37.7469 41.8808 37.6225 42.019C37.498 42.1572 37.3272 42.2432 37.1435 42.2599Z" fill="white"/>
</svg>
