<svg width="24" height="25" viewBox="0 0 24 25" fill="none" xmlns="http://www.w3.org/2000/svg">
<path d="M20.9062 0.494385H3.09375C2.70544 0.494385 2.39062 0.809197 2.39062 1.19751V23.7913C2.39062 24.1796 2.70544 24.4944 3.09375 24.4944H20.9062C21.2946 24.4944 21.6094 24.1796 21.6094 23.7913V1.19751C21.6094 0.809197 21.2946 0.494385 20.9062 0.494385ZM17.1562 17.885H6.84375C6.45544 17.885 6.14062 17.5702 6.14062 17.1819C6.14062 16.7936 6.45544 16.4788 6.84375 16.4788H17.1562C17.5446 16.4788 17.8594 16.7936 17.8594 17.1819C17.8594 17.5702 17.5446 17.885 17.1562 17.885ZM6.14062 12.4944C6.14062 12.1061 6.45544 11.7913 6.84375 11.7913H13.875C14.2633 11.7913 14.5781 12.1061 14.5781 12.4944C14.5781 12.8827 14.2633 13.1975 13.875 13.1975H6.84375C6.45544 13.1975 6.14062 12.8827 6.14062 12.4944ZM17.1562 8.51001H6.84375C6.45544 8.51001 6.14062 8.1952 6.14062 7.80688C6.14062 7.41857 6.45544 7.10376 6.84375 7.10376H17.1562C17.5446 7.10376 17.8594 7.41857 17.8594 7.80688C17.8594 8.1952 17.5446 8.51001 17.1562 8.51001Z" fill="#C8C8DB"/>
</svg>
