<svg xmlns="http://www.w3.org/2000/svg" width="191.436" height="49.992" viewBox="0 0 191.436 49.992">
  <g id="Logo" transform="translate(-6.944 -25.26)">
    <g id="Group_197" data-name="Group 197" transform="translate(7.3 25.26)">
      <path id="Path_785" data-name="Path 785" d="M14.2,22.315l-6.436,17.6h13.25Zm1.7-4.164L29.339,52.79H25.932L21.768,42.379H6.814L3.029,52.79H0L12.493,18.15Z" transform="translate(0 -3.615)" fill="#fff" stroke="#fff" stroke-width="0.5"/>
      <path id="Path_786" data-name="Path 786" d="M56.019,52.79V18.15H74.759v2.271H59.237V33.861H69.648v2.271H59.237v14.2H75.894V52.79Z" transform="translate(-11.159 -3.615)" fill="#fff" stroke="#fff" stroke-width="0.5"/>
      <path id="Path_787" data-name="Path 787" d="M100.124,48.573a27.6,27.6,0,0,0,3.6,1.325,20.578,20.578,0,0,0,4.922.757,11.211,11.211,0,0,0,6.625-1.7,5.647,5.647,0,0,0,2.271-4.543c0-3.975-3.218-6.814-9.464-8.518S98.61,30.78,98.8,25.48a7.621,7.621,0,0,1,3.028-6.057,11.554,11.554,0,0,1,7.761-2.461,19.071,19.071,0,0,1,4.732.568,22.272,22.272,0,0,1,3.785,1.325l-1.136,2.461c-.947-.379-1.893-.757-3.029-1.136a16.139,16.139,0,0,0-4.353-.568,9.856,9.856,0,0,0-5.679,1.514,5.538,5.538,0,0,0-1.893,4.354c0,3.975,3.218,7,9.464,8.707s9.465,5.111,9.275,10.221a7.168,7.168,0,0,1-3.218,6.246,13.433,13.433,0,0,1-8.328,2.461,28.885,28.885,0,0,1-5.679-.568,14.824,14.824,0,0,1-3.975-1.7Z" transform="translate(-19.678 -3.374)" fill="#fff" stroke="#fff" stroke-width="0.5"/>
      <path id="Path_788" data-name="Path 788" d="M151.894,18.15h-3.218V52.79h3.218Z" transform="translate(-29.615 -3.615)" fill="#fff" stroke="#fff" stroke-width="0.5"/>
      <path id="Path_789" data-name="Path 789" d="M199.373,52.6l-8.139-14.764s-1.7.189-3.975.189h-5.111V52.411H178.93V18.15h8.9a16.439,16.439,0,0,1,8.9,2.271,8.464,8.464,0,0,1,3.6,7.571,10.011,10.011,0,0,1-1.7,5.679,9.1,9.1,0,0,1-4.542,3.407l8.9,15.521ZM187.826,20.8h-5.868V35.375h5.3a13.463,13.463,0,0,0,6.815-1.514c2.082-1.136,3.028-3.029,3.028-5.868s-.568-4.921-2.46-5.868A15.657,15.657,0,0,0,187.826,20.8Z" transform="translate(-35.641 -3.615)" fill="#fff" stroke="#fff" stroke-width="0.5"/>
      <path id="Path_790" data-name="Path 790" d="M224.711,0V35.052" transform="translate(-44.76)" fill="none" stroke="#fff" stroke-width="3"/>
      <path id="Path_791" data-name="Path 791" d="M213.385,9.183,232.5,29.038" transform="translate(-42.504 -1.829)" fill="none" stroke="#fff" stroke-width="3"/>
    </g>
  </g>
</svg>
