<svg width="239" height="63" viewBox="0 0 239 63" fill="none" xmlns="http://www.w3.org/2000/svg">
<path d="M17.7275 23.3505L9.69104 45.3326H26.2367L17.7275 23.3505ZM19.8548 18.1504L36.6369 61.4056H32.3823L27.1822 48.4054H8.50921L3.78187 61.4056H0L15.6002 18.1504H19.8548Z" fill="#0A083B"/>
<path d="M56.0195 61.4056V18.1504H79.4199V20.9868H60.0378V37.7689H73.038V40.6053H60.0378V58.3328H80.8381V61.4056H56.0195Z" fill="#0A083B"/>
<path d="M100.456 56.4416C101.874 57.1507 103.529 57.6234 104.947 58.0962C106.838 58.5689 108.965 59.0416 111.092 59.0416C114.165 59.0416 117.002 58.5689 119.365 56.9143C121.256 55.4961 122.202 53.3688 122.202 51.2415C122.202 46.2778 118.183 42.7323 110.383 40.605C102.583 38.4777 98.565 34.2231 98.8014 27.6048C98.8014 24.532 100.22 21.932 102.583 20.0411C105.42 17.9138 108.729 16.7319 112.274 16.9683C114.402 16.9683 116.293 17.2047 118.183 17.6774C119.838 18.1501 121.493 18.6229 122.911 19.332L121.493 22.4047C120.311 21.932 119.129 21.4593 117.711 20.9865C116.056 20.5138 114.165 20.2774 112.274 20.2774C109.674 20.2774 107.311 20.7502 105.183 22.1684C103.765 23.1138 102.82 25.4775 102.82 27.6048C102.82 32.5685 106.838 36.3504 114.638 38.4777C122.438 40.605 126.456 44.8596 126.22 51.2415C126.22 54.3143 125.038 57.1507 122.202 59.0416C118.893 61.4053 115.583 62.1144 111.802 62.1144C109.674 62.1144 106.838 61.878 104.711 61.4053C103.056 60.9326 101.165 60.2235 99.7468 59.278L100.456 56.4416Z" fill="#0A083B"/>
<path d="M152.694 18.1504H148.676V61.4056H152.694V18.1504Z" fill="#0A083B"/>
<path d="M204.458 61.1692L194.294 42.7326C194.294 42.7326 192.167 42.9689 189.33 42.9689H182.948V60.9328H178.93V18.1504H190.039C193.821 18.1504 197.84 18.8595 201.149 20.9868C204.221 23.1141 205.876 26.6596 205.64 30.4415C205.64 33.0415 204.931 35.4052 203.512 37.5325C202.094 39.4234 200.203 41.078 197.84 41.7871L208.949 61.1692H204.458ZM190.039 21.4595H182.712V39.6598H189.33C193.112 39.6598 195.712 38.9507 197.84 37.7689C200.44 36.3507 201.621 33.987 201.621 30.4415C201.621 26.896 200.912 24.2959 198.549 23.1141C195.712 21.9323 193.585 21.4595 190.039 21.4595Z" fill="#0A083B"/>
<path d="M224.711 0V43.7712" stroke="#0A083B" stroke-width="4"/>
<path d="M213.385 9.18262L237.26 33.9762" stroke="#0A083B" stroke-width="4"/>
</svg>
