<?xml version="1.0" standalone="no"?>
<!DOCTYPE svg PUBLIC "-//W3C//DTD SVG 1.1//EN" "http://www.w3.org/Graphics/SVG/1.1/DTD/svg11.dtd" >
<svg xmlns="http://www.w3.org/2000/svg" xmlns:xlink="http://www.w3.org/1999/xlink" version="1.1">
<metadata>
Created by FontForge 20170924 at Wed Apr 25 15:08:57 2012
 By www-data
(C) 2012. Olivier Gourvat - Mostardesign Studio. wf-rip
</metadata>
<defs>
<font id="SofiaPro-Medium" horiz-adv-x="1187" >
  <font-face 
    font-family="Sofia Pro Medium"
    font-weight="500"
    font-stretch="normal"
    units-per-em="2048"
    panose-1="2 11 0 0 0 0 0 0 0 0"
    ascent="1536"
    descent="-512"
    x-height="956"
    cap-height="1411"
    bbox="-356 -530 2294 2245"
    underline-thickness="102"
    underline-position="-204"
    unicode-range="U+0020-FB04"
  />
<missing-glyph horiz-adv-x="1300" 
d="M164 0v1362h973v-1362h-973zM379 883h127q0 76 43 123t108 47t114.5 -42t49.5 -108q0 -60 -49 -102q-32 -35 -67 -43q-92 -28 -141.5 -79t-49.5 -147v-77h127v77q0 46 25.5 67.5t76.5 35.5q88 28 145.5 99t57.5 169q0 123 -85 200t-204 77q-117 0 -197.5 -82t-80.5 -215z
M485 268q0 -38 28 -63t67 -25q38 0 65 25t27 63t-27 63t-65 25q-39 0 -67 -25t-28 -63z" />
    <glyph glyph-name="uniFB00" unicode="ff" horiz-adv-x="1470" 
d="M51 782v174h182v88q0 203 96 318t287 115h105v-203h-105q-50 0 -85 -18.5t-52.5 -52t-25 -72t-7.5 -87.5v-88h547v88q0 203 96 318t287 115h105v-203h-105q-50 0 -85 -18.5t-52.5 -52t-25 -72t-7.5 -87.5v-88h215v-174h-215v-782h-213v782h-547v-782h-213v782h-182z" />
    <glyph glyph-name="uniFB01" unicode="fi" horiz-adv-x="1310" 
d="M51 782v174h182v88q0 203 96 318t287 115h105v-203h-105q-50 0 -85 -18.5t-52.5 -52t-25 -72t-7.5 -87.5v-88h510h209v-956h-209v782h-510v-782h-213v782h-182zM920 1343q0 56 41.5 95t99.5 39q59 0 99 -38.5t40 -95.5t-40 -95t-99 -38q-58 0 -99.5 38.5t-41.5 94.5z" />
    <glyph glyph-name="uniFB02" unicode="fl" horiz-adv-x="1288" 
d="M51 782v174h182v88q0 203 96 318t287 115h525v-1477h-211v1274h-314q-50 0 -85 -18.5t-52.5 -52t-25 -72t-7.5 -87.5v-88h216v-174h-216v-782h-213v782h-182z" />
    <glyph glyph-name="uniFB03" unicode="ffi" horiz-adv-x="2070" 
d="M51 782v174h182v88q0 203 96 318t287 115h105v-203h-105q-50 0 -85 -18.5t-52.5 -52t-25 -72t-7.5 -87.5v-88h547v88q0 203 96 318t287 115h105v-203h-105q-50 0 -85 -18.5t-52.5 -52t-25 -72t-7.5 -87.5v-88h719v-956h-209v782h-510v-782h-213v782h-547v-782h-213v782
h-182zM1679 1343q0 56 42 95t100 39q59 0 99 -38.5t40 -95.5t-40 -95t-99 -38q-58 0 -100 38.5t-42 94.5z" />
    <glyph glyph-name="uniFB04" unicode="ffl" horiz-adv-x="2048" 
d="M51 782v174h182v88q0 203 96 318t287 115h105v-203h-105q-50 0 -85 -18.5t-52.5 -52t-25 -72t-7.5 -87.5v-88h547v88q0 203 96 318t287 115h525v-1477h-211v1274h-314q-50 0 -85 -18.5t-52.5 -52t-25 -72t-7.5 -87.5v-88h215v-174h-215v-782h-213v782h-547v-782h-213v782
h-182z" />
    <glyph glyph-name="f_f_j" unicode="ffj" horiz-adv-x="2056" 
d="M51 782v174h182v88q0 203 96 318t287 115h105v-203h-105q-50 0 -85 -18.5t-52.5 -52t-25 -72t-7.5 -87.5v-88h547v88q0 203 96 318t287 115h105v-203h-105q-50 0 -85 -18.5t-52.5 -52t-25 -72t-7.5 -87.5v-88h705v-1017q0 -412 -348 -412h-140v197h115q164 0 160 215v843
h-492v-782h-213v782h-547v-782h-213v782h-182zM1663 1343q0 56 41.5 95t99.5 39q59 0 100.5 -38.5t41.5 -95.5q0 -56 -41.5 -94.5t-100.5 -38.5q-58 0 -99.5 38.5t-41.5 94.5z" />
    <glyph glyph-name="f_j" unicode="fj" horiz-adv-x="1296" 
d="M51 782v174h182v88q0 203 96 318t287 115h105v-203h-105q-50 0 -85 -18.5t-52.5 -52t-25 -72t-7.5 -87.5v-88h705v-1017q0 -412 -348 -412h-139v197h114q164 0 160 215v843h-492v-782h-213v782h-182zM903 1343q0 56 41.5 95t99.5 39q59 0 100.5 -38.5t41.5 -95.5
q0 -56 -41.5 -94.5t-100.5 -38.5q-58 0 -99.5 38.5t-41.5 94.5z" />
    <glyph glyph-name=".notdef" horiz-adv-x="1300" 
d="M164 0v1362h973v-1362h-973zM379 883h127q0 76 43 123t108 47t114.5 -42t49.5 -108q0 -60 -49 -102q-32 -35 -67 -43q-92 -28 -141.5 -79t-49.5 -147v-77h127v77q0 46 25.5 67.5t76.5 35.5q88 28 145.5 99t57.5 169q0 123 -85 200t-204 77q-117 0 -197.5 -82t-80.5 -215z
M485 268q0 -38 28 -63t67 -25q38 0 65 25t27 63t-27 63t-65 25q-39 0 -67 -25t-28 -63z" />
    <glyph glyph-name="NULL" horiz-adv-x="0" 
 />
    <glyph glyph-name="nonmarkingreturn" horiz-adv-x="682" 
 />
    <glyph glyph-name="space" unicode=" " horiz-adv-x="520" 
 />
    <glyph glyph-name="exclam" unicode="!" horiz-adv-x="548" 
d="M129 119q0 59 43 99t102 40q61 0 103.5 -40t42.5 -99t-42.5 -98t-103.5 -39q-60 0 -102.5 39t-42.5 98zM158 1411h227l-29 -1032h-168z" />
    <glyph glyph-name="quotedbl" unicode="&#x22;" horiz-adv-x="729" 
d="M145 1411h160l-12 -594h-135zM424 1411h160l-13 -594h-135z" />
    <glyph glyph-name="numbersign" unicode="#" horiz-adv-x="1380" 
d="M76 344l47 178h219l98 355h-215l47 178h217l101 356h190l-100 -356h217l100 356h191l-101 -356h220l-50 -178h-221l-100 -355h221l-49 -178h-221l-103 -344h-186l98 344h-215l-102 -344h-186l100 344h-217zM530 522h215l101 355h-217z" />
    <glyph glyph-name="dollar" unicode="$" horiz-adv-x="1155" 
d="M92 410h217q3 -91 81.5 -161.5t199.5 -70.5q118 0 186.5 55t79.5 138q6 91 -55 147.5t-168 81.5l-178 45q-351 95 -351 379q0 162 118.5 271.5t293.5 127.5v209h133v-211q169 -22 274 -132t105 -279h-217q0 96 -68.5 154.5t-177.5 58.5q-100 0 -171.5 -55t-71.5 -140
q0 -136 188 -184l180 -47q209 -56 304 -169.5t77 -269.5q-14 -156 -129 -259.5t-293 -116.5v-228h-133v230q-124 14 -221.5 75.5t-150 153.5t-52.5 197z" />
    <glyph glyph-name="percent" unicode="%" horiz-adv-x="1400" 
d="M76 1098q0 115 78.5 194.5t193.5 79.5q114 0 194.5 -80t80.5 -194q0 -115 -80 -194t-195 -79t-193.5 78.5t-78.5 194.5zM225 1098q0 -53 34.5 -88t88.5 -35q52 0 88.5 35.5t36.5 87.5t-37 88.5t-88 36.5q-53 0 -88 -36t-35 -89zM285 0l669 1368h138l-672 -1368h-135z
M778 252q0 114 79 194t194 80q114 0 194 -80t80 -194q0 -115 -79.5 -193.5t-194.5 -78.5q-116 0 -194.5 78.5t-78.5 193.5zM928 252q0 -54 35 -88.5t88 -34.5t90 35t37 88q0 51 -37.5 88t-89.5 37t-87.5 -36.5t-35.5 -88.5z" />
    <glyph glyph-name="ampersand" unicode="&#x26;" horiz-adv-x="1363" 
d="M111 420q0 119 56.5 215.5t158.5 152.5q-56 41 -88.5 114.5t-32.5 156.5q0 149 109.5 254t269.5 108q111 1 204 -51.5t152 -144.5l-174 -107q-67 101 -170 101q-80 0 -129 -48t-49 -118q0 -30 11 -63t31.5 -63t55.5 -49.5t78 -19.5h266v178h197v-178h176v-170h-176v-262
q0 -64 8 -107t29.5 -79t64 -53t107.5 -17v-190q-266 0 -342 157q-49 -74 -145.5 -115.5t-203.5 -41.5q-203 0 -333.5 125.5t-130.5 314.5zM322 426q5 -108 77 -176t189 -68q135 0 203.5 89.5t68.5 242.5v174h-272q-82 0 -145 -40.5t-92.5 -99t-28.5 -122.5z" />
    <glyph glyph-name="quotesingle" unicode="'" horiz-adv-x="450" 
d="M145 1411h160l-12 -594h-135z" />
    <glyph glyph-name="parenleft" unicode="(" horiz-adv-x="751" 
d="M94 473q0 434 161 694t423 260v-192q-112 0 -202 -96t-140.5 -270.5t-50.5 -395.5t50.5 -394.5t140 -268.5t202.5 -95v-192q-173 0 -305 115.5t-205.5 331.5t-73.5 503z" />
    <glyph glyph-name="parenright" unicode=")" horiz-adv-x="751" 
d="M74 -285q112 0 201.5 95t140.5 268.5t51 394.5t-51 395.5t-140.5 270.5t-201.5 96v192q172 0 304 -116.5t205.5 -333.5t73.5 -504t-73.5 -503.5t-205.5 -331.5t-304 -115v192z" />
    <glyph glyph-name="asterisk" unicode="*" horiz-adv-x="966" 
d="M104 1098l56 159l254 -100l-17 275h172l-18 -273l258 98l51 -159l-264 -72l176 -219l-135 -94l-150 227l-157 -231l-131 100l172 213z" />
    <glyph glyph-name="plus" unicode="+" horiz-adv-x="1054" 
d="M106 442v187h328v327h187v-327h327v-187h-327v-329h-187v329h-328z" />
    <glyph glyph-name="comma" unicode="," horiz-adv-x="530" 
d="M23 -213q148 208 143 471h221q-10 -186 -74.5 -320t-146.5 -200z" />
    <glyph glyph-name="hyphen" unicode="-" horiz-adv-x="985" 
d="M135 389v191h715v-191h-715z" />
    <glyph glyph-name="period" unicode="." horiz-adv-x="544" 
d="M129 117q0 59 42 99t101 40q61 0 103.5 -40t42.5 -99t-42.5 -98t-103.5 -39q-59 0 -101 39t-42 98z" />
    <glyph glyph-name="slash" unicode="/" horiz-adv-x="1028" 
d="M63 0l693 1411h209l-693 -1411h-209z" />
    <glyph glyph-name="zero" unicode="0" horiz-adv-x="1236" 
d="M129 666q0 120 13.5 218.5t47.5 188.5t88.5 150.5t140.5 96.5t199 36t199 -36t140 -96.5t88 -150.5t47.5 -188t13.5 -219q0 -120 -13.5 -217.5t-47.5 -187t-88 -150t-140 -96t-199 -35.5t-199 35.5t-140.5 96t-88.5 150t-47.5 187t-13.5 217.5zM338 666q0 -84 7.5 -152
t27 -131t50.5 -105.5t80.5 -68t114.5 -25.5t114 25t80 68t50.5 106t27 131t7.5 152t-7.5 152t-27 131t-50.5 105.5t-80 67.5t-114 25q-81 0 -137.5 -37t-86.5 -106t-43 -150.5t-13 -187.5z" />
    <glyph glyph-name="one" unicode="1" horiz-adv-x="704" 
d="M84 987v195l430 170v-1352h-209v1067z" />
    <glyph glyph-name="two" unicode="2" horiz-adv-x="1089" 
d="M106 989q27 168 147 268.5t286 100.5q180 0 303 -112t123 -288q0 -181 -146 -344q-237 -277 -348 -409h485v-205h-837v100l545 656q92 110 92 202q0 85 -63 139t-158 54q-88 0 -152 -56.5t-76 -148.5z" />
    <glyph glyph-name="three" unicode="3" horiz-adv-x="1101" 
d="M80 250l184 98q27 -64 104 -113.5t146 -50.5q124 0 188 57t64 148q0 87 -64.5 156.5t-175.5 68.5h-149v195h149q74 -1 117.5 45.5t54.5 106.5q5 33 -0.5 63.5t-30 62t-67.5 48.5q-34 14 -92 14q-118 3 -189 -105l-159 117q56 96 162 150t231 47q164 -9 270.5 -117
t106.5 -254q0 -78 -44.5 -149.5t-117.5 -114.5q99 -37 157 -137t58 -213q0 -182 -131 -287.5t-336 -105.5q-151 0 -266 75t-170 195z" />
    <glyph glyph-name="four" unicode="4" horiz-adv-x="1210" 
d="M43 281l713 1056h180v-866h186v-190h-186v-281h-209v281h-684zM377 471h350v522z" />
    <glyph glyph-name="five" unicode="5" horiz-adv-x="1165" 
d="M94 276q22 11 91 52.5t87 50.5q40 -90 114 -142.5t161 -52.5q148 0 227.5 72.5t79.5 183.5q0 119 -76.5 183.5t-191.5 64.5q-85 0 -159.5 -27t-164.5 -94l-125 92l115 678h731v-198h-561l-64 -338q43 33 115 54.5t135 21.5q94 0 175.5 -28.5t143.5 -82.5t98 -138t36 -188
q0 -207 -141 -333.5t-373 -126.5q-140 0 -263.5 80.5t-189.5 215.5z" />
    <glyph glyph-name="six" unicode="6" horiz-adv-x="1148" 
d="M135 440q-4 90 -6.5 183t10 184t32.5 173.5t60 152.5t93 120.5t131.5 78t175.5 24.5q130 -5 228.5 -61.5t162.5 -196.5l-191 -82q-35 73 -90 108t-118 35q-139 0 -220.5 -129t-66.5 -319q83 151 285 151q173 0 292 -130t119 -326q-6 -184 -136 -305t-321 -121
q-181 0 -302 125t-138 335zM352 432q0 -102 68 -172t164 -72q98 -4 167.5 63t69.5 165q0 101 -62.5 170.5t-158.5 72.5q-98 3 -173 -65t-75 -162z" />
    <glyph glyph-name="seven" unicode="7" horiz-adv-x="1089" 
d="M113 1135v202h946l-699 -1337h-243l596 1135h-600z" />
    <glyph glyph-name="eight" unicode="8" horiz-adv-x="1167" 
d="M111 424q0 111 53 202.5t147 147.5q-98 95 -98 234q0 146 107 248t264 102t265.5 -102t108.5 -248q0 -140 -104 -234q95 -58 149 -149.5t54 -200.5q0 -186 -137.5 -315t-335.5 -129q-199 0 -336 129t-137 315zM319 426q0 -101 77.5 -172.5t187.5 -71.5t186 71t76 173
q0 98 -74.5 170t-181.5 72h-23q-104 -1 -176 -73t-72 -169zM418 1006q0 -68 47.5 -112t122.5 -44q71 1 116.5 46.5t45.5 109.5q0 62 -47.5 105.5t-118.5 43.5t-118.5 -43.5t-47.5 -105.5z" />
    <glyph glyph-name="nine" unicode="9" horiz-adv-x="1148" 
d="M115 930q6 184 135.5 305t320.5 121q181 0 302.5 -125.5t138.5 -335.5q4 -90 6.5 -183t-10 -184t-32.5 -173t-60 -152t-93 -120.5t-131.5 -78t-175.5 -24.5q-130 5 -228.5 61.5t-162.5 196.5l190 81q35 -73 90.5 -108t118.5 -35q139 0 220.5 129.5t66.5 319.5
q-37 -72 -112 -112t-173 -40q-173 0 -292 130.5t-119 326.5zM326 920q0 -101 62.5 -171t158.5 -73q98 -3 173 65t75 162q0 102 -68 172t-164 72q-98 4 -167.5 -62.5t-69.5 -164.5z" />
    <glyph glyph-name="colon" unicode=":" horiz-adv-x="559" 
d="M135 117q0 59 42.5 99t103.5 40q59 0 101 -40t42 -99t-42 -98t-101 -39q-61 0 -103.5 39t-42.5 98zM135 838q0 60 42.5 99.5t103.5 39.5q60 0 101.5 -39.5t41.5 -99.5q0 -59 -42 -99.5t-101 -40.5q-61 0 -103.5 40.5t-42.5 99.5z" />
    <glyph glyph-name="semicolon" unicode=";" horiz-adv-x="585" 
d="M43 -213q150 206 145 471h228q-8 -185 -73 -319t-146 -201zM160 838q0 61 42 100t103 39q60 0 103 -39.5t43 -99.5q0 -59 -43.5 -99.5t-102.5 -40.5q-61 0 -103 40t-42 100z" />
    <glyph glyph-name="less" unicode="&#x3c;" horiz-adv-x="1257" 
d="M88 471v191l1034 395v-205l-768 -285l768 -288v-205z" />
    <glyph glyph-name="equal" unicode="=" horiz-adv-x="1241" 
d="M150 246v182h942v-182h-942zM150 645v182h942v-182h-942z" />
    <glyph glyph-name="greater" unicode="&#x3e;" horiz-adv-x="1257" 
d="M135 74v205l768 288l-768 285v205l1034 -395v-191z" />
    <glyph glyph-name="question" unicode="?" horiz-adv-x="997" 
d="M86 999q0 192 117.5 310t292.5 118q116 0 212 -47.5t154 -139.5t58 -212q0 -143 -82.5 -245.5t-208.5 -141.5q-69 -21 -102 -54.5t-33 -101.5l-5 -104h-204v104q0 68 12.5 117t32.5 78.5t55 55t67.5 41t84 43t92.5 54.5q39 27 60.5 69t21.5 85q0 84 -63.5 137.5
t-151.5 53.5q-86 0 -146.5 -61t-60.5 -159h-203zM244 119q0 59 43 99t102 40q61 0 103.5 -40t42.5 -99t-42.5 -98t-103.5 -39q-60 0 -102.5 39t-42.5 98z" />
    <glyph glyph-name="at" unicode="@" horiz-adv-x="1984" 
d="M98 518q0 183 69 349t186.5 287t282 192t347.5 71q247 0 458.5 -111t338.5 -310.5t127 -442.5q0 -76 -12.5 -153.5t-42 -156.5t-73 -139.5t-111.5 -98.5t-152 -38q-60 0 -110 15.5t-93 48.5t-67.5 93t-24.5 142v262q0 108 -76 183t-182 75t-182 -75t-76 -183
q0 -106 76 -181t182 -75q98 0 192 88v-180q-96 -61 -192 -61q-171 0 -291.5 119.5t-120.5 289.5q0 171 120.5 291.5t291.5 120.5q165 0 284 -113q121 -115 127 -280v-295q0 -131 142 -131q55 0 98 30t67.5 75t40.5 105.5t21.5 114t5.5 107.5q0 121 -39.5 231.5t-111 197
t-166.5 150.5t-210.5 98t-238.5 34q-202 0 -370.5 -100t-264.5 -271.5t-96 -374.5q0 -152 56.5 -288.5t154 -235t233 -156t287.5 -57.5h51v-156h-51q-183 0 -347.5 70t-282 189.5t-186.5 284.5t-69 349z" />
    <glyph glyph-name="A" unicode="A" horiz-adv-x="1325" 
d="M12 0l533 1411h235l533 -1411h-230l-135 352h-569l-135 -352h-232zM453 547h421l-210 592z" />
    <glyph glyph-name="B" unicode="B" horiz-adv-x="1288" 
d="M184 0v1411h541q180 0 285.5 -100.5t105.5 -272.5q0 -94 -43.5 -171.5t-138.5 -114.5q79 -18 139.5 -74t89.5 -125t29 -139q0 -174 -115.5 -294t-308.5 -120h-584zM403 199h355q94 0 150.5 65t56.5 152q0 86 -59 157.5t-154 71.5h-349v-446zM403 831h314q82 0 128 57.5
t46 141.5q0 86 -50.5 134t-138.5 48h-299v-381z" />
    <glyph glyph-name="C" unicode="C" horiz-adv-x="1400" 
d="M96 702q0 198 94.5 364.5t258.5 263.5t360 97q166 0 308 -67t237 -186l-168 -132q-72 82 -169 129.5t-208 47.5q-209 0 -352.5 -151t-143.5 -366q0 -141 65 -259t179 -186.5t252 -68.5q115 0 214.5 49.5t166.5 135.5l168 -133q-94 -122 -237 -191t-312 -69
q-196 0 -360 96.5t-258.5 262.5t-94.5 363z" />
    <glyph glyph-name="D" unicode="D" horiz-adv-x="1472" 
d="M184 0v1411h549q147 0 268 -54.5t200.5 -150t123 -225t43.5 -279.5t-43.5 -278t-123.5 -222.5t-200.5 -148t-267.5 -53.5h-549zM401 201h332q134 0 230 67.5t142 179t46 254.5t-46 256t-142 181.5t-230 68.5h-332v-1007z" />
    <glyph glyph-name="E" unicode="E" horiz-adv-x="1161" 
d="M184 0v1411h850v-201h-633v-417h553v-199h-553v-395h654v-199h-871z" />
    <glyph glyph-name="F" unicode="F" horiz-adv-x="1079" 
d="M184 0v1411h838v-201h-621v-417h492v-199h-492v-594h-217z" />
    <glyph glyph-name="G" unicode="G" horiz-adv-x="1546" 
d="M96 702q0 198 94.5 364.5t259 263.5t361.5 97q144 0 271 -52t221 -146l-160 -142q-141 134 -332 134q-138 0 -252.5 -70t-180 -189t-65.5 -260t65.5 -260t180 -188.5t252.5 -69.5q175 0 296 95.5t128 250.5h-395v187h645q0 -186 -48.5 -327.5t-138 -230.5t-212 -134
t-275.5 -45q-148 0 -280.5 57t-227.5 154t-151 230.5t-56 280.5z" />
    <glyph glyph-name="H" unicode="H" horiz-adv-x="1443" 
d="M184 0v1411h217v-610h637v610h222v-1411h-222v602h-637v-602h-217z" />
    <glyph glyph-name="I" unicode="I" horiz-adv-x="585" 
d="M184 0v1411h217v-1411h-217z" />
    <glyph glyph-name="J" unicode="J" horiz-adv-x="587" 
d="M-205 -481l21 202q24 -8 75 -13t70 -5q59 0 103.5 20t70 56t37.5 80.5t12 97.5v1454h219v-1454q0 -77 -14.5 -144t-48 -126.5t-83.5 -101.5t-125.5 -66.5t-170.5 -24.5q-51 0 -166 25z" />
    <glyph glyph-name="K" unicode="K" horiz-adv-x="1193" 
d="M184 0v1411h219v-573l433 573h256l-541 -702l666 -709h-287l-527 571v-571h-219z" />
    <glyph glyph-name="L" unicode="L" horiz-adv-x="1021" 
d="M184 0v1411h217v-1212h566v-199h-783z" />
    <glyph glyph-name="M" unicode="M" horiz-adv-x="1898" 
d="M104 0l172 1411h193l479 -1005l479 1005h195l172 -1411h-217l-121 1008l-414 -850h-184l-416 850l-120 -1008h-218z" />
    <glyph glyph-name="N" unicode="N" horiz-adv-x="1394" 
d="M184 0v1411h209l600 -1001v1001h217v-1411h-202l-607 1010v-1010h-217z" />
    <glyph glyph-name="O" unicode="O" horiz-adv-x="1622" 
d="M96 702q0 198 94 364.5t258 263.5t361 97q198 0 363 -97t259.5 -263.5t94.5 -364.5q0 -147 -56 -280.5t-151 -230.5t-228.5 -154t-281.5 -57t-280.5 57t-227 154t-150 230.5t-55.5 280.5zM313 702q0 -140 65.5 -256.5t179.5 -184.5t251 -68q138 0 252.5 68t180 184.5
t65.5 256.5t-65.5 257.5t-180 186t-252.5 68.5q-208 0 -352 -149.5t-144 -362.5z" />
    <glyph glyph-name="P" unicode="P" horiz-adv-x="1243" 
d="M184 0v1411h568q110 0 195 -38t135 -102.5t75 -142.5t25 -165t-25 -165t-75 -141.5t-135 -101t-195 -37.5h-349v-518h-219zM403 717h336q75 0 128 37t75.5 91t22.5 118q0 100 -55.5 173.5t-161.5 73.5h-345v-493z" />
    <glyph glyph-name="Q" unicode="Q" horiz-adv-x="1626" 
d="M96 702q0 198 94.5 364.5t259 263.5t361.5 97q149 0 283 -57.5t229.5 -154.5t151 -231t55.5 -282q0 -188 -88.5 -349t-239.5 -259l144 -231l-164 -101l-156 250q-95 -32 -215 -32q-148 0 -280.5 57t-227.5 154t-151 230.5t-56 280.5zM313 702q0 -200 128 -343t321 -160
q71 -9 145 4l-135 221l162 100l153 -248q104 68 164 180.5t60 245.5q0 141 -65.5 259.5t-180.5 188t-254 69.5q-138 0 -252.5 -69.5t-180 -188t-65.5 -259.5z" />
    <glyph glyph-name="R" unicode="R" horiz-adv-x="1273" 
d="M184 0v1411h551q109 0 194 -38t135 -102t75.5 -142.5t25.5 -165.5q0 -80 -21 -152t-63 -133t-114 -101.5t-166 -50.5l370 -526h-264l-352 518h-152v-518h-219zM403 717h316q110 0 165.5 72.5t55.5 173.5q0 63 -20.5 117t-70.5 92t-122 38h-324v-493z" />
    <glyph glyph-name="S" unicode="S" horiz-adv-x="1175" 
d="M102 410h217q3 -91 81.5 -161.5t199.5 -70.5q118 0 186.5 55t79.5 138q11 174 -223 229l-178 45q-350 95 -350 379q0 118 64.5 211t170.5 142.5t230 49.5q199 0 328.5 -113.5t129.5 -303.5h-217q0 96 -68.5 154.5t-177.5 58.5q-100 0 -171.5 -55t-71.5 -140
q0 -136 188 -184l180 -47q209 -56 304 -169.5t77 -269.5q-15 -167 -147.5 -272.5t-333.5 -105.5q-142 0 -257.5 60t-178 158t-62.5 212z" />
    <glyph glyph-name="T" unicode="T" horiz-adv-x="1167" 
d="M57 1208v203h1053v-203h-416v-1208h-221v1208h-416z" />
    <glyph glyph-name="U" unicode="U" horiz-adv-x="1386" 
d="M170 489v922h221v-922q0 -133 89 -217t214 -84t214 84t89 217v922h220v-922q0 -150 -72.5 -267.5t-191 -179.5t-259.5 -62q-142 0 -261 62t-191 179.5t-72 267.5z" />
    <glyph glyph-name="V" unicode="V" horiz-adv-x="1159" 
d="M51 1411h228l301 -1049l303 1049h225l-426 -1411h-203z" />
    <glyph glyph-name="W" unicode="W" horiz-adv-x="1837" 
d="M23 1411h233l336 -1051l242 859h170l241 -859l336 1051h234l-478 -1411h-182l-237 846l-236 -846h-182z" />
    <glyph glyph-name="X" unicode="X" horiz-adv-x="1277" 
d="M18 0l490 756l-438 655h262l307 -479l311 479h260l-440 -655l492 -756h-261l-362 578l-363 -578h-258z" />
    <glyph glyph-name="Y" unicode="Y" horiz-adv-x="1298" 
d="M0 1411h260l389 -561l393 561h261l-543 -766v-645h-223v647z" />
    <glyph glyph-name="Z" unicode="Z" horiz-adv-x="1181" 
d="M84 0v180l721 1030h-692v201h970v-182l-725 -1028h725v-201h-999z" />
    <glyph glyph-name="bracketleft" unicode="[" horiz-adv-x="671" 
d="M166 -465v1876h426v-180h-227v-1516h227v-180h-426z" />
    <glyph glyph-name="backslash" unicode="\" horiz-adv-x="1028" 
d="M63 1411h209l693 -1411h-209z" />
    <glyph glyph-name="bracketright" unicode="]" horiz-adv-x="671" 
d="M80 -285h227v1516h-227v180h426v-1876h-426v180z" />
    <glyph glyph-name="underscore" unicode="_" horiz-adv-x="1452" 
d="M135 -59h1182v-177h-1182v177z" />
    <glyph glyph-name="grave" unicode="`" horiz-adv-x="1069" 
d="M264 1430h238l205 -324h-185z" />
    <glyph glyph-name="a" unicode="a" horiz-adv-x="1249" 
d="M86 479q0 148 67.5 263t177.5 175t240 60q95 0 185.5 -39.5t136.5 -116.5v135h209v-956h-209v137q-45 -74 -136 -115.5t-186 -41.5q-97 0 -185 35.5t-154.5 99t-106 158.5t-39.5 206zM303 481q0 -130 85.5 -213.5t207.5 -83.5q123 0 209 80.5t86 216.5q0 133 -89.5 212
t-205.5 79q-123 0 -208 -81t-85 -210z" />
    <glyph glyph-name="b" unicode="b" horiz-adv-x="1245" 
d="M147 0v1477h211v-658q43 76 130 117t192 41q97 0 184 -35.5t152 -99t103 -158.5t38 -207q0 -146 -66 -261t-175 -175.5t-238 -60.5q-100 0 -188.5 42.5t-131.5 116.5v-139h-211zM360 481q0 -135 85.5 -216t207.5 -81t205.5 83.5t83.5 213.5q0 129 -83 210t-206 81
q-116 0 -204.5 -79t-88.5 -212z" />
    <glyph glyph-name="c" unicode="c" horiz-adv-x="1052" 
d="M86 481q0 147 70.5 261.5t186 174.5t253.5 60q114 0 213 -43.5t166 -122.5l-164 -131q-80 92 -215 92q-124 0 -212.5 -80.5t-88.5 -210.5t89 -214.5t212 -84.5q63 0 120 25t95 69l166 -129q-68 -80 -167 -123.5t-214 -43.5q-137 0 -253 61t-186.5 177t-70.5 263z" />
    <glyph glyph-name="d" unicode="d" horiz-adv-x="1245" 
d="M88 477q0 112 38.5 207t103.5 158.5t151.5 99t183.5 35.5q105 0 193 -41t131 -117v658h209v-1477h-209v139q-43 -74 -132.5 -116.5t-191.5 -42.5q-96 0 -183 36t-152 99.5t-103.5 157.5t-38.5 204zM305 481q0 -130 82.5 -213.5t204.5 -83.5t207.5 81t85.5 216
q0 133 -88.5 212t-204.5 79q-122 0 -204.5 -80.5t-82.5 -210.5z" />
    <glyph glyph-name="e" unicode="e" horiz-adv-x="1132" 
d="M86 481q0 222 141.5 359t350.5 137q101 0 189.5 -35.5t152.5 -99t100.5 -157t36.5 -204.5q0 -58 -2 -78h-760q15 -109 95.5 -174t197.5 -65q82 0 153 36.5t107 100.5q29 -14 89 -40t83 -36q-60 -121 -180 -183t-262 -62q-136 0 -247.5 61t-178 176.5t-66.5 263.5z
M295 557h555q-15 111 -89 173.5t-183 62.5q-112 0 -190 -63.5t-93 -172.5z" />
    <glyph glyph-name="f" unicode="f" horiz-adv-x="710" 
d="M51 782v174h182v88q0 203 96 318t287 115h105v-203h-105q-50 0 -85 -18.5t-52.5 -52t-25 -72t-7.5 -87.5v-88h216v-174h-216v-782h-213v782h-182z" />
    <glyph glyph-name="g" unicode="g" horiz-adv-x="1249" 
d="M88 475q0 148 67 264t176.5 177t239.5 61q100 0 190.5 -43t133.5 -119v141h207v-815q0 -319 -137.5 -468.5t-389.5 -149.5q-140 0 -257.5 70.5t-184.5 197.5q18 8 86.5 44t87.5 44q37 -73 112.5 -116.5t155.5 -43.5q153 0 236.5 91.5t83.5 285.5v49q-40 -77 -131.5 -121
t-192.5 -44q-97 0 -184.5 35t-154 98t-105.5 157t-39 205zM305 477q0 -132 84 -213.5t207 -81.5q115 0 205 81.5t90 213.5q0 137 -85.5 216t-209.5 79q-122 0 -206.5 -83.5t-84.5 -211.5z" />
    <glyph glyph-name="h" unicode="h" horiz-adv-x="1183" 
d="M147 0v1477h211v-666q37 81 127 123.5t177 42.5q183 0 285 -114t102 -318v-545h-211v532q0 110 -60.5 174t-152.5 64q-48 0 -93 -14t-85 -43t-64.5 -80.5t-24.5 -118.5v-514h-211z" />
    <glyph glyph-name="i" unicode="i" horiz-adv-x="503" 
d="M111 1343q0 56 41.5 95t99.5 39q59 0 99 -38.5t40 -95.5t-40 -95t-99 -38q-58 0 -99.5 38.5t-41.5 94.5zM147 0v956h209v-956h-209z" />
    <glyph glyph-name="j" unicode="j" horiz-adv-x="507" 
d="M-127 -276h115q163 0 159 215v1017h213v-1017q0 -412 -348 -412h-139v197zM113 1343q0 56 41.5 95t99.5 39q59 0 100 -38.5t41 -95.5t-41 -95t-100 -38q-58 0 -99.5 38.5t-41.5 94.5z" />
    <glyph glyph-name="k" unicode="k" horiz-adv-x="1036" 
d="M147 0v1477h209v-836l303 315h283l-407 -415l499 -541h-270l-408 444v-444h-209z" />
    <glyph glyph-name="l" unicode="l" horiz-adv-x="505" 
d="M147 0v1477h211v-1477h-211z" />
    <glyph glyph-name="m" unicode="m" horiz-adv-x="1787" 
d="M147 0v956h211v-143q22 47 62 81.5t85 51t83 24t71 7.5q218 0 302 -191q104 191 321 191q177 0 273 -111t96 -315v-551h-211v532q0 111 -55 174.5t-148 63.5q-104 0 -167.5 -70t-63.5 -186v-514h-211v537q-1 109 -55 171t-140 62q-103 0 -172.5 -63t-69.5 -193v-514h-211
z" />
    <glyph glyph-name="n" unicode="n" horiz-adv-x="1153" 
d="M147 0v956h211v-143q39 78 122.5 121t170.5 43q174 0 269.5 -109t95.5 -311v-557h-211v532q0 113 -54 175.5t-147 62.5q-105 0 -175.5 -62.5t-70.5 -193.5v-514h-211z" />
    <glyph glyph-name="o" unicode="o" horiz-adv-x="1171" 
d="M86 481q0 147 68.5 261.5t181 174.5t248.5 60q137 0 250.5 -60t182 -174.5t68.5 -261.5t-68.5 -263t-182.5 -177t-250 -61q-135 0 -248 61t-181.5 177t-68.5 263zM295 481q0 -132 83.5 -214.5t205.5 -82.5q123 0 206.5 82.5t83.5 214.5q0 129 -83.5 209t-206.5 80
q-122 0 -205.5 -80t-83.5 -209z" />
    <glyph glyph-name="p" unicode="p" horiz-adv-x="1241" 
d="M147 -465v1421h211v-141q43 75 132 118.5t188 43.5q129 0 237 -61.5t173 -176.5t65 -262q0 -112 -38 -206t-103 -157.5t-151 -98.5t-183 -35q-102 0 -190 40.5t-130 116.5v-602h-211zM360 473q0 -90 43 -158t108 -100.5t140 -32.5q122 0 204.5 80.5t82.5 210.5
q0 132 -82.5 215.5t-204.5 83.5t-206.5 -82t-84.5 -217z" />
    <glyph glyph-name="q" unicode="q" horiz-adv-x="1241" 
d="M88 477q0 147 65 262t173 176.5t237 61.5q100 0 189 -43.5t131 -118.5v141h211v-1421h-211v602q-41 -76 -129.5 -116.5t-190.5 -40.5q-97 0 -183 35t-151 98.5t-103 157.5t-38 206zM305 473q0 -130 81.5 -210.5t203.5 -80.5q74 0 139 32.5t108.5 100.5t43.5 158
q0 135 -84 217t-207 82q-122 0 -203.5 -83.5t-81.5 -215.5z" />
    <glyph glyph-name="r" unicode="r" horiz-adv-x="817" 
d="M147 0v956h211v-219q69 240 263 240q50 0 98 -11t72 -26l-35 -195q-65 33 -142 33q-130 0 -193 -117t-63 -317v-344h-211z" />
    <glyph glyph-name="s" unicode="s" horiz-adv-x="909" 
d="M80 293h194q8 -63 57.5 -100t131.5 -37q74 0 122 30.5t48 83.5q0 43 -37.5 71.5t-95.5 41.5l-129 31q-149 40 -211.5 116.5t-53.5 194.5q9 105 109.5 178.5t233.5 73.5q66 0 124.5 -16t108 -48.5t80.5 -88.5t35 -130h-201q-6 51 -45.5 77t-93.5 26q-41 0 -81 -15t-54 -39
q-24 -41 -9 -86t117 -73l148 -37q74 -18 125.5 -50.5t77 -73t36 -78t10.5 -77.5q0 -135 -106 -211.5t-275 -76.5q-91 0 -172.5 35.5t-136.5 108.5t-57 169z" />
    <glyph glyph-name="t" unicode="t" horiz-adv-x="688" 
d="M51 782v174h172v363h211v-363h203v-174h-203v-782h-211v782h-172z" />
    <glyph glyph-name="u" unicode="u" horiz-adv-x="1150" 
d="M137 399v557h211v-532q0 -115 55 -177.5t144 -62.5q104 0 175 63t71 195v514h211v-956h-211v139q-39 -77 -120.5 -118t-164.5 -41q-176 0 -274 109t-97 310z" />
    <glyph glyph-name="v" unicode="v" horiz-adv-x="1046" 
d="M27 956h223l274 -688l271 688h225l-399 -956h-195z" />
    <glyph glyph-name="w" unicode="w" horiz-adv-x="1601" 
d="M31 956h225l221 -645l221 645h197l221 -645l223 645h226l-351 -956h-174l-243 678l-234 -678h-172z" />
    <glyph glyph-name="x" unicode="x" horiz-adv-x="1036" 
d="M18 0l379 522l-313 434h250l184 -264l184 264h250l-313 -434l377 -522h-248l-250 350l-254 -350h-246z" />
    <glyph glyph-name="y" unicode="y" horiz-adv-x="1038" 
d="M27 956h225l266 -655l268 655h226l-592 -1423h-221l207 512z" />
    <glyph glyph-name="z" unicode="z" horiz-adv-x="1032" 
d="M84 0v168l541 590h-508v198h815v-168l-549 -589h549v-199h-848z" />
    <glyph glyph-name="braceleft" unicode="{" horiz-adv-x="817" 
d="M74 401v152q49 0 87 36t38 81v356q-1 180 116 290.5t289 110.5h141v-157h-147q-87 0 -147 -64t-60 -157v-322q0 -86 -33.5 -155t-103.5 -95q37 -12 64.5 -38.5t42.5 -61.5t22.5 -72.5t7.5 -77.5v-305q0 -92 61 -159.5t146 -67.5h147v-160h-141q-171 0 -288 112t-117 292
v348q0 43 -38 78.5t-87 35.5z" />
    <glyph glyph-name="bar" unicode="|" horiz-adv-x="464" 
d="M166 -246v1878h133v-1878h-133z" />
    <glyph glyph-name="braceright" unicode="}" horiz-adv-x="817" 
d="M72 -305h147q85 0 146 67.5t61 159.5v305q0 40 7.5 77.5t22.5 72.5t42.5 61.5t64.5 38.5q-70 26 -103.5 95t-33.5 155v322q0 93 -60 157t-147 64h-147v157h141q172 0 289 -110.5t116 -290.5v-356q0 -45 38 -81t87 -36v-152q-49 0 -87 -35.5t-38 -78.5v-348
q0 -180 -117 -292t-288 -112h-141v160z" />
    <glyph glyph-name="exclamdown" unicode="&#xa1;" horiz-adv-x="509" 
d="M111 840q0 59 42.5 98t102.5 39q61 0 103 -39t42 -98q0 -60 -42.5 -100t-102.5 -40q-59 0 -102 40.5t-43 99.5zM139 -465l31 1045h168l29 -1045h-228z" />
    <glyph glyph-name="cent" unicode="&#xa2;" horiz-adv-x="1091" 
d="M98 481q0 194 117.5 326t296.5 162v217h133v-211q102 -6 191 -49t151 -115l-164 -131q-80 92 -215 92q-124 0 -212.5 -80.5t-88.5 -210.5t89 -214.5t212 -84.5q63 0 120 25t95 69l166 -129q-128 -149 -344 -165v-226h-133v232q-179 30 -296.5 164t-117.5 329z" />
    <glyph glyph-name="sterling" unicode="&#xa3;" horiz-adv-x="1316" 
d="M94 0v201h197v383h-160v125h160v245q0 217 112.5 345t311.5 128q177 0 297.5 -119t120.5 -319h-211q0 112 -65 171t-157 50q-82 -3 -141 -57.5t-59 -138.5v-305h293v-125h-293v-383h405q64 0 84 12q20 14 21 41v102h209v-104q0 -109 -57 -180.5t-156 -71.5h-912z" />
    <glyph glyph-name="currency" unicode="&#xa4;" horiz-adv-x="1257" 
d="M143 330l146 145q-66 97 -66 219q0 117 68 221l-148 146l121 119l146 -146q98 66 219 66q120 0 221 -66l143 146l119 -119l-143 -148q65 -100 65 -219q0 -127 -65 -219l143 -145l-119 -121l-143 147q-103 -67 -221 -67q-123 0 -221 67l-144 -147zM418 694
q0 -88 61.5 -149.5t149.5 -61.5t150.5 61.5t62.5 149.5t-62.5 150.5t-150.5 62.5t-149.5 -62.5t-61.5 -150.5z" />
    <glyph glyph-name="yen" unicode="&#xa5;" horiz-adv-x="1437" 
d="M68 1411h260l389 -561l393 561h260l-536 -758h356v-133h-363v-168h363v-133h-363v-219h-223v219h-356v133h356v168h-356v133h352z" />
    <glyph glyph-name="brokenbar" unicode="&#xa6;" horiz-adv-x="468" 
d="M168 -246v793h133v-793h-133zM168 838v794h133v-794h-133z" />
    <glyph glyph-name="section" unicode="&#xa7;" horiz-adv-x="1067" 
d="M129 -27l186 56q28 -74 85.5 -114t125.5 -40q91 0 154 58.5t63 152.5v379q0 97 -63 154t-156 57q-55 0 -108 -19v199q55 14 110 14q173 0 292.5 -111.5t119.5 -293.5v-379q0 -181 -119.5 -293t-292.5 -112q-135 0 -245 77.5t-152 214.5zM129 643v379q0 181 119.5 293
t292.5 112q135 0 245 -77.5t152 -214.5l-186 -56q-28 74 -85.5 114t-125.5 40q-91 0 -154 -58.5t-63 -152.5v-379q0 -97 63 -154t156 -57q55 0 108 19v-199q-55 -14 -110 -14q-173 0 -292.5 111.5t-119.5 293.5z" />
    <glyph glyph-name="dieresis" unicode="&#xa8;" horiz-adv-x="1105" 
d="M246 1274q0 54 38.5 89.5t94.5 35.5q53 0 91 -36t38 -89t-38 -90t-91 -37q-56 0 -94.5 36.5t-38.5 90.5zM596 1274q0 54 38.5 89.5t94.5 35.5q55 0 93 -36t38 -89q0 -54 -38.5 -90.5t-92.5 -36.5q-56 0 -94.5 36.5t-38.5 90.5z" />
    <glyph glyph-name="copyright" unicode="&#xa9;" horiz-adv-x="1652" 
d="M111 702q0 197 94.5 363.5t259 264t360.5 97.5q147 0 280 -57.5t228.5 -155t152 -231.5t56.5 -281q0 -196 -95.5 -362.5t-260.5 -263t-361 -96.5q-147 0 -279.5 57t-227.5 154t-151 230.5t-56 280.5zM236 702q0 -163 78 -300t213.5 -216.5t297.5 -79.5q122 0 231.5 47
t188 127t124.5 190t46 232t-46 232.5t-124.5 190.5t-188.5 127.5t-231 47.5q-162 0 -297.5 -80t-213.5 -217.5t-78 -300.5zM463 692q0 154 106.5 261.5t261.5 107.5q152 0 281 -135l-94 -97q-43 43 -93 69t-94 26q-96 0 -162.5 -68t-66.5 -164q0 -97 66.5 -165t162.5 -68
q93 0 191 98l92 -102q-60 -63 -134 -98t-149 -35q-155 0 -261.5 108t-106.5 262z" />
    <glyph glyph-name="ordfeminine" unicode="&#xaa;" horiz-adv-x="987" 
d="M115 1001q0 156 100 253.5t242 97.5q70 0 132.5 -29t94.5 -84v98h135v-673h-135v100q-31 -54 -94.5 -84.5t-132.5 -30.5q-142 0 -242 98t-100 254zM168 438v105h645v-105h-645zM256 1004q0 -96 60.5 -158t150.5 -62t153.5 60t63.5 160q0 98 -66 155.5t-151 57.5
q-91 0 -151 -59t-60 -154z" />
    <glyph glyph-name="guillemotleft" unicode="&#xab;" horiz-adv-x="1011" 
d="M92 477l283 424h178l-283 -424l283 -424h-178zM455 477l282 424h176l-282 -424l282 -424h-176z" />
    <glyph glyph-name="logicalnot" unicode="&#xac;" horiz-adv-x="1308" 
d="M150 547v194h1001v-508h-197v314h-804z" />
    <glyph glyph-name="registered" unicode="&#xae;" horiz-adv-x="1652" 
d="M111 702q0 197 94.5 363.5t259 264t360.5 97.5q147 0 280 -57.5t228.5 -155t152 -231.5t56.5 -281q0 -196 -95.5 -362.5t-260.5 -263t-361 -96.5q-147 0 -279.5 57t-227.5 154t-151 230.5t-56 280.5zM236 702q0 -163 78 -300t213.5 -216.5t297.5 -79.5q122 0 231.5 47
t188 127t124.5 190t46 232t-46 232.5t-124.5 190.5t-188.5 127.5t-231 47.5q-162 0 -297.5 -80t-213.5 -217.5t-78 -300.5zM580 338v723h280q112 0 173 -70.5t61 -167.5q0 -79 -39.5 -141.5t-118.5 -83.5l184 -260h-172l-180 250h-47v-250h-141zM721 727h135q45 0 71.5 28.5
t26.5 67.5q0 40 -26 69.5t-68 29.5h-139v-195z" />
    <glyph glyph-name="macron" unicode="&#xaf;" horiz-adv-x="1019" 
d="M246 1171v166h528v-166h-528z" />
    <glyph glyph-name="degree" unicode="&#xb0;" horiz-adv-x="755" 
d="M102 1137q0 112 81 193t194 81q114 0 195 -80.5t81 -193.5q0 -114 -81 -195.5t-195 -81.5q-113 0 -194 81.5t-81 195.5zM246 1137q0 -55 38.5 -94t92.5 -39q55 0 94 39t39 94q0 54 -39 92.5t-94 38.5q-54 0 -92.5 -38.5t-38.5 -92.5z" />
    <glyph glyph-name="plusminus" unicode="&#xb1;" horiz-adv-x="1105" 
d="M137 0v178h832v-178h-832zM137 575v185h322v293h186v-293h324v-185h-324v-296h-186v296h-322z" />
    <glyph glyph-name="uni00B2" unicode="&#xb2;" horiz-adv-x="649" 
d="M61 1466q17 102 88.5 164t169.5 62q107 0 180.5 -68t73.5 -172q0 -108 -86 -207q-47 -54 -200 -233h284v-129h-501v65l321 387q53 63 53 117q0 49 -36.5 81t-90.5 32q-52 0 -90 -34.5t-47 -92.5z" />
    <glyph glyph-name="uni00B3" unicode="&#xb3;" horiz-adv-x="653" 
d="M45 1038q13 7 55 30t54 30q19 -41 57 -70t82 -33q62 -5 109.5 31t50.5 88q2 51 -38 92.5t-104 40.5h-90v117h90q52 0 81 39t22 82q-5 36 -33 60t-68 24q-78 8 -127 -64q-7 6 -45 33t-49 37q34 56 97 87.5t137 27.5q99 -4 162.5 -69t60.5 -151q0 -48 -26 -91t-70 -66
q62 -23 98.5 -86t30.5 -129q-9 -101 -95.5 -167.5t-199.5 -58.5q-80 6 -144.5 51.5t-97.5 114.5z" />
    <glyph glyph-name="acute" unicode="&#xb4;" horiz-adv-x="1069" 
d="M264 1106l205 324h238l-258 -324h-185z" />
    <glyph glyph-name="uni00B5" unicode="&#xb5;" horiz-adv-x="1144" 
d="M164 -334v1290h211v-542q0 -108 50 -168t134 -60q47 0 89 14.5t78 43t57.5 79.5t21.5 117v516h211v-956h-211v121q-40 -68 -115 -103.5t-151 -35.5q-120 0 -179 59l9 -246v-129h-205z" />
    <glyph glyph-name="paragraph" unicode="&#xb6;" horiz-adv-x="1366" 
d="M72 967q0 185 129 314.5t315 129.5h160v-1391q0 -13 1.5 -34t1.5 -31t-3 -24t-11.5 -20.5t-25 -11.5t-41.5 -5h-102v628q-176 11 -300 139.5t-124 305.5zM494 -217h196q42 0 74.5 28t32.5 66v1534h213q115 0 197.5 -83.5t82.5 -197.5v-174h-174v170q0 42 -26.5 73.5
t-65.5 31.5h-49v-1331q0 -106 -84.5 -191.5t-196.5 -89.5h-22h-178v164z" />
    <glyph glyph-name="periodcentered" unicode="&#xb7;" horiz-adv-x="561" 
d="M135 563q0 59 42.5 99t101.5 40q61 0 104 -40t43 -99t-43 -99t-104 -40q-59 0 -101.5 40t-42.5 99z" />
    <glyph glyph-name="cedilla" unicode="&#xb8;" horiz-adv-x="1073" 
d="M328 -172l137 -8q-2 -29 6 -47q12 -29 39 -41t57 -4q30 13 40 42.5t-1 59.5l-90 250h109l104 -193q16 -35 16 -90q0 -80 -60 -143.5t-150 -63.5q-83 0 -145 67t-62 171z" />
    <glyph glyph-name="uni00B9" unicode="&#xb9;" horiz-adv-x="428" 
d="M49 1423v123l270 144v-807h-133v608z" />
    <glyph glyph-name="ordmasculine" unicode="&#xba;" horiz-adv-x="970" 
d="M129 1004q0 154 102.5 251t249.5 97t250 -97t103 -251q0 -156 -103.5 -255.5t-249.5 -99.5t-249 99.5t-103 255.5zM154 438v105h669v-105h-669zM266 1004q0 -98 62 -159t153 -61q90 0 152.5 61.5t62.5 158.5q0 95 -62.5 154t-152.5 59q-91 0 -153 -59t-62 -154z" />
    <glyph glyph-name="guillemotright" unicode="&#xbb;" horiz-adv-x="1011" 
d="M98 53l283 424l-283 424h176l283 -424l-283 -424h-176zM459 53l282 424l-282 424h178l283 -424l-283 -424h-178z" />
    <glyph glyph-name="onequarter" unicode="&#xbc;" horiz-adv-x="1538" 
d="M88 1081v123l270 144v-807h-133v608zM197 -20l923 1388h146l-924 -1388h-145zM809 164l426 635h111v-514h110v-121h-110v-164h-134v164h-403zM1022 285h190v293z" />
    <glyph glyph-name="onehalf" unicode="&#xbd;" horiz-adv-x="1638" 
d="M88 1081v123l270 144v-807h-133v608zM197 -20l923 1388h146l-924 -1388h-145zM1026 584q17 102 88.5 163.5t169.5 61.5q107 0 180.5 -68t73.5 -172q0 -108 -86 -207q-35 -40 -67.5 -78t-60.5 -70t-73 -85h285v-129h-502v66l322 387q53 63 53 116q0 49 -36.5 81t-90.5 32
q-52 0 -90 -34.5t-47 -92.5z" />
    <glyph glyph-name="threequarters" unicode="&#xbe;" horiz-adv-x="1658" 
d="M84 692q31 16 113 62q18 -38 62 -64t87 -28q57 -2 96.5 29.5t42.5 82.5q2 50 -30 89.5t-93 39.5h-106v123h94q40 0 64.5 26t31.5 58q5 45 -23.5 78t-82.5 33q-65 0 -113 -66q-11 9 -50 38t-50 38q34 58 99 90.5t139 28.5q99 -4 164 -70t63 -154q0 -90 -88 -155
q56 -26 88 -77.5t31 -123.5q-3 -111 -86 -176.5t-199 -63.5q-76 2 -149 47.5t-105 114.5zM324 -20l923 1388h146l-924 -1388h-145zM930 164l426 635h110v-514h111v-121h-111v-164h-133v164h-403zM1143 285h190v293z" />
    <glyph glyph-name="questiondown" unicode="&#xbf;" horiz-adv-x="974" 
d="M68 -70q0 143 82 245.5t208 141.5q69 21 102.5 54.5t33.5 101.5l4 105h204v-105q0 -68 -12.5 -117t-32.5 -78.5t-55 -55t-67.5 -41t-84 -43t-92.5 -54.5q-39 -27 -60.5 -69t-21.5 -85q0 -84 64 -137t152 -53q86 0 146 60.5t60 158.5h203q0 -192 -117.5 -310t-291.5 -118
q-116 0 -212 47.5t-154 139.5t-58 212zM453 840q0 59 42 98t103 39q60 0 102.5 -39t42.5 -98t-43 -99.5t-102 -40.5q-60 0 -102.5 40t-42.5 100z" />
    <glyph glyph-name="Agrave" unicode="&#xc0;" horiz-adv-x="1325" 
d="M12 0l533 1411h235l533 -1411h-230l-135 352h-569l-135 -352h-232zM319 1884h238l205 -323h-184zM453 547h421l-210 592z" />
    <glyph glyph-name="Aacute" unicode="&#xc1;" horiz-adv-x="1325" 
d="M12 0l533 1411h235l533 -1411h-230l-135 352h-569l-135 -352h-232zM453 547h421l-210 592zM567 1561l205 323h238l-258 -323h-185z" />
    <glyph glyph-name="Acircumflex" unicode="&#xc2;" horiz-adv-x="1325" 
d="M12 0l533 1411h235l533 -1411h-230l-135 352h-569l-135 -352h-232zM330 1563l225 323h213l225 -323h-178l-156 180l-153 -180h-176zM453 547h421l-210 592z" />
    <glyph glyph-name="Atilde" unicode="&#xc3;" horiz-adv-x="1325" 
d="M12 0l533 1411h235l533 -1411h-230l-135 352h-569l-135 -352h-232zM383 1591q7 128 61.5 187t126.5 59q32 0 61 -13t46.5 -29t37.5 -29t36 -13q20 0 38 20t19 64h131q-7 -126 -62 -183t-126 -57q-39 0 -73.5 21t-61.5 42t-46 21t-36.5 -22t-18.5 -68h-133zM453 547h421
l-210 592z" />
    <glyph glyph-name="Adieresis" unicode="&#xc4;" horiz-adv-x="1325" 
d="M12 0l533 1411h235l533 -1411h-230l-135 352h-569l-135 -352h-232zM354 1729q0 53 38.5 88.5t94.5 35.5q53 0 91 -35.5t38 -88.5t-38 -90t-91 -37q-56 0 -94.5 36.5t-38.5 90.5zM453 547h421l-210 592zM705 1729q0 53 38.5 88.5t94.5 35.5q55 0 93 -35.5t38 -88.5
q0 -54 -38.5 -90.5t-92.5 -36.5q-56 0 -94.5 36.5t-38.5 90.5z" />
    <glyph glyph-name="Aring" unicode="&#xc5;" horiz-adv-x="1325" 
d="M12 0l533 1411h235l533 -1411h-230l-135 352h-569l-135 -352h-232zM438 1761q0 96 64 162t157 66q96 0 162 -66t66 -162q0 -92 -66.5 -156.5t-161.5 -64.5q-92 0 -156.5 64.5t-64.5 156.5zM453 547h421l-210 592zM553 1761q0 -43 31 -74.5t75 -31.5q46 0 79.5 31.5
t33.5 74.5q0 47 -33.5 80t-79.5 33q-44 0 -75 -33t-31 -80z" />
    <glyph glyph-name="AE" unicode="&#xc6;" horiz-adv-x="1906" 
d="M-14 0l891 1411h903v-207h-629v-407h551v-207h-551v-383h651l2 -207h-870v346h-471l-221 -346h-256zM590 555h344v557z" />
    <glyph glyph-name="Ccedilla" unicode="&#xc7;" horiz-adv-x="1402" 
d="M98 702q0 198 94.5 364.5t258.5 263.5t360 97q166 0 308 -67t237 -186l-168 -132q-72 82 -169 129.5t-208 47.5q-209 0 -352.5 -151t-143.5 -366q0 -141 65 -259t179 -186.5t252 -68.5q115 0 214.5 49.5t166.5 135.5l168 -133q-88 -112 -215.5 -180t-280.5 -78l51 -95
q17 -38 17 -90q0 -80 -60.5 -143.5t-150.5 -63.5q-83 0 -145 67t-62 171l137 -8q-2 -29 6 -47q12 -29 39.5 -41t57.5 -4q30 13 40 42.5t-1 59.5l-56 154q-180 17 -326.5 116.5t-229.5 258t-83 343.5z" />
    <glyph glyph-name="Egrave" unicode="&#xc8;" horiz-adv-x="1161" 
d="M184 0v1411h850v-201h-633v-417h553v-199h-553v-395h654v-199h-871zM326 1884h237l205 -323h-184z" />
    <glyph glyph-name="Eacute" unicode="&#xc9;" horiz-adv-x="1161" 
d="M184 0v1411h850v-201h-633v-417h553v-199h-553v-395h654v-199h-871zM442 1561l205 323h238l-258 -323h-185z" />
    <glyph glyph-name="Ecircumflex" unicode="&#xca;" horiz-adv-x="1161" 
d="M184 0v1411h850v-201h-633v-417h553v-199h-553v-395h654v-199h-871zM246 1563l225 323h213l225 -323h-178l-156 180l-153 -180h-176z" />
    <glyph glyph-name="Edieresis" unicode="&#xcb;" horiz-adv-x="1161" 
d="M184 0v1411h850v-201h-633v-417h553v-199h-553v-395h654v-199h-871zM291 1729q0 53 38.5 88.5t94.5 35.5q53 0 91 -35.5t38 -88.5t-38 -90t-91 -37q-56 0 -94.5 36.5t-38.5 90.5zM641 1729q0 53 38.5 88.5t94.5 35.5q55 0 93 -35.5t38 -88.5q0 -54 -38.5 -90.5
t-92.5 -36.5q-56 0 -94.5 36.5t-38.5 90.5z" />
    <glyph glyph-name="Igrave" unicode="&#xcc;" horiz-adv-x="585" 
d="M-53 1884h237l205 -323h-184zM184 0v1411h217v-1411h-217z" />
    <glyph glyph-name="Iacute" unicode="&#xcd;" horiz-adv-x="585" 
d="M184 0v1411h217v-1411h-217zM190 1561l205 323h238l-258 -323h-185z" />
    <glyph glyph-name="Icircumflex" unicode="&#xce;" horiz-adv-x="585" 
d="M-39 1563l225 323h213l226 -323h-179l-155 180l-154 -180h-176zM184 0v1411h217v-1411h-217z" />
    <glyph glyph-name="Idieresis" unicode="&#xcf;" horiz-adv-x="585" 
d="M-14 1729q0 53 38.5 88.5t94.5 35.5q53 0 91 -35.5t38 -88.5t-38 -90t-91 -37q-56 0 -94.5 36.5t-38.5 90.5zM184 0v1411h217v-1411h-217zM336 1729q0 53 38.5 88.5t94.5 35.5q55 0 93 -35.5t38 -88.5q0 -54 -38.5 -90.5t-92.5 -36.5q-56 0 -94.5 36.5t-38.5 90.5z" />
    <glyph glyph-name="Eth" unicode="&#xd0;" horiz-adv-x="1480" 
d="M12 623v155h191v633h542q148 0 268 -54.5t199 -150t121.5 -224.5t42.5 -280q0 -201 -72.5 -358.5t-217.5 -250.5t-341 -93h-542v623h-191zM422 209h323q133 0 228 65.5t140.5 175.5t45.5 252t-45.5 253.5t-140.5 179t-228 67.5h-323v-424h315v-155h-315v-414z" />
    <glyph glyph-name="Ntilde" unicode="&#xd1;" horiz-adv-x="1394" 
d="M184 0v1411h209l600 -1001v1001h217v-1411h-202l-607 1010v-1010h-217zM418 1591q7 128 61.5 187t126.5 59q40 0 74.5 -21t60.5 -42t45 -21q20 0 38.5 20t19.5 64h131q-7 -126 -62.5 -183t-126.5 -57q-30 0 -59 13t-46.5 29t-38 29t-36.5 13q-19 0 -36.5 -22t-18.5 -68
h-133z" />
    <glyph glyph-name="Ograve" unicode="&#xd2;" horiz-adv-x="1622" 
d="M96 702q0 198 94 364.5t258 263.5t361 97q198 0 363 -97t259.5 -263.5t94.5 -364.5q0 -147 -56 -280.5t-151 -230.5t-228.5 -154t-281.5 -57t-280.5 57t-227 154t-150 230.5t-55.5 280.5zM313 702q0 -140 65.5 -256.5t179.5 -184.5t251 -68q138 0 252.5 68t180 184.5
t65.5 256.5t-65.5 257.5t-180 186t-252.5 68.5q-208 0 -352 -149.5t-144 -362.5zM457 1884h237l205 -323h-184z" />
    <glyph glyph-name="Oacute" unicode="&#xd3;" horiz-adv-x="1622" 
d="M96 702q0 198 94 364.5t258 263.5t361 97q198 0 363 -97t259.5 -263.5t94.5 -364.5q0 -147 -56 -280.5t-151 -230.5t-228.5 -154t-281.5 -57t-280.5 57t-227 154t-150 230.5t-55.5 280.5zM313 702q0 -140 65.5 -256.5t179.5 -184.5t251 -68q138 0 252.5 68t180 184.5
t65.5 256.5t-65.5 257.5t-180 186t-252.5 68.5q-208 0 -352 -149.5t-144 -362.5zM713 1561l205 323h237l-258 -323h-184z" />
    <glyph glyph-name="Ocircumflex" unicode="&#xd4;" horiz-adv-x="1622" 
d="M96 702q0 198 94 364.5t258 263.5t361 97q198 0 363 -97t259.5 -263.5t94.5 -364.5q0 -147 -56 -280.5t-151 -230.5t-228.5 -154t-281.5 -57t-280.5 57t-227 154t-150 230.5t-55.5 280.5zM313 702q0 -140 65.5 -256.5t179.5 -184.5t251 -68q138 0 252.5 68t180 184.5
t65.5 256.5t-65.5 257.5t-180 186t-252.5 68.5q-208 0 -352 -149.5t-144 -362.5zM479 1563l226 323h213l225 -323h-178l-156 180l-154 -180h-176z" />
    <glyph glyph-name="Otilde" unicode="&#xd5;" horiz-adv-x="1622" 
d="M96 702q0 198 94 364.5t258 263.5t361 97q198 0 363 -97t259.5 -263.5t94.5 -364.5q0 -147 -56 -280.5t-151 -230.5t-228.5 -154t-281.5 -57t-280.5 57t-227 154t-150 230.5t-55.5 280.5zM313 702q0 -140 65.5 -256.5t179.5 -184.5t251 -68q138 0 252.5 68t180 184.5
t65.5 256.5t-65.5 257.5t-180 186t-252.5 68.5q-208 0 -352 -149.5t-144 -362.5zM532 1591q7 128 62 187t127 59q40 0 74.5 -21t60.5 -42t45 -21q20 0 38 20t19 64h132q-7 -126 -62.5 -183t-126.5 -57q-30 0 -59 13t-46.5 29t-38 29t-36.5 13q-19 0 -36.5 -22t-18.5 -68
h-134z" />
    <glyph glyph-name="Odieresis" unicode="&#xd6;" horiz-adv-x="1622" 
d="M96 702q0 198 94 364.5t258 263.5t361 97q198 0 363 -97t259.5 -263.5t94.5 -364.5q0 -147 -56 -280.5t-151 -230.5t-228.5 -154t-281.5 -57t-280.5 57t-227 154t-150 230.5t-55.5 280.5zM313 702q0 -140 65.5 -256.5t179.5 -184.5t251 -68q138 0 252.5 68t180 184.5
t65.5 256.5t-65.5 257.5t-180 186t-252.5 68.5q-208 0 -352 -149.5t-144 -362.5zM504 1729q0 53 38.5 88.5t94.5 35.5q53 0 91 -35.5t38 -88.5t-38 -90t-91 -37q-56 0 -94.5 36.5t-38.5 90.5zM854 1729q0 53 38.5 88.5t94.5 35.5q55 0 93 -35.5t38 -88.5q0 -54 -38.5 -90.5
t-92.5 -36.5q-56 0 -94.5 36.5t-38.5 90.5z" />
    <glyph glyph-name="multiply" unicode="&#xd7;" horiz-adv-x="1013" 
d="M127 301l252 250l-252 250l131 129l250 -248l252 252l129 -133l-250 -250l250 -250l-129 -133l-252 252l-248 -248z" />
    <glyph glyph-name="Oslash" unicode="&#xd8;" horiz-adv-x="1617" 
d="M94 702q0 198 94 364.5t258 263.5t361 97q260 0 459 -165l161 165l97 -94l-164 -168q164 -204 164 -463q0 -147 -56 -280.5t-151 -230.5t-228.5 -154t-281.5 -57q-205 0 -375 106q-33 18 -72 49l-163 -168l-97 96l164 168q-170 204 -170 471zM311 702q0 -174 103 -315
l700 719q-130 108 -307 108q-208 0 -352 -149.5t-144 -362.5zM510 291q128 -98 297 -98q138 0 252.5 68t180 184.5t65.5 256.5q0 170 -99 306z" />
    <glyph glyph-name="Ugrave" unicode="&#xd9;" horiz-adv-x="1386" 
d="M170 489v922h221v-922q0 -133 89 -217t214 -84t214 84t89 217v922h220v-922q0 -150 -72.5 -267.5t-191 -179.5t-259.5 -62q-142 0 -261 62t-191 179.5t-72 267.5zM373 1884h237l205 -323h-184z" />
    <glyph glyph-name="Uacute" unicode="&#xda;" horiz-adv-x="1386" 
d="M170 489v922h221v-922q0 -133 89 -217t214 -84t214 84t89 217v922h220v-922q0 -150 -72.5 -267.5t-191 -179.5t-259.5 -62q-142 0 -261 62t-191 179.5t-72 267.5zM555 1561l205 323h237l-258 -323h-184z" />
    <glyph glyph-name="Ucircumflex" unicode="&#xdb;" horiz-adv-x="1386" 
d="M170 489v922h221v-922q0 -133 89 -217t214 -84t214 84t89 217v922h220v-922q0 -150 -72.5 -267.5t-191 -179.5t-259.5 -62q-142 0 -261 62t-191 179.5t-72 267.5zM360 1563l226 323h213l225 -323h-178l-156 180l-153 -180h-177z" />
    <glyph glyph-name="Udieresis" unicode="&#xdc;" horiz-adv-x="1386" 
d="M170 489v922h221v-922q0 -133 89 -217t214 -84t214 84t89 217v922h220v-922q0 -150 -72.5 -267.5t-191 -179.5t-259.5 -62q-142 0 -261 62t-191 179.5t-72 267.5zM385 1729q0 53 38.5 88.5t94.5 35.5q53 0 91 -35.5t38 -88.5t-38 -90t-91 -37q-56 0 -94.5 36.5
t-38.5 90.5zM735 1729q0 53 38.5 88.5t94.5 35.5q55 0 93 -35.5t38 -88.5q0 -54 -38.5 -90.5t-92.5 -36.5q-56 0 -94.5 36.5t-38.5 90.5z" />
    <glyph glyph-name="Yacute" unicode="&#xdd;" horiz-adv-x="1298" 
d="M0 1411h260l389 -561l393 561h261l-543 -766v-645h-223v647zM512 1561l205 323h237l-258 -323h-184z" />
    <glyph glyph-name="Thorn" unicode="&#xde;" horiz-adv-x="1171" 
d="M184 0v1411h217v-246h267q187 0 312.5 -121.5t125.5 -318.5q0 -200 -125.5 -324.5t-312.5 -124.5h-267v-276h-217zM401 477h263q94 0 159.5 69t65.5 177q0 109 -68.5 174t-169.5 70h-250v-490z" />
    <glyph glyph-name="germandbls" unicode="&#xdf;" horiz-adv-x="1157" 
d="M147 0v1004q0 198 113.5 310.5t294.5 112.5q172 0 289 -98.5t117 -249.5q0 -85 -33 -141.5t-97 -103.5q104 -51 172 -157.5t68 -230.5q0 -198 -131.5 -332t-339.5 -134q-79 -3 -168 26l14 199q85 -27 152 -27q116 0 194 82t78 191q0 65 -33.5 126.5t-97.5 102.5t-143 41
h-72v176h64q72 0 122 51t50 121t-54 114t-137 46q-102 0 -160.5 -72.5t-58.5 -175.5v-981h-203z" />
    <glyph glyph-name="agrave" unicode="&#xe0;" horiz-adv-x="1249" 
d="M86 479q0 148 67.5 263t177.5 175t240 60q95 0 185.5 -39.5t136.5 -116.5v135h209v-956h-209v137q-45 -74 -136 -115.5t-186 -41.5q-97 0 -185 35.5t-154.5 99t-106 158.5t-39.5 206zM303 481q0 -130 85.5 -213.5t207.5 -83.5q123 0 209 80.5t86 216.5q0 133 -89.5 212
t-205.5 79q-123 0 -208 -81t-85 -210zM326 1430h237l205 -324h-184z" />
    <glyph glyph-name="aacute" unicode="&#xe1;" horiz-adv-x="1249" 
d="M86 479q0 148 67.5 263t177.5 175t240 60q95 0 185.5 -39.5t136.5 -116.5v135h209v-956h-209v137q-45 -74 -136 -115.5t-186 -41.5q-97 0 -185 35.5t-154.5 99t-106 158.5t-39.5 206zM303 481q0 -130 85.5 -213.5t207.5 -83.5q123 0 209 80.5t86 216.5q0 133 -89.5 212
t-205.5 79q-123 0 -208 -81t-85 -210zM477 1106l205 324h238l-258 -324h-185z" />
    <glyph glyph-name="acircumflex" unicode="&#xe2;" horiz-adv-x="1249" 
d="M86 479q0 148 67.5 263t177.5 175t240 60q95 0 185.5 -39.5t136.5 -116.5v135h209v-956h-209v137q-45 -74 -136 -115.5t-186 -41.5q-97 0 -185 35.5t-154.5 99t-106 158.5t-39.5 206zM293 1108l225 324h213l225 -324h-178l-155 180l-154 -180h-176zM303 481
q0 -130 85.5 -213.5t207.5 -83.5q123 0 209 80.5t86 216.5q0 133 -89.5 212t-205.5 79q-123 0 -208 -81t-85 -210z" />
    <glyph glyph-name="atilde" unicode="&#xe3;" horiz-adv-x="1249" 
d="M86 479q0 148 67.5 263t177.5 175t240 60q95 0 185.5 -39.5t136.5 -116.5v135h209v-956h-209v137q-45 -74 -136 -115.5t-186 -41.5q-97 0 -185 35.5t-154.5 99t-106 158.5t-39.5 206zM303 481q0 -130 85.5 -213.5t207.5 -83.5q123 0 209 80.5t86 216.5q0 133 -89.5 212
t-205.5 79q-123 0 -208 -81t-85 -210zM346 1137q7 128 62 186.5t127 58.5q40 0 74.5 -21t60.5 -42t45 -21q20 0 38 20t19 64h131q-7 -126 -62 -182.5t-126 -56.5q-30 0 -59 13t-46.5 29t-38 29t-36.5 13q-19 0 -37 -22t-19 -68h-133z" />
    <glyph glyph-name="adieresis" unicode="&#xe4;" horiz-adv-x="1249" 
d="M86 479q0 148 67.5 263t177.5 175t240 60q95 0 185.5 -39.5t136.5 -116.5v135h209v-956h-209v137q-45 -74 -136 -115.5t-186 -41.5q-97 0 -185 35.5t-154.5 99t-106 158.5t-39.5 206zM303 481q0 -130 85.5 -213.5t207.5 -83.5q123 0 209 80.5t86 216.5q0 133 -89.5 212
t-205.5 79q-123 0 -208 -81t-85 -210zM317 1274q0 53 39 89t95 36q53 0 91 -36t38 -89t-38 -90t-91 -37q-56 0 -95 36.5t-39 90.5zM668 1274q0 54 38.5 89.5t94.5 35.5q55 0 93 -36t38 -89q0 -54 -38.5 -90.5t-92.5 -36.5q-56 0 -94.5 36.5t-38.5 90.5z" />
    <glyph glyph-name="aring" unicode="&#xe5;" horiz-adv-x="1249" 
d="M86 479q0 148 67.5 263t177.5 175t240 60q95 0 185.5 -39.5t136.5 -116.5v135h209v-956h-209v137q-45 -74 -136 -115.5t-186 -41.5q-97 0 -185 35.5t-154.5 99t-106 158.5t-39.5 206zM303 481q0 -130 85.5 -213.5t207.5 -83.5q123 0 209 80.5t86 216.5q0 133 -89.5 212
t-205.5 79q-123 0 -208 -81t-85 -210zM399 1307q0 96 64.5 161.5t157.5 65.5q96 0 161.5 -65.5t65.5 -161.5q0 -92 -66 -157t-161 -65q-92 0 -157 65t-65 157zM514 1307q0 -43 31.5 -75t75.5 -32q46 0 79 32t33 75q0 47 -33 79.5t-79 32.5q-44 0 -75.5 -32.5t-31.5 -79.5z
" />
    <glyph glyph-name="ae" unicode="&#xe6;" horiz-adv-x="1984" 
d="M86 479q0 148 67.5 263t177.5 175t240 60q95 0 185.5 -39.5t136.5 -116.5v135h203v-106q64 61 150.5 94t183.5 33q101 0 189.5 -35.5t152.5 -99t100.5 -157t36.5 -204.5q0 -38 -4 -78h-758q15 -110 95 -174.5t198 -64.5q82 0 153 36.5t107 100.5q29 -14 89 -40t83 -36
q-60 -121 -180 -183t-262 -62q-202 0 -334 129v-109h-203v137q-45 -74 -136 -115.5t-186 -41.5q-97 0 -185 35.5t-154.5 99t-106 158.5t-39.5 206zM303 481q0 -130 85.5 -213.5t207.5 -83.5q123 0 209 80.5t86 216.5q0 133 -89.5 212t-205.5 79q-123 0 -208 -81t-85 -210z
M1147 557h553q-13 109 -87 172.5t-183 63.5q-112 0 -190 -63.5t-93 -172.5z" />
    <glyph glyph-name="ccedilla" unicode="&#xe7;" horiz-adv-x="1054" 
d="M88 481q0 147 70.5 261.5t186 174.5t253.5 60q114 0 213 -43.5t166 -122.5l-164 -131q-80 92 -215 92q-124 0 -212.5 -80.5t-88.5 -210.5t89 -214.5t212 -84.5q63 0 120 25t95 69l166 -129q-120 -141 -322 -163l54 -97q16 -29 16 -90q0 -80 -60.5 -143.5t-150.5 -63.5
q-83 0 -145 67t-62 171l137 -8q-1 -29 7 -47q12 -29 39 -41t57 -4q30 13 40 42.5t-1 59.5l-56 154q-190 22 -317 157.5t-127 339.5z" />
    <glyph glyph-name="egrave" unicode="&#xe8;" horiz-adv-x="1132" 
d="M86 481q0 222 141.5 359t350.5 137q101 0 189.5 -35.5t152.5 -99t100.5 -157t36.5 -204.5q0 -58 -2 -78h-760q15 -109 95.5 -174t197.5 -65q82 0 153 36.5t107 100.5q29 -14 89 -40t83 -36q-60 -121 -180 -183t-262 -62q-136 0 -247.5 61t-178 176.5t-66.5 263.5z
M248 1430h237l205 -324h-184zM295 557h555q-15 111 -89 173.5t-183 62.5q-112 0 -190 -63.5t-93 -172.5z" />
    <glyph glyph-name="eacute" unicode="&#xe9;" horiz-adv-x="1132" 
d="M86 481q0 222 141.5 359t350.5 137q101 0 189.5 -35.5t152.5 -99t100.5 -157t36.5 -204.5q0 -58 -2 -78h-760q15 -109 95.5 -174t197.5 -65q82 0 153 36.5t107 100.5q29 -14 89 -40t83 -36q-60 -121 -180 -183t-262 -62q-136 0 -247.5 61t-178 176.5t-66.5 263.5z
M295 557h555q-15 111 -89 173.5t-183 62.5q-112 0 -190 -63.5t-93 -172.5zM444 1106l205 324h238l-258 -324h-185z" />
    <glyph glyph-name="ecircumflex" unicode="&#xea;" horiz-adv-x="1132" 
d="M86 481q0 222 141.5 359t350.5 137q101 0 189.5 -35.5t152.5 -99t100.5 -157t36.5 -204.5q0 -58 -2 -78h-760q15 -109 95.5 -174t197.5 -65q82 0 153 36.5t107 100.5q29 -14 89 -40t83 -36q-60 -121 -180 -183t-262 -62q-136 0 -247.5 61t-178 176.5t-66.5 263.5z
M240 1108l225 324h213l225 -324h-178l-156 180l-153 -180h-176zM295 557h555q-15 111 -89 173.5t-183 62.5q-112 0 -190 -63.5t-93 -172.5z" />
    <glyph glyph-name="edieresis" unicode="&#xeb;" horiz-adv-x="1132" 
d="M86 481q0 222 141.5 359t350.5 137q101 0 189.5 -35.5t152.5 -99t100.5 -157t36.5 -204.5q0 -58 -2 -78h-760q15 -109 95.5 -174t197.5 -65q82 0 153 36.5t107 100.5q29 -14 89 -40t83 -36q-60 -121 -180 -183t-262 -62q-136 0 -247.5 61t-178 176.5t-66.5 263.5z
M264 1274q0 54 38.5 89.5t94.5 35.5q53 0 91 -36t38 -89t-38 -90t-91 -37q-56 0 -94.5 36.5t-38.5 90.5zM295 557h555q-15 111 -89 173.5t-183 62.5q-112 0 -190 -63.5t-93 -172.5zM614 1274q0 53 39 89t95 36q55 0 93 -36t38 -89q0 -54 -38.5 -90.5t-92.5 -36.5
q-56 0 -95 36.5t-39 90.5z" />
    <glyph glyph-name="igrave" unicode="&#xec;" horiz-adv-x="503" 
d="M-92 1430h237l205 -324h-184zM147 0v956h209v-956h-209z" />
    <glyph glyph-name="iacute" unicode="&#xed;" horiz-adv-x="503" 
d="M147 0v956h209v-956h-209zM154 1106l204 324h238l-258 -324h-184z" />
    <glyph glyph-name="icircumflex" unicode="&#xee;" horiz-adv-x="503" 
d="M-100 1108l225 324h213l225 -324h-178l-156 180l-153 -180h-176zM147 0v956h209v-956h-209z" />
    <glyph glyph-name="idieresis" unicode="&#xef;" horiz-adv-x="503" 
d="M-76 1274q0 54 38.5 89.5t94.5 35.5q53 0 91 -36t38 -89t-38 -90t-91 -37q-56 0 -94.5 36.5t-38.5 90.5zM147 0v956h209v-956h-209zM274 1274q0 53 39 89t95 36q55 0 93 -36t38 -89q0 -54 -38.5 -90.5t-92.5 -36.5q-56 0 -95 36.5t-39 90.5z" />
    <glyph glyph-name="eth" unicode="&#xf0;" horiz-adv-x="1171" 
d="M86 481q0 106 38 198.5t101.5 156t148.5 99.5t177 36q43 0 80 -15l-144 164l-174 -100l-63 96l164 96l-154 199h229l84 -104l144 79l74 -86l-142 -86l340 -434q94 -131 94 -299q0 -147 -67.5 -262.5t-180.5 -177t-249 -61.5t-249.5 61.5t-182 177t-68.5 262.5zM289 481
q0 -132 86 -215.5t211 -83.5q123 0 210 83.5t87 215.5q0 131 -86.5 212t-210.5 81q-125 0 -211 -80.5t-86 -212.5z" />
    <glyph glyph-name="ntilde" unicode="&#xf1;" horiz-adv-x="1153" 
d="M147 0v956h211v-143q39 78 122.5 121t170.5 43q174 0 269.5 -109t95.5 -311v-557h-211v532q0 113 -54 175.5t-147 62.5q-105 0 -175.5 -62.5t-70.5 -193.5v-514h-211zM303 1137q7 128 62 186.5t127 58.5q40 0 74.5 -21t60.5 -42t45 -21q20 0 38 20t19 64h131
q-7 -126 -62 -182.5t-126 -56.5q-30 0 -59 13t-46.5 29t-38 29t-36.5 13q-19 0 -37 -22t-19 -68h-133z" />
    <glyph glyph-name="ograve" unicode="&#xf2;" horiz-adv-x="1171" 
d="M86 481q0 147 68.5 261.5t181 174.5t248.5 60q137 0 250.5 -60t182 -174.5t68.5 -261.5t-68.5 -263t-182.5 -177t-250 -61q-135 0 -248 61t-181.5 177t-68.5 263zM223 1430h238l205 -324h-185zM295 481q0 -132 83.5 -214.5t205.5 -82.5q123 0 206.5 82.5t83.5 214.5
q0 129 -83.5 209t-206.5 80q-122 0 -205.5 -80t-83.5 -209z" />
    <glyph glyph-name="oacute" unicode="&#xf3;" horiz-adv-x="1171" 
d="M86 481q0 147 68.5 261.5t181 174.5t248.5 60q137 0 250.5 -60t182 -174.5t68.5 -261.5t-68.5 -263t-182.5 -177t-250 -61q-135 0 -248 61t-181.5 177t-68.5 263zM295 481q0 -132 83.5 -214.5t205.5 -82.5q123 0 206.5 82.5t83.5 214.5q0 129 -83.5 209t-206.5 80
q-122 0 -205.5 -80t-83.5 -209zM485 1106l205 324h238l-258 -324h-185z" />
    <glyph glyph-name="ocircumflex" unicode="&#xf4;" horiz-adv-x="1171" 
d="M86 481q0 147 68.5 261.5t181 174.5t248.5 60q137 0 250.5 -60t182 -174.5t68.5 -261.5t-68.5 -263t-182.5 -177t-250 -61q-135 0 -248 61t-181.5 177t-68.5 263zM254 1108l225 324h213l226 -324h-179l-155 180l-154 -180h-176zM295 481q0 -132 83.5 -214.5t205.5 -82.5
q123 0 206.5 82.5t83.5 214.5q0 129 -83.5 209t-206.5 80q-122 0 -205.5 -80t-83.5 -209z" />
    <glyph glyph-name="otilde" unicode="&#xf5;" horiz-adv-x="1171" 
d="M86 481q0 147 68.5 261.5t181 174.5t248.5 60q137 0 250.5 -60t182 -174.5t68.5 -261.5t-68.5 -263t-182.5 -177t-250 -61q-135 0 -248 61t-181.5 177t-68.5 263zM295 481q0 -132 83.5 -214.5t205.5 -82.5q123 0 206.5 82.5t83.5 214.5q0 129 -83.5 209t-206.5 80
q-122 0 -205.5 -80t-83.5 -209zM307 1137q7 128 62 186.5t127 58.5q40 0 74.5 -21t60.5 -42t45 -21q20 0 38 20t19 64h131q-7 -126 -62 -182.5t-126 -56.5q-30 0 -59 13t-46.5 29t-38 29t-36.5 13q-19 0 -37 -22t-19 -68h-133z" />
    <glyph glyph-name="odieresis" unicode="&#xf6;" horiz-adv-x="1171" 
d="M86 481q0 147 68.5 261.5t181 174.5t248.5 60q137 0 250.5 -60t182 -174.5t68.5 -261.5t-68.5 -263t-182.5 -177t-250 -61q-135 0 -248 61t-181.5 177t-68.5 263zM279 1274q0 54 38.5 89.5t94.5 35.5q53 0 91 -36t38 -89t-38 -90t-91 -37q-56 0 -94.5 36.5t-38.5 90.5z
M295 481q0 -132 83.5 -214.5t205.5 -82.5q123 0 206.5 82.5t83.5 214.5q0 129 -83.5 209t-206.5 80q-122 0 -205.5 -80t-83.5 -209zM629 1274q0 54 38.5 89.5t94.5 35.5q55 0 93 -36t38 -89q0 -54 -38.5 -90.5t-92.5 -36.5q-56 0 -94.5 36.5t-38.5 90.5z" />
    <glyph glyph-name="divide" unicode="&#xf7;" horiz-adv-x="1122" 
d="M123 428v176h876v-176h-876zM420 172q0 58 41.5 96.5t99.5 38.5t99.5 -38.5t41.5 -96.5t-41.5 -96.5t-99.5 -38.5t-99.5 38.5t-41.5 96.5zM420 868q0 57 41.5 95t99.5 38t99.5 -38t41.5 -95q0 -58 -41.5 -96.5t-99.5 -38.5t-99.5 38.5t-41.5 96.5z" />
    <glyph glyph-name="oslash" unicode="&#xf8;" horiz-adv-x="1171" 
d="M78 45l115 117q-107 132 -107 319q0 147 68.5 261.5t181 174.5t248.5 60q169 0 307 -98l104 106l97 -94l-105 -107q98 -132 98 -303q0 -147 -68.5 -263t-182.5 -177t-250 -61q-166 0 -293 88l-117 -119zM295 481q0 -101 45 -166l403 412q-70 43 -159 43
q-122 0 -205.5 -80t-83.5 -209zM440 221q61 -37 144 -37q123 0 206.5 82.5t83.5 214.5q0 84 -36 148z" />
    <glyph glyph-name="ugrave" unicode="&#xf9;" horiz-adv-x="1150" 
d="M137 399v557h211v-532q0 -115 55 -177.5t144 -62.5q104 0 175 63t71 195v514h211v-956h-211v139q-39 -77 -120.5 -118t-164.5 -41q-176 0 -274 109t-97 310zM250 1430h237l205 -324h-184z" />
    <glyph glyph-name="uacute" unicode="&#xfa;" horiz-adv-x="1150" 
d="M137 399v557h211v-532q0 -115 55 -177.5t144 -62.5q104 0 175 63t71 195v514h211v-956h-211v139q-39 -77 -120.5 -118t-164.5 -41q-176 0 -274 109t-97 310zM436 1106l205 324h238l-258 -324h-185z" />
    <glyph glyph-name="ucircumflex" unicode="&#xfb;" horiz-adv-x="1150" 
d="M137 399v557h211v-532q0 -115 55 -177.5t144 -62.5q104 0 175 63t71 195v514h211v-956h-211v139q-39 -77 -120.5 -118t-164.5 -41q-176 0 -274 109t-97 310zM238 1108l225 324h213l225 -324h-178l-156 180l-153 -180h-176z" />
    <glyph glyph-name="udieresis" unicode="&#xfc;" horiz-adv-x="1150" 
d="M137 399v557h211v-532q0 -115 55 -177.5t144 -62.5q104 0 175 63t71 195v514h211v-956h-211v139q-39 -77 -120.5 -118t-164.5 -41q-176 0 -274 109t-97 310zM262 1274q0 54 38.5 89.5t94.5 35.5q53 0 91 -36t38 -89t-38 -90t-91 -37q-56 0 -94.5 36.5t-38.5 90.5z
M612 1274q0 54 38.5 89.5t94.5 35.5q55 0 93.5 -36t38.5 -89q0 -54 -39 -90.5t-93 -36.5q-56 0 -94.5 36.5t-38.5 90.5z" />
    <glyph glyph-name="yacute" unicode="&#xfd;" horiz-adv-x="1038" 
d="M27 956h225l266 -655l268 655h226l-592 -1423h-221l207 512zM358 1106l205 324h238l-258 -324h-185z" />
    <glyph glyph-name="thorn" unicode="&#xfe;" horiz-adv-x="1230" 
d="M147 -444v1919h211v-637q44 67 127.5 103t176.5 36q204 0 342.5 -138t138.5 -362q0 -221 -138.5 -359t-342.5 -138q-93 0 -176.5 37t-127.5 104v-565h-211zM360 479q0 -135 83.5 -215t205.5 -80q120 0 201.5 83t81.5 212q0 130 -81 210.5t-202 80.5q-114 0 -201.5 -79
t-87.5 -212z" />
    <glyph glyph-name="ydieresis" unicode="&#xff;" horiz-adv-x="1038" 
d="M27 956h225l266 -655l268 655h226l-592 -1423h-221l207 512zM217 1294q0 54 38.5 89.5t94.5 35.5q53 0 91 -36t38 -89t-38 -90t-91 -37q-56 0 -94.5 36.5t-38.5 90.5zM567 1294q0 54 38.5 89.5t94.5 35.5q55 0 93 -36t38 -89q0 -54 -38.5 -90.5t-92.5 -36.5
q-56 0 -94.5 36.5t-38.5 90.5z" />
    <glyph glyph-name="Amacron" unicode="&#x100;" horiz-adv-x="1325" 
d="M12 0l533 1411h235l533 -1411h-230l-135 352h-569l-135 -352h-232zM397 1626v166h529v-166h-529zM453 547h421l-210 592z" />
    <glyph glyph-name="amacron" unicode="&#x101;" horiz-adv-x="1249" 
d="M86 479q0 148 67.5 263t177.5 175t240 60q95 0 185.5 -39.5t136.5 -116.5v135h209v-956h-209v137q-45 -74 -136 -115.5t-186 -41.5q-97 0 -185 35.5t-154.5 99t-106 158.5t-39.5 206zM303 481q0 -130 85.5 -213.5t207.5 -83.5q123 0 209 80.5t86 216.5q0 133 -89.5 212
t-205.5 79q-123 0 -208 -81t-85 -210zM360 1171v166h529v-166h-529z" />
    <glyph glyph-name="Abreve" unicode="&#x102;" horiz-adv-x="1325" 
d="M12 0l533 1411h235l533 -1411h-230l-135 352h-569l-135 -352h-232zM393 1835h158q0 -54 29 -85.5t82 -31.5q51 0 80.5 35.5t29.5 81.5h160q0 -121 -74 -191.5t-196 -70.5q-133 0 -201 76t-68 186zM453 547h421l-210 592z" />
    <glyph glyph-name="abreve" unicode="&#x103;" horiz-adv-x="1249" 
d="M86 479q0 148 67.5 263t177.5 175t240 60q95 0 185.5 -39.5t136.5 -116.5v135h209v-956h-209v137q-45 -74 -136 -115.5t-186 -41.5q-97 0 -185 35.5t-154.5 99t-106 158.5t-39.5 206zM303 481q0 -130 85.5 -213.5t207.5 -83.5q123 0 209 80.5t86 216.5q0 133 -89.5 212
t-205.5 79q-123 0 -208 -81t-85 -210zM354 1380h158q0 -53 29 -84.5t82 -31.5q51 0 80.5 35t29.5 81h160q0 -121 -74 -191.5t-196 -70.5q-133 0 -201 76t-68 186z" />
    <glyph glyph-name="Aogonek" unicode="&#x104;" horiz-adv-x="1325" 
d="M12 0l533 1411h235l533 -1411h-107l-61 -170q-11 -30 -1 -59.5t40 -42.5q30 -8 57 4t39 41q2 5 3.5 11.5t2 12.5t0.5 11.5v8.5v3l137 8q0 -104 -61.5 -171t-144.5 -67q-90 0 -150.5 63.5t-60.5 143.5q0 55 16 90l61 113l-135 352h-569l-135 -352h-232zM453 547h421
l-210 592z" />
    <glyph glyph-name="aogonek" unicode="&#x105;" horiz-adv-x="1249" 
d="M86 479q0 148 67.5 263t177.5 175t240 60q95 0 185.5 -39.5t136.5 -116.5v135h209v-956h-86l-62 -170q-11 -30 -1 -59.5t40 -42.5q30 -8 57.5 4t39.5 41q2 5 3.5 11.5t2 12.5t0.5 11.5v8.5v3l137 8q0 -104 -62 -171t-145 -67q-90 0 -150.5 63.5t-60.5 143.5q0 55 16 90
l62 113v137q-45 -74 -136 -115.5t-186 -41.5q-97 0 -185 35.5t-154.5 99t-106 158.5t-39.5 206zM303 481q0 -130 85.5 -213.5t207.5 -83.5q123 0 209 80.5t86 216.5q0 133 -89.5 212t-205.5 79q-123 0 -208 -81t-85 -210z" />
    <glyph glyph-name="Cacute" unicode="&#x106;" horiz-adv-x="1400" 
d="M96 702q0 198 94.5 364.5t258.5 263.5t360 97q166 0 308 -67t237 -186l-168 -132q-72 82 -169 129.5t-208 47.5q-209 0 -352.5 -151t-143.5 -366q0 -141 65 -259t179 -186.5t252 -68.5q115 0 214.5 49.5t166.5 135.5l168 -133q-94 -122 -237 -191t-312 -69
q-196 0 -360 96.5t-258.5 262.5t-94.5 363zM670 1561l204 323h238l-258 -323h-184z" />
    <glyph glyph-name="cacute" unicode="&#x107;" horiz-adv-x="1052" 
d="M86 481q0 147 70.5 261.5t186 174.5t253.5 60q114 0 213 -43.5t166 -122.5l-164 -131q-80 92 -215 92q-124 0 -212.5 -80.5t-88.5 -210.5t89 -214.5t212 -84.5q63 0 120 25t95 69l166 -129q-68 -80 -167 -123.5t-214 -43.5q-137 0 -253 61t-186.5 177t-70.5 263z
M444 1106l205 324h238l-258 -324h-185z" />
    <glyph glyph-name="Ccircumflex" unicode="&#x108;" horiz-adv-x="1400" 
d="M96 702q0 198 94.5 364.5t258.5 263.5t360 97q166 0 308 -67t237 -186l-168 -132q-72 82 -169 129.5t-208 47.5q-209 0 -352.5 -151t-143.5 -366q0 -141 65 -259t179 -186.5t252 -68.5q115 0 214.5 49.5t166.5 135.5l168 -133q-94 -122 -237 -191t-312 -69
q-196 0 -360 96.5t-258.5 262.5t-94.5 363zM463 1563l225 323h213l225 -323h-178l-155 180l-154 -180h-176z" />
    <glyph glyph-name="ccircumflex" unicode="&#x109;" horiz-adv-x="1052" 
d="M86 481q0 147 70.5 261.5t186 174.5t253.5 60q114 0 213 -43.5t166 -122.5l-164 -131q-80 92 -215 92q-124 0 -212.5 -80.5t-88.5 -210.5t89 -214.5t212 -84.5q63 0 120 25t95 69l166 -129q-68 -80 -167 -123.5t-214 -43.5q-137 0 -253 61t-186.5 177t-70.5 263z
M238 1108l225 324h213l225 -324h-178l-156 180l-153 -180h-176z" />
    <glyph glyph-name="Cdotaccent" unicode="&#x10a;" horiz-adv-x="1400" 
d="M96 702q0 198 94.5 364.5t258.5 263.5t360 97q166 0 308 -67t237 -186l-168 -132q-72 82 -169 129.5t-208 47.5q-209 0 -352.5 -151t-143.5 -366q0 -141 65 -259t179 -186.5t252 -68.5q115 0 214.5 49.5t166.5 135.5l168 -133q-94 -122 -237 -191t-312 -69
q-196 0 -360 96.5t-258.5 262.5t-94.5 363zM586 1745q0 55 39.5 92t95.5 37q57 0 97 -37t40 -92t-40 -92t-97 -37q-56 0 -95.5 37t-39.5 92z" />
    <glyph glyph-name="cdotaccent" unicode="&#x10b;" horiz-adv-x="1052" 
d="M86 481q0 147 70.5 261.5t186 174.5t253.5 60q114 0 213 -43.5t166 -122.5l-164 -131q-80 92 -215 92q-124 0 -212.5 -80.5t-88.5 -210.5t89 -214.5t212 -84.5q63 0 120 25t95 69l166 -129q-68 -80 -167 -123.5t-214 -43.5q-137 0 -253 61t-186.5 177t-70.5 263z
M381 1290q0 55 39.5 92t95.5 37q57 0 97 -37t40 -92t-40 -92t-97 -37q-56 0 -95.5 37t-39.5 92z" />
    <glyph glyph-name="Ccaron" unicode="&#x10c;" horiz-adv-x="1400" 
d="M96 702q0 198 94.5 364.5t258.5 263.5t360 97q166 0 308 -67t237 -186l-168 -132q-72 82 -169 129.5t-208 47.5q-209 0 -352.5 -151t-143.5 -366q0 -141 65 -259t179 -186.5t252 -68.5q115 0 214.5 49.5t166.5 135.5l168 -133q-94 -122 -237 -191t-312 -69
q-196 0 -360 96.5t-258.5 262.5t-94.5 363zM449 1882h176l153 -178l156 178h178l-225 -321h-213z" />
    <glyph glyph-name="ccaron" unicode="&#x10d;" horiz-adv-x="1052" 
d="M86 481q0 147 70.5 261.5t186 174.5t253.5 60q114 0 213 -43.5t166 -122.5l-164 -131q-80 92 -215 92q-124 0 -212.5 -80.5t-88.5 -210.5t89 -214.5t212 -84.5q63 0 120 25t95 69l166 -129q-68 -80 -167 -123.5t-214 -43.5q-137 0 -253 61t-186.5 177t-70.5 263z
M236 1427h176l153 -178l156 178h178l-225 -321h-213z" />
    <glyph glyph-name="Dcaron" unicode="&#x10e;" horiz-adv-x="1472" 
d="M184 0v1411h549q147 0 268 -54.5t200.5 -150t123 -225t43.5 -279.5t-43.5 -278t-123.5 -222.5t-200.5 -148t-267.5 -53.5h-549zM399 1882h176l154 -178l156 178h178l-225 -321h-213zM401 201h332q134 0 230 67.5t142 179t46 254.5t-46 256t-142 181.5t-230 68.5h-332
v-1007z" />
    <glyph glyph-name="dcaron" unicode="&#x10f;" horiz-adv-x="1320" 
d="M88 477q0 112 38.5 207t103.5 158.5t151.5 99t183.5 35.5q105 0 193 -41t131 -117v658h209v-1477h-209v139q-43 -74 -132.5 -116.5t-191.5 -42.5q-96 0 -183 36t-152 99.5t-103.5 157.5t-38.5 204zM305 481q0 -130 82.5 -213.5t204.5 -83.5t207.5 81t85.5 216
q0 133 -88.5 212t-204.5 79q-122 0 -204.5 -80.5t-82.5 -210.5zM1178 954q147 206 145 457h186q-10 -163 -78.5 -301.5t-144.5 -200.5z" />
    <glyph glyph-name="Dcroat" unicode="&#x110;" horiz-adv-x="1480" 
d="M12 623v155h191v633h542q148 0 268 -54.5t199 -150t121.5 -224.5t42.5 -280q0 -201 -72.5 -358.5t-217.5 -250.5t-341 -93h-542v623h-191zM422 209h323q133 0 228 65.5t140.5 175.5t45.5 252t-45.5 253.5t-140.5 179t-228 67.5h-323v-424h315v-155h-315v-414z" />
    <glyph glyph-name="dcroat" unicode="&#x111;" horiz-adv-x="1245" 
d="M88 477q0 112 38.5 207t103.5 158.5t151.5 99t183.5 35.5q105 0 193 -41t131 -117v324h-307v139h307v195h209v-195h155v-139h-155v-1143h-209v139q-43 -74 -132.5 -116.5t-191.5 -42.5q-96 0 -183 36t-152 99.5t-103.5 157.5t-38.5 204zM305 481q0 -130 82.5 -213.5
t204.5 -83.5t207.5 81t85.5 216q0 133 -88.5 212t-204.5 79q-122 0 -204.5 -80.5t-82.5 -210.5z" />
    <glyph glyph-name="Emacron" unicode="&#x112;" horiz-adv-x="1161" 
d="M184 0v1411h850v-201h-633v-417h553v-199h-553v-395h654v-199h-871zM340 1626v166h528v-166h-528z" />
    <glyph glyph-name="emacron" unicode="&#x113;" horiz-adv-x="1132" 
d="M86 481q0 222 141.5 359t350.5 137q101 0 189.5 -35.5t152.5 -99t100.5 -157t36.5 -204.5q0 -58 -2 -78h-760q15 -109 95.5 -174t197.5 -65q82 0 153 36.5t107 100.5q29 -14 89 -40t83 -36q-60 -121 -180 -183t-262 -62q-136 0 -247.5 61t-178 176.5t-66.5 263.5z
M295 557h555q-15 111 -89 173.5t-183 62.5q-112 0 -190 -63.5t-93 -172.5zM307 1171v166h529v-166h-529z" />
    <glyph glyph-name="Ebreve" unicode="&#x114;" horiz-adv-x="1161" 
d="M184 0v1411h850v-201h-633v-417h553v-199h-553v-395h654v-199h-871zM309 1835h158q0 -54 29 -85.5t82 -31.5q51 0 80.5 35.5t29.5 81.5h160q0 -121 -74 -191.5t-196 -70.5q-133 0 -201 76t-68 186z" />
    <glyph glyph-name="ebreve" unicode="&#x115;" horiz-adv-x="1132" 
d="M86 481q0 222 141.5 359t350.5 137q101 0 189.5 -35.5t152.5 -99t100.5 -157t36.5 -204.5q0 -58 -2 -78h-760q15 -109 95.5 -174t197.5 -65q82 0 153 36.5t107 100.5q29 -14 89 -40t83 -36q-60 -121 -180 -183t-262 -62q-136 0 -247.5 61t-178 176.5t-66.5 263.5z
M295 557h555q-15 111 -89 173.5t-183 62.5q-112 0 -190 -63.5t-93 -172.5zM301 1380h158q0 -54 28.5 -85t81.5 -31q51 0 81 35t30 81h160q0 -121 -74 -191.5t-197 -70.5q-90 0 -152 38t-89 95.5t-27 128.5z" />
    <glyph glyph-name="Edotaccent" unicode="&#x116;" horiz-adv-x="1161" 
d="M184 0v1411h850v-201h-633v-417h553v-199h-553v-395h654v-199h-871zM481 1745q0 55 39.5 92t95.5 37q58 0 98 -37t40 -92t-40 -92t-98 -37q-56 0 -95.5 37t-39.5 92z" />
    <glyph glyph-name="edotaccent" unicode="&#x117;" horiz-adv-x="1132" 
d="M86 481q0 222 141.5 359t350.5 137q101 0 189.5 -35.5t152.5 -99t100.5 -157t36.5 -204.5q0 -58 -2 -78h-760q15 -109 95.5 -174t197.5 -65q82 0 153 36.5t107 100.5q29 -14 89 -40t83 -36q-60 -121 -180 -183t-262 -62q-136 0 -247.5 61t-178 176.5t-66.5 263.5z
M295 557h555q-15 111 -89 173.5t-183 62.5q-112 0 -190 -63.5t-93 -172.5zM434 1290q0 55 39.5 92t95.5 37q58 0 98 -37t40 -92t-40 -92t-98 -37q-56 0 -95.5 37t-39.5 92z" />
    <glyph glyph-name="Eogonek" unicode="&#x118;" horiz-adv-x="1161" 
d="M184 0v1411h850v-201h-633v-417h553v-199h-553v-395h654v-193l-64 -176q-11 -30 -1 -59.5t40 -42.5q30 -8 57 4t39 41q4 8 5.5 19.5t1.5 19.5v8l137 8q0 -104 -62 -171t-145 -67q-90 0 -150.5 63.5t-60.5 143.5q0 55 16 90l62 113h-746z" />
    <glyph glyph-name="eogonek" unicode="&#x119;" horiz-adv-x="1134" 
d="M86 481q0 222 141.5 359t350.5 137q101 0 189.5 -35.5t152.5 -99t100.5 -157t36.5 -204.5q0 -58 -2 -78h-760q15 -109 95.5 -174t197.5 -65q82 0 153 36.5t107 100.5q29 -14 89 -40t83 -36q-10 -20 -40 -54t-59.5 -69t-66 -107.5t-61.5 -164.5q-10 -30 -0.5 -59.5
t38.5 -42.5q30 -8 57.5 4t39.5 41q2 5 3.5 11.5t2 12.5t0.5 11.5v8.5v3l137 8q0 -104 -62 -171t-145 -67q-90 0 -150.5 63.5t-60.5 143.5q0 57 17 90l59 113q-70 -20 -151 -20q-136 0 -247.5 61t-178 176.5t-66.5 263.5zM295 557h555q-15 111 -89 173.5t-183 62.5
q-112 0 -190 -63.5t-93 -172.5z" />
    <glyph glyph-name="Ecaron" unicode="&#x11a;" horiz-adv-x="1161" 
d="M184 0v1411h850v-201h-633v-417h553v-199h-553v-395h654v-199h-871zM274 1882h177l153 -178l156 178h178l-225 -321h-213z" />
    <glyph glyph-name="ecaron" unicode="&#x11b;" horiz-adv-x="1132" 
d="M86 481q0 222 141.5 359t350.5 137q101 0 189.5 -35.5t152.5 -99t100.5 -157t36.5 -204.5q0 -58 -2 -78h-760q15 -109 95.5 -174t197.5 -65q82 0 153 36.5t107 100.5q29 -14 89 -40t83 -36q-60 -121 -180 -183t-262 -62q-136 0 -247.5 61t-178 176.5t-66.5 263.5z
M240 1427h176l153 -178l156 178h178l-225 -321h-213zM295 557h555q-15 111 -89 173.5t-183 62.5q-112 0 -190 -63.5t-93 -172.5z" />
    <glyph glyph-name="Gcircumflex" unicode="&#x11c;" horiz-adv-x="1546" 
d="M96 702q0 198 94.5 364.5t259 263.5t361.5 97q144 0 271 -52t221 -146l-160 -142q-141 134 -332 134q-138 0 -252.5 -70t-180 -189t-65.5 -260t65.5 -260t180 -188.5t252.5 -69.5q175 0 296 95.5t128 250.5h-395v187h645q0 -186 -48.5 -327.5t-138 -230.5t-212 -134
t-275.5 -45q-148 0 -280.5 57t-227.5 154t-151 230.5t-56 280.5zM451 1563l225 323h213l225 -323h-178l-156 180l-153 -180h-176z" />
    <glyph glyph-name="gcircumflex" unicode="&#x11d;" horiz-adv-x="1249" 
d="M88 475q0 148 67 264t176.5 177t239.5 61q100 0 190.5 -43t133.5 -119v141h207v-815q0 -319 -137.5 -468.5t-389.5 -149.5q-140 0 -257.5 70.5t-184.5 197.5q18 8 86.5 44t87.5 44q37 -73 112.5 -116.5t155.5 -43.5q153 0 236.5 91.5t83.5 285.5v49q-40 -77 -131.5 -121
t-192.5 -44q-97 0 -184.5 35t-154 98t-105.5 157t-39 205zM262 1108l225 324h213l226 -324h-178l-156 180l-154 -180h-176zM305 477q0 -132 84 -213.5t207 -81.5q115 0 205 81.5t90 213.5q0 137 -85.5 216t-209.5 79q-122 0 -206.5 -83.5t-84.5 -211.5z" />
    <glyph glyph-name="Gbreve" unicode="&#x11e;" horiz-adv-x="1546" 
d="M96 702q0 198 94.5 364.5t259 263.5t361.5 97q144 0 271 -52t221 -146l-160 -142q-141 134 -332 134q-138 0 -252.5 -70t-180 -189t-65.5 -260t65.5 -260t180 -188.5t252.5 -69.5q175 0 296 95.5t128 250.5h-395v187h645q0 -186 -48.5 -327.5t-138 -230.5t-212 -134
t-275.5 -45q-148 0 -280.5 57t-227.5 154t-151 230.5t-56 280.5zM512 1835h158q0 -54 28.5 -85.5t81.5 -31.5q51 0 81 35.5t30 81.5h160q0 -121 -74 -191.5t-197 -70.5q-90 0 -152 38t-89 95.5t-27 128.5z" />
    <glyph glyph-name="gbreve" unicode="&#x11f;" horiz-adv-x="1249" 
d="M88 475q0 148 67 264t176.5 177t239.5 61q100 0 190.5 -43t133.5 -119v141h207v-815q0 -319 -137.5 -468.5t-389.5 -149.5q-140 0 -257.5 70.5t-184.5 197.5q18 8 86.5 44t87.5 44q37 -73 112.5 -116.5t155.5 -43.5q153 0 236.5 91.5t83.5 285.5v49q-40 -77 -131.5 -121
t-192.5 -44q-97 0 -184.5 35t-154 98t-105.5 157t-39 205zM295 1380h158q0 -54 28.5 -85t81.5 -31q51 0 81 35t30 81h160q0 -121 -74 -191.5t-197 -70.5q-90 0 -152 38t-89 95.5t-27 128.5zM305 477q0 -132 84 -213.5t207 -81.5q115 0 205 81.5t90 213.5q0 137 -85.5 216
t-209.5 79q-122 0 -206.5 -83.5t-84.5 -211.5z" />
    <glyph glyph-name="Gdotaccent" unicode="&#x120;" horiz-adv-x="1546" 
d="M96 702q0 198 94.5 364.5t259 263.5t361.5 97q144 0 271 -52t221 -146l-160 -142q-141 134 -332 134q-138 0 -252.5 -70t-180 -189t-65.5 -260t65.5 -260t180 -188.5t252.5 -69.5q175 0 296 95.5t128 250.5h-395v187h645q0 -186 -48.5 -327.5t-138 -230.5t-212 -134
t-275.5 -45q-148 0 -280.5 57t-227.5 154t-151 230.5t-56 280.5zM645 1745q0 55 39.5 92t95.5 37q58 0 98 -37t40 -92t-40 -92t-98 -37q-56 0 -95.5 37t-39.5 92z" />
    <glyph glyph-name="gdotaccent" unicode="&#x121;" horiz-adv-x="1249" 
d="M88 475q0 148 67 264t176.5 177t239.5 61q100 0 190.5 -43t133.5 -119v141h207v-815q0 -319 -137.5 -468.5t-389.5 -149.5q-140 0 -257.5 70.5t-184.5 197.5q18 8 86.5 44t87.5 44q37 -73 112.5 -116.5t155.5 -43.5q153 0 236.5 91.5t83.5 285.5v49q-40 -77 -131.5 -121
t-192.5 -44q-97 0 -184.5 35t-154 98t-105.5 157t-39 205zM305 477q0 -132 84 -213.5t207 -81.5q115 0 205 81.5t90 213.5q0 137 -85.5 216t-209.5 79q-122 0 -206.5 -83.5t-84.5 -211.5zM428 1290q0 55 39.5 92t95.5 37q57 0 97 -37t40 -92t-40 -92t-97 -37q-56 0 -95.5 37
t-39.5 92z" />
    <glyph glyph-name="Gcommaaccent" unicode="&#x122;" horiz-adv-x="1546" 
d="M96 702q0 198 94.5 364.5t259 263.5t361.5 97q144 0 271 -52t221 -146l-160 -142q-141 134 -332 134q-138 0 -252.5 -70t-180 -189t-65.5 -260t65.5 -260t180 -188.5t252.5 -69.5q175 0 296 95.5t128 250.5h-395v187h645q0 -186 -48.5 -327.5t-138 -230.5t-212 -134
t-275.5 -45q-148 0 -280.5 57t-227.5 154t-151 230.5t-56 280.5zM633 -483q63 86 86 163t14 203h199q-5 -277 -176 -413z" />
    <glyph glyph-name="gcommaaccent" unicode="&#x123;" horiz-adv-x="1249" 
d="M88 475q0 148 67 264t176.5 177t239.5 61q100 0 190.5 -43t133.5 -119v141h207v-815q0 -319 -137.5 -468.5t-389.5 -149.5q-140 0 -257.5 70.5t-184.5 197.5q18 8 86.5 44t87.5 44q37 -73 112.5 -116.5t155.5 -43.5q153 0 236.5 91.5t83.5 285.5v49q-40 -77 -131.5 -121
t-192.5 -44q-97 0 -184.5 35t-154 98t-105.5 157t-39 205zM305 477q0 -132 84 -213.5t207 -81.5q115 0 205 81.5t90 213.5q0 137 -85.5 216t-209.5 79q-122 0 -206.5 -83.5t-84.5 -211.5zM467 1137q2 275 174 415l123 -47q-63 -88 -86 -165t-14 -203h-197z" />
    <glyph glyph-name="Hcircumflex" unicode="&#x124;" horiz-adv-x="1443" 
d="M184 0v1411h217v-610h637v610h222v-1411h-222v602h-637v-602h-217zM389 1563l225 323h213l226 -323h-179l-155 180l-154 -180h-176z" />
    <glyph glyph-name="hcircumflex" unicode="&#x125;" horiz-adv-x="1183" 
d="M-78 1573l225 323h213l226 -323h-178l-156 180l-154 -180h-176zM147 0v1477h211v-666q37 81 127 123.5t177 42.5q183 0 285 -114t102 -318v-545h-211v532q0 110 -60.5 174t-152.5 64q-48 0 -93 -14t-85 -43t-64.5 -80.5t-24.5 -118.5v-514h-211z" />
    <glyph glyph-name="Hbar" unicode="&#x126;" horiz-adv-x="1443" 
d="M184 0v1411h217v-610h637v610h222v-1411h-222v602h-637v-602h-217zM457 1626v166h528v-166h-528z" />
    <glyph glyph-name="hbar" unicode="&#x127;" horiz-adv-x="1183" 
d="M-6 1143v139h153v195h211v-195h308v-139h-308v-332q37 81 127 123.5t177 42.5q183 0 285 -114t102 -318v-545h-211v532q0 110 -60.5 174t-152.5 64q-48 0 -93 -14t-85 -43t-64.5 -80.5t-24.5 -118.5v-514h-211v1143h-153z" />
    <glyph glyph-name="Itilde" unicode="&#x128;" horiz-adv-x="585" 
d="M14 1591q7 128 62 187t127 59q40 0 74.5 -21t60.5 -42t45 -21q20 0 38 20t19 64h131q-7 -126 -62 -183t-126 -57q-30 0 -59 13t-46.5 29t-38 29t-36.5 13q-19 0 -37 -22t-19 -68h-133zM184 0v1411h217v-1411h-217z" />
    <glyph glyph-name="itilde" unicode="&#x129;" horiz-adv-x="503" 
d="M-47 1137q7 128 61.5 186.5t126.5 58.5q32 0 61 -13t46.5 -29t37.5 -29t36 -13q20 0 38 20t19 64h131q-7 -126 -62 -182.5t-126 -56.5q-39 0 -73.5 21t-61.5 42t-46 21t-36.5 -22t-18.5 -68h-133zM147 0v956h209v-956h-209z" />
    <glyph glyph-name="Imacron" unicode="&#x12a;" horiz-adv-x="585" 
d="M29 1626v166h528v-166h-528zM184 0v1411h217v-1411h-217z" />
    <glyph glyph-name="imacron" unicode="&#x12b;" horiz-adv-x="503" 
d="M-33 1171v166h529v-166h-529zM147 0v956h209v-956h-209z" />
    <glyph glyph-name="Ibreve" unicode="&#x12c;" horiz-adv-x="585" 
d="M25 1835h157q0 -54 29 -85.5t82 -31.5q51 0 80.5 35.5t29.5 81.5h160q0 -121 -74 -191.5t-196 -70.5q-90 0 -152 38t-89 95.5t-27 128.5zM184 0v1411h217v-1411h-217z" />
    <glyph glyph-name="ibreve" unicode="&#x12d;" horiz-adv-x="503" 
d="M-37 1380h158q0 -54 28.5 -85t81.5 -31q51 0 81 35t30 81h160q0 -121 -74 -191.5t-197 -70.5q-90 0 -152 38t-89 95.5t-27 128.5zM147 0v956h209v-956h-209z" />
    <glyph glyph-name="Iogonek" unicode="&#x12e;" horiz-adv-x="585" 
d="M106 -203q0 52 17 90l61 113v1411h217v-1411h-94l-61 -170q-11 -30 -1 -59.5t40 -42.5q30 -8 57 4t39 41q2 5 3.5 11.5t2 12.5t0.5 11.5v8.5v3l137 8q0 -104 -62 -171t-145 -67q-90 0 -150.5 63.5t-60.5 143.5z" />
    <glyph glyph-name="iogonek" unicode="&#x12f;" horiz-adv-x="503" 
d="M70 -203q0 55 16 90l61 113v956h209v-956h-86l-61 -170q-11 -30 -1 -59.5t40 -42.5q30 -8 57 4t39 41q2 5 3.5 11.5t2 12.5t0.5 11.5v8.5v3l137 8q0 -104 -61.5 -171t-144.5 -67q-90 0 -150.5 63.5t-60.5 143.5zM111 1343q0 56 41.5 95t99.5 39q59 0 99 -38.5t40 -95.5
t-40 -95t-99 -38q-58 0 -99.5 38.5t-41.5 94.5z" />
    <glyph glyph-name="Idotaccent" unicode="&#x130;" horiz-adv-x="585" 
d="M158 1745q0 55 39.5 92t95.5 37q57 0 97 -37t40 -92t-40 -92t-97 -37q-56 0 -95.5 37t-39.5 92zM184 0v1411h217v-1411h-217z" />
    <glyph glyph-name="dotlessi" unicode="&#x131;" horiz-adv-x="503" 
d="M147 0v956h209v-956h-209z" />
    <glyph glyph-name="IJ" unicode="&#x132;" horiz-adv-x="1173" 
d="M184 0v1411h217v-1411h-217zM381 -481l20 202q24 -8 75.5 -13t70.5 -5q59 0 103.5 20t70 56t37.5 80.5t12 97.5v1454h219v-1454q0 -77 -14.5 -144t-48 -126.5t-83.5 -101.5t-125.5 -66.5t-170.5 -24.5q-51 0 -166 25z" />
    <glyph glyph-name="ij" unicode="&#x133;" horiz-adv-x="1011" 
d="M111 1343q0 56 41.5 95t99.5 39q59 0 99 -38.5t40 -95.5t-40 -95t-99 -38q-58 0 -99.5 38.5t-41.5 94.5zM147 0v956h209v-956h-209zM377 -276h115q163 0 159 215v1017h213v-1017q0 -412 -348 -412h-139v197zM616 1343q0 56 42 95t100 39q59 0 100 -38.5t41 -95.5t-41 -95
t-100 -38q-58 0 -100 38.5t-42 94.5z" />
    <glyph glyph-name="Jcircumflex" unicode="&#x134;" horiz-adv-x="587" 
d="M-205 -481l21 202q24 -8 75 -13t70 -5q59 0 103.5 20t70 56t37.5 80.5t12 97.5v1454h219v-1454q0 -77 -14.5 -144t-48 -126.5t-83.5 -101.5t-125.5 -66.5t-170.5 -24.5q-51 0 -166 25zM-47 1563l225 323h213l225 -323h-178l-155 180l-154 -180h-176z" />
    <glyph glyph-name="jcircumflex" unicode="&#x135;" horiz-adv-x="507" 
d="M-127 -276h115q163 0 159 215v1017h213v-1017q0 -412 -348 -412h-139v197zM-63 1108l225 324h213l225 -324h-178l-156 180l-153 -180h-176z" />
    <glyph glyph-name="Kcommaaccent" unicode="&#x136;" horiz-adv-x="1193" 
d="M184 0v1411h219v-573l433 573h256l-541 -702l666 -709h-287l-527 571v-571h-219zM463 -483q63 86 86 163t14 203h199q-5 -277 -176 -413z" />
    <glyph glyph-name="kcommaaccent" unicode="&#x137;" horiz-adv-x="1036" 
d="M147 0v1477h209v-836l303 315h283l-407 -415l499 -541h-270l-408 444v-444h-209zM379 -483q63 86 86 163t14 203h199q-5 -277 -176 -413z" />
    <glyph glyph-name="kgreenlandic" unicode="&#x138;" horiz-adv-x="1007" 
d="M147 0v956h209v-368l295 368h264l-393 -473l482 -483h-281l-367 367v-367h-209z" />
    <glyph glyph-name="Lacute" unicode="&#x139;" horiz-adv-x="1021" 
d="M184 0v1411h217v-1212h566v-199h-783zM209 1561l205 323h237l-258 -323h-184z" />
    <glyph glyph-name="lacute" unicode="&#x13a;" horiz-adv-x="505" 
d="M147 0v1477h211v-1477h-211zM162 1577l205 324h237l-258 -324h-184z" />
    <glyph glyph-name="Lcommaaccent" unicode="&#x13b;" horiz-adv-x="1021" 
d="M184 0v1411h217v-1212h566v-199h-783zM365 -483q63 86 86 163t14 203h199q-5 -276 -177 -413z" />
    <glyph glyph-name="lcommaaccent" unicode="&#x13c;" horiz-adv-x="505" 
d="M59 -483q64 87 87 163.5t14 202.5h198q-5 -277 -176 -413zM147 0v1477h211v-1477h-211z" />
    <glyph glyph-name="Lcaron" unicode="&#x13d;" horiz-adv-x="1024" 
d="M184 0v1411h217v-1212h566v-199h-783zM539 1024q64 89 90.5 175t17.5 212h199q-3 -156 -52 -263.5t-124 -166.5z" />
    <glyph glyph-name="lcaron" unicode="&#x13e;" horiz-adv-x="505" 
d="M147 0v1477h211v-1477h-211zM436 1090q64 89 91 175.5t18 211.5h198q-3 -156 -52 -263.5t-124 -166.5z" />
    <glyph glyph-name="Ldot" unicode="&#x13f;" horiz-adv-x="1021" 
d="M184 0v1411h217v-1212h566v-199h-783zM553 563q0 59 42 99t101 40q61 0 104.5 -40t43.5 -99t-43.5 -99t-104.5 -40q-59 0 -101 40t-42 99z" />
    <glyph glyph-name="ldot" unicode="&#x140;" horiz-adv-x="792" 
d="M147 0v1477h211v-1477h-211zM483 563q0 59 42.5 99t101.5 40q61 0 104 -40t43 -99t-43 -99t-104 -40q-59 0 -101.5 40t-42.5 99z" />
    <glyph glyph-name="Lslash" unicode="&#x141;" horiz-adv-x="1034" 
d="M59 567v150l138 86v608h217v-473l207 131v-151l-207 -130v-581h561v-207h-778v653z" />
    <glyph glyph-name="lslash" unicode="&#x142;" horiz-adv-x="546" 
d="M31 541v147l147 94v695h209v-564l164 105v-146l-164 -104v-768h-209v635z" />
    <glyph glyph-name="Nacute" unicode="&#x143;" horiz-adv-x="1394" 
d="M184 0v1411h209l600 -1001v1001h217v-1411h-202l-607 1010v-1010h-217zM549 1561l205 323h237l-258 -323h-184z" />
    <glyph glyph-name="nacute" unicode="&#x144;" horiz-adv-x="1153" 
d="M147 0v956h211v-143q39 78 122.5 121t170.5 43q174 0 269.5 -109t95.5 -311v-557h-211v532q0 113 -54 175.5t-147 62.5q-105 0 -175.5 -62.5t-70.5 -193.5v-514h-211zM432 1106l205 324h237l-258 -324h-184z" />
    <glyph glyph-name="Ncommaaccent" unicode="&#x145;" horiz-adv-x="1394" 
d="M184 0v1411h209l600 -1001v1001h217v-1411h-202l-607 1010v-1010h-217zM510 -483q63 86 86 163t14 203h199q-5 -277 -176 -413z" />
    <glyph glyph-name="ncommaaccent" unicode="&#x146;" horiz-adv-x="1153" 
d="M147 0v956h211v-143q39 78 122.5 121t170.5 43q174 0 269.5 -109t95.5 -311v-557h-211v532q0 113 -54 175.5t-147 62.5q-105 0 -175.5 -62.5t-70.5 -193.5v-514h-211zM432 -483q29 40 44.5 75t19.5 86.5t3 84.5t-7 120h198q-5 -277 -176 -413z" />
    <glyph glyph-name="Ncaron" unicode="&#x147;" horiz-adv-x="1394" 
d="M184 0v1411h209l600 -1001v1001h217v-1411h-202l-607 1010v-1010h-217zM365 1882h176l153 -178l156 178h178l-225 -321h-213z" />
    <glyph glyph-name="ncaron" unicode="&#x148;" horiz-adv-x="1153" 
d="M147 0v956h211v-143q39 78 122.5 121t170.5 43q174 0 269.5 -109t95.5 -311v-557h-211v532q0 113 -54 175.5t-147 62.5q-105 0 -175.5 -62.5t-70.5 -193.5v-514h-211zM250 1427h176l154 -178l155 178h178l-225 -321h-213z" />
    <glyph glyph-name="napostrophe" unicode="&#x149;" horiz-adv-x="1153" 
d="M-133 1001q90 128 98 224q5 41 -8 129h207q2 -258 -160 -393zM147 0v956h211v-143q40 78 124.5 121t170.5 43q174 0 268.5 -109t94.5 -311v-557h-211v532q0 113 -53 175.5t-146 62.5q-106 0 -177 -62.5t-71 -193.5v-514h-211z" />
    <glyph glyph-name="Eng" unicode="&#x14a;" horiz-adv-x="1392" 
d="M184 0v1411h209l596 -1001v1001h219v-1399q0 -85 -12.5 -154.5t-43 -133t-79.5 -107t-126 -69t-177 -25.5q-72 0 -170 26l23 218q152 -50 247 -9q123 41 123 215q0 47 -22 90l-570 941v-1004h-217z" />
    <glyph glyph-name="eng" unicode="&#x14b;" horiz-adv-x="1150" 
d="M147 0v956h211v-143q39 78 122.5 121t170.5 43q174 0 270 -109.5t95 -310.5l-2 -520q0 -80 -12.5 -147t-43.5 -128t-79 -103.5t-122 -67.5t-169 -25q-59 0 -144 20l19 205q25 -8 68.5 -15t56.5 -7q112 0 163.5 68t53.5 177v518q0 113 -54 175.5t-147 62.5
q-105 0 -175.5 -62.5t-70.5 -193.5v-514h-211z" />
    <glyph glyph-name="Omacron" unicode="&#x14c;" horiz-adv-x="1622" 
d="M96 702q0 198 94 364.5t258 263.5t361 97q198 0 363 -97t259.5 -263.5t94.5 -364.5q0 -147 -56 -280.5t-151 -230.5t-228.5 -154t-281.5 -57t-280.5 57t-227 154t-150 230.5t-55.5 280.5zM313 702q0 -140 65.5 -256.5t179.5 -184.5t251 -68q138 0 252.5 68t180 184.5
t65.5 256.5t-65.5 257.5t-180 186t-252.5 68.5q-208 0 -352 -149.5t-144 -362.5zM547 1626v166h528v-166h-528z" />
    <glyph glyph-name="omacron" unicode="&#x14d;" horiz-adv-x="1171" 
d="M86 481q0 147 68.5 261.5t181 174.5t248.5 60q137 0 250.5 -60t182 -174.5t68.5 -261.5t-68.5 -263t-182.5 -177t-250 -61q-135 0 -248 61t-181.5 177t-68.5 263zM295 481q0 -132 83.5 -214.5t205.5 -82.5q123 0 206.5 82.5t83.5 214.5q0 129 -83.5 209t-206.5 80
q-122 0 -205.5 -80t-83.5 -209zM322 1171v166h528v-166h-528z" />
    <glyph glyph-name="Obreve" unicode="&#x14e;" horiz-adv-x="1622" 
d="M96 702q0 198 94 364.5t258 263.5t361 97q198 0 363 -97t259.5 -263.5t94.5 -364.5q0 -147 -56 -280.5t-151 -230.5t-228.5 -154t-281.5 -57t-280.5 57t-227 154t-150 230.5t-55.5 280.5zM313 702q0 -140 65.5 -256.5t179.5 -184.5t251 -68q138 0 252.5 68t180 184.5
t65.5 256.5t-65.5 257.5t-180 186t-252.5 68.5q-208 0 -352 -149.5t-144 -362.5zM541 1835h157q0 -54 29 -85.5t82 -31.5q51 0 81 35.5t30 81.5h159q0 -121 -74 -191.5t-196 -70.5q-90 0 -152 38t-89 95.5t-27 128.5z" />
    <glyph glyph-name="obreve" unicode="&#x14f;" horiz-adv-x="1171" 
d="M86 481q0 147 68.5 261.5t181 174.5t248.5 60q137 0 250.5 -60t182 -174.5t68.5 -261.5t-68.5 -263t-182.5 -177t-250 -61q-135 0 -248 61t-181.5 177t-68.5 263zM295 481q0 -132 83.5 -214.5t205.5 -82.5q123 0 206.5 82.5t83.5 214.5q0 129 -83.5 209t-206.5 80
q-122 0 -205.5 -80t-83.5 -209zM315 1380h158q0 -53 29 -84.5t82 -31.5q51 0 80.5 35t29.5 81h160q0 -121 -74 -191.5t-196 -70.5q-133 0 -201 76t-68 186z" />
    <glyph glyph-name="Ohungarumlaut" unicode="&#x150;" horiz-adv-x="1622" 
d="M96 702q0 198 94 364.5t258 263.5t361 97q198 0 363 -97t259.5 -263.5t94.5 -364.5q0 -147 -56 -280.5t-151 -230.5t-228.5 -154t-281.5 -57t-280.5 57t-227 154t-150 230.5t-55.5 280.5zM313 702q0 -140 65.5 -256.5t179.5 -184.5t251 -68q138 0 252.5 68t180 184.5
t65.5 256.5t-65.5 257.5t-180 186t-252.5 68.5q-208 0 -352 -149.5t-144 -362.5zM588 1561l178 321h199l-199 -321h-178zM866 1561l201 321h203l-226 -321h-178z" />
    <glyph glyph-name="ohungarumlaut" unicode="&#x151;" horiz-adv-x="1171" 
d="M86 481q0 147 68.5 261.5t181 174.5t248.5 60q137 0 250.5 -60t182 -174.5t68.5 -261.5t-68.5 -263t-182.5 -177t-250 -61q-135 0 -248 61t-181.5 177t-68.5 263zM295 481q0 -132 83.5 -214.5t205.5 -82.5q123 0 206.5 82.5t83.5 214.5q0 129 -83.5 209t-206.5 80
q-122 0 -205.5 -80t-83.5 -209zM336 1106l178 321h199l-199 -321h-178zM614 1106l201 321h203l-225 -321h-179z" />
    <glyph glyph-name="OE" unicode="&#x152;" horiz-adv-x="2275" 
d="M96 702q0 198 94 364.5t257.5 263.5t359.5 97q146 0 275 -59t221 -164v207h845v-207h-628v-407h551v-207h-551v-383h651v-207h-868v201q-92 -104 -221 -162.5t-275 -58.5q-147 0 -279 57t-226.5 154t-150 230.5t-55.5 280.5zM313 702q0 -139 64.5 -254.5t178 -183
t251.5 -67.5q142 0 255.5 70.5t175.5 189.5t62 262q-6 204 -148.5 347.5t-344.5 143.5q-209 0 -351.5 -148t-142.5 -360z" />
    <glyph glyph-name="oe" unicode="&#x153;" horiz-adv-x="1923" 
d="M86 481q0 147 68.5 261t181 173.5t248.5 59.5q120 0 223 -47.5t172 -134.5q68 88 169.5 136t221.5 48q208 0 339.5 -132t135.5 -349q3 -46 0 -93h-758q15 -109 95 -174t196 -65q83 0 153.5 36t108.5 101q29 -14 89 -40t83 -36q-60 -121 -180 -183t-262 -62
q-120 0 -222 48.5t-169 137.5q-69 -88 -172.5 -137t-222.5 -49q-135 0 -248 61t-181.5 177t-68.5 263zM295 481q0 -132 83.5 -214.5t205.5 -82.5q123 0 206.5 82.5t83.5 214.5q0 129 -83.5 209t-206.5 80q-122 0 -205.5 -80t-83.5 -209zM1085 557h555q-17 110 -89.5 173
t-180.5 63q-112 0 -190 -63.5t-95 -172.5z" />
    <glyph glyph-name="Racute" unicode="&#x154;" horiz-adv-x="1273" 
d="M184 0v1411h551q109 0 194 -38t135 -102t75.5 -142.5t25.5 -165.5q0 -80 -21 -152t-63 -133t-114 -101.5t-166 -50.5l370 -526h-264l-352 518h-152v-518h-219zM403 717h316q110 0 165.5 72.5t55.5 173.5q0 63 -20.5 117t-70.5 92t-122 38h-324v-493zM473 1561l205 323
h237l-258 -323h-184z" />
    <glyph glyph-name="racute" unicode="&#x155;" horiz-adv-x="817" 
d="M147 0v956h211v-219q69 240 263 240q50 0 98 -11t72 -26l-35 -195q-65 33 -142 33q-130 0 -193 -117t-63 -317v-344h-211zM170 1106l205 324h237l-258 -324h-184z" />
    <glyph glyph-name="Rcommaaccent" unicode="&#x156;" horiz-adv-x="1273" 
d="M184 0v1411h551q109 0 194 -38t135 -102t75.5 -142.5t25.5 -165.5q0 -80 -21 -152t-63 -133t-114 -101.5t-166 -50.5l370 -526h-264l-352 518h-152v-518h-219zM403 717h316q110 0 165.5 72.5t55.5 173.5q0 63 -20.5 117t-70.5 92t-122 38h-324v-493zM483 -483
q64 87 87 163.5t14 202.5h198q-5 -277 -176 -413z" />
    <glyph glyph-name="rcommaaccent" unicode="&#x157;" horiz-adv-x="817" 
d="M59 -483q64 87 87 163.5t14 202.5h198q-5 -277 -176 -413zM147 0v956h211v-219q69 240 263 240q50 0 98 -11t72 -26l-35 -195q-65 33 -142 33q-130 0 -193 -117t-63 -317v-344h-211z" />
    <glyph glyph-name="Rcaron" unicode="&#x158;" horiz-adv-x="1273" 
d="M184 0v1411h551q109 0 194 -38t135 -102t75.5 -142.5t25.5 -165.5q0 -80 -21 -152t-63 -133t-114 -101.5t-166 -50.5l370 -526h-264l-352 518h-152v-518h-219zM301 1882h176l154 -178l155 178h179l-226 -321h-213zM403 717h316q110 0 165.5 72.5t55.5 173.5
q0 63 -20.5 117t-70.5 92t-122 38h-324v-493z" />
    <glyph glyph-name="rcaron" unicode="&#x159;" horiz-adv-x="817" 
d="M94 1427h176l154 -178l156 178h178l-226 -321h-213zM147 0v956h211v-219q69 240 263 240q50 0 98 -11t72 -26l-35 -195q-65 33 -142 33q-130 0 -193 -117t-63 -317v-344h-211z" />
    <glyph glyph-name="Sacute" unicode="&#x15a;" horiz-adv-x="1175" 
d="M102 410h217q3 -91 81.5 -161.5t199.5 -70.5q118 0 186.5 55t79.5 138q11 174 -223 229l-178 45q-350 95 -350 379q0 118 64.5 211t170.5 142.5t230 49.5q199 0 328.5 -113.5t129.5 -303.5h-217q0 96 -68.5 154.5t-177.5 58.5q-100 0 -171.5 -55t-71.5 -140
q0 -136 188 -184l180 -47q209 -56 304 -169.5t77 -269.5q-15 -167 -147.5 -272.5t-333.5 -105.5q-142 0 -257.5 60t-178 158t-62.5 212zM461 1561l205 323h237l-258 -323h-184z" />
    <glyph glyph-name="sacute" unicode="&#x15b;" horiz-adv-x="909" 
d="M80 293h194q8 -63 57.5 -100t131.5 -37q74 0 122 30.5t48 83.5q0 43 -37.5 71.5t-95.5 41.5l-129 31q-149 40 -211.5 116.5t-53.5 194.5q9 105 109.5 178.5t233.5 73.5q66 0 124.5 -16t108 -48.5t80.5 -88.5t35 -130h-201q-6 51 -45.5 77t-93.5 26q-41 0 -81 -15t-54 -39
q-24 -41 -9 -86t117 -73l148 -37q74 -18 125.5 -50.5t77 -73t36 -78t10.5 -77.5q0 -135 -106 -211.5t-275 -76.5q-91 0 -172.5 35.5t-136.5 108.5t-57 169zM315 1106l205 324h238l-258 -324h-185z" />
    <glyph glyph-name="Scircumflex" unicode="&#x15c;" horiz-adv-x="1175" 
d="M102 410h217q3 -91 81.5 -161.5t199.5 -70.5q118 0 186.5 55t79.5 138q11 174 -223 229l-178 45q-350 95 -350 379q0 118 64.5 211t170.5 142.5t230 49.5q199 0 328.5 -113.5t129.5 -303.5h-217q0 96 -68.5 154.5t-177.5 58.5q-100 0 -171.5 -55t-71.5 -140
q0 -136 188 -184l180 -47q209 -56 304 -169.5t77 -269.5q-15 -167 -147.5 -272.5t-333.5 -105.5q-142 0 -257.5 60t-178 158t-62.5 212zM262 1563l225 323h213l226 -323h-178l-156 180l-154 -180h-176z" />
    <glyph glyph-name="scircumflex" unicode="&#x15d;" horiz-adv-x="909" 
d="M80 293h194q8 -63 57.5 -100t131.5 -37q74 0 122 30.5t48 83.5q0 43 -37.5 71.5t-95.5 41.5l-129 31q-149 40 -211.5 116.5t-53.5 194.5q9 105 109.5 178.5t233.5 73.5q66 0 124.5 -16t108 -48.5t80.5 -88.5t35 -130h-201q-6 51 -45.5 77t-93.5 26q-41 0 -81 -15t-54 -39
q-24 -41 -9 -86t117 -73l148 -37q74 -18 125.5 -50.5t77 -73t36 -78t10.5 -77.5q0 -135 -106 -211.5t-275 -76.5q-91 0 -172.5 35.5t-136.5 108.5t-57 169zM123 1108l225 324h213l225 -324h-178l-155 180l-154 -180h-176z" />
    <glyph glyph-name="Scedilla" unicode="&#x15e;" horiz-adv-x="1175" 
d="M102 410h217q3 -91 81.5 -161.5t199.5 -70.5q118 0 186.5 55t79.5 138q11 174 -223 229l-178 45q-350 95 -350 379q0 118 64.5 211t170.5 142.5t230 49.5q199 0 328.5 -113.5t129.5 -303.5h-217q0 96 -68.5 154.5t-177.5 58.5q-100 0 -171.5 -55t-71.5 -140
q0 -136 188 -184l180 -47q209 -56 304 -169.5t77 -269.5q-14 -146 -118.5 -246.5t-268.5 -123.5l56 -101q16 -35 16 -90q0 -80 -60.5 -143.5t-150.5 -63.5q-83 0 -145 67t-62 171l137 -8q-1 -29 7 -47q12 -29 39 -41t57 -4q30 13 40 42.5t-1 59.5l-56 150q-203 9 -336 134.5
t-133 295.5z" />
    <glyph glyph-name="scedilla" unicode="&#x15f;" horiz-adv-x="913" 
d="M82 293h194q8 -63 57.5 -100t131.5 -37q74 0 122 30.5t48 83.5q0 43 -37.5 71.5t-95.5 41.5l-129 31q-149 40 -211 116.5t-53 194.5q9 105 109 178.5t233 73.5q66 0 124.5 -16t108 -48.5t80.5 -88.5t35 -130h-201q-6 51 -45.5 77t-93.5 26q-41 0 -81 -15t-54 -39
q-24 -41 -9 -86t117 -73l148 -37q74 -18 125.5 -50.5t77 -73t36 -78t10.5 -77.5q0 -111 -73 -183.5t-197 -94.5l55 -103q17 -38 17 -90q0 -80 -60.5 -143.5t-150.5 -63.5q-83 0 -145 67t-62 171l137 -8q-2 -29 6 -47q12 -29 39.5 -41t57.5 -4q30 13 40 42.5t-1 59.5l-56 150
q-140 5 -245.5 89t-108.5 224z" />
    <glyph glyph-name="Scaron" unicode="&#x160;" horiz-adv-x="1175" 
d="M102 410h217q3 -91 81.5 -161.5t199.5 -70.5q118 0 186.5 55t79.5 138q11 174 -223 229l-178 45q-350 95 -350 379q0 118 64.5 211t170.5 142.5t230 49.5q199 0 328.5 -113.5t129.5 -303.5h-217q0 96 -68.5 154.5t-177.5 58.5q-100 0 -171.5 -55t-71.5 -140
q0 -136 188 -184l180 -47q209 -56 304 -169.5t77 -269.5q-15 -167 -147.5 -272.5t-333.5 -105.5q-142 0 -257.5 60t-178 158t-62.5 212zM262 1882h176l154 -178l156 178h178l-226 -321h-213z" />
    <glyph glyph-name="scaron" unicode="&#x161;" horiz-adv-x="909" 
d="M80 293h194q8 -63 57.5 -100t131.5 -37q74 0 122 30.5t48 83.5q0 43 -37.5 71.5t-95.5 41.5l-129 31q-149 40 -211.5 116.5t-53.5 194.5q9 105 109.5 178.5t233.5 73.5q66 0 124.5 -16t108 -48.5t80.5 -88.5t35 -130h-201q-6 51 -45.5 77t-93.5 26q-41 0 -81 -15t-54 -39
q-24 -41 -9 -86t117 -73l148 -37q74 -18 125.5 -50.5t77 -73t36 -78t10.5 -77.5q0 -135 -106 -211.5t-275 -76.5q-91 0 -172.5 35.5t-136.5 108.5t-57 169zM123 1427h176l154 -178l155 178h178l-225 -321h-213z" />
    <glyph glyph-name="Tcommaaccent" unicode="&#x162;" horiz-adv-x="1167" 
d="M57 1208v203h1053v-203h-416v-1208h-221v1208h-416zM373 -483q63 86 86 163t14 203h199q-5 -277 -176 -413z" />
    <glyph glyph-name="tcommaaccent" unicode="&#x163;" horiz-adv-x="688" 
d="M51 782v174h172v363h211v-363h203v-174h-203v-782h-211v782h-172zM133 -483q63 86 86 163t14 203h199q-5 -277 -176 -413z" />
    <glyph glyph-name="Tcaron" unicode="&#x164;" horiz-adv-x="1167" 
d="M57 1208v203h1053v-203h-416v-1208h-221v1208h-416zM252 1882h176l154 -178l155 178h178l-225 -321h-213z" />
    <glyph glyph-name="tcaron" unicode="&#x165;" horiz-adv-x="688" 
d="M51 782v174h172v363h211v-363h203v-174h-203v-782h-211v782h-172zM518 1124q63 88 86 165.5t14 203.5h199q-5 -274 -174 -416z" />
    <glyph glyph-name="Tbar" unicode="&#x166;" horiz-adv-x="1140" 
d="M43 1223v188h1055v-188h-432v-383h272v-135h-272v-705h-191v705h-270v135h270v383h-432z" />
    <glyph glyph-name="tbar" unicode="&#x167;" horiz-adv-x="692" 
d="M51 782v174h174v363h209v-363h203v-174h-203v-209h154v-133h-154v-440h-209v440h-133v133h133v209h-174z" />
    <glyph glyph-name="Utilde" unicode="&#x168;" horiz-adv-x="1386" 
d="M170 489v922h221v-922q0 -133 89 -217t214 -84t214 84t89 217v922h220v-922q0 -150 -72.5 -267.5t-191 -179.5t-259.5 -62q-142 0 -261 62t-191 179.5t-72 267.5zM414 1591q7 128 61.5 187t126.5 59q40 0 74.5 -21t60.5 -42t45 -21q20 0 38.5 20t19.5 64h131
q-7 -126 -62.5 -183t-126.5 -57q-30 0 -59 13t-46.5 29t-38 29t-36.5 13q-19 0 -36.5 -22t-18.5 -68h-133z" />
    <glyph glyph-name="utilde" unicode="&#x169;" horiz-adv-x="1150" 
d="M137 399v557h211v-532q0 -115 55 -177.5t144 -62.5q104 0 175 63t71 195v514h211v-956h-211v139q-39 -77 -120.5 -118t-164.5 -41q-176 0 -274 109t-97 310zM291 1137q7 128 61.5 186.5t126.5 58.5q40 0 74.5 -21t60.5 -42t45 -21q20 0 38.5 20t19.5 64h131
q-7 -126 -62.5 -182.5t-126.5 -56.5q-30 0 -59 13t-46.5 29t-38 29t-36.5 13q-19 0 -36.5 -22t-18.5 -68h-133z" />
    <glyph glyph-name="Umacron" unicode="&#x16a;" horiz-adv-x="1386" 
d="M170 489v922h221v-922q0 -133 89 -217t214 -84t214 84t89 217v922h220v-922q0 -150 -72.5 -267.5t-191 -179.5t-259.5 -62q-142 0 -261 62t-191 179.5t-72 267.5zM428 1626v166h528v-166h-528z" />
    <glyph glyph-name="umacron" unicode="&#x16b;" horiz-adv-x="1150" 
d="M137 399v557h211v-532q0 -115 55 -177.5t144 -62.5q104 0 175 63t71 195v514h211v-956h-211v139q-39 -77 -120.5 -118t-164.5 -41q-176 0 -274 109t-97 310zM305 1171v166h529v-166h-529z" />
    <glyph glyph-name="Ubreve" unicode="&#x16c;" horiz-adv-x="1386" 
d="M170 489v922h221v-922q0 -133 89 -217t214 -84t214 84t89 217v922h220v-922q0 -150 -72.5 -267.5t-191 -179.5t-259.5 -62q-142 0 -261 62t-191 179.5t-72 267.5zM424 1835h158q0 -54 28.5 -85.5t81.5 -31.5q51 0 81 35.5t30 81.5h160q0 -121 -74 -191.5t-197 -70.5
q-90 0 -152 38t-89 95.5t-27 128.5z" />
    <glyph glyph-name="ubreve" unicode="&#x16d;" horiz-adv-x="1150" 
d="M137 399v557h211v-532q0 -115 55 -177.5t144 -62.5q104 0 175 63t71 195v514h211v-956h-211v139q-39 -77 -120.5 -118t-164.5 -41q-176 0 -274 109t-97 310zM299 1380h158q0 -54 28.5 -85t81.5 -31q51 0 81 35t30 81h160q0 -121 -74 -191.5t-197 -70.5q-90 0 -152 38
t-89 95.5t-27 128.5z" />
    <glyph glyph-name="Uring" unicode="&#x16e;" horiz-adv-x="1386" 
d="M170 489v922h221v-922q0 -133 89 -217t214 -84t214 84t89 217v922h220v-922q0 -150 -72.5 -267.5t-191 -179.5t-259.5 -62q-142 0 -261 62t-191 179.5t-72 267.5zM469 1761q0 96 64 162t157 66q96 0 162 -66t66 -162q0 -92 -66.5 -156.5t-161.5 -64.5q-92 0 -156.5 64.5
t-64.5 156.5zM584 1761q0 -43 31 -74.5t75 -31.5q46 0 79.5 31.5t33.5 74.5q0 47 -33.5 80t-79.5 33q-44 0 -75 -33t-31 -80z" />
    <glyph glyph-name="uring" unicode="&#x16f;" horiz-adv-x="1150" 
d="M137 399v557h211v-532q0 -115 55 -177.5t144 -62.5q104 0 175 63t71 195v514h211v-956h-211v139q-39 -77 -120.5 -118t-164.5 -41q-176 0 -274 109t-97 310zM344 1307q0 96 64 161.5t157 65.5q96 0 162 -65.5t66 -161.5q0 -92 -66.5 -157t-161.5 -65q-92 0 -156.5 65
t-64.5 157zM459 1307q0 -43 31 -75t75 -32q46 0 79.5 32t33.5 75q0 47 -33.5 79.5t-79.5 32.5q-44 0 -75 -32.5t-31 -79.5z" />
    <glyph glyph-name="Uhungarumlaut" unicode="&#x170;" horiz-adv-x="1386" 
d="M170 489v922h221v-922q0 -133 89 -217t214 -84t214 84t89 217v922h220v-922q0 -150 -72.5 -267.5t-191 -179.5t-259.5 -62q-142 0 -261 62t-191 179.5t-72 267.5zM416 1561l178 321h199l-199 -321h-178zM694 1561l201 321h203l-226 -321h-178z" />
    <glyph glyph-name="uhungarumlaut" unicode="&#x171;" horiz-adv-x="1150" 
d="M137 399v557h211v-532q0 -115 55 -177.5t144 -62.5q104 0 175 63t71 195v514h211v-956h-211v139q-39 -77 -120.5 -118t-164.5 -41q-176 0 -274 109t-97 310zM291 1106l178 321h199l-199 -321h-178zM569 1106l201 321h203l-225 -321h-179z" />
    <glyph glyph-name="Uogonek" unicode="&#x172;" horiz-adv-x="1390" 
d="M172 489v922h221v-922q0 -133 89 -217t214 -84t214 84t89 217v922h220v-922q0 -209 -132 -347.5t-329 -157.5l-56 -154q-11 -30 -1 -59.5t40 -42.5q30 -8 57.5 4t39.5 41q2 5 3.5 11.5t2 12.5t0.5 11.5v8.5v3l137 8q0 -104 -62 -171t-145 -67q-90 0 -150.5 63.5
t-60.5 143.5q0 52 17 90l51 97q-197 21 -328 158.5t-131 346.5z" />
    <glyph glyph-name="uogonek" unicode="&#x173;" horiz-adv-x="1150" 
d="M137 399v557h211v-532q0 -115 55 -177.5t144 -62.5q104 0 175 63t71 195v514h211v-956h-86l-62 -170q-11 -30 -1 -59.5t40 -42.5q30 -8 57 4t39 41q2 5 3.5 11.5t2 12.5t0.5 11.5v8.5v3l138 8q0 -104 -62 -171t-145 -67q-90 0 -150.5 63.5t-60.5 143.5q0 55 16 90l62 113
h-2v139q-39 -77 -120.5 -118t-164.5 -41q-176 0 -274 109t-97 310z" />
    <glyph glyph-name="Wcircumflex" unicode="&#x174;" horiz-adv-x="1837" 
d="M23 1411h233l336 -1051l242 859h170l241 -859l336 1051h234l-478 -1411h-182l-237 846l-236 -846h-182zM586 1563l225 323h213l225 -323h-178l-156 180l-153 -180h-176z" />
    <glyph glyph-name="wcircumflex" unicode="&#x175;" horiz-adv-x="1601" 
d="M31 956h225l221 -645l221 645h197l221 -645l223 645h226l-351 -956h-174l-243 678l-234 -678h-172zM465 1108l225 324h213l225 -324h-178l-155 180l-154 -180h-176z" />
    <glyph glyph-name="Ycircumflex" unicode="&#x176;" horiz-adv-x="1298" 
d="M0 1411h260l389 -561l393 561h261l-543 -766v-645h-223v647zM319 1563l226 323h213l225 -323h-178l-156 180l-153 -180h-177z" />
    <glyph glyph-name="ycircumflex" unicode="&#x177;" horiz-adv-x="1038" 
d="M27 956h225l266 -655l268 655h226l-592 -1423h-221l207 512zM193 1108l225 324h213l225 -324h-178l-156 180l-153 -180h-176z" />
    <glyph glyph-name="Ydieresis" unicode="&#x178;" horiz-adv-x="1298" 
d="M0 1411h260l389 -561l393 561h261l-543 -766v-645h-223v647zM344 1729q0 53 38.5 88.5t94.5 35.5q53 0 91 -35.5t38 -88.5t-38 -90t-91 -37q-56 0 -94.5 36.5t-38.5 90.5zM694 1729q0 53 38.5 88.5t94.5 35.5q55 0 93 -35.5t38 -88.5q0 -54 -38.5 -90.5t-92.5 -36.5
q-56 0 -94.5 36.5t-38.5 90.5z" />
    <glyph glyph-name="Zacute" unicode="&#x179;" horiz-adv-x="1181" 
d="M84 0v180l721 1030h-692v201h970v-182l-725 -1028h725v-201h-999zM465 1561l205 323h237l-258 -323h-184z" />
    <glyph glyph-name="zacute" unicode="&#x17a;" horiz-adv-x="1032" 
d="M84 0v168l541 590h-508v198h815v-168l-549 -589h549v-199h-848zM365 1106l204 324h238l-258 -324h-184z" />
    <glyph glyph-name="Zdotaccent" unicode="&#x17b;" horiz-adv-x="1181" 
d="M84 0v180l721 1030h-692v201h970v-182l-725 -1028h725v-201h-999zM446 1745q0 55 40 92t96 37q57 0 97 -37t40 -92t-40 -92t-97 -37q-56 0 -96 37t-40 92z" />
    <glyph glyph-name="zdotaccent" unicode="&#x17c;" horiz-adv-x="1032" 
d="M84 0v168l541 590h-508v198h815v-168l-549 -589h549v-199h-848zM373 1290q0 55 39.5 92t95.5 37q57 0 97 -37t40 -92t-40 -92t-97 -37q-56 0 -95.5 37t-39.5 92z" />
    <glyph glyph-name="Zcaron" unicode="&#x17d;" horiz-adv-x="1181" 
d="M84 0v180l721 1030h-692v201h970v-182l-725 -1028h725v-201h-999zM252 1882h176l154 -178l155 178h178l-225 -321h-213z" />
    <glyph glyph-name="zcaron" unicode="&#x17e;" horiz-adv-x="1032" 
d="M84 0v168l541 590h-508v198h815v-168l-549 -589h549v-199h-848zM176 1427h176l154 -178l156 178h178l-226 -321h-213z" />
    <glyph glyph-name="longs" unicode="&#x17f;" horiz-adv-x="634" 
d="M51 782v174h182v88q0 203 96 318t287 115h105v-203h-105q-50 0 -85 -18.5t-52.5 -52t-25 -72t-7.5 -87.5v-1044h-213v782h-182z" />
    <glyph glyph-name="florin" unicode="&#x192;" horiz-adv-x="1269" 
d="M63 -379l41 193h117q48 0 84.5 19t59.5 54t36.5 70t24.5 82l156 731h-176l38 186h177l18 78q42 201 159.5 307.5t327.5 106.5h82l-39 -199h-114q-39 0 -69.5 -10.5t-52.5 -34t-36.5 -45t-26.5 -59.5t-17.5 -60.5t-14.5 -64.5q-3 -13 -4 -19h213l-37 -186h-215
q-17 -81 -49 -242.5t-60 -290t-59 -241.5q-46 -180 -158.5 -282.5t-298.5 -98.5q-42 0 -107 6z" />
    <glyph glyph-name="Aringacute" unicode="&#x1fa;" horiz-adv-x="1325" 
d="M12 0l533 1411h235l533 -1411h-230l-135 352h-569l-135 -352h-232zM438 1778q0 75 43 134t113 81l160 252h239l-219 -273q53 -29 83 -80.5t30 -113.5q0 -92 -66.5 -157t-161.5 -65q-92 0 -156.5 65t-64.5 157zM453 547h421l-210 592zM553 1776q0 -44 31.5 -75.5
t74.5 -31.5q47 0 80 31.5t33 75.5q0 47 -32.5 78.5t-80.5 31.5q-43 0 -74.5 -31.5t-31.5 -78.5z" />
    <glyph glyph-name="aringacute" unicode="&#x1fb;" horiz-adv-x="1249" 
d="M86 479q0 148 67.5 263t177.5 175t240 60q95 0 185.5 -39.5t136.5 -116.5v135h209v-956h-209v137q-45 -74 -136 -115.5t-186 -41.5q-97 0 -185 35.5t-154.5 99t-106 158.5t-39.5 206zM303 481q0 -130 85.5 -213.5t207.5 -83.5q123 0 209 80.5t86 216.5q0 133 -89.5 212
t-205.5 79q-123 0 -208 -81t-85 -210zM358 1309q0 75 43 134t113 81l160 252h239l-219 -273q53 -29 83 -80.5t30 -113.5q0 -92 -66 -157t-161 -65q-92 0 -157 65t-65 157zM473 1307q0 -44 32 -75.5t75 -31.5q47 0 79.5 31.5t32.5 75.5q0 47 -32.5 78.5t-79.5 31.5
q-44 0 -75.5 -31.5t-31.5 -78.5z" />
    <glyph glyph-name="AEacute" unicode="&#x1fc;" horiz-adv-x="1906" 
d="M-14 0l891 1411h903v-207h-629v-407h551v-207h-551v-383h651v-207h-868l-471 346l-221 -346h-256zM590 555h344v557zM924 1561l204 323h238l-258 -323h-184z" />
    <glyph glyph-name="aeacute" unicode="&#x1fd;" horiz-adv-x="1984" 
d="M86 479q0 148 67.5 263t177.5 175t240 60q95 0 185.5 -39.5t136.5 -116.5v135h203v-106q64 61 150.5 94t183.5 33q101 0 189.5 -35.5t152.5 -99t100.5 -157t36.5 -204.5q0 -38 -4 -78h-758q15 -110 95 -174.5t198 -64.5q82 0 153 36.5t107 100.5q29 -14 89 -40t83 -36
q-60 -121 -180 -183t-262 -62q-202 0 -334 129v-109h-203v137q-45 -74 -136 -115.5t-186 -41.5q-97 0 -185 35.5t-154.5 99t-106 158.5t-39.5 206zM303 481q0 -130 85.5 -213.5t207.5 -83.5q123 0 209 80.5t86 216.5q0 133 -89.5 212t-205.5 79q-123 0 -208 -81t-85 -210z
M891 1106l205 324h237l-258 -324h-184zM1147 557h553q-13 109 -87 172.5t-183 63.5q-112 0 -190 -63.5t-93 -172.5z" />
    <glyph glyph-name="Oslashacute" unicode="&#x1fe;" horiz-adv-x="1617" 
d="M94 702q0 198 94 364.5t258 263.5t361 97q260 0 459 -165l161 165l97 -94l-164 -168q164 -204 164 -463q0 -147 -56 -280.5t-151 -230.5t-228.5 -154t-281.5 -57q-205 0 -375 106q-33 18 -72 49l-163 -168l-97 96l164 168q-170 204 -170 471zM311 702q0 -174 103 -315
l700 719q-130 108 -307 108q-208 0 -352 -149.5t-144 -362.5zM510 291q128 -98 297 -98q138 0 252.5 68t180 184.5t65.5 256.5q0 170 -99 306zM715 1561l205 323h237l-258 -323h-184z" />
    <glyph glyph-name="oslashacute" unicode="&#x1ff;" horiz-adv-x="1171" 
d="M78 45l115 117q-107 132 -107 319q0 147 68.5 261.5t181 174.5t248.5 60q169 0 307 -98l104 106l97 -94l-105 -107q98 -132 98 -303q0 -147 -68.5 -263t-182.5 -177t-250 -61q-166 0 -293 88l-117 -119zM295 481q0 -101 45 -166l403 412q-70 43 -159 43
q-122 0 -205.5 -80t-83.5 -209zM440 221q61 -37 144 -37q123 0 206.5 82.5t83.5 214.5q0 84 -36 148zM496 1106l204 324h238l-258 -324h-184z" />
    <glyph glyph-name="Scommaaccent" unicode="&#x218;" horiz-adv-x="1175" 
d="M102 410h217q3 -91 81.5 -161.5t199.5 -70.5q118 0 186.5 55t79.5 138q11 174 -223 229l-178 45q-350 95 -350 379q0 118 64.5 211t170.5 142.5t230 49.5q199 0 328.5 -113.5t129.5 -303.5h-217q0 96 -68.5 154.5t-177.5 58.5q-100 0 -171.5 -55t-71.5 -140
q0 -136 188 -184l180 -47q209 -56 304 -169.5t77 -269.5q-15 -167 -147.5 -272.5t-333.5 -105.5q-142 0 -257.5 60t-178 158t-62.5 212zM397 -483q64 87 87 163.5t14 202.5h198q-5 -277 -176 -413z" />
    <glyph glyph-name="scommaaccent" unicode="&#x219;" horiz-adv-x="909" 
d="M80 293h194q8 -63 57.5 -100t131.5 -37q74 0 122 30.5t48 83.5q0 43 -37.5 71.5t-95.5 41.5l-129 31q-149 40 -211.5 116.5t-53.5 194.5q9 105 109.5 178.5t233.5 73.5q66 0 124.5 -16t108 -48.5t80.5 -88.5t35 -130h-201q-6 51 -45.5 77t-93.5 26q-41 0 -81 -15t-54 -39
q-24 -41 -9 -86t117 -73l148 -37q74 -18 125.5 -50.5t77 -73t36 -78t10.5 -77.5q0 -135 -106 -211.5t-275 -76.5q-91 0 -172.5 35.5t-136.5 108.5t-57 169zM272 -483q64 87 87 163.5t14 202.5h198q-5 -277 -176 -413z" />
    <glyph glyph-name="circumflex" unicode="&#x2c6;" horiz-adv-x="1093" 
d="M215 1108l225 324h213l226 -324h-179l-155 180l-154 -180h-176z" />
    <glyph glyph-name="caron" unicode="&#x2c7;" horiz-adv-x="1093" 
d="M215 1427h176l154 -178l155 178h179l-226 -321h-213z" />
    <glyph glyph-name="breve" unicode="&#x2d8;" horiz-adv-x="989" 
d="M225 1380h158q0 -53 29 -84.5t82 -31.5q51 0 80.5 35t29.5 81h160q0 -121 -74 -191.5t-196 -70.5q-133 0 -201 76t-68 186z" />
    <glyph glyph-name="dotaccent" unicode="&#x2d9;" horiz-adv-x="1091" 
d="M410 1290q0 55 39.5 92t95.5 37q57 0 97 -37t40 -92t-40 -92t-97 -37q-56 0 -95.5 37t-39.5 92z" />
    <glyph glyph-name="ring" unicode="&#x2da;" horiz-adv-x="1103" 
d="M328 1307q0 96 64 161.5t157 65.5q96 0 161.5 -65.5t65.5 -161.5q0 -92 -66 -157t-161 -65q-92 0 -156.5 65t-64.5 157zM442 1307q0 -43 31.5 -75t75.5 -32q46 0 79.5 32t33.5 75q0 47 -33.5 79.5t-79.5 32.5q-44 0 -75.5 -32.5t-31.5 -79.5z" />
    <glyph glyph-name="ogonek" unicode="&#x2db;" horiz-adv-x="1073" 
d="M328 -203q0 55 16 90l105 193h108l-90 -250q-11 -30 -1 -59.5t40 -42.5q30 -8 57 4t39 41q2 5 3.5 11.5t2 12.5t0.5 11.5v8.5v3l137 8q0 -104 -61.5 -171t-144.5 -67q-90 0 -150.5 63.5t-60.5 143.5z" />
    <glyph glyph-name="tilde" unicode="&#x2dc;" horiz-adv-x="884" 
d="M164 1137q7 128 61.5 186.5t126.5 58.5q40 0 74.5 -21t60.5 -42t45 -21q20 0 38.5 20t19.5 64h131q-7 -126 -62.5 -182.5t-126.5 -56.5q-30 0 -59 13t-46.5 29t-38 29t-36.5 13q-19 0 -36.5 -22t-18.5 -68h-133z" />
    <glyph glyph-name="hungarumlaut" unicode="&#x2dd;" horiz-adv-x="1009" 
d="M164 1106l178 321h199l-199 -321h-178zM442 1106l201 321h203l-225 -321h-179z" />
    <glyph glyph-name="Wgrave" unicode="&#x1e80;" horiz-adv-x="1837" 
d="M23 1411h233l336 -1051l242 859h170l241 -859l336 1051h234l-478 -1411h-182l-237 846l-236 -846h-182zM524 1884h238l205 -323h-185z" />
    <glyph glyph-name="wgrave" unicode="&#x1e81;" horiz-adv-x="1601" 
d="M31 956h225l221 -645l221 645h197l221 -645l223 645h226l-351 -956h-174l-243 678l-234 -678h-172zM434 1430h238l205 -324h-185z" />
    <glyph glyph-name="Wacute" unicode="&#x1e82;" horiz-adv-x="1837" 
d="M23 1411h233l336 -1051l242 859h170l241 -859l336 1051h234l-478 -1411h-182l-237 846l-236 -846h-182zM836 1561l204 323h238l-258 -323h-184z" />
    <glyph glyph-name="wacute" unicode="&#x1e83;" horiz-adv-x="1601" 
d="M31 956h225l221 -645l221 645h197l221 -645l223 645h226l-351 -956h-174l-243 678l-234 -678h-172zM707 1106l204 324h238l-258 -324h-184z" />
    <glyph glyph-name="Wdieresis" unicode="&#x1e84;" horiz-adv-x="1837" 
d="M23 1411h233l336 -1051l242 859h170l241 -859l336 1051h234l-478 -1411h-182l-237 846l-236 -846h-182zM610 1729q0 53 38.5 88.5t94.5 35.5q53 0 91 -35.5t38 -88.5t-38 -90t-91 -37q-56 0 -94.5 36.5t-38.5 90.5zM961 1729q0 53 38.5 88.5t94.5 35.5q55 0 93 -35.5
t38 -88.5q0 -54 -38.5 -90.5t-92.5 -36.5q-56 0 -94.5 36.5t-38.5 90.5z" />
    <glyph glyph-name="wdieresis" unicode="&#x1e85;" horiz-adv-x="1601" 
d="M31 956h225l221 -645l221 645h197l221 -645l223 645h226l-351 -956h-174l-243 678l-234 -678h-172zM489 1274q0 53 39 89t95 36q53 0 91 -36t38 -89t-38 -90t-91 -37q-56 0 -95 36.5t-39 90.5zM840 1274q0 54 38.5 89.5t94.5 35.5q55 0 93 -36t38 -89q0 -54 -38.5 -90.5
t-92.5 -36.5q-56 0 -94.5 36.5t-38.5 90.5z" />
    <glyph glyph-name="Ygrave" unicode="&#x1ef2;" horiz-adv-x="1298" 
d="M0 1411h260l389 -561l393 561h261l-543 -766v-645h-223v647zM330 1884h237l205 -323h-184z" />
    <glyph glyph-name="ygrave" unicode="&#x1ef3;" horiz-adv-x="1038" 
d="M27 956h225l266 -655l268 655h226l-592 -1423h-221l207 512zM231 1430h238l205 -324h-185z" />
    <glyph glyph-name="uni2009" unicode="&#x2009;" horiz-adv-x="28" 
 />
    <glyph glyph-name="endash" unicode="&#x2013;" horiz-adv-x="1230" 
d="M135 387v184h961v-184h-961z" />
    <glyph glyph-name="emdash" unicode="&#x2014;" horiz-adv-x="1654" 
d="M135 387v184h1385v-184h-1385z" />
    <glyph glyph-name="quoteleft" unicode="&#x2018;" horiz-adv-x="520" 
d="M117 954q10 163 78 301.5t143 200.5l111 -45q-148 -207 -146 -457h-186z" />
    <glyph glyph-name="quoteright" unicode="&#x2019;" horiz-adv-x="509" 
d="M90 954q148 207 146 457h186q-10 -163 -78.5 -301.5t-144.5 -200.5z" />
    <glyph glyph-name="quotesinglbase" unicode="&#x201a;" horiz-adv-x="501" 
d="M37 -119q147 206 145 457h187q-10 -163 -79 -301.5t-145 -200.5z" />
    <glyph glyph-name="quotedblleft" unicode="&#x201c;" horiz-adv-x="835" 
d="M117 956q10 163 78.5 301.5t144.5 200.5l109 -45q-148 -207 -146 -457h-186zM434 956q10 163 78 301.5t143 200.5l109 -45q-145 -209 -143 -457h-187z" />
    <glyph glyph-name="quotedblright" unicode="&#x201d;" horiz-adv-x="825" 
d="M90 954q146 209 146 457h184q-8 -164 -76.5 -302t-144.5 -200zM406 954q147 206 145 457h186q-10 -164 -78 -302t-143 -200z" />
    <glyph glyph-name="quotedblbase" unicode="&#x201e;" horiz-adv-x="817" 
d="M37 -119q145 208 145 457h185q-8 -163 -77 -301.5t-145 -200.5zM352 -119q148 207 146 457h186q-10 -163 -78 -301.5t-143 -200.5z" />
    <glyph glyph-name="dagger" unicode="&#x2020;" horiz-adv-x="849" 
d="M86 874v158h240v359h198v-359h240v-158h-240v-1107h-198v1107h-240z" />
    <glyph glyph-name="daggerdbl" unicode="&#x2021;" horiz-adv-x="907" 
d="M115 225v156h239v493h-239v158h239v359h199v-359h240v-158h-240v-493h240v-156h-240v-458h-199v458h-239z" />
    <glyph glyph-name="bullet" unicode="&#x2022;" horiz-adv-x="946" 
d="M162 489q0 126 91 211.5t220 85.5t220 -85.5t91 -211.5q0 -129 -91 -214t-220 -85t-220 85t-91 214z" />
    <glyph glyph-name="ellipsis" unicode="&#x2026;" horiz-adv-x="1540" 
d="M129 117q0 59 42 99t101 40q61 0 103.5 -40t42.5 -99t-42.5 -98t-103.5 -39q-59 0 -101 39t-42 98zM627 117q0 60 41.5 99.5t101.5 39.5q61 0 103 -40t42 -99t-42 -98t-103 -39t-102 39t-41 98zM1122 117q0 59 42.5 99t103.5 40q59 0 102 -40t43 -99t-42.5 -98
t-102.5 -39q-61 0 -103.5 39t-42.5 98z" />
    <glyph glyph-name="perthousand" unicode="&#x2030;" horiz-adv-x="2039" 
d="M80 1098q0 115 78.5 194.5t193.5 79.5q114 0 194.5 -80t80.5 -194q0 -115 -80 -194t-195 -79t-193.5 78.5t-78.5 194.5zM229 1098q0 -53 34.5 -88t88.5 -35q52 0 88.5 35.5t36.5 87.5t-37 88.5t-88 36.5q-53 0 -88 -36t-35 -89zM289 0l669 1368h138l-672 -1368h-135z
M782 252q0 114 79 194t194 80q114 0 194 -80t80 -194q0 -115 -79.5 -193.5t-194.5 -78.5q-116 0 -194.5 78.5t-78.5 193.5zM932 252q0 -54 35 -88.5t88 -34.5t90 35t37 88q0 51 -37.5 88t-89.5 37t-87.5 -36.5t-35.5 -88.5zM1419 252q0 114 79 194t194 80q114 0 194 -80
t80 -194q0 -115 -79.5 -193.5t-194.5 -78.5q-116 0 -194.5 78.5t-78.5 193.5zM1569 252q0 -54 35 -88.5t88 -34.5t90 35t37 88q0 51 -37.5 88t-89.5 37t-87.5 -36.5t-35.5 -88.5z" />
    <glyph glyph-name="guilsinglleft" unicode="&#x2039;" horiz-adv-x="651" 
d="M92 477l283 424h178l-283 -424l283 -424h-178z" />
    <glyph glyph-name="guilsinglright" unicode="&#x203a;" horiz-adv-x="651" 
d="M98 53l283 424l-283 424h178l283 -424l-283 -424h-178z" />
    <glyph glyph-name="fraction" unicode="&#x2044;" horiz-adv-x="368" 
d="M-356 -20l923 1388h146l-924 -1388h-145z" />
    <glyph glyph-name="uni2070" unicode="&#x2070;" horiz-adv-x="739" 
d="M78 1280q0 72 8 131t28 112.5t52.5 89.5t83.5 57.5t119 21.5t119.5 -21.5t84 -57.5t53 -89.5t28.5 -112.5t8 -131q0 -71 -8 -129t-28.5 -111.5t-53 -89.5t-84 -57t-119.5 -21q-67 0 -118.5 21t-84 57t-52.5 89.5t-28 111.5t-8 129zM209 1280q0 -62 7.5 -109.5t24.5 -87
t49.5 -61t78.5 -21.5q62 0 99 39.5t49.5 97.5t12.5 142q0 62 -7.5 109.5t-24.5 88t-49.5 62t-79.5 21.5q-160 0 -160 -281z" />
    <glyph glyph-name="uni2074" unicode="&#x2074;" horiz-adv-x="727" 
d="M27 1047l426 634h110v-514h111v-120h-111v-164h-133v164h-403zM240 1167h190v293z" />
    <glyph glyph-name="uni2075" unicode="&#x2075;" horiz-adv-x="696" 
d="M51 1036q13 9 55.5 38t55.5 38q23 -53 69.5 -83t98.5 -30q77 0 124.5 43t47.5 105q0 65 -45.5 100t-106.5 35q-100 0 -213 -72l-51 47l70 422h424v-125h-316l-33 -178q59 29 134 29q113 0 189.5 -68t76.5 -190q0 -125 -82.5 -201t-218.5 -76q-85 0 -161.5 44.5
t-117.5 121.5z" />
    <glyph glyph-name="uni2076" unicode="&#x2076;" horiz-adv-x="690" 
d="M80 1143q-6 52 -2.5 113.5t9.5 122.5t28 118t53 100.5t85 68.5t124 24q50 -2 90 -15t81 -50t68 -97l-120 -49q-41 86 -121 86q-78 0 -122.5 -74t-41.5 -186q22 44 65 69t97 25q105 0 178 -80t70 -195q-5 -113 -83 -186t-192 -70q-110 3 -183 77.5t-83 197.5zM219 1139
q0 -57 38.5 -97.5t94.5 -42.5q55 -1 94 37t41 94q3 58 -33.5 98t-91.5 42q-58 1 -99 -36.5t-44 -94.5z" />
    <glyph glyph-name="uni2077" unicode="&#x2077;" horiz-adv-x="665" 
d="M72 883l350 669h-350v129h569l-418 -798h-151z" />
    <glyph glyph-name="uni2078" unicode="&#x2078;" horiz-adv-x="700" 
d="M68 1135q0 139 114 208q-55 58 -55 136q0 90 64 151.5t159 61.5t160 -62t65 -151q0 -77 -59 -136q54 -33 85.5 -87.5t31.5 -120.5q0 -110 -82 -186.5t-201 -76.5q-120 0 -201 76t-81 187zM199 1137q0 -57 43.5 -97.5t107.5 -40.5q63 0 107.5 40.5t44.5 97.5
q0 56 -44.5 99.5t-105.5 43.5h-12q-59 0 -100 -43t-41 -100zM258 1479q0 -38 26.5 -65.5t67.5 -27.5q40 3 66 30.5t26 62.5q0 36 -27.5 61t-66.5 25q-40 0 -66 -25t-26 -61z" />
    <glyph glyph-name="uni2079" unicode="&#x2079;" horiz-adv-x="690" 
d="M70 1436q5 112 82.5 185t191.5 69q109 -3 182.5 -77t83.5 -198q6 -51 3 -111.5t-9.5 -122t-28.5 -118.5t-53.5 -100.5t-85.5 -69t-123 -23.5q-78 3 -139 38.5t-100 121.5l121 51q41 -86 120 -86q77 0 121.5 73.5t42.5 184.5q-22 -43 -65 -68.5t-97 -25.5
q-105 0 -177.5 80.5t-69.5 196.5zM203 1430q-3 -58 34 -99t91 -41q59 -2 99.5 35t43.5 94q0 58 -38.5 99t-94.5 41q-56 3 -94.5 -35t-40.5 -94z" />
    <glyph glyph-name="uni2080" unicode="&#x2080;" horiz-adv-x="737" 
d="M78 96q0 72 8 131t28 112.5t52.5 89.5t83.5 57.5t119 21.5t119.5 -21.5t84 -57.5t53 -89.5t28.5 -112.5t8 -131q0 -71 -8 -129t-28.5 -111t-53 -89t-84 -57t-119.5 -21q-84 0 -142.5 31t-90 89t-45 127.5t-13.5 159.5zM209 96q0 -62 7.5 -109t24.5 -87t49.5 -61t78.5 -21
q62 0 99 39t49.5 97t12.5 142q0 62 -7.5 109.5t-24.5 88t-49.5 62t-79.5 21.5q-160 0 -160 -281z" />
    <glyph glyph-name="uni2081" unicode="&#x2081;" horiz-adv-x="428" 
d="M49 240v122l270 144v-807h-133v608z" />
    <glyph glyph-name="uni2082" unicode="&#x2082;" horiz-adv-x="659" 
d="M66 283q17 102 88.5 163.5t169.5 61.5q107 0 180.5 -68t73.5 -172q0 -108 -86 -207q-35 -40 -67.5 -78t-60.5 -70t-73 -85h284v-129h-501v65l321 388q54 64 54 116q0 49 -36.5 81t-90.5 32q-52 0 -90.5 -34.5t-47.5 -92.5z" />
    <glyph glyph-name="uni2083" unicode="&#x2083;" horiz-adv-x="653" 
d="M45 -145q12 7 54.5 29.5t54.5 29.5q19 -41 57 -69.5t82 -32.5q62 -5 109.5 30.5t50.5 87.5q2 51 -38 92.5t-104 40.5h-90v117h90q52 0 81 39t22 82q-5 36 -33 60t-68 24q-79 8 -127 -63q-7 6 -45 32.5t-49 36.5q34 56 97 87.5t137 27.5q99 -4 162.5 -68.5t60.5 -150.5
q0 -48 -26 -91.5t-70 -66.5q62 -23 98.5 -86t30.5 -129q-9 -101 -95.5 -167t-199.5 -58q-80 6 -144.5 51.5t-97.5 114.5z" />
    <glyph glyph-name="uni2084" unicode="&#x2084;" horiz-adv-x="727" 
d="M27 -137l426 635h110v-514h111v-121h-111v-164h-133v164h-403zM240 -16h190v292z" />
    <glyph glyph-name="uni2085" unicode="&#x2085;" horiz-adv-x="694" 
d="M53 -147q13 9 55.5 37.5t55.5 37.5q23 -53 69 -82.5t99 -29.5q77 0 124.5 42.5t47.5 104.5q0 65 -45.5 100t-106.5 35q-102 0 -213 -71l-51 47l70 422h424v-125h-316l-33 -178q57 28 134 28q113 0 189.5 -68t76.5 -190q0 -125 -82.5 -200.5t-218.5 -75.5
q-85 0 -161.5 44.5t-117.5 121.5z" />
    <glyph glyph-name="uni2086" unicode="&#x2086;" horiz-adv-x="690" 
d="M80 -41q-6 52 -2.5 113.5t9.5 122.5t28 118t53 100.5t85 68.5t124 24q50 -2 90 -15t81 -50t68 -97l-120 -49q-41 86 -121 86q-78 0 -122.5 -74t-41.5 -186q22 44 65 69t97 25q105 0 178 -79.5t70 -194.5q-5 -113 -83 -186t-192 -70q-110 3 -183 77t-83 197zM219 -45
q0 -57 38.5 -97t94.5 -42q55 -1 94 37t41 94q3 58 -33.5 97.5t-91.5 41.5q-58 1 -99 -36.5t-44 -94.5z" />
    <glyph glyph-name="uni2087" unicode="&#x2087;" horiz-adv-x="649" 
d="M70 -301l350 670h-350v129h569l-418 -799h-151z" />
    <glyph glyph-name="uni2088" unicode="&#x2088;" horiz-adv-x="700" 
d="M68 -49q0 140 114 209q-55 58 -55 135q0 90 64 151.5t159 61.5t160 -62t65 -151q0 -76 -59 -135q54 -33 85.5 -88t31.5 -121q0 -110 -82 -186t-201 -76q-120 0 -201 75.5t-81 186.5zM199 -47q0 -57 43.5 -97t107.5 -40q63 0 107.5 40t44.5 97q0 56 -44.5 99.5
t-105.5 43.5h-12q-59 0 -100 -43t-41 -100zM258 295q0 -38 26 -65t68 -27q40 3 66 30t26 62q0 36 -27.5 61t-66.5 25q-40 0 -66 -25t-26 -61z" />
    <glyph glyph-name="uni2089" unicode="&#x2089;" horiz-adv-x="690" 
d="M70 252q5 112 82.5 185t191.5 69q109 -3 182.5 -77t83.5 -198q6 -51 3 -111.5t-9.5 -121.5t-28.5 -118t-53.5 -100.5t-85.5 -69t-123 -23.5q-78 3 -139 38t-100 121l121 52q41 -86 120 -86q77 0 121.5 73.5t42.5 184.5q-22 -43 -65.5 -69t-96.5 -26q-105 0 -177.5 80.5
t-69.5 196.5zM203 246q-3 -58 34 -99t91 -41q58 -1 99 36t44 94q0 58 -38.5 98.5t-94.5 40.5q-56 3 -94.5 -35t-40.5 -94z" />
    <glyph glyph-name="colonmonetary" unicode="&#x20a1;" horiz-adv-x="1437" 
d="M90 702q0 141 51 270t138.5 224.5t210 156t260.5 70.5l79 226l103 -37l-68 -189q90 -6 166 -32l64 182l102 -35l-68 -188q128 -64 220 -176l-168 -132q-65 69 -125 103l-338 -948q43 -9 86 -9q115 0 214.5 49.5t166.5 135.5l168 -133q-94 -122 -237 -191t-312 -69
q-78 0 -156 16l-80 -221l-102 37l78 217q-80 30 -148 80l-92 -259l-102 35l104 297q-102 100 -158.5 234.5t-56.5 285.5zM307 702q0 -154 82 -286l281 782q-160 -43 -261.5 -180.5t-101.5 -315.5zM469 319q62 -59 143 -94l346 967q-70 24 -167 27z" />
    <glyph glyph-name="lira" unicode="&#x20a4;" horiz-adv-x="1323" 
d="M100 0v201h197v262h-160v115h160v124h-160v115h160v141q0 215 113.5 342t310.5 127q177 0 297.5 -119t120.5 -319h-211q0 112 -64.5 171t-156.5 50q-83 -3 -142 -57.5t-59 -138.5v-197h293v-115h-293v-124h293v-115h-293v-262h469q19 0 30 15t11 38v102h209v-104
q0 -110 -56.5 -181t-156.5 -71h-912z" />
    <glyph glyph-name="uni20A6" unicode="&#x20a6;" horiz-adv-x="1546" 
d="M115 512v113h141v151h-141v113h141v522h188l316 -522h321v522h191v-522h168v-113h-168v-151h168v-113h-168v-512h-182l-310 512h-334v-512h-190v512h-141zM446 625h265l-90 151h-175v-151zM446 889h105l-105 174v-174zM827 776l93 -151h161v151h-254zM987 512l94 -156
v156h-94z" />
    <glyph glyph-name="peseta" unicode="&#x20a7;" horiz-adv-x="1519" 
d="M106 817v113h164v100h-164v113h164v268h564q148 0 245 -74t140 -194h213v-113h-185q6 -44 6 -84v-16h179v-113h-195q-33 -132 -132.5 -210.5t-270.5 -78.5h-371v-528h-193v817h-164zM463 707h358q156 0 213 110h-571v-110zM463 930h600v16q0 36 -10 84h-590v-100z
M463 1143h541q-63 90 -173 90h-368v-90z" />
    <glyph glyph-name="uni20A8" unicode="&#x20a8;" horiz-adv-x="1400" 
d="M131 1411h1174v-115h-439q96 -94 121 -235h318v-115h-310q-2 -79 -24.5 -151t-64.5 -133.5t-113 -98.5t-162 -37l370 -526h-264l-352 518h-252v199h416q106 0 160 65.5t59 163.5h-635v115h623q-47 149 -199 149h-424q0 22 -1 100t-1 101z" />
    <glyph glyph-name="uni20A9" unicode="&#x20a9;" horiz-adv-x="2002" 
d="M109 1411h204l136 -420h413l66 230h145l66 -230h413l136 420h204l-143 -420h135v-112h-172l-70 -205h242v-113h-278l-191 -561h-166l-159 561h-181l-157 -561h-166l-191 561h-276v113h239l-69 205h-170v112h131zM483 879l66 -205h223l57 205h-346zM586 561l82 -254
l71 254h-153zM940 674h119l-60 205h-2zM1169 879l60 -205h221l66 205h-347zM1260 561l73 -254l82 254h-155z" />
    <glyph glyph-name="afii57636" unicode="&#x20aa;" horiz-adv-x="1644" 
d="M193 0v1102h450q81 0 148 -17q148 -30 234.5 -141.5t86.5 -263.5v-318h-207v304q0 97 -66 162t-173 65h-263v-893h-210zM532 422v317h209v-305q0 -96 66 -160.5t174 -64.5h260v893h211v-1102h-451q-82 0 -145 14q-149 32 -236.5 144t-87.5 264z" />
    <glyph glyph-name="Euro" unicode="&#x20ac;" horiz-adv-x="1679" 
d="M100 512v117h969v-117h-516q55 -145 179.5 -234.5t283.5 -89.5q115 0 214.5 49.5t166.5 135.5l168 -133q-94 -122 -237 -191t-312 -69q-248 0 -437.5 149.5t-250.5 382.5h-228zM100 750v116h222q55 245 247 403t447 158q166 0 308 -67t237 -186l-168 -132
q-72 82 -169 129.5t-208 47.5q-166 0 -294.5 -98.5t-176.5 -254.5h524v-116h-969z" />
    <glyph glyph-name="afii61289" unicode="&#x2113;" horiz-adv-x="804" 
d="M141 330v815q0 332 287 332q76 0 131.5 -25.5t87.5 -72.5t47 -106t15 -132v-436q0 -118 -31.5 -187.5t-113 -107t-224.5 -37.5v-43q0 -72 25.5 -103.5t93.5 -31.5l196 -5v-190h-227q-287 0 -287 330zM340 571h88q43 0 61.5 40t18.5 96v426q0 147 -80 147q-88 0 -88 -147
v-562z" />
    <glyph glyph-name="afii61352" unicode="&#x2116;" horiz-adv-x="1990" 
d="M190 0v1411h211l598 -1001v1001h220v-1411h-205l-604 1010v-1010h-220zM1350 1145q0 113 79 191.5t191 78.5t191 -78.5t79 -191.5q0 -112 -78.5 -190t-191.5 -78t-191.5 78t-78.5 190zM1360 682v106h520v-106h-520zM1493 1145q0 -53 37.5 -90t89.5 -37q54 0 91.5 37
t37.5 90t-37.5 91t-91.5 38q-52 0 -89.5 -38t-37.5 -91z" />
    <glyph glyph-name="trademark" unicode="&#x2122;" horiz-adv-x="1728" 
d="M129 1282v129h748l245 -530l244 530h127l92 -774h-141l-64 524l-198 -440h-117l-203 440l-61 -524h-144l76 645h-217v-645h-147v645h-240z" />
    <glyph glyph-name="estimated" unicode="&#x212e;" horiz-adv-x="1341" 
d="M125 573q0 164 66.5 298t196.5 215t300 81q169 0 298 -82.5t195 -217t66 -296.5h-878v-395q135 -129 311 -129q67 0 124.5 14.5t99.5 36.5t81 58t66.5 70t58.5 81l64 -39q-43 -67 -87 -115.5t-103 -89.5t-135 -62t-169 -21q-122 0 -227 47.5t-176.5 128t-111.5 189
t-40 228.5zM369 639h632v334q-59 54 -143.5 90.5t-169.5 36.5q-195 0 -319 -127v-334z" />
    <glyph glyph-name="minus" unicode="&#x2212;" horiz-adv-x="1146" 
d="M150 451v178h847v-178h-847z" />
    <glyph glyph-name="notequal" unicode="&#x2260;" horiz-adv-x="1210" 
d="M133 246v182h354l107 217h-461v182h549l109 220h145l-109 -220h248v-182h-338l-104 -217h442v-182h-532l-109 -223h-143l108 223h-266z" />
    <glyph glyph-name="lessequal" unicode="&#x2264;" horiz-adv-x="1339" 
d="M139 0v178h1039v-178h-1039zM141 682v190l1035 396v-205l-768 -285l768 -289v-204z" />
    <glyph glyph-name="greaterequal" unicode="&#x2265;" horiz-adv-x="1339" 
d="M162 0v178h1038v-178h-1038zM164 285v204l768 289l-768 285v205l1034 -396v-190z" />
    <glyph glyph-name="uniE000" unicode="&#xe000;" horiz-adv-x="952" 
d="M0 0v952h952v-952h-952z" />
    <glyph glyph-name="uniF6C3" unicode="&#xf6c3;" horiz-adv-x="567" 
d="M143 -483q64 87 87 163.5t14 202.5h198q-5 -277 -176 -413z" />
    <glyph glyph-name="uniF6DD" unicode="&#xf6dd;" horiz-adv-x="2365" 
d="M150 0v1411h550q109 0 194 -38t135 -102t75.5 -142.5t25.5 -165.5q0 -80 -21 -152t-63 -133t-114 -101.5t-166 -50.5l371 -526h-265l-352 518h-151v-518h-219zM369 717h315q110 0 165.5 72.5t55.5 173.5q0 63 -20.5 117t-70.5 92t-122 38h-323v-493zM1288 -465v1421h211
v-141q43 75 132 118.5t188 43.5q129 0 237 -61.5t173 -176.5t65 -262q0 -112 -38 -206t-103 -157.5t-151 -98.5t-183 -35q-102 0 -190 40.5t-130 116.5v-602h-211zM1501 473q0 -90 43 -158t108 -100.5t140 -32.5q122 0 204.5 80.5t82.5 210.5q0 132 -82.5 215.5t-204.5 83.5
t-206.5 -82t-84.5 -217z" />
    <glyph glyph-name="uniF8FF" unicode="&#xf8ff;" horiz-adv-x="1734" 
d="M164 0v1407h1407v-1407h-1407zM336 162h18v76l27 -76h20l23 76v-76h18v108h-28l-19 -73l-28 73h-31v-108zM336 446h166l-152 154v365l522 -519l525 519v-365l-152 -154h172v773l-545 -539l-536 539v-773zM457 215q0 -22 13 -37.5t38 -15.5q22 0 34.5 15.5t12.5 37.5
q0 23 -12.5 39t-34.5 16q-25 0 -38 -16t-13 -39zM473 215q0 12 10.5 23.5t24.5 11.5q12 0 18 -11t6 -24q0 -12 -6 -22.5t-18 -10.5q-14 0 -24.5 11.5t-10.5 21.5zM555 203q0 -20 12.5 -30.5t32.5 -10.5q45 0 45 35q0 22 -31 28q-21 3 -26.5 5t-5.5 8q0 12 18 12q21 0 21 -12
h18q0 32 -39 32q-15 0 -27 -9t-12 -23q0 -11 8 -17t25 -14q27 0 27 -10t-4.5 -12.5t-16.5 -2.5q-18 0 -18 21h-27zM645 250h35v-88h16v88h31v20h-82v-20zM709 162h24l8 26h45l7 -26h22h19v45h26q8 0 13.5 -6t5.5 -13v-26h26q-6 6 -6 26q0 19 -14 27q10 4 12 8.5t2 14.5
q0 32 -27 32h-57v-108l-43 108h-18zM748 207l12 37h6l14 -37h-32zM834 221v29h26q19 0 19 -12q0 -17 -19 -17h-26zM913 162h41q24 0 38 16.5t14 42.5q0 22 -14 35.5t-38 13.5h-41v-108zM938 182v68h8q21 0 28 -8t7 -27q0 -13 -9 -23t-18 -10h-16zM1012 162h82v20h-58v25h51
v18h-51v25h51v20h-75v-108zM1094 203q0 -41 45 -41q19 0 32 10t13 25q0 21 -31 28q-23 3 -29 5t-6 8q0 12 15 12q24 0 24 -12h21q0 32 -39 32q-16 0 -30.5 -9t-14.5 -23q0 -11 9.5 -17t29.5 -14q24 0 24 -10q0 -15 -18 -15q-10 0 -18.5 5.5t-8.5 15.5h-18zM1192 162h14v108
h-14v-108zM1221 215q0 -22 13.5 -37.5t37.5 -15.5q18 0 24 14l9 -14h12v59h-45v-18h24q-9 -21 -24 -21q-14 0 -23.5 11.5t-9.5 21.5q0 12 9.5 23.5t23.5 11.5q6 0 12 -6t6 -15h27q-4 20 -17 30.5t-28 10.5q-24 0 -37.5 -16t-13.5 -39zM1329 162h17v67l45 -67h26v108h-26v-67
l-45 67h-17v-108z" />
    <glyph glyph-name="published" horiz-adv-x="1652" 
d="M111 702q0 197 94.5 363.5t259 264t360.5 97.5q147 0 280 -57.5t228.5 -155t152 -231.5t56.5 -281q0 -196 -95.5 -362.5t-260.5 -263t-361 -96.5q-147 0 -279.5 57t-227.5 154t-151 230.5t-56 280.5zM236 702q0 -163 78 -300t213.5 -216.5t297.5 -79.5q122 0 231.5 47
t188 127t124.5 190t46 232t-46 232.5t-124.5 190.5t-188.5 127.5t-231 47.5q-162 0 -297.5 -80t-213.5 -217.5t-78 -300.5zM612 324v723h279q113 0 173 -70t60 -168q0 -41 -14 -81t-40.5 -75.5t-73 -57.5t-105.5 -22h-137v-249h-142zM754 713h133q45 0 68.5 28t23.5 68
q0 41 -23 69.5t-65 28.5h-137v-194z" />
    <glyph glyph-name="frenchfranc" horiz-adv-x="1495" 
d="M195 0v1411h821v-205h-608v-323h581v-228q69 240 262 240q48 0 96.5 -11t73.5 -26l-35 -196q-63 32 -141 32q-87 0 -146 -61t-84.5 -160t-25.5 -231v-242h-209v680h-372v-680h-213z" />
    <glyph glyph-name="parenleft.case" horiz-adv-x="751" 
d="M94 700q0 434 161 694.5t423 260.5v-193q-112 0 -202 -96t-140.5 -270.5t-50.5 -395.5t50.5 -394t140 -268t202.5 -95v-193q-173 0 -305 115.5t-205.5 331.5t-73.5 503z" />
    <glyph glyph-name="parenright.case" horiz-adv-x="751" 
d="M74 -57q84 0 156.5 55.5t124.5 154t82 240t30 307.5q0 221 -51 395.5t-140.5 270.5t-201.5 96v193q172 0 304 -116.5t205.5 -334t73.5 -504.5t-73.5 -503.5t-205.5 -331.5t-304 -115v193z" />
    <glyph glyph-name="hyphen.case" horiz-adv-x="985" 
d="M135 616v191h715v-191h-715z" />
    <glyph glyph-name="at.case" horiz-adv-x="1984" 
d="M98 702q0 245 116.5 451.5t320.5 327.5t448 121q123 0 241 -29.5t220 -83.5t187.5 -133t146.5 -173.5t95 -209t34 -236.5q0 -76 -12.5 -153.5t-42 -156t-73 -139t-111.5 -98.5t-152 -38q-60 0 -110 15.5t-93 48.5t-67.5 93t-24.5 142v262q0 108 -76 183t-182 75t-182 -75
t-76 -183q0 -106 76 -181t182 -75q98 0 192 88v-180q-97 -62 -192 -62q-170 0 -291 120t-121 290q0 171 120.5 291t291.5 120q166 0 284 -112q121 -115 127 -281v-295q0 -131 142 -131q55 0 98 30t67.5 75t40.5 105.5t21.5 114t5.5 107.5q0 121 -39.5 231.5t-111 197
t-166.5 150.5t-210.5 98t-238.5 34q-202 0 -370.5 -100t-264.5 -271.5t-96 -374.5q0 -152 56.5 -288.5t154 -235t233 -156t287.5 -57.5h51v-155h-51q-184 0 -348 70t-281.5 189t-186.5 284t-69 349z" />
    <glyph glyph-name="bracketleft.case" horiz-adv-x="671" 
d="M166 -238v1876h426v-180h-227v-1515h227v-181h-426z" />
    <glyph glyph-name="bracketright.case" horiz-adv-x="671" 
d="M80 -57h227v1515h-227v180h426v-1876h-426v181z" />
    <glyph glyph-name="braceleft.case" horiz-adv-x="817" 
d="M74 629v151q49 0 87 36t38 81v356q-1 180 116 291t289 111h141v-158h-147q-87 0 -147 -64t-60 -157v-322q0 -86 -33.5 -154.5t-103.5 -94.5q37 -12 64.5 -38.5t42.5 -61.5t22.5 -72.5t7.5 -77.5v-305q0 -93 61 -160.5t146 -67.5h147v-160h-141q-171 0 -288 112t-117 292
v348q0 43 -38 79t-87 36z" />
    <glyph glyph-name="braceright.case" horiz-adv-x="817" 
d="M72 -78h147q85 0 146 67.5t61 160.5v305q0 40 7.5 77.5t22.5 72.5t42.5 61.5t64.5 38.5q-70 26 -103.5 94.5t-33.5 154.5v322q0 93 -60 157t-147 64h-147v158h141q172 0 289 -111t116 -291v-356q0 -45 38 -81t87 -36v-151q-49 0 -87 -36t-38 -79v-348q0 -180 -117 -292
t-288 -112h-141v160z" />
    <glyph glyph-name="exclamdown.case" horiz-adv-x="546" 
d="M129 1290q0 59 42.5 98t102.5 39q61 0 103.5 -39t42.5 -98t-42.5 -99t-103.5 -40q-59 0 -102 40t-43 99zM158 -2l30 1032h168l29 -1032h-227z" />
    <glyph glyph-name="guillemotleft.case" horiz-adv-x="1058" 
d="M111 705l282 423h178l-282 -423l282 -424h-178zM473 705l283 423h176l-283 -423l283 -424h-176z" />
    <glyph glyph-name="periodcentered.case" horiz-adv-x="544" 
d="M127 791q0 59 42 99t101 40q61 0 104.5 -40t43.5 -99t-43.5 -99.5t-104.5 -40.5q-59 0 -101 40.5t-42 99.5z" />
    <glyph glyph-name="guillemotright.case" horiz-adv-x="1058" 
d="M127 281l283 424l-283 423h176l283 -423l-283 -424h-176zM487 281l283 424l-283 423h179l282 -423l-282 -424h-179z" />
    <glyph glyph-name="questiondown.case" horiz-adv-x="995" 
d="M78 379q0 143 82.5 245.5t208.5 141.5q69 21 102 54.5t33 101.5l4 106h205v-106q0 -68 -12.5 -117t-32.5 -78.5t-55 -55.5t-67.5 -41.5t-84 -43t-92.5 -54.5q-39 -27 -60.5 -68.5t-21.5 -84.5q0 -84 63.5 -137.5t151.5 -53.5q86 0 146.5 61t60.5 159h202
q0 -192 -117.5 -310t-291.5 -118q-116 0 -212 47.5t-154 139.5t-58 212zM463 1290q0 59 42 98t103 39q60 0 103 -39t43 -98t-43 -99t-103 -40q-61 0 -103 40t-42 99z" />
    <glyph glyph-name="endash.case" horiz-adv-x="1222" 
d="M131 614v185h961v-185h-961z" />
    <glyph glyph-name="emdash.case" horiz-adv-x="1646" 
d="M131 614v185h1385v-185h-1385z" />
    <glyph glyph-name="bullet.case" horiz-adv-x="950" 
d="M164 717q0 126 91 211.5t220 85.5t220 -85.5t91 -211.5q0 -129 -91 -214t-220 -85t-220 85t-91 214z" />
    <glyph glyph-name="guilsinglleft.case" horiz-adv-x="698" 
d="M111 705l282 423h178l-282 -423l282 -424h-178z" />
    <glyph glyph-name="guilsinglright.case" horiz-adv-x="698" 
d="M127 281l283 424l-283 423h178l283 -423l-283 -424h-178z" />
    <glyph glyph-name="cent.case" horiz-adv-x="1091" 
d="M96 723q0 194 117.5 325.5t296.5 161.5v217h133v-210q102 -6 191 -49t151 -115l-164 -131q-80 92 -215 92q-124 0 -212.5 -80.5t-88.5 -210.5t89 -214.5t212 -84.5q63 0 120 25t95 69l166 -129q-129 -150 -344 -166v-225h-133v231q-179 30 -296.5 164t-117.5 330z" />
    <glyph glyph-name="zero.tnum" 
d="M104 666q0 120 13.5 218.5t48 188.5t88.5 150.5t140.5 96.5t199.5 36t199 -36t140 -96.5t88 -150.5t47 -188t13 -219q0 -120 -13 -217.5t-47 -187t-88 -150t-140 -96t-199 -35.5t-199.5 35.5t-140.5 96t-88.5 150t-48 187t-13.5 217.5zM313 666q0 -106 13 -188t43.5 -151
t87 -106t137.5 -37q80 0 136 37t86 106t43 151t13 188t-13 188t-43 150.5t-86 105.5t-136 37q-81 0 -137.5 -37t-87 -105.5t-43.5 -150.5t-13 -188z" />
    <glyph glyph-name="one.tnum" 
d="M326 987v195l430 170v-1352h-209v1067z" />
    <glyph glyph-name="two.tnum" 
d="M156 989q27 169 146.5 269t285.5 100q180 0 303 -112t123 -288q0 -181 -146 -344q-237 -277 -348 -409h486v-205h-838v100l545 656q92 110 92 202q0 85 -63 139t-158 54q-88 0 -152 -56.5t-76 -148.5z" />
    <glyph glyph-name="three.tnum" 
d="M123 250l184 98q27 -64 104 -113.5t146 -50.5q124 0 188 57t64 148q0 87 -64.5 156.5t-175.5 68.5h-149v195h149q74 -1 117.5 45.5t54.5 106.5q5 33 -0.5 63.5t-30 62t-67.5 48.5q-34 14 -92 14q-118 3 -189 -105l-159 117q56 96 162 150t231 47q164 -9 270.5 -117
t106.5 -254q0 -78 -44.5 -149.5t-117.5 -114.5q99 -37 157 -137t58 -213q0 -182 -131 -287.5t-336 -105.5q-151 0 -266 75t-170 195z" />
    <glyph glyph-name="four.tnum" 
d="M31 281l712 1056h181v-866h186v-190h-186v-281h-209v281h-684zM365 471h350v522z" />
    <glyph glyph-name="five.tnum" 
d="M104 276q22 11 91.5 52.5t87.5 50.5q40 -90 113.5 -142.5t160.5 -52.5q148 0 227.5 72.5t79.5 183.5q0 119 -76.5 183.5t-191.5 64.5q-85 0 -159.5 -27t-164.5 -94l-125 92l115 678h731v-198h-561l-63 -338q44 33 115 54.5t134 21.5q94 0 175.5 -28.5t143.5 -82.5
t98 -138t36 -188q0 -207 -141 -333.5t-373 -126.5q-140 0 -263.5 80.5t-189.5 215.5z" />
    <glyph glyph-name="six.tnum" 
d="M154 440q-6 83 -6.5 160.5t5 161t22 156t41 142t64.5 123.5t91 94.5t122 61t156 17.5q130 -5 228.5 -61.5t162.5 -196.5l-190 -82q-35 73 -90.5 108t-118.5 35q-139 0 -220.5 -129t-66.5 -319q83 151 285 151q173 0 292.5 -130t119.5 -326q-6 -184 -136 -305t-321 -121
q-181 0 -302 125t-138 335zM371 432q0 -102 67.5 -172t163.5 -72q98 -4 168 63t70 165q0 100 -63 170t-159 73q-98 3 -172.5 -65t-74.5 -162z" />
    <glyph glyph-name="seven.tnum" 
d="M162 1135v202h946l-698 -1337h-244l596 1135h-600z" />
    <glyph glyph-name="eight.tnum" 
d="M121 424q0 111 53.5 202.5t147.5 147.5q-99 96 -99 234q0 146 107 248t264 102q158 0 266.5 -102.5t108.5 -247.5q0 -139 -105 -234q95 -58 149 -149.5t54 -200.5q0 -186 -137.5 -315t-335.5 -129q-199 0 -336 129t-137 315zM330 426q0 -101 77 -172.5t187 -71.5t186 71
t76 173q0 98 -74.5 170t-181.5 72h-22q-104 -1 -176 -73t-72 -169zM428 1006q0 -68 47.5 -112t122.5 -44q71 1 116.5 46.5t45.5 109.5q0 62 -47.5 105.5t-118.5 43.5t-118.5 -43.5t-47.5 -105.5z" />
    <glyph glyph-name="nine.tnum" 
d="M133 930q6 184 136 305t321 121q181 0 302 -125.5t138 -335.5q6 -83 6.5 -160.5t-5 -160.5t-22 -156t-41 -142t-64.5 -123t-91 -94.5t-122 -61t-156 -17.5q-62 2 -113.5 14.5t-104 40t-97 79t-77.5 124.5l191 81q35 -73 90.5 -108t118.5 -35q91 0 160.5 59.5t102.5 162
t23 227.5q-37 -72 -111.5 -112t-172.5 -40q-173 0 -292.5 130.5t-119.5 326.5zM344 920q0 -101 62.5 -171t158.5 -73q98 -3 173 65t75 162q0 102 -67.5 172t-163.5 72q-98 5 -168 -62t-70 -165z" />
    <glyph glyph-name="zero.taboldstyle" 
d="M90 512q0 119 41 220t110 168t160 104.5t191 37.5q137 0 251.5 -63.5t184.5 -186t70 -280.5q0 -156 -70 -279t-185 -188t-251 -65q-100 0 -191 38.5t-160 106.5t-110 168.5t-41 218.5zM293 512q0 -145 88 -236.5t211 -91.5q124 0 212.5 91.5t88.5 236.5t-88.5 234.5
t-212.5 89.5q-123 0 -211 -89.5t-88 -234.5z" />
    <glyph glyph-name="one.taboldstyle" 
d="M299 584v215l504 258v-1057h-211v729z" />
    <glyph glyph-name="two.taboldstyle" 
d="M193 0v104l481 508q71 68 71 125q0 51 -43 85t-112 34q-66 0 -112 -39t-52 -106l-205 32q15 143 119.5 229.5t255.5 86.5q162 0 266.5 -91t104.5 -227q0 -45 -11.5 -84.5t-38 -78.5t-48.5 -64.5t-64 -69.5l-244 -243h408v-201h-776z" />
    <glyph glyph-name="six.taboldstyle" 
d="M154 440q-6 83 -6.5 160.5t5 161t22 156t41 142t64.5 123.5t91 94.5t122 61t156 17.5q130 -5 228.5 -61.5t162.5 -196.5l-190 -82q-35 73 -90.5 108t-118.5 35q-139 0 -220.5 -129t-66.5 -319q83 151 285 151q173 0 292.5 -130t119.5 -326q-6 -184 -136 -305t-321 -121
q-181 0 -302 125t-138 335zM371 432q0 -102 67.5 -172t163.5 -72q98 -4 168 63t70 165q0 100 -63 170t-159 73q-98 3 -172.5 -65t-74.5 -162z" />
    <glyph glyph-name="eight.taboldstyle" 
d="M121 424q0 111 53.5 202.5t147.5 147.5q-99 96 -99 234q0 146 107 248t264 102q158 0 266.5 -102.5t108.5 -247.5q0 -139 -105 -234q95 -58 149 -149.5t54 -200.5q0 -186 -137.5 -315t-335.5 -129q-199 0 -336 129t-137 315zM330 426q0 -101 77 -172.5t187 -71.5t186 71
t76 173q0 98 -74.5 170t-181.5 72h-22q-104 -1 -176 -73t-72 -169zM428 1006q0 -68 47.5 -112t122.5 -44q71 1 116.5 46.5t45.5 109.5q0 62 -47.5 105.5t-118.5 43.5t-118.5 -43.5t-47.5 -105.5z" />
    <glyph glyph-name="three.taboldstyle" 
d="M127 -131l184 98q27 -64 104 -113.5t146 -50.5q124 0 188 57t64 148q0 87 -64.5 156.5t-175.5 68.5h-149v195h149q74 -1 117.5 45.5t54.5 106.5q5 33 -0.5 63.5t-30 62t-67.5 48.5q-34 14 -92 14q-117 3 -188 -104l-160 116q56 96 162 150t231 47q164 -9 270.5 -117
t106.5 -254q0 -78 -44.5 -149.5t-117.5 -114.5q99 -37 157 -137t58 -213q0 -182 -131 -287.5t-336 -105.5q-151 0 -266 75t-170 195z" />
    <glyph glyph-name="four.taboldstyle" 
d="M35 -102l713 1056h178v-866h188v-190h-188v-283h-209v283h-682zM369 88h348v522z" />
    <glyph glyph-name="five.taboldstyle" 
d="M106 -104q22 11 91.5 52t87.5 50q40 -90 113.5 -142.5t160.5 -52.5q148 0 227.5 72.5t79.5 183.5q0 119 -76.5 183.5t-191.5 64.5q-85 0 -159.5 -27t-164.5 -94l-124 93l114 677h731v-198h-561l-63 -338q43 33 115 54.5t135 21.5q126 0 227 -48.5t163 -149.5t62 -239
q0 -207 -141 -333.5t-373 -126.5q-140 0 -263.5 81t-189.5 216z" />
    <glyph glyph-name="seven.taboldstyle" 
d="M162 752v202h946l-698 -1337h-244l596 1135h-600z" />
    <glyph glyph-name="nine.taboldstyle" 
d="M141 551q6 184 136 305t321 121q181 0 302 -125.5t138 -335.5q6 -83 6.5 -160.5t-5 -160.5t-22 -156t-41 -142t-64.5 -123t-91 -94.5t-122 -61t-156 -17.5q-130 5 -228.5 61.5t-162.5 196.5l190 82q35 -73 90.5 -108.5t118.5 -35.5q139 0 220.5 129.5t66.5 319.5
q-37 -72 -112 -112t-173 -40q-173 0 -292.5 130.5t-119.5 326.5zM352 541q0 -101 62.5 -171t158.5 -73q98 -3 173 65t75 162q0 102 -67.5 172t-163.5 72q-98 5 -168 -62t-70 -165z" />
    <glyph glyph-name="zero.oldstyle" horiz-adv-x="1216" 
d="M104 512q0 119 41 220t110 168t160 104.5t191 37.5q137 0 251.5 -63.5t184.5 -186t70 -280.5q0 -156 -70 -279t-185 -188t-251 -65q-100 0 -191 38.5t-160 106.5t-110 168.5t-41 218.5zM307 512q0 -145 88 -236.5t211 -91.5q124 0 212.5 91.5t88.5 236.5t-88.5 234.5
t-212.5 89.5q-123 0 -211 -89.5t-88 -234.5z" />
    <glyph glyph-name="one.oldstyle" horiz-adv-x="757" 
d="M84 584v215l504 258v-1057h-209v729z" />
    <glyph glyph-name="two.oldstyle" horiz-adv-x="995" 
d="M98 0v104l482 508q71 71 71 125q0 51 -43 85t-112 34q-67 0 -113 -38.5t-53 -106.5l-205 32q15 143 120 229.5t257 86.5q160 0 265 -91t105 -227q0 -59 -24.5 -114.5t-53 -90t-83.5 -92.5l-244 -243h405v-201h-774z" />
    <glyph glyph-name="three.oldstyle" horiz-adv-x="1056" 
d="M61 -131l185 98q27 -64 104 -113.5t146 -50.5q124 0 188 57t64 148q0 87 -64.5 156.5t-175.5 68.5h-150v195h150q74 -1 117.5 45.5t54.5 106.5q5 33 -0.5 63.5t-30 62t-67.5 48.5q-34 14 -93 14q-117 3 -188 -104l-160 116q56 96 162.5 150t231.5 47q164 -9 270 -117
t106 -254q0 -79 -44 -150t-117 -114q99 -37 157 -137t58 -213q0 -182 -131 -287.5t-336 -105.5q-152 0 -267 75t-170 195z" />
    <glyph glyph-name="four.oldstyle" horiz-adv-x="1185" 
d="M35 -102l713 1056h180v-866h186v-190h-186v-283h-209v283h-684zM369 88h350v522z" />
    <glyph glyph-name="five.oldstyle" horiz-adv-x="1134" 
d="M80 -104q22 11 91 52t87 50q40 -90 113.5 -142.5t160.5 -52.5q148 0 228 73t80 183q0 119 -77 183.5t-192 64.5q-84 0 -158.5 -27t-164.5 -94l-125 93l115 677h731v-198h-561l-64 -338q43 33 115 54.5t135 21.5q94 0 175.5 -28.5t143.5 -82.5t98 -138t36 -188
q0 -207 -141.5 -333.5t-373.5 -126.5q-139 0 -262.5 81t-189.5 216z" />
    <glyph glyph-name="six.oldstyle" horiz-adv-x="1148" 
d="M135 440q-4 90 -6.5 183t10 184t32.5 173.5t60 152.5t93 120.5t131.5 78t175.5 24.5q130 -5 228.5 -61.5t162.5 -196.5l-191 -82q-35 73 -90 108t-118 35q-139 0 -220.5 -129t-66.5 -319q83 151 285 151q173 0 292 -130t119 -326q-6 -184 -136 -305t-321 -121
q-181 0 -302 125t-138 335zM352 432q0 -102 68 -172t164 -72q98 -4 167.5 63t69.5 165q0 101 -62.5 170.5t-158.5 72.5q-98 3 -173 -65t-75 -162z" />
    <glyph glyph-name="seven.oldstyle" horiz-adv-x="1046" 
d="M92 754v202h946l-698 -1337h-244l596 1135h-600z" />
    <glyph glyph-name="eight.oldstyle" horiz-adv-x="1167" 
d="M111 424q0 111 53 202.5t147 147.5q-98 95 -98 234q0 146 107 248t264 102t265.5 -102t108.5 -248q0 -140 -104 -234q95 -58 149 -149.5t54 -200.5q0 -186 -137.5 -315t-335.5 -129q-199 0 -336 129t-137 315zM319 426q0 -101 77.5 -172.5t187.5 -71.5t186 71t76 173
q0 98 -74.5 170t-181.5 72h-23q-104 -1 -176 -73t-72 -169zM418 1006q0 -68 47.5 -112t122.5 -44q71 1 116.5 46.5t45.5 109.5q0 62 -47.5 105.5t-118.5 43.5t-118.5 -43.5t-47.5 -105.5z" />
    <glyph glyph-name="nine.oldstyle" horiz-adv-x="1105" 
d="M100 551q6 184 136 305t321 121q181 0 302 -125.5t138 -335.5q6 -83 6.5 -160.5t-5 -160.5t-22 -156t-41 -142t-64.5 -123t-91 -94.5t-122 -61t-156 -17.5q-130 5 -228.5 61.5t-162.5 196.5l190 82q35 -73 90.5 -108.5t118.5 -35.5q139 0 220.5 129.5t66.5 319.5
q-37 -72 -112 -112t-173 -40q-173 0 -292.5 130.5t-119.5 326.5zM311 541q0 -101 62.5 -171t158.5 -73q98 -3 173 65t75 162q0 102 -67.5 172t-163.5 72q-98 5 -168 -62t-70 -165z" />
    <glyph glyph-name="Lslash.sc" horiz-adv-x="886" 
d="M72 469v137l112 74v506h195v-387l172 108v-137l-172 -108v-478h469v-184h-664v541z" />
    <glyph glyph-name="Zcaron.sc" horiz-adv-x="1042" 
d="M94 0v160l594 848h-571v178h821v-158l-598 -848h598v-180h-844zM229 1595h162l125 -143l129 143h162l-197 -278h-184z" />
    <glyph glyph-name="exclam.sc" horiz-adv-x="563" 
d="M166 92q0 49 34.5 82t82.5 33q51 0 84.5 -32.5t33.5 -82.5q0 -49 -33.5 -80.5t-84.5 -31.5q-48 0 -82.5 31.5t-34.5 80.5zM174 1190h215l-29 -879h-159z" />
    <glyph glyph-name="ampersand.sc" horiz-adv-x="1185" 
d="M111 354q0 101 45 181.5t127 130.5q-43 34 -66.5 90.5t-23.5 122.5q0 126 92.5 217.5t226.5 91.5q98 0 177 -46t128 -124l-155 -98q-60 88 -140 88q-64 0 -103.5 -38t-39.5 -96q0 -53 37 -100t104 -47h213v145h178v-147h146v-152h-146v-213q0 -105 34.5 -155.5
t139.5 -50.5v-172q-219 0 -294 122q-43 -57 -122 -90.5t-163 -33.5q-172 0 -283.5 107t-111.5 267zM297 369q-2 -87 60.5 -147t156.5 -60q219 0 219 299v112h-205q-102 0 -165 -60t-66 -144z" />
    <glyph glyph-name="question.sc" horiz-adv-x="874" 
d="M86 834q0 165 99 263.5t249 98.5q152 0 255.5 -92.5t103.5 -243.5q0 -121 -70 -209.5t-176 -120.5q-74 -23 -92 -58t-21 -150h-182v86q0 123 56 190.5t169 103.5q60 19 95.5 61t35.5 97q0 65 -52.5 108.5t-121.5 43.5t-118.5 -49.5t-49.5 -128.5h-180zM217 100
q0 54 37.5 89.5t89.5 35.5q55 0 91 -35t36 -90q0 -52 -36.5 -86t-90.5 -34q-52 0 -89.5 34t-37.5 86z" />
    <glyph glyph-name="A.sc" horiz-adv-x="1167" 
d="M33 0l448 1186h205l449 -1186h-205l-113 293h-467l-110 -293h-207zM416 467h336l-168 467z" />
    <glyph glyph-name="B.sc" horiz-adv-x="1130" 
d="M176 0v1186h457q154 0 243 -85t89 -231q0 -74 -33 -137.5t-105 -97.5q93 -28 147 -111.5t54 -173.5q0 -148 -97.5 -249t-260.5 -101h-494zM373 178h289q74 0 119.5 52.5t45.5 123.5q0 68 -48 125.5t-122 57.5h-284v-359zM373 707h254q65 0 102 45t37 112q0 68 -41 107
t-113 39h-239v-303z" />
    <glyph glyph-name="C.sc" horiz-adv-x="1220" 
d="M100 588q0 167 79.5 306.5t218 220.5t304.5 81q138 0 257 -57.5t204 -159.5l-147 -117q-62 70 -143 110t-171 40q-173 0 -291 -123t-118 -301q0 -176 118.5 -299t290.5 -123q93 0 175 42t141 114l149 -119q-81 -103 -203 -163t-262 -60q-166 0 -304.5 81.5t-218 221
t-79.5 305.5z" />
    <glyph glyph-name="D.sc" horiz-adv-x="1280" 
d="M176 0v1186h461q167 0 290 -79t185 -213t62 -304q0 -169 -62 -301.5t-185 -210.5t-290 -78h-461zM369 180h268q164 0 253 115t89 295q0 118 -37.5 211t-116 150t-188.5 57h-268v-828z" />
    <glyph glyph-name="E.sc" horiz-adv-x="1021" 
d="M176 0v1186h721v-176h-526v-336h460v-178h-460v-318h540v-178h-735z" />
    <glyph glyph-name="F.sc" horiz-adv-x="952" 
d="M176 0v1186h711v-176h-516v-336h407v-178h-407v-496h-195z" />
    <glyph glyph-name="G.sc" horiz-adv-x="1333" 
d="M98 588q0 167 78.5 306.5t216.5 220.5t305 81q121 0 229 -44.5t187 -125.5l-137 -127h-2q-54 54 -126.5 84.5t-150.5 30.5q-171 0 -289 -124t-118 -302q0 -176 118 -301t289 -125q142 0 241 75t105 201h-329v166h549q0 -310 -151 -467t-415 -157q-167 0 -305 81.5
t-216.5 221t-78.5 305.5z" />
    <glyph glyph-name="H.sc" horiz-adv-x="1259" 
d="M176 0v1186h195v-508h516v508h196v-1186h-196v502h-516v-502h-195z" />
    <glyph glyph-name="I.sc" horiz-adv-x="546" 
d="M176 0v1186h195v-1186h-195z" />
    <glyph glyph-name="J.sc" horiz-adv-x="544" 
d="M-150 -399l17 182q49 -16 129 -16q94 0 137 56t43 146v1217h193v-1217q0 -82 -20.5 -150.5t-63.5 -123.5t-116.5 -86t-172.5 -31q-38 0 -146 23z" />
    <glyph glyph-name="K.sc" horiz-adv-x="1056" 
d="M176 0v1186h195v-463l352 463h227l-454 -592l561 -594h-256l-430 467v-467h-195z" />
    <glyph glyph-name="L.sc" horiz-adv-x="878" 
d="M176 0v1186h195v-1008h469v-178h-664z" />
    <glyph glyph-name="M.sc" horiz-adv-x="1636" 
d="M109 0l143 1186h170l393 -826l397 826h170l146 -1186h-195l-98 823l-336 -692h-162l-338 692l-100 -823h-190z" />
    <glyph glyph-name="N.sc" horiz-adv-x="1220" 
d="M176 0v1186h184l492 -815v815h192v-1186h-180l-493 825v-825h-195z" />
    <glyph glyph-name="O.sc" horiz-adv-x="1398" 
d="M98 588q0 167 78.5 306.5t216 220.5t303.5 81q167 0 306 -81t218.5 -220.5t79.5 -306.5q0 -166 -79.5 -305.5t-218.5 -221t-306 -81.5q-166 0 -303.5 81.5t-216 221t-78.5 305.5zM291 588q0 -174 117.5 -297t287.5 -123q171 0 290.5 123t119.5 297q0 175 -119.5 297.5
t-290.5 122.5q-170 0 -287.5 -122.5t-117.5 -297.5z" />
    <glyph glyph-name="P.sc" horiz-adv-x="1089" 
d="M176 0v1186h479q93 0 165.5 -32t115.5 -86.5t64.5 -120t21.5 -138.5q0 -75 -21.5 -141.5t-64.5 -120.5t-115.5 -85.5t-165.5 -31.5h-282v-430h-197zM373 608h272q89 0 135.5 59.5t46.5 141.5q0 80 -44.5 140.5t-129.5 60.5h-280v-402z" />
    <glyph glyph-name="Q.sc" horiz-adv-x="1402" 
d="M98 588q0 167 78.5 306.5t216.5 220.5t305 81q168 0 307.5 -81t219.5 -220.5t80 -306.5q0 -155 -73.5 -289t-197.5 -219l119 -193l-147 -92l-132 209q-94 -24 -176 -24q-167 0 -305 81.5t-216.5 221t-78.5 305.5zM291 588q0 -163 108 -278.5t269 -137.5q54 0 100 4
q-16 29 -74 119l-39 63l148 93l127 -207q83 56 130.5 147t47.5 197q0 177 -119 300.5t-291 123.5q-171 0 -289 -123.5t-118 -300.5z" />
    <glyph glyph-name="R.sc" horiz-adv-x="1120" 
d="M176 0v1186h465q92 0 164.5 -32t115.5 -86.5t65 -120t22 -138.5q0 -91 -29.5 -167t-99 -132.5t-170.5 -69.5l309 -440h-236l-293 430h-116v-430h-197zM373 608h254q90 0 135 59.5t45 141.5q0 81 -43 141t-129 60h-262v-402z" />
    <glyph glyph-name="S.sc" horiz-adv-x="1030" 
d="M104 350h195q0 -78 63.5 -135t161.5 -57q96 0 151.5 44t63.5 109q10 72 -42 119t-138 68l-149 39q-293 76 -293 321q0 148 115 243t276 95q170 0 279.5 -97t109.5 -261h-192q0 79 -55.5 128.5t-143.5 49.5q-80 0 -138.5 -44.5t-58.5 -111.5q0 -107 152 -147l149 -39
q171 -45 252.5 -143.5t69.5 -229.5q-15 -139 -128.5 -230t-279.5 -91q-182 0 -301 108.5t-119 261.5z" />
    <glyph glyph-name="T.sc" horiz-adv-x="983" 
d="M47 1008v178h889v-178h-346v-1008h-197v1008h-346z" />
    <glyph glyph-name="U.sc" horiz-adv-x="1212" 
d="M164 410v774h196v-774q0 -107 72.5 -175.5t173.5 -68.5q103 0 176.5 68.5t73.5 175.5v774h193v-774q0 -127 -61 -226.5t-161.5 -151.5t-220.5 -52q-119 0 -219 52t-161.5 151.5t-61.5 226.5z" />
    <glyph glyph-name="V.sc" horiz-adv-x="1019" 
d="M61 1186h201l248 -854l248 854h200l-358 -1186h-178z" />
    <glyph glyph-name="W.sc" horiz-adv-x="1593" 
d="M43 1186h207l274 -860l199 700h149l197 -700l274 860h209l-403 -1186h-160l-192 686l-191 -686h-162z" />
    <glyph glyph-name="X.sc" horiz-adv-x="1130" 
d="M37 0l412 637l-369 549h231l254 -391l256 391h230l-369 -551l414 -635h-234l-297 473l-297 -473h-231z" />
    <glyph glyph-name="Y.sc" horiz-adv-x="1155" 
d="M25 1186h229l321 -463l324 463h236l-459 -643v-543h-199v543z" />
    <glyph glyph-name="Z.sc" horiz-adv-x="1042" 
d="M94 0v160l594 848h-571v178h821v-158l-598 -848h598v-180h-844z" />
    <glyph glyph-name="Scaron.sc" horiz-adv-x="1030" 
d="M104 350h195q0 -78 63.5 -135t161.5 -57q96 0 151.5 44t63.5 109q10 72 -42 119t-138 68l-149 39q-293 76 -293 321q0 148 115 243t276 95q170 0 279.5 -97t109.5 -261h-192q0 79 -55.5 128.5t-143.5 49.5q-80 0 -138.5 -44.5t-58.5 -111.5q0 -107 152 -147l149 -39
q171 -45 252.5 -143.5t69.5 -229.5q-15 -139 -128.5 -230t-279.5 -91q-182 0 -301 108.5t-119 261.5zM225 1595h162l127 -143l127 143h162l-197 -278h-182z" />
    <glyph glyph-name="OE.sc" horiz-adv-x="1949" 
d="M100 588q0 167 78.5 306.5t216 220.5t303.5 81q118 0 223.5 -46.5t182.5 -127.5v164h719v-185h-525v-327h459v-182h-459v-308h541v-184h-735v154q-77 -80 -183 -127t-223 -47q-166 0 -303.5 81.5t-216 221t-78.5 305.5zM293 588q0 -173 117 -293.5t288 -120.5
q113 0 207 59.5t146.5 157.5t52.5 211q-11 164 -127.5 283t-278.5 119q-171 0 -288 -121.5t-117 -294.5z" />
    <glyph glyph-name="Ydieresis.sc" horiz-adv-x="1155" 
d="M25 1186h229l321 -463l324 463h236l-459 -643v-543h-199v543zM315 1462q0 47 34.5 79t82.5 32t81.5 -32t33.5 -79q0 -49 -33.5 -79.5t-81.5 -30.5q-49 0 -83 31t-34 79zM608 1462q0 47 34.5 79t82.5 32t81.5 -32t33.5 -79q0 -49 -33.5 -79.5t-81.5 -30.5q-49 0 -83 31
t-34 79z" />
    <glyph glyph-name="exclamdown.sc" horiz-adv-x="563" 
d="M166 1098q0 49 34.5 80.5t82.5 31.5q51 0 84.5 -31.5t33.5 -80.5q0 -50 -33.5 -82.5t-84.5 -32.5q-48 0 -82.5 33t-34.5 82zM174 0l27 879h159l29 -879h-215z" />
    <glyph glyph-name="questiondown.sc" horiz-adv-x="870" 
d="M80 315q0 121 70 209.5t176 120.5q74 22 91.5 58t20.5 151h183v-86q0 -123 -56.5 -191t-169.5 -104q-60 -19 -95.5 -61t-35.5 -97q0 -65 52.5 -108t121.5 -43t118.5 49.5t49.5 128.5h180q0 -165 -99 -263.5t-249 -98.5q-152 0 -255 92t-103 243zM401 1075q0 52 36.5 86.5
t90.5 34.5q52 0 89.5 -34.5t37.5 -86.5q0 -54 -37.5 -89.5t-89.5 -35.5q-55 0 -91 35t-36 90z" />
    <glyph glyph-name="Agrave.sc" horiz-adv-x="1167" 
d="M33 0l448 1186h205l449 -1186h-205l-113 293h-467l-110 -293h-207zM268 1597h215l179 -278h-168zM416 467h336l-168 467z" />
    <glyph glyph-name="Aacute.sc" horiz-adv-x="1167" 
d="M33 0l448 1186h205l449 -1186h-205l-113 293h-467l-110 -293h-207zM416 467h336l-168 467zM502 1309l178 278h213l-223 -278h-168z" />
    <glyph glyph-name="Acircumflex.sc" horiz-adv-x="1167" 
d="M33 0l448 1186h205l449 -1186h-205l-113 293h-467l-110 -293h-207zM287 1319l196 280h183l198 -280h-164l-127 147l-127 -147h-159zM416 467h336l-168 467z" />
    <glyph glyph-name="Atilde.sc" horiz-adv-x="1167" 
d="M33 0l448 1186h205l449 -1186h-205l-113 293h-467l-110 -293h-207zM336 1343q7 108 51 160.5t102 55.5q35 0 85.5 -35t74.5 -35q14 0 27 17t14 53h121q-4 -112 -52.5 -162.5t-109.5 -50.5q-29 0 -58 18t-53 35.5t-40 17.5q-13 0 -25.5 -18.5t-13.5 -55.5h-123zM416 467
h336l-168 467z" />
    <glyph glyph-name="Adieresis.sc" horiz-adv-x="1167" 
d="M33 0l448 1186h205l449 -1186h-205l-113 293h-467l-110 -293h-207zM307 1462q0 47 34.5 79t82.5 32t81.5 -32t33.5 -79q0 -49 -33.5 -79.5t-81.5 -30.5q-49 0 -83 31t-34 79zM416 467h336l-168 467zM600 1462q0 47 33.5 79t81.5 32q49 0 82.5 -32t33.5 -79
q0 -49 -33 -79.5t-83 -30.5q-48 0 -81.5 30.5t-33.5 79.5z" />
    <glyph glyph-name="Aring.sc" horiz-adv-x="1167" 
d="M33 0l448 1186h205l449 -1186h-205l-113 293h-467l-110 -293h-207zM381 1491q0 83 55 137.5t135 54.5q84 0 139.5 -54.5t55.5 -137.5q0 -80 -56 -135.5t-139 -55.5q-79 0 -134.5 55.5t-55.5 135.5zM416 467h336l-168 467zM489 1491q0 -33 24.5 -57.5t57.5 -24.5
q37 0 62.5 24t25.5 58q0 35 -25.5 60.5t-62.5 25.5q-33 0 -57.5 -25.5t-24.5 -60.5z" />
    <glyph glyph-name="AE.sc" horiz-adv-x="1656" 
d="M14 0l752 1186h764v-185h-524v-327h456v-182h-456v-308h540v-184h-735v289h-381l-184 -289h-232zM543 475h268v432z" />
    <glyph glyph-name="Ccedilla.sc" horiz-adv-x="1222" 
d="M100 588q0 167 79.5 307t218 221.5t304.5 81.5q138 0 257 -57.5t204 -159.5l-147 -119q-61 71 -142.5 110.5t-171.5 39.5q-173 0 -291 -123t-118 -301q0 -176 118.5 -299t290.5 -123q92 0 174.5 42t141.5 114l149 -117q-163 -202 -419 -223q4 -9 16.5 -31.5t18 -33
t13 -28.5t10.5 -34t3 -33q0 -70 -53.5 -124t-130.5 -54q-73 0 -126 59t-53 152l127 -9q1 -29 5 -43q9 -22 30 -31.5t43 -2.5q22 10 29.5 33t-0.5 46l-49 136q-113 13 -211.5 65.5t-168.5 132t-110.5 185t-40.5 221.5z" />
    <glyph glyph-name="Egrave.sc" horiz-adv-x="1021" 
d="M176 0v1186h721v-176h-526v-336h460v-178h-460v-318h540v-178h-735zM262 1597h215l178 -278h-168z" />
    <glyph glyph-name="Eacute.sc" horiz-adv-x="1021" 
d="M176 0v1186h721v-176h-526v-336h460v-178h-460v-318h540v-178h-735zM381 1319l178 278h215l-225 -278h-168z" />
    <glyph glyph-name="Ecircumflex.sc" horiz-adv-x="1021" 
d="M176 0v1186h721v-176h-526v-336h460v-178h-460v-318h540v-178h-735zM221 1319l197 280h184l197 -280h-162l-127 147l-127 -147h-162z" />
    <glyph glyph-name="Edieresis.sc" horiz-adv-x="1021" 
d="M176 0v1186h721v-176h-526v-336h460v-178h-460v-318h540v-178h-735zM252 1462q0 47 34.5 79t84.5 32q46 0 80 -32t34 -79q0 -48 -33.5 -79t-80.5 -31q-50 0 -84.5 30.5t-34.5 79.5zM545 1462q0 47 34.5 79t82.5 32t81 -32t33 -79q0 -49 -33 -79.5t-81 -30.5q-49 0 -83 31
t-34 79z" />
    <glyph glyph-name="Igrave.sc" horiz-adv-x="546" 
d="M-29 1599h215l183 -274h-170zM176 0v1186h195v-1186h-195z" />
    <glyph glyph-name="Iacute.sc" horiz-adv-x="546" 
d="M176 0v1186h195v-1186h-195zM176 1325l182 274h215l-227 -274h-170z" />
    <glyph glyph-name="Icircumflex.sc" horiz-adv-x="546" 
d="M-16 1319l196 280h185l196 -280h-162l-127 147l-127 -147h-161zM176 0v1186h195v-1186h-195z" />
    <glyph glyph-name="Idieresis.sc" horiz-adv-x="546" 
d="M12 1462q0 47 34.5 79t84.5 32q46 0 80.5 -32t34.5 -79q0 -48 -34 -79t-81 -31q-50 0 -84.5 30.5t-34.5 79.5zM176 0v1186h195v-1186h-195zM305 1462q0 47 34.5 79t82.5 32t81.5 -32t33.5 -79q0 -49 -33.5 -79.5t-81.5 -30.5q-49 0 -83 31t-34 79z" />
    <glyph glyph-name="Eth.sc" horiz-adv-x="1282" 
d="M29 522v133h159v531h457q166 0 287.5 -79t182.5 -212.5t61 -304.5q0 -170 -61 -302t-182.5 -210t-287.5 -78h-457v522h-159zM381 186h264q161 0 249.5 113t88.5 291q0 179 -88.5 294t-249.5 115h-264v-344h264v-133h-264v-336z" />
    <glyph glyph-name="Ntilde.sc" horiz-adv-x="1220" 
d="M176 0v1186h184l492 -815v815h192v-1186h-180l-493 825v-825h-195zM373 1343q7 108 51 160.5t102 55.5q35 0 85.5 -35t74.5 -35q14 0 27 17t14 53h121q-4 -112 -52.5 -162.5t-109.5 -50.5q-29 0 -58 18t-53 35.5t-40 17.5q-13 0 -25.5 -18.5t-13.5 -55.5h-123z" />
    <glyph glyph-name="Ograve.sc" horiz-adv-x="1398" 
d="M98 588q0 167 78.5 306.5t216 220.5t303.5 81q167 0 306 -81t218.5 -220.5t79.5 -306.5q0 -166 -79.5 -305.5t-218.5 -221t-306 -81.5q-166 0 -303.5 81.5t-216 221t-78.5 305.5zM291 588q0 -174 117.5 -297t287.5 -123q171 0 290.5 123t119.5 297q0 175 -119.5 297.5
t-290.5 122.5q-170 0 -287.5 -122.5t-117.5 -297.5zM389 1597h213l180 -278h-168z" />
    <glyph glyph-name="Oacute.sc" horiz-adv-x="1398" 
d="M98 588q0 167 78.5 306.5t216 220.5t303.5 81q167 0 306 -81t218.5 -220.5t79.5 -306.5q0 -166 -79.5 -305.5t-218.5 -221t-306 -81.5q-166 0 -303.5 81.5t-216 221t-78.5 305.5zM291 588q0 -174 117.5 -297t287.5 -123q171 0 290.5 123t119.5 297q0 175 -119.5 297.5
t-290.5 122.5q-170 0 -287.5 -122.5t-117.5 -297.5zM610 1319l178 278h213l-223 -278h-168z" />
    <glyph glyph-name="Ocircumflex.sc" horiz-adv-x="1398" 
d="M98 588q0 167 78.5 306.5t216 220.5t303.5 81q167 0 306 -81t218.5 -220.5t79.5 -306.5q0 -166 -79.5 -305.5t-218.5 -221t-306 -81.5q-166 0 -303.5 81.5t-216 221t-78.5 305.5zM291 588q0 -174 117.5 -297t287.5 -123q171 0 290.5 123t119.5 297q0 175 -119.5 297.5
t-290.5 122.5q-170 0 -287.5 -122.5t-117.5 -297.5zM410 1319l196 280h182l197 -280h-160l-129 147l-125 -147h-161z" />
    <glyph glyph-name="Otilde.sc" horiz-adv-x="1398" 
d="M98 588q0 167 78.5 306.5t216 220.5t303.5 81q167 0 306 -81t218.5 -220.5t79.5 -306.5q0 -166 -79.5 -305.5t-218.5 -221t-306 -81.5q-166 0 -303.5 81.5t-216 221t-78.5 305.5zM291 588q0 -174 117.5 -297t287.5 -123q171 0 290.5 123t119.5 297q0 175 -119.5 297.5
t-290.5 122.5q-170 0 -287.5 -122.5t-117.5 -297.5zM457 1343q7 108 51 160.5t102 55.5q35 0 85.5 -35t74.5 -35q14 0 27 17t14 53h121q-4 -112 -52.5 -162.5t-109.5 -50.5q-29 0 -58.5 18t-53.5 35.5t-40 17.5q-13 0 -25 -18.5t-13 -55.5h-123z" />
    <glyph glyph-name="Odieresis.sc" horiz-adv-x="1398" 
d="M98 588q0 167 78.5 306.5t216 220.5t303.5 81q167 0 306 -81t218.5 -220.5t79.5 -306.5q0 -166 -79.5 -305.5t-218.5 -221t-306 -81.5q-166 0 -303.5 81.5t-216 221t-78.5 305.5zM291 588q0 -174 117.5 -297t287.5 -123q171 0 290.5 123t119.5 297q0 175 -119.5 297.5
t-290.5 122.5q-170 0 -287.5 -122.5t-117.5 -297.5zM436 1462q0 47 33.5 79t83.5 32q46 0 79.5 -32t33.5 -79q0 -48 -33 -79t-80 -31q-50 0 -83.5 30.5t-33.5 79.5zM729 1462q0 47 33 79t82 32t81.5 -32t32.5 -79q0 -49 -32 -79.5t-82 -30.5t-82.5 30.5t-32.5 79.5z" />
    <glyph glyph-name="Oslash.sc" horiz-adv-x="1398" 
d="M98 588q0 167 78.5 306.5t216 220.5t303.5 81q214 0 381 -135l137 137l89 -86l-138 -137q135 -175 135 -387q0 -166 -79.5 -305.5t-218.5 -221t-306 -81.5q-209 0 -370 126l-138 -139l-88 88l138 142q-140 169 -140 391zM291 588q0 -143 80 -256l573 592q-109 84 -248 84
q-170 0 -287.5 -122.5t-117.5 -297.5zM457 246q108 -78 239 -78q171 0 290.5 123t119.5 297q0 133 -76 248z" />
    <glyph glyph-name="Ugrave.sc" horiz-adv-x="1212" 
d="M164 410v776h196v-776q0 -107 72.5 -175.5t173.5 -68.5q103 0 176.5 68.5t73.5 175.5v776h193v-776q0 -127 -61 -226.5t-161.5 -151.5t-220.5 -52q-119 0 -219 52t-161.5 151.5t-61.5 226.5zM340 1597h215l178 -278h-168z" />
    <glyph glyph-name="Uacute.sc" horiz-adv-x="1212" 
d="M164 410v776h196v-776q0 -107 72.5 -175.5t173.5 -68.5q103 0 176.5 68.5t73.5 175.5v776h193v-776q0 -127 -61 -226.5t-161.5 -151.5t-220.5 -52q-119 0 -219 52t-161.5 151.5t-61.5 226.5zM469 1319l180 278h213l-225 -278h-168z" />
    <glyph glyph-name="Ucircumflex.sc" horiz-adv-x="1212" 
d="M164 410v776h196v-776q0 -107 72.5 -175.5t173.5 -68.5q103 0 176.5 68.5t73.5 175.5v776h193v-776q0 -127 -61 -226.5t-161.5 -151.5t-220.5 -52q-119 0 -219 52t-161.5 151.5t-61.5 226.5zM317 1319l197 280h182l197 -280h-162l-125 147l-127 -147h-162z" />
    <glyph glyph-name="Udieresis.sc" horiz-adv-x="1212" 
d="M164 410v776h196v-776q0 -107 72.5 -175.5t173.5 -68.5q103 0 176.5 68.5t73.5 175.5v776h193v-776q0 -127 -61 -226.5t-161.5 -151.5t-220.5 -52q-119 0 -219 52t-161.5 151.5t-61.5 226.5zM344 1462q0 47 34.5 79t82.5 32q47 0 79.5 -32t32.5 -79q0 -49 -32 -79.5
t-80 -30.5q-49 0 -83 31t-34 79zM635 1462q0 47 34.5 79t82.5 32q49 0 82.5 -32t33.5 -79q0 -49 -33 -79.5t-83 -30.5q-49 0 -83 31t-34 79z" />
    <glyph glyph-name="Yacute.sc" horiz-adv-x="1155" 
d="M25 1186h229l321 -463l324 463h236l-459 -643v-543h-199v543zM455 1319l178 278h215l-225 -278h-168z" />
    <glyph glyph-name="Thorn.sc" horiz-adv-x="1026" 
d="M176 0v1186h193v-205h213q160 0 266 -102.5t106 -270.5t-106.5 -272.5t-265.5 -104.5h-213v-231h-193zM369 410h211q75 0 128.5 55t53.5 141q0 90 -55 142t-138 57h-200v-395z" />
    <glyph glyph-name="Amacron.sc" horiz-adv-x="1167" 
d="M33 0l448 1186h205l449 -1186h-205l-113 293h-467l-110 -293h-207zM348 1370v152h453v-152h-453zM416 467h336l-168 467z" />
    <glyph glyph-name="Abreve.sc" horiz-adv-x="1167" 
d="M33 0l448 1186h205l449 -1186h-205l-113 293h-467l-110 -293h-207zM346 1556h141q0 -44 22.5 -70t63.5 -26q40 0 63 29t23 67h146q0 -105 -64 -167t-168 -62q-114 0 -170.5 66t-56.5 163zM416 467h336l-168 467z" />
    <glyph glyph-name="Cacute.sc" horiz-adv-x="1220" 
d="M100 588q0 167 79.5 306.5t218 220.5t304.5 81q138 0 257 -57.5t204 -159.5l-147 -117q-62 70 -143 110t-171 40q-173 0 -291 -123t-118 -301q0 -176 118.5 -299t290.5 -123q93 0 175 42t141 114l149 -119q-81 -103 -203 -163t-262 -60q-166 0 -304.5 81.5t-218 221
t-79.5 305.5zM575 1319l181 278h213l-226 -278h-168z" />
    <glyph glyph-name="Ccircumflex.sc" horiz-adv-x="1220" 
d="M100 588q0 167 79.5 306.5t218 220.5t304.5 81q138 0 257 -57.5t204 -159.5l-147 -117q-62 70 -143 110t-171 40q-173 0 -291 -123t-118 -301q0 -176 118.5 -299t290.5 -123q93 0 175 42t141 114l149 -119q-81 -103 -203 -163t-262 -60q-166 0 -304.5 81.5t-218 221
t-79.5 305.5zM410 1319l196 280h182l199 -280h-162l-129 147l-127 -147h-159z" />
    <glyph glyph-name="Cdotaccent.sc" horiz-adv-x="1220" 
d="M100 588q0 167 79.5 306.5t218 220.5t304.5 81q138 0 257 -57.5t204 -159.5l-147 -117q-62 70 -143 110t-171 40q-173 0 -291 -123t-118 -301q0 -176 118.5 -299t290.5 -123q93 0 175 42t141 114l149 -119q-81 -103 -203 -163t-262 -60q-166 0 -304.5 81.5t-218 221
t-79.5 305.5zM559 1477q0 49 34.5 80.5t84.5 31.5t84.5 -31.5t34.5 -80.5t-34.5 -81t-84.5 -32t-84.5 32t-34.5 81z" />
    <glyph glyph-name="Ccaron.sc" horiz-adv-x="1220" 
d="M100 588q0 167 79.5 306.5t218 220.5t304.5 81q138 0 257 -57.5t204 -159.5l-147 -117q-62 70 -143 110t-171 40q-173 0 -291 -123t-118 -301q0 -176 118.5 -299t290.5 -123q93 0 175 42t141 114l149 -119q-81 -103 -203 -163t-262 -60q-166 0 -304.5 81.5t-218 221
t-79.5 305.5zM381 1595h162l127 -143l127 143h161l-196 -278h-182z" />
    <glyph glyph-name="Dcaron.sc" horiz-adv-x="1280" 
d="M176 0v1186h461q167 0 290 -79t185 -213t62 -304q0 -169 -62 -301.5t-185 -210.5t-290 -78h-461zM362 1595h162l127 -143l127 143h162l-197 -278h-182zM369 180h268q164 0 253 115t89 295q0 118 -37.5 211t-116 150t-188.5 57h-268v-828z" />
    <glyph glyph-name="Aogonek.sc" horiz-adv-x="1167" 
d="M33 0l448 1186h205l449 -1186h-101l-51 -150q-8 -25 0 -47t29 -32q32 -12 57.5 15.5t20.5 61.5l124 9q0 -95 -52.5 -153t-125.5 -58q-77 0 -129.5 54t-52.5 124q0 23 8.5 50.5t14.5 41.5t26 50t23 42l-109 285h-467l-110 -293h-207zM416 467h338l-170 467z" />
    <glyph glyph-name="Emacron.sc" horiz-adv-x="1021" 
d="M176 0v1186h721v-176h-526v-336h460v-178h-460v-318h540v-178h-735zM307 1370v152h453v-152h-453z" />
    <glyph glyph-name="Ebreve.sc" horiz-adv-x="1021" 
d="M176 0v1186h721v-176h-526v-336h460v-178h-460v-318h540v-178h-735zM279 1556h143q0 -44 23 -70t65 -26q39 0 61.5 29t22.5 67h145q0 -105 -62 -167t-167 -62q-113 0 -172 66.5t-59 162.5z" />
    <glyph glyph-name="Edotaccent.sc" horiz-adv-x="1021" 
d="M176 0v1186h721v-176h-526v-336h460v-178h-460v-318h540v-178h-735zM424 1477q0 49 34.5 80.5t84.5 31.5q52 0 86.5 -31.5t34.5 -80.5t-35 -81t-86 -32q-50 0 -84.5 32t-34.5 81z" />
    <glyph glyph-name="Ecaron.sc" horiz-adv-x="1021" 
d="M176 0v1186h721v-176h-526v-336h460v-178h-460v-318h540v-178h-735zM244 1595h162l126 -143l127 143h162l-196 -278h-183z" />
    <glyph glyph-name="Gcircumflex.sc" horiz-adv-x="1333" 
d="M98 588q0 167 78.5 306.5t216.5 220.5t305 81q121 0 229 -44.5t187 -125.5l-137 -127h-2q-54 54 -126.5 84.5t-150.5 30.5q-171 0 -289 -124t-118 -302q0 -176 118 -301t289 -125q142 0 241 75t105 201h-329v166h549q0 -310 -151 -467t-415 -157q-167 0 -305 81.5
t-216.5 221t-78.5 305.5zM406 1319l196 280h182l199 -280h-164l-127 147l-127 -147h-159z" />
    <glyph glyph-name="Gbreve.sc" horiz-adv-x="1333" 
d="M98 588q0 167 78.5 306.5t216.5 220.5t305 81q121 0 229 -44.5t187 -125.5l-137 -127h-2q-54 54 -126.5 84.5t-150.5 30.5q-171 0 -289 -124t-118 -302q0 -176 118 -301t289 -125q142 0 241 75t105 201h-329v166h549q0 -310 -151 -467t-415 -157q-167 0 -305 81.5
t-216.5 221t-78.5 305.5zM465 1556h141q0 -44 22.5 -70t63.5 -26q40 0 63 29t23 67h146q0 -105 -64 -167t-168 -62q-114 0 -170.5 66t-56.5 163z" />
    <glyph glyph-name="Eogonek.sc" horiz-adv-x="1021" 
d="M176 0v1186h721v-176h-526v-336h460v-178h-460v-318h540v-176l-55 -139q-10 -21 -2 -45t31 -33q34 -13 60 17t16 61l126 6q1 -91 -51 -150t-127 -59q-77 0 -128.5 54t-51.5 124q0 51 12 76l54 86h-619z" />
    <glyph glyph-name="Dcroat.sc" horiz-adv-x="1282" 
d="M29 518v144h159v524h457q166 0 287.5 -79t182.5 -212.5t61 -304.5q0 -170 -61 -302t-182.5 -210t-287.5 -78h-457v518h-159zM381 186h264q161 0 249.5 113t88.5 291q0 179 -88.5 294t-249.5 115h-264v-337h264v-144h-264v-332z" />
    <glyph glyph-name="Gdotaccent.sc" horiz-adv-x="1333" 
d="M98 588q0 167 78.5 306.5t216.5 220.5t305 81q121 0 229 -44.5t187 -125.5l-137 -127h-2q-54 54 -126.5 84.5t-150.5 30.5q-171 0 -289 -124t-118 -302q0 -176 118 -301t289 -125q142 0 241 75t105 201h-329v166h549q0 -310 -151 -467t-415 -157q-167 0 -305 81.5
t-216.5 221t-78.5 305.5zM559 1477q0 49 35.5 80.5t85.5 31.5q51 0 85 -31.5t34 -80.5t-34 -81t-85 -32q-50 0 -85.5 32t-35.5 81z" />
    <glyph glyph-name="Hcircumflex.sc" horiz-adv-x="1259" 
d="M176 0v1186h195v-508h516v508h196v-1186h-196v502h-516v-502h-195zM342 1319l197 280h182l197 -280h-162l-127 147l-127 -147h-160z" />
    <glyph glyph-name="Hbar.sc" horiz-adv-x="1273" 
d="M68 870v115h116v201h195v-201h518v201h193v-201h120v-115h-120v-870h-193v500h-518v-500h-195v870h-116zM379 680h518v190h-518v-190z" />
    <glyph glyph-name="Itilde.sc" horiz-adv-x="546" 
d="M35 1343q7 108 51 160.5t102 55.5q35 0 85.5 -35t74.5 -35q14 0 27 17t14 53h121q-4 -112 -52.5 -162.5t-109.5 -50.5q-29 0 -58 18t-53 35.5t-40 17.5q-13 0 -25.5 -18.5t-13.5 -55.5h-123zM176 0v1186h195v-1186h-195z" />
    <glyph glyph-name="Imacron.sc" horiz-adv-x="546" 
d="M47 1370v152h453v-152h-453zM176 0v1186h195v-1186h-195z" />
    <glyph glyph-name="Iogonek.sc" horiz-adv-x="546" 
d="M102 -176q0 45 15 76l59 110v1176h195v-1186h-86l-52 -150q-17 -58 27 -79q34 -11 58.5 16t19.5 61l125 9q0 -93 -52 -152t-126 -59q-76 0 -129.5 54.5t-53.5 123.5z" />
    <glyph glyph-name="IJ.sc" horiz-adv-x="1091" 
d="M176 0v1186h195v-1186h-195zM397 -399l17 182q49 -16 129 -16q94 0 137 56t43 146v1217h192v-1217q0 -82 -20.5 -150.5t-63 -123.5t-116 -86t-172.5 -31q-38 0 -146 23z" />
    <glyph glyph-name="Jcircumflex.sc" horiz-adv-x="538" 
d="M-150 -397l19 176q21 -8 64.5 -12.5t60.5 -4.5q94 0 138 58t44 149v1215h186v-1215q0 -82 -20 -149.5t-62 -122t-115 -85t-171 -30.5q-49 0 -144 21zM-29 1319l197 280h184l195 -280h-160l-129 147l-125 -147h-162z" />
    <glyph glyph-name="Lacute.sc" horiz-adv-x="878" 
d="M176 0v1186h195v-1008h469v-178h-664zM180 1303l176 280h215l-223 -280h-168z" />
    <glyph glyph-name="Lcaron.sc" horiz-adv-x="882" 
d="M176 0v1186h195v-1008h469v-178h-664zM481 860q83 120 88 240q3 37 0 80h179q-3 -128 -43 -216.5t-101 -136.5z" />
    <glyph glyph-name="Ldot.sc" horiz-adv-x="878" 
d="M176 0v1186h195v-1008h469v-178h-664zM502 471q0 44 32 75.5t76 31.5q46 0 79.5 -31.5t33.5 -75.5q0 -45 -33.5 -75.5t-79.5 -30.5q-45 0 -76.5 30.5t-31.5 75.5z" />
    <glyph glyph-name="Nacute.sc" horiz-adv-x="1220" 
d="M176 0v1186h184l492 -815v815h192v-1186h-180l-493 825v-825h-195zM479 1319l178 278h215l-225 -278h-168z" />
    <glyph glyph-name="Ncaron.sc" horiz-adv-x="1220" 
d="M176 0v1186h184l492 -815v815h192v-1186h-180l-493 825v-825h-195zM317 1595h162l127 -143l127 143h160l-195 -278h-184z" />
    <glyph glyph-name="Omacron.sc" horiz-adv-x="1398" 
d="M98 588q0 167 78.5 306.5t216 220.5t303.5 81q167 0 306 -81t218.5 -220.5t79.5 -306.5q0 -166 -79.5 -305.5t-218.5 -221t-306 -81.5q-166 0 -303.5 81.5t-216 221t-78.5 305.5zM291 588q0 -174 117.5 -297t287.5 -123q171 0 290.5 123t119.5 297q0 175 -119.5 297.5
t-290.5 122.5q-170 0 -287.5 -122.5t-117.5 -297.5zM471 1370v152h453v-152h-453z" />
    <glyph glyph-name="Obreve.sc" horiz-adv-x="1398" 
d="M98 588q0 167 78.5 306.5t216 220.5t303.5 81q167 0 306 -81t218.5 -220.5t79.5 -306.5q0 -166 -79.5 -305.5t-218.5 -221t-306 -81.5q-166 0 -303.5 81.5t-216 221t-78.5 305.5zM291 588q0 -174 117.5 -297t287.5 -123q171 0 290.5 123t119.5 297q0 175 -119.5 297.5
t-290.5 122.5q-170 0 -287.5 -122.5t-117.5 -297.5zM467 1556h141q0 -43 23.5 -69.5t64.5 -26.5q40 0 63 29t23 67h146q0 -105 -63.5 -167t-168.5 -62q-113 0 -171 66.5t-58 162.5z" />
    <glyph glyph-name="Ohungarumlaut.sc" horiz-adv-x="1398" 
d="M98 588q0 167 78.5 306.5t216 220.5t303.5 81q167 0 306 -81t218.5 -220.5t79.5 -306.5q0 -166 -79.5 -305.5t-218.5 -221t-306 -81.5q-166 0 -303.5 81.5t-216 221t-78.5 305.5zM291 588q0 -174 117.5 -297t287.5 -123q171 0 290.5 123t119.5 297q0 175 -119.5 297.5
t-290.5 122.5q-170 0 -287.5 -122.5t-117.5 -297.5zM485 1317l156 278h182l-174 -278h-164zM717 1317l176 278h182l-194 -278h-164z" />
    <glyph glyph-name="Racute.sc" horiz-adv-x="1120" 
d="M176 0v1186h465q92 0 164.5 -32t115.5 -86.5t65 -120t22 -138.5q0 -91 -29.5 -167t-99 -132.5t-170.5 -69.5l309 -440h-236l-293 430h-116v-430h-197zM373 608h254q90 0 135 59.5t45 141.5q0 81 -43 141t-129 60h-262v-402zM377 1319l180 278h211l-223 -278h-168z" />
    <glyph glyph-name="Rcaron.sc" horiz-adv-x="1120" 
d="M176 0v1186h465q92 0 164.5 -32t115.5 -86.5t65 -120t22 -138.5q0 -91 -29.5 -167t-99 -132.5t-170.5 -69.5l309 -440h-236l-293 430h-116v-430h-197zM266 1595h164l127 -143l127 143h162l-197 -278h-184zM373 608h254q90 0 135 59.5t45 141.5q0 81 -43 141t-129 60h-262
v-402z" />
    <glyph glyph-name="Sacute.sc" horiz-adv-x="1030" 
d="M104 350h195q0 -78 63.5 -135t161.5 -57q96 0 151.5 44t63.5 109q10 72 -42 119t-138 68l-149 39q-293 76 -293 321q0 148 115 243t276 95q170 0 279.5 -97t109.5 -261h-192q0 79 -55.5 128.5t-143.5 49.5q-80 0 -138.5 -44.5t-58.5 -111.5q0 -107 152 -147l149 -39
q171 -45 252.5 -143.5t69.5 -229.5q-15 -139 -128.5 -230t-279.5 -91q-182 0 -301 108.5t-119 261.5zM379 1319l178 278h215l-225 -278h-168z" />
    <glyph glyph-name="Scircumflex.sc" horiz-adv-x="1030" 
d="M104 350h195q0 -78 63.5 -135t161.5 -57q96 0 151.5 44t63.5 109q10 72 -42 119t-138 68l-149 39q-293 76 -293 321q0 148 115 243t276 95q170 0 279.5 -97t109.5 -261h-192q0 79 -55.5 128.5t-143.5 49.5q-80 0 -138.5 -44.5t-58.5 -111.5q0 -107 152 -147l149 -39
q171 -45 252.5 -143.5t69.5 -229.5q-15 -139 -128.5 -230t-279.5 -91q-182 0 -301 108.5t-119 261.5zM217 1319l197 280h184l195 -280h-160l-127 147l-127 -147h-162z" />
    <glyph glyph-name="Scedilla.sc" horiz-adv-x="1028" 
d="M104 350h195q0 -75 63.5 -133.5t161.5 -58.5q96 0 150 42.5t65 110.5q10 72 -42.5 119t-137.5 68l-149 39q-293 76 -293 321q0 147 115 242.5t276 95.5q168 0 277.5 -97.5t109.5 -260.5h-193q0 79 -54 127.5t-142 48.5q-81 0 -140 -43t-59 -113q0 -26 9.5 -50t46 -52
t98.5 -43l149 -39q152 -43 232 -125t88 -189q9 -135 -76.5 -238.5t-228.5 -129.5q3 -5 12.5 -23t13 -25t11 -23t11 -25.5t8 -23t6 -26t1.5 -24.5q0 -70 -52.5 -124t-129.5 -54q-74 0 -126 59t-52 152l127 -9q-6 -33 18.5 -60.5t58.5 -16.5q21 10 29 33t0 46l-55 132
q-175 4 -288.5 112.5t-113.5 257.5z" />
    <glyph glyph-name="Utilde.sc" horiz-adv-x="1212" 
d="M164 410v774h196v-774q0 -107 72.5 -175.5t173.5 -68.5q103 0 176.5 68.5t73.5 175.5v774h193v-774q0 -127 -61 -226.5t-161.5 -151.5t-220.5 -52q-119 0 -219 52t-161.5 151.5t-61.5 226.5zM365 1343q7 108 51 160.5t102 55.5q35 0 85.5 -35t74.5 -35q14 0 27 17t14 53
h121q-4 -112 -52.5 -162.5t-109.5 -50.5q-29 0 -58.5 18t-53.5 35.5t-40 17.5q-13 0 -25.5 -18.5t-13.5 -55.5h-122z" />
    <glyph glyph-name="Umacron.sc" horiz-adv-x="1212" 
d="M164 410v774h196v-774q0 -107 72.5 -175.5t173.5 -68.5q103 0 176.5 68.5t73.5 175.5v774h193v-774q0 -127 -61 -226.5t-161.5 -151.5t-220.5 -52q-119 0 -219 52t-161.5 151.5t-61.5 226.5zM381 1370v152h453v-152h-453z" />
    <glyph glyph-name="Ubreve.sc" horiz-adv-x="1212" 
d="M164 410v774h196v-774q0 -107 72.5 -175.5t173.5 -68.5q103 0 176.5 68.5t73.5 175.5v774h193v-774q0 -127 -61 -226.5t-161.5 -151.5t-220.5 -52q-119 0 -219 52t-161.5 151.5t-61.5 226.5zM377 1556h143q0 -44 22.5 -70t63.5 -26q39 0 61.5 29t22.5 67h148
q0 -105 -64 -167t-168 -62q-114 0 -171.5 66.5t-57.5 162.5z" />
    <glyph glyph-name="Uring.sc" horiz-adv-x="1212" 
d="M164 410v774h196v-774q0 -107 72.5 -175.5t173.5 -68.5q103 0 176.5 68.5t73.5 175.5v774h193v-774q0 -127 -61 -226.5t-161.5 -151.5t-220.5 -52q-119 0 -219 52t-161.5 151.5t-61.5 226.5zM414 1491q0 83 55 137.5t135 54.5q84 0 139.5 -54.5t55.5 -137.5
q0 -80 -56 -135.5t-139 -55.5q-79 0 -134.5 55.5t-55.5 135.5zM522 1491q0 -33 24.5 -57.5t57.5 -24.5q35 0 61.5 24t26.5 58q0 35 -26.5 60.5t-61.5 25.5q-33 0 -57.5 -25.5t-24.5 -60.5z" />
    <glyph glyph-name="Uhungarumlaut.sc" horiz-adv-x="1212" 
d="M164 410v774h196v-774q0 -107 72.5 -175.5t173.5 -68.5q103 0 176.5 68.5t73.5 175.5v774h193v-774q0 -127 -61 -226.5t-161.5 -151.5t-220.5 -52q-119 0 -219 52t-161.5 151.5t-61.5 226.5z" />
    <glyph glyph-name="Uogonek.sc" horiz-adv-x="1212" 
d="M164 408v774h196v-774q0 -106 72.5 -175t173.5 -69q103 0 176.5 69t73.5 175v774h193v-774q0 -175 -109 -291t-274 -135q-8 -27 -27 -75.5t-23 -60.5q-8 -25 0 -47t29 -32q34 -11 58.5 16t19.5 61l127 9q0 -96 -52.5 -153.5t-125.5 -57.5q-77 0 -131 54t-54 124q0 5 5 20
q3 29 16 68l41 76q-165 18 -275 134t-110 290z" />
    <glyph glyph-name="Wcircumflex.sc" horiz-adv-x="1593" 
d="M43 1186h207l274 -860l199 700h149l197 -700l274 860h209l-403 -1186h-160l-192 686l-191 -686h-162zM508 1319l197 280h182l198 -280h-161l-127 147l-127 -147h-162z" />
    <glyph glyph-name="Ycircumflex.sc" horiz-adv-x="1155" 
d="M25 1186h229l321 -463l324 463h236l-459 -643v-543h-199v543zM291 1319l194 280h185l196 -280h-161l-130 147l-124 -147h-160z" />
    <glyph glyph-name="Tcaron.sc" horiz-adv-x="985" 
d="M43 1026v170h899v-170h-364v-1026h-172v1026h-363zM205 1595h162l127 -143l127 143h161l-198 -278h-183z" />
    <glyph glyph-name="Tbar.sc" horiz-adv-x="962" 
d="M33 1026v170h899v-170h-365v-309h230v-117h-230v-600h-172v600h-225v117h225v309h-362z" />
    <glyph glyph-name="Zacute.sc" horiz-adv-x="1042" 
d="M94 0v160l594 848h-571v178h821v-158l-598 -848h598v-180h-844zM391 1319l180 278h215l-227 -278h-168z" />
    <glyph glyph-name="Zdotaccent.sc" horiz-adv-x="1042" 
d="M94 0v160l594 848h-571v178h821v-158l-598 -848h598v-180h-844zM401 1477q0 49 35.5 80.5t85.5 31.5q51 0 85 -31.5t34 -80.5t-34 -81t-85 -32q-50 0 -85.5 32t-35.5 81z" />
    <glyph glyph-name="Wgrave.sc" horiz-adv-x="1593" 
d="M43 1186h207l274 -860l199 700h149l197 -700l274 860h209l-403 -1186h-160l-192 686l-191 -686h-162zM440 1597h215l181 -278h-168z" />
    <glyph glyph-name="Wacute.sc" horiz-adv-x="1593" 
d="M43 1186h207l274 -860l199 700h149l197 -700l274 860h209l-403 -1186h-160l-192 686l-191 -686h-162zM758 1319l180 278h215l-227 -278h-168z" />
    <glyph glyph-name="Wdieresis.sc" horiz-adv-x="1593" 
d="M43 1186h207l274 -860l199 700h149l197 -700l274 860h209l-403 -1186h-160l-192 686l-191 -686h-162zM535 1462q0 47 34 79t82 32t81.5 -32t33.5 -79q0 -49 -33.5 -79.5t-81.5 -30.5t-82 31t-34 79zM825 1462q0 47 34.5 79t84.5 32q48 0 81.5 -32t33.5 -79
q0 -49 -33.5 -79.5t-81.5 -30.5q-50 0 -84.5 30.5t-34.5 79.5z" />
    <glyph glyph-name="Aringacute.sc" horiz-adv-x="1167" 
d="M33 0l448 1186h205l449 -1186h-205l-113 293h-467l-110 -293h-207zM383 1487q0 65 36.5 115t94.5 69q33 58 133 209h215l-184 -229q40 -25 65 -69.5t25 -94.5q0 -80 -57 -135.5t-140 -55.5q-79 0 -133.5 55.5t-54.5 135.5zM416 467h336l-168 467zM492 1487
q0 -34 23.5 -58t55.5 -24q38 0 64.5 24t26.5 58q0 35 -26.5 60.5t-64.5 25.5q-32 0 -55.5 -25.5t-23.5 -60.5z" />
    <glyph glyph-name="AEacute.sc" horiz-adv-x="1656" 
d="M14 0l752 1186h764v-185h-524v-327h456v-182h-456v-308h540v-184h-735v289h-381l-184 -289h-232zM543 475h268v432zM803 1319l180 278h213l-225 -278h-168z" />
    <glyph glyph-name="Oslashacute.sc" horiz-adv-x="1398" 
d="M98 588q0 167 78.5 306.5t216 220.5t303.5 81q214 0 381 -135l137 137l89 -86l-138 -137q135 -175 135 -387q0 -166 -79.5 -305.5t-218.5 -221t-306 -81.5q-209 0 -370 126l-138 -139l-88 88l138 142q-140 169 -140 391zM291 588q0 -143 80 -256l573 592q-109 84 -248 84
q-170 0 -287.5 -122.5t-117.5 -297.5zM457 246q108 -78 239 -78q171 0 290.5 123t119.5 297q0 133 -76 248zM602 1319l178 278h215l-227 -278h-166z" />
    <glyph glyph-name="Ibreve.sc" horiz-adv-x="546" 
d="M43 1556h143q0 -44 22.5 -70t63.5 -26q39 0 61.5 29t22.5 67h148q0 -105 -64 -167t-168 -62q-114 0 -171.5 66.5t-57.5 162.5zM176 0v1186h195v-1186h-195z" />
    <glyph glyph-name="Eng.sc" horiz-adv-x="1216" 
d="M176 0v1186h182l488 -819v819h194v-1170q0 -428 -372 -428q-56 0 -146 23l17 190q73 -13 100 -16q62 -3 96 12q56 18 83.5 68.5t27.5 116.5q0 35 -19 71l-460 766v-819h-191z" />
    <glyph glyph-name="Ygrave.sc" horiz-adv-x="1155" 
d="M25 1186h229l321 -463l324 463h236l-459 -643v-543h-199v543zM291 1597h213l180 -278h-168z" />
    <glyph glyph-name="Gcommaaccent.sc" horiz-adv-x="1333" 
d="M98 588q0 167 78.5 306.5t216.5 220.5t305 81q121 0 229 -44.5t187 -125.5l-137 -127h-2q-54 54 -126.5 84.5t-150.5 30.5q-171 0 -289 -124t-118 -302q0 -176 118 -301t289 -125q142 0 241 75t105 201h-329v166h549q0 -310 -151 -467t-415 -157q-167 0 -305 81.5
t-216.5 221t-78.5 305.5zM520 -410q54 74 73.5 145t6.5 167h170q3 -235 -141 -353z" />
    <glyph glyph-name="Kcommaaccent.sc" horiz-adv-x="1056" 
d="M176 0v1186h195v-463l352 463h227l-454 -592l561 -594h-256l-430 467v-467h-195zM391 -410q54 74 73.5 145t6.5 167h170q3 -235 -141 -353z" />
    <glyph glyph-name="Lcommaaccent.sc" horiz-adv-x="878" 
d="M176 0v1186h195v-1008h469v-178h-664zM334 -410q54 74 73.5 145t6.5 167h170q2 -235 -142 -353z" />
    <glyph glyph-name="Ncommaaccent.sc" horiz-adv-x="1220" 
d="M176 0v1186h184l492 -813v813h192v-1186h-180l-493 823v-823h-195zM438 -410q54 74 73.5 145t6.5 167h170q3 -235 -141 -353z" />
    <glyph glyph-name="Rcommaaccent.sc" horiz-adv-x="1120" 
d="M176 0v1186h465q92 0 164.5 -32t115.5 -86.5t65 -120t22 -138.5q0 -91 -29.5 -167t-99 -132.5t-170.5 -69.5l309 -440h-236l-293 430h-116v-430h-197zM373 608h254q90 0 135 59.5t45 141.5q0 81 -43 141t-129 60h-262v-402zM387 -410q54 74 73.5 145t6.5 167h170
q3 -235 -141 -353z" />
    <glyph glyph-name="Tcommaaccent.sc" horiz-adv-x="983" 
d="M47 1008v178h889v-178h-346v-1008h-197v1008h-346zM328 -410q54 74 73.5 145t6.5 167h170q2 -235 -142 -353z" />
    <glyph glyph-name="Scommaaccent.sc" horiz-adv-x="1030" 
d="M104 350h195q0 -78 63.5 -135t161.5 -57q96 0 151.5 44t63.5 109q10 72 -42 119t-138 68l-149 39q-293 76 -293 321q0 148 115 243t276 95q170 0 279.5 -97t109.5 -261h-192q0 79 -55.5 128.5t-143.5 49.5q-80 0 -138.5 -44.5t-58.5 -111.5q0 -107 152 -147l149 -39
q171 -45 252.5 -143.5t69.5 -229.5q-15 -139 -128.5 -230t-279.5 -91q-182 0 -301 108.5t-119 261.5zM360 -410q54 74 73.5 145t6.5 167h170q3 -235 -141 -353z" />
    <glyph glyph-name="Idotaccent.sc" horiz-adv-x="546" 
d="M156 1477q0 49 35 80.5t85 31.5q51 0 85 -31.5t34 -80.5t-34 -81t-85 -32q-50 0 -85 32t-35 81zM176 0v1186h195v-1186h-195z" />
    <glyph glyph-name="zero.numr" horiz-adv-x="739" 
d="M78 936q0 92 13.5 163t45 129.5t90 90t142.5 31.5q68 0 119.5 -21.5t84 -57.5t53 -90t28.5 -113t8 -132q0 -71 -8 -128.5t-28.5 -111t-52.5 -89.5t-84 -57.5t-120 -21.5q-84 0 -142.5 31.5t-90 90t-45 128t-13.5 158.5zM209 936q0 -279 160 -279q47 0 79.5 21.5
t49.5 61.5t24.5 87.5t7.5 108.5q0 85 -12.5 144t-49.5 99t-99 40q-160 0 -160 -283z" />
    <glyph glyph-name="one.numr" horiz-adv-x="428" 
d="M49 1081v123l270 144v-807h-133v608z" />
    <glyph glyph-name="two.numr" horiz-adv-x="651" 
d="M61 1124q17 102 88.5 164t169.5 62q107 0 180.5 -68t73.5 -172q0 -111 -86 -207q-41 -49 -67.5 -79.5t-60 -69t-72.5 -84.5h284v-129h-501v63l321 389q53 63 53 117q0 49 -36.5 81t-90.5 32q-52 0 -90 -34.5t-47 -92.5z" />
    <glyph glyph-name="three.numr" horiz-adv-x="653" 
d="M43 692q31 16 113 62q18 -38 62 -64t87 -28q57 -2 96.5 29.5t42.5 82.5q2 50 -29.5 89.5t-92.5 39.5h-107v123h94q40 0 65 26t32 58q5 45 -24 78t-83 33q-65 0 -113 -66q-12 9 -50 38t-50 38q34 58 99 90.5t139 28.5q99 -4 164 -70t63 -154q0 -90 -88 -155
q56 -26 88 -77.5t31 -123.5q-3 -111 -86 -176.5t-199 -63.5q-76 2 -149 47.5t-105 114.5z" />
    <glyph glyph-name="four.numr" horiz-adv-x="731" 
d="M31 705l426 632h110v-512h111v-120h-111v-164h-133v164h-403zM244 825h190v291z" />
    <glyph glyph-name="five.numr" horiz-adv-x="692" 
d="M51 694q13 9 55.5 38t55.5 38q23 -53 69.5 -83t98.5 -30q77 0 124.5 42.5t47.5 103.5q0 66 -45.5 101.5t-106.5 35.5q-100 0 -213 -72l-51 47l70 422h424v-125h-316l-33 -180q55 31 134 31q113 0 189.5 -68.5t76.5 -191.5q0 -125 -82.5 -200t-218.5 -75
q-85 0 -161.5 44.5t-117.5 121.5z" />
    <glyph glyph-name="six.numr" horiz-adv-x="692" 
d="M80 801q-6 52 -2.5 113.5t9.5 122.5t28 117.5t53 100t85 68.5t124 23q79 -3 139.5 -38t99.5 -122l-120 -49q-41 86 -121 86q-78 0 -122.5 -74t-41.5 -186q22 43 65 68.5t97 25.5q105 0 178 -80.5t70 -196.5q-5 -111 -83.5 -184t-191.5 -70q-110 3 -183 76.5t-83 198.5z
M219 797q0 -58 38.5 -98t94.5 -42t95 36t40 95q3 57 -34 97.5t-91 42.5q-58 1 -99 -36.5t-44 -94.5z" />
    <glyph glyph-name="seven.numr" horiz-adv-x="649" 
d="M66 541l350 669h-350v127h569l-418 -796h-151z" />
    <glyph glyph-name="eight.numr" horiz-adv-x="700" 
d="M68 793q0 139 114 208q-55 58 -55 136q0 90 64 151.5t159 61.5t160 -62t65 -151q0 -80 -59 -136q54 -33 85.5 -88t31.5 -120q0 -110 -82.5 -187.5t-200.5 -77.5q-119 0 -200.5 77t-81.5 188zM199 795q0 -57 43.5 -97.5t107.5 -40.5q63 0 107.5 40.5t44.5 97.5
q0 56 -44.5 99.5t-105.5 43.5h-12q-58 0 -99.5 -43.5t-41.5 -99.5zM258 1137q0 -38 26.5 -65.5t67.5 -27.5q40 3 66 30.5t26 62.5q0 34 -27.5 60t-66.5 26q-40 0 -66 -25.5t-26 -60.5z" />
    <glyph glyph-name="nine.numr" horiz-adv-x="692" 
d="M70 1094q5 111 82 184t192 70q109 -3 182.5 -77t83.5 -198q6 -51 3 -111.5t-9.5 -122t-28.5 -119t-53.5 -101t-85.5 -68.5t-123 -23q-79 3 -139.5 38t-99.5 122l121 51q41 -88 120 -88q77 0 121.5 74t42.5 186q-22 -43 -65 -68.5t-97 -25.5q-105 0 -177.5 80.5
t-69.5 196.5zM203 1085q-3 -57 34 -97t91 -42q59 0 99.5 37t43.5 94q0 58 -38.5 98t-94.5 42q-56 3 -94.5 -35.5t-40.5 -96.5z" />
    <glyph glyph-name="zero.dnom" horiz-adv-x="739" 
d="M78 397q0 72 8 131t28 112.5t52.5 89.5t83.5 57.5t119 21.5t119.5 -21.5t84 -57.5t53 -89.5t28.5 -112.5t8 -131q0 -71 -8 -129t-28.5 -111t-53 -89t-84 -57t-119.5 -21q-84 0 -142.5 31t-90 89t-45 127.5t-13.5 159.5zM209 397q0 -62 7.5 -109t24.5 -87t49.5 -61
t78.5 -21q62 0 99 39t49.5 97t12.5 142q0 62 -7.5 109.5t-24.5 88t-49.5 62t-79.5 21.5q-160 0 -160 -281z" />
    <glyph glyph-name="one.dnom" horiz-adv-x="428" 
d="M49 541v123l270 143v-807h-133v608z" />
    <glyph glyph-name="two.dnom" horiz-adv-x="653" 
d="M63 584q17 102 89 163.5t170 61.5q107 0 180 -68t73 -172q0 -108 -86 -207q-47 -55 -200 -233h284v-129h-501v66l321 387q53 63 53 116q0 49 -36.5 81t-90.5 32q-52 0 -90 -34.5t-47 -92.5z" />
    <glyph glyph-name="three.dnom" horiz-adv-x="653" 
d="M43 152l55 30t58 33q18 -39 61.5 -65.5t87.5 -28.5q57 0 96.5 31.5t42.5 80.5q2 51 -29.5 90t-92.5 39h-107v123h94q40 0 65 26t32 58q5 45 -24 78t-83 33q-68 0 -113 -66q-11 9 -49.5 38t-50.5 38q34 58 99 90.5t139 28.5q99 -4 164 -69.5t63 -153.5q0 -91 -88 -156
q56 -26 88 -77t31 -122q-3 -113 -86 -177.5t-199 -61.5q-76 2 -149 47t-105 113z" />
    <glyph glyph-name="four.dnom" horiz-adv-x="731" 
d="M31 164l426 635h110v-514h111v-121h-111v-164h-133v164h-403zM244 285h190v293z" />
    <glyph glyph-name="five.dnom" horiz-adv-x="692" 
d="M51 154q13 9 56 37.5t55 37.5q23 -53 69 -82.5t99 -29.5q77 0 124.5 42.5t47.5 104.5q0 65 -45.5 100t-106.5 35q-102 0 -213 -71l-51 47l70 422h424v-125h-316l-33 -178q57 28 134 28q113 0 189.5 -68t76.5 -190q0 -125 -82.5 -200.5t-218.5 -75.5q-85 0 -161.5 44.5
t-117.5 121.5z" />
    <glyph glyph-name="six.dnom" horiz-adv-x="692" 
d="M80 260q-6 52 -2.5 113.5t9.5 122.5t28 118t53 100.5t85 68.5t124 24q50 -2 90 -15t81 -50t68 -97l-120 -49q-41 86 -121 86q-78 0 -122.5 -74t-41.5 -186q22 44 65 69t97 25q105 0 178 -79.5t70 -194.5q-5 -113 -83 -186t-192 -70q-110 3 -183 77t-83 197zM219 256
q0 -57 38.5 -97t94.5 -42q55 -1 94 37t41 94q3 58 -33.5 97.5t-91.5 41.5q-58 1 -99 -36.5t-44 -94.5z" />
    <glyph glyph-name="seven.dnom" horiz-adv-x="647" 
d="M66 0l350 670h-350v129h569l-418 -799h-151z" />
    <glyph glyph-name="eight.dnom" horiz-adv-x="700" 
d="M68 252q0 140 114 209q-55 58 -55 135q0 90 64 151.5t159 61.5t160 -62t65 -151q0 -76 -59 -135q54 -33 85.5 -88t31.5 -121q0 -110 -82 -186t-201 -76q-120 0 -201 75.5t-81 186.5zM199 254q0 -57 43.5 -97t107.5 -40q63 0 107.5 40t44.5 97q0 56 -44.5 99.5
t-105.5 43.5h-12q-59 0 -100 -43t-41 -100zM258 596q0 -38 26 -65t68 -27q40 3 66 30t26 62q0 36 -27.5 61t-66.5 25q-40 0 -66 -25t-26 -61z" />
    <glyph glyph-name="nine.dnom" horiz-adv-x="690" 
d="M70 553q5 112 82.5 185t191.5 69q109 -3 182.5 -77t83.5 -198q6 -51 3 -111.5t-9.5 -121.5t-28.5 -118t-53.5 -100.5t-85.5 -69t-123 -23.5q-78 3 -139 38t-100 121l121 52q41 -86 120 -86q77 0 121.5 73.5t42.5 184.5q-22 -43 -65.5 -69t-96.5 -26q-105 0 -177.5 80.5
t-69.5 196.5zM203 547q-3 -58 34 -98.5t91 -40.5q59 -2 99.5 35t43.5 94q0 58 -38.5 98.5t-94.5 40.5q-56 3 -94.5 -35t-40.5 -94z" />
    <glyph glyph-name="l.alt1" horiz-adv-x="589" 
d="M137 412v1065h213v-1065q-4 -215 160 -215h78v-197h-103q-348 0 -348 412z" />
    <glyph glyph-name="a.alt1" horiz-adv-x="1099" 
d="M80 283q0 136 100 221.5t312 85.5q129 0 262 -62v43q0 96 -64.5 155.5t-177.5 59.5q-75 0 -150 -35.5t-120 -95.5l-121 129q51 72 126 117.5t142 60.5t137 15q207 0 322 -104.5t115 -301.5v-571h-209v104q-98 -124 -310 -124q-166 0 -265 81t-99 222zM287 283
q0 -49 42 -80t124 -31q49 0 101 9.5t111 39.5t87 76v72q-134 55 -256 55q-62 0 -106 -14t-65 -37t-29.5 -45t-8.5 -45z" />
    <glyph glyph-name="y.alt1" horiz-adv-x="1038" 
d="M29 -279q47 -8 121 -8q73 0 113.5 46t84.5 151l60 133l-379 913h225l266 -659l266 659h228l-473 -1126q-75 -169 -158 -238t-231 -69q-53 0 -123 16v182z" />
    <glyph glyph-name="lslash.alt1" horiz-adv-x="616" 
d="M29 541v147l131 82v707h213v-572l176 113v-146l-176 -112v-348q-4 -215 159 -215h78v-197h-102q-348 0 -348 412v213z" />
    <glyph glyph-name="lacute.alt1" horiz-adv-x="589" 
d="M137 412v1065h213v-1065q-4 -215 160 -215h78v-197h-103q-348 0 -348 412zM152 1577l204 324h238l-258 -324h-184z" />
    <glyph glyph-name="lcommaaccent.alt1" horiz-adv-x="589" 
d="M137 412v1065h213v-1065q-4 -215 160 -215h78v-197h-103q-348 0 -348 412zM227 -483q64 87 87 163.5t14 202.5h198q-5 -277 -176 -413z" />
    <glyph glyph-name="lcaron.alt1" horiz-adv-x="589" 
d="M137 412v1065h213v-1065q-4 -215 160 -215h78v-197h-103q-348 0 -348 412zM428 1090q64 89 91 175.5t18 211.5h198q-3 -156 -52 -263.5t-124 -166.5z" />
    <glyph glyph-name="aacute.alt1" horiz-adv-x="1099" 
d="M80 283q0 136 100 221.5t312 85.5q129 0 262 -62v43q0 96 -64.5 155.5t-177.5 59.5q-75 0 -150 -35.5t-120 -95.5l-121 129q51 72 126 117.5t142 60.5t137 15q207 0 322 -104.5t115 -301.5v-571h-209v104q-98 -124 -310 -124q-166 0 -265 81t-99 222zM287 283
q0 -49 42 -80t124 -31q49 0 101 9.5t111 39.5t87 76v72q-134 55 -256 55q-62 0 -106 -14t-65 -37t-29.5 -45t-8.5 -45zM424 1106l205 324h237l-258 -324h-184z" />
    <glyph glyph-name="agrave.alt1" horiz-adv-x="1099" 
d="M80 283q0 136 100 221.5t312 85.5q129 0 262 -62v43q0 96 -64.5 155.5t-177.5 59.5q-75 0 -150 -35.5t-120 -95.5l-121 129q51 72 126 117.5t142 60.5t137 15q207 0 322 -104.5t115 -301.5v-571h-209v104q-98 -124 -310 -124q-166 0 -265 81t-99 222zM190 1430h238
l205 -324h-184zM287 283q0 -49 42 -80t124 -31q49 0 101 9.5t111 39.5t87 76v72q-134 55 -256 55q-62 0 -106 -14t-65 -37t-29.5 -45t-8.5 -45z" />
    <glyph glyph-name="acircumflex.alt1" horiz-adv-x="1099" 
d="M80 283q0 136 100 221.5t312 85.5q129 0 262 -62v43q0 96 -64.5 155.5t-177.5 59.5q-75 0 -150 -35.5t-120 -95.5l-121 129q51 72 126 117.5t142 60.5t137 15q207 0 322 -104.5t115 -301.5v-571h-209v104q-98 -124 -310 -124q-166 0 -265 81t-99 222zM201 1108l225 324
h213l225 -324h-178l-156 180l-153 -180h-176zM287 283q0 -49 42 -80t124 -31q49 0 101 9.5t111 39.5t87 76v72q-134 55 -256 55q-62 0 -106 -14t-65 -37t-29.5 -45t-8.5 -45z" />
    <glyph glyph-name="adieresis.alt1" horiz-adv-x="1099" 
d="M80 283q0 136 100 221.5t312 85.5q129 0 262 -62v43q0 96 -64.5 155.5t-177.5 59.5q-75 0 -150 -35.5t-120 -95.5l-121 129q51 72 126 117.5t142 60.5t137 15q207 0 322 -104.5t115 -301.5v-571h-209v104q-98 -124 -310 -124q-166 0 -265 81t-99 222zM221 1274
q0 54 38.5 89.5t94.5 35.5q53 0 91 -36t38 -89t-38 -90t-91 -37q-56 0 -94.5 36.5t-38.5 90.5zM287 283q0 -49 42 -80t124 -31q49 0 101 9.5t111 39.5t87 76v72q-134 55 -256 55q-62 0 -106 -14t-65 -37t-29.5 -45t-8.5 -45zM571 1274q0 53 39 89t95 36q55 0 93 -36t38 -89
q0 -54 -38.5 -90.5t-92.5 -36.5q-56 0 -95 36.5t-39 90.5z" />
    <glyph glyph-name="atilde.alt1" horiz-adv-x="1099" 
d="M80 283q0 136 100 221.5t312 85.5q129 0 262 -62v43q0 96 -64.5 155.5t-177.5 59.5q-75 0 -150 -35.5t-120 -95.5l-121 129q51 72 126 117.5t142 60.5t137 15q207 0 322 -104.5t115 -301.5v-571h-209v104q-98 -124 -310 -124q-166 0 -265 81t-99 222zM254 1137
q7 128 61.5 186.5t126.5 58.5q32 0 61 -13t46.5 -29t37.5 -29t36 -13q20 0 38 20t19 64h131q-7 -126 -62 -182.5t-126 -56.5q-39 0 -73.5 21t-61.5 42t-46 21t-36.5 -22t-18.5 -68h-133zM287 283q0 -49 42 -80t124 -31q49 0 101 9.5t111 39.5t87 76v72q-134 55 -256 55
q-62 0 -106 -14t-65 -37t-29.5 -45t-8.5 -45z" />
    <glyph glyph-name="aring.alt1" horiz-adv-x="1099" 
d="M80 283q0 136 100 221.5t312 85.5q129 0 262 -62v43q0 96 -64.5 155.5t-177.5 59.5q-75 0 -150 -35.5t-120 -95.5l-121 129q51 72 126 117.5t142 60.5t137 15q207 0 322 -104.5t115 -301.5v-571h-209v104q-98 -124 -310 -124q-166 0 -265 81t-99 222zM287 283
q0 -49 42 -80t124 -31q49 0 101 9.5t111 39.5t87 76v72q-134 55 -256 55q-62 0 -106 -14t-65 -37t-29.5 -45t-8.5 -45zM315 1307q0 96 64.5 161.5t157.5 65.5q96 0 161.5 -65.5t65.5 -161.5q0 -92 -66 -157t-161 -65q-92 0 -157 65t-65 157zM430 1307q0 -43 31.5 -75
t75.5 -32q46 0 79 32t33 75q0 47 -33 79.5t-79 32.5q-44 0 -75.5 -32.5t-31.5 -79.5z" />
    <glyph glyph-name="amacron.alt1" horiz-adv-x="1099" 
d="M80 283q0 136 100 221.5t312 85.5q129 0 262 -62v43q0 96 -64.5 155.5t-177.5 59.5q-75 0 -150 -35.5t-120 -95.5l-121 129q51 72 126 117.5t142 60.5t137 15q207 0 322 -104.5t115 -301.5v-571h-209v104q-98 -124 -310 -124q-166 0 -265 81t-99 222zM264 1171v166h529
v-166h-529zM287 283q0 -49 42 -80t124 -31q49 0 101 9.5t111 39.5t87 76v72q-134 55 -256 55q-62 0 -106 -14t-65 -37t-29.5 -45t-8.5 -45z" />
    <glyph glyph-name="abreve.alt1" horiz-adv-x="1099" 
d="M80 283q0 136 100 221.5t312 85.5q129 0 262 -62v43q0 96 -64.5 155.5t-177.5 59.5q-75 0 -150 -35.5t-120 -95.5l-121 129q51 72 126 117.5t142 60.5t137 15q207 0 322 -104.5t115 -301.5v-571h-209v104q-98 -124 -310 -124q-166 0 -265 81t-99 222zM262 1380h158
q0 -54 28.5 -85t81.5 -31q51 0 81 35t30 81h160q0 -121 -74 -191.5t-197 -70.5q-90 0 -152 38t-89 95.5t-27 128.5zM287 283q0 -49 42 -80t124 -31q49 0 101 9.5t111 39.5t87 76v72q-134 55 -256 55q-62 0 -106 -14t-65 -37t-29.5 -45t-8.5 -45z" />
    <glyph glyph-name="aogonek.alt1" horiz-adv-x="1099" 
d="M80 283q0 136 100 221.5t312 85.5q129 0 262 -62v43q0 96 -64.5 155.5t-177.5 59.5q-75 0 -150 -35.5t-120 -95.5l-121 129q51 72 126 117.5t142 60.5t137 15q207 0 322 -104.5t115 -301.5v-571h-84l-62 -170q-11 -30 -1 -59.5t40 -42.5q30 -8 57 4t39 41q2 5 3.5 11.5
t2 12.5t0.5 11.5v8.5v3l138 8q0 -104 -62 -171t-145 -67q-90 0 -150.5 63.5t-60.5 143.5q0 55 16 90l62 113h-2v104q-98 -124 -310 -124q-166 0 -265 81t-99 222zM287 283q0 -49 42 -80t124 -31q49 0 101 9.5t111 39.5t87 76v72q-134 55 -256 55q-62 0 -106 -14t-65 -37
t-29.5 -45t-8.5 -45z" />
    <glyph glyph-name="yacute.alt1" horiz-adv-x="1038" 
d="M29 -279q47 -8 121 -8q73 0 113.5 46t84.5 151l60 133l-379 913h225l266 -659l266 659h228l-473 -1126q-75 -169 -158 -238t-231 -69q-53 0 -123 16v182zM412 1106l204 324h238l-258 -324h-184z" />
    <glyph glyph-name="ydieresis.alt1" horiz-adv-x="1038" 
d="M29 -279q47 -8 121 -8q73 0 113.5 46t84.5 151l60 133l-379 913h225l266 -659l266 659h228l-473 -1126q-75 -169 -158 -238t-231 -69q-53 0 -123 16v182zM215 1294q0 54 38.5 89.5t94.5 35.5q53 0 91 -36t38 -89t-38 -90t-91 -37q-56 0 -94.5 36.5t-38.5 90.5zM565 1294
q0 54 38.5 89.5t94.5 35.5q55 0 93 -36t38 -89q0 -54 -38.5 -90.5t-92.5 -36.5q-56 0 -94.5 36.5t-38.5 90.5z" />
    <glyph glyph-name="ae.alt1" horiz-adv-x="1800" 
d="M80 283q0 136 100 221.5t312 85.5q129 0 262 -62v43q0 96 -64.5 155.5t-177.5 59.5q-72 0 -149 -36t-121 -95l-121 129q51 72 126 117.5t142 60.5t137 15q246 0 359 -146q143 146 360 146q101 0 189.5 -35.5t152.5 -99t100.5 -157t36.5 -204.5q0 -58 -2 -78h-759
q15 -109 95 -174t197 -65q82 0 153.5 36.5t107.5 100.5q29 -14 89 -40t83 -36q-41 -81 -112 -137.5t-154.5 -82t-176.5 -25.5q-161 0 -282 83v-63h-209v104q-98 -124 -310 -124q-166 0 -265 81t-99 222zM287 283q0 -49 42 -80t124 -31q49 0 101 9.5t111 39.5t87 76v72
q-112 37 -256 37q-118 0 -163.5 -36t-45.5 -87zM963 557h555q-15 111 -89.5 173.5t-183.5 62.5q-112 0 -189.5 -63.5t-92.5 -172.5z" />
    <glyph glyph-name="aeacute.alt1" horiz-adv-x="1800" 
d="M80 283q0 136 100 221.5t312 85.5q129 0 262 -62v43q0 96 -64.5 155.5t-177.5 59.5q-72 0 -149 -36t-121 -95l-121 129q51 72 126 117.5t142 60.5t137 15q246 0 359 -146q143 146 360 146q101 0 189.5 -35.5t152.5 -99t100.5 -157t36.5 -204.5q0 -58 -2 -78h-759
q15 -109 95 -174t197 -65q82 0 153.5 36.5t107.5 100.5q29 -14 89 -40t83 -36q-41 -81 -112 -137.5t-154.5 -82t-176.5 -25.5q-161 0 -282 83v-63h-209v104q-98 -124 -310 -124q-166 0 -265 81t-99 222zM287 283q0 -49 42 -80t124 -31q49 0 101 9.5t111 39.5t87 76v72
q-112 37 -256 37q-118 0 -163.5 -36t-45.5 -87zM795 1106l204 324h238l-258 -324h-184zM963 557h555q-15 111 -89.5 173.5t-183.5 62.5q-112 0 -189.5 -63.5t-92.5 -172.5z" />
    <glyph glyph-name="ycircumflex.alt1" horiz-adv-x="1038" 
d="M29 -279q47 -8 121 -8q73 0 113.5 46t84.5 151l60 133l-379 913h225l266 -659l266 659h228l-473 -1126q-75 -169 -158 -238t-231 -69q-53 0 -123 16v182zM184 1108l226 324h213l225 -324h-178l-156 180l-154 -180h-176z" />
    <glyph glyph-name="ldot.alt1" horiz-adv-x="753" 
d="M137 412v1065h213v-1065q-4 -215 160 -215h78v-197h-103q-348 0 -348 412zM473 563q0 59 42 99t101 40q61 0 104.5 -40t43.5 -99t-43.5 -99t-104.5 -40q-59 0 -101 40t-42 99z" />
    <glyph glyph-name="t.alt1" horiz-adv-x="739" 
d="M51 782v174h172v230l213 74v-304h201v-174h-201v-405q-1 -41 4.5 -70t21.5 -56t49.5 -40.5t84.5 -13.5h68v-197h-93q-188 0 -268 94t-80 283v405h-172z" />
    <glyph glyph-name="tcaron.alt1" horiz-adv-x="739" 
d="M51 782v174h172v230l213 74v-304h201v-174h-201v-405q-1 -41 4.5 -70t21.5 -56t49.5 -40.5t84.5 -13.5h68v-197h-93q-188 0 -268 94t-80 283v405h-172zM518 1124q63 88 86 165.5t14 203.5h199q-5 -274 -174 -416z" />
    <glyph glyph-name="tbar.alt1" horiz-adv-x="743" 
d="M55 782v174h172v230l213 74v-304h201v-174h-201v-209h146v-133h-146v-63q-1 -41 4.5 -70t21.5 -56t49.5 -40.5t84.5 -13.5h68v-197h-93q-188 0 -268 94t-80 283v63h-137v133h137v209h-172z" />
    <glyph glyph-name="tcommaaccent.alt1" horiz-adv-x="739" 
d="M51 782v174h172v230l213 74v-304h201v-174h-201v-405q-1 -41 4.5 -70t21.5 -56t49.5 -40.5t84.5 -13.5h68v-197h-93q-188 0 -268 94t-80 283v405h-172zM334 -483q63 86 86 163t14 203h199q-5 -277 -176 -413z" />
    <glyph glyph-name="T.sc.alt1" horiz-adv-x="983" 
d="M47 1008v178h889v-178h-346v-1008h-197v1008h-346z" />
    <glyph glyph-name="Tcaron.sc.alt1" horiz-adv-x="985" 
d="M43 1026v170h899v-170h-364v-1026h-172v1026h-363zM205 1595h162l127 -143l127 143h161l-198 -278h-183z" />
    <glyph glyph-name="Tbar.sc.alt1" horiz-adv-x="962" 
d="M33 1026v170h899v-170h-365v-309h230v-117h-230v-600h-172v600h-225v117h225v309h-362z" />
    <glyph glyph-name="Tcommaaccent.sc.alt1" horiz-adv-x="983" 
d="M47 1008v178h889v-178h-346v-1008h-197v1008h-346zM328 -410q54 74 73.5 145t6.5 167h170q2 -235 -142 -353z" />
    <glyph glyph-name="aringacute.alt1" horiz-adv-x="1099" 
d="M80 283q0 136 100 221.5t312 85.5q129 0 262 -62v43q0 96 -64.5 155.5t-177.5 59.5q-75 0 -150 -35.5t-120 -95.5l-121 129q51 72 126 117.5t142 60.5t137 15q207 0 322 -104.5t115 -301.5v-571h-209v104q-98 -124 -310 -124q-166 0 -265 81t-99 222zM287 283
q0 -49 42 -80t124 -31q49 0 101 9.5t111 39.5t87 76v72q-134 55 -256 55q-62 0 -106 -14t-65 -37t-29.5 -45t-8.5 -45zM332 1309q0 75 42.5 134t112.5 81l160 252h240l-219 -273q53 -29 82.5 -80t29.5 -114q0 -92 -66 -157t-161 -65q-92 0 -156.5 65t-64.5 157zM446 1307
q0 -44 32 -75.5t75 -31.5q47 0 80 31.5t33 75.5q0 47 -32.5 78.5t-80.5 31.5q-43 0 -75 -31.5t-32 -78.5z" />
    </font>
</defs>
</svg>
