<svg xmlns="http://www.w3.org/2000/svg" width="23.423" height="23.423" viewBox="0 0 23.423 23.423">
  <g id="brochure" transform="translate(-1 -1)">
    <path id="Path_567" data-name="Path 567" d="M22.534,5.911A1.135,1.135,0,0,0,21.4,7.045v.147a18.132,18.132,0,0,1-3.778,1.492V2.889A1.891,1.891,0,0,0,15.734,1H7.045V4.022H2.889A1.891,1.891,0,0,0,1,5.911V22.534a1.891,1.891,0,0,0,1.889,1.889H15.356V21.4h2.267V16.739A18.112,18.112,0,0,1,21.4,18.231v.147a1.135,1.135,0,0,0,1.133,1.133,1.891,1.891,0,0,0,1.889-1.889V7.8A1.891,1.891,0,0,0,22.534,5.911ZM7.8,1.756h7.934a1.133,1.133,0,0,1,0,2.267H7.8ZM2.889,4.778H15.734a1.869,1.869,0,0,0,1.133-.388V8.868c-.5.111-1,.2-1.511.27V7.045H2.889a1.133,1.133,0,1,1,0-2.267ZM15.356,15.522V9.9c.253-.033.505-.07.756-.113v5.847C15.861,15.592,15.609,15.555,15.356,15.522ZM14.6,23.667H2.889a1.135,1.135,0,0,1-1.133-1.133V7.422A1.881,1.881,0,0,0,2.889,7.8H14.6Zm2.267-3.022H15.356v-4.36c.509.07,1.013.158,1.511.27Zm0-4.867V9.645a18.808,18.808,0,0,0,4.533-1.6v9.339A18.824,18.824,0,0,0,16.867,15.778Zm6.8,1.844a1.135,1.135,0,0,1-1.133,1.133.378.378,0,0,1-.378-.378V7.045a.378.378,0,0,1,.378-.378A1.135,1.135,0,0,1,23.667,7.8Z" fill="#081240"/>
    <path id="Path_568" data-name="Path 568" d="M5,26.289H16.334V21H5Zm.756-4.533h9.822v3.778H5.756Z" transform="translate(-2.489 -12.444)" fill="#081240"/>
    <path id="Path_569" data-name="Path 569" d="M5,37h.756v.756H5Z" transform="translate(-2.489 -22.4)" fill="#081240"/>
    <path id="Path_570" data-name="Path 570" d="M9,37h5.289v.756H9Z" transform="translate(-4.978 -22.4)" fill="#081240"/>
    <path id="Path_571" data-name="Path 571" d="M5,41h6.8v.756H5Z" transform="translate(-2.489 -24.888)" fill="#081240"/>
    <path id="Path_572" data-name="Path 572" d="M5,45h6.8v.756H5Z" transform="translate(-2.489 -27.377)" fill="#081240"/>
    <path id="Path_573" data-name="Path 573" d="M30.133,53a1.133,1.133,0,1,0,1.133,1.133A1.135,1.135,0,0,0,30.133,53Zm0,1.511a.378.378,0,1,1,.378-.378A.378.378,0,0,1,30.133,54.511Z" transform="translate(-17.422 -32.355)" fill="#081240"/>
    <path id="Path_574" data-name="Path 574" d="M22.133,53a1.133,1.133,0,1,0,1.133,1.133A1.135,1.135,0,0,0,22.133,53Zm0,1.511a.378.378,0,1,1,.378-.378A.378.378,0,0,1,22.133,54.511Z" transform="translate(-12.444 -32.355)" fill="#081240"/>
  </g>
</svg>
