<svg xmlns="http://www.w3.org/2000/svg" width="49.999" height="49.999" viewBox="0 0 49.999 49.999"><defs><style>.a,.b{fill:#16b979;}.a{fill-rule:evenodd;}</style></defs><path class="a" d="M43.749,5.375H6.25A3.125,3.125,0,0,0,3.125,8.5V42.874A3.125,3.125,0,0,0,6.25,46h37.5a3.125,3.125,0,0,0,3.125-3.125V8.5A3.125,3.125,0,0,0,43.749,5.375ZM6.25,2.25A6.25,6.25,0,0,0,0,8.5V42.874a6.25,6.25,0,0,0,6.25,6.25h37.5A6.25,6.25,0,0,0,50,42.874V8.5a6.25,6.25,0,0,0-6.25-6.25Z" transform="translate(0 0.875)"/><path class="a" d="M43.749,5.375H6.25A3.125,3.125,0,0,0,3.125,8.5v3.125H46.874V8.5A3.125,3.125,0,0,0,43.749,5.375ZM6.25,2.25A6.25,6.25,0,0,0,0,8.5v6.25H50V8.5a6.25,6.25,0,0,0-6.25-6.25Z" transform="translate(0 0.875)"/><path class="a" d="M8.312,0A1.562,1.562,0,0,1,9.875,1.562V3.125a1.562,1.562,0,1,1-3.125,0V1.562A1.562,1.562,0,0,1,8.312,0ZM36.437,0A1.562,1.562,0,0,1,38,1.562V3.125a1.562,1.562,0,1,1-3.125,0V1.562A1.562,1.562,0,0,1,36.437,0Z" transform="translate(2.625)"/><path class="b" d="M26.312,15.75h3.125A1.562,1.562,0,0,1,31,17.312v3.125A1.562,1.562,0,0,1,29.437,22H26.312a1.562,1.562,0,0,1-1.562-1.562V17.312A1.562,1.562,0,0,1,26.312,15.75Z" transform="translate(9.624 6.125)"/></svg>