<svg xmlns="http://www.w3.org/2000/svg" width="18" height="19.634" viewBox="0 0 18 19.634"><defs><style>.a{fill:#081240;fill-rule:evenodd;}</style></defs><g transform="translate(-4.497 -4.5)"><path class="a" d="M10.8,10.364a.818.818,0,0,0-1.158,0L4.738,15.272a.818.818,0,0,0,0,1.158l4.909,4.909A.819.819,0,1,0,10.8,20.181l-4.33-4.33,4.331-4.33a.818.818,0,0,0,0-1.158Z" transform="translate(0 -1.534)"/><path class="a" d="M17.9,14.317a.818.818,0,0,0-.818-.818H6.443a.818.818,0,0,0,0,1.636H17.078A.818.818,0,0,0,17.9,14.317Zm4.09,9.817a.818.818,0,0,1-.818-.818v-18a.818.818,0,0,1,1.636,0v18A.818.818,0,0,1,21.987,24.134Z" transform="translate(-0.308 0)"/></g></svg>