<svg id="calendar4-event" xmlns="http://www.w3.org/2000/svg" width="18" height="18" viewBox="0 0 18 18">
  <path id="Path_250" data-name="Path 250" d="M15.75,3.375H2.25A1.125,1.125,0,0,0,1.125,4.5V16.875A1.125,1.125,0,0,0,2.25,18h13.5a1.125,1.125,0,0,0,1.125-1.125V4.5A1.125,1.125,0,0,0,15.75,3.375ZM2.25,2.25A2.25,2.25,0,0,0,0,4.5V16.875a2.25,2.25,0,0,0,2.25,2.25h13.5A2.25,2.25,0,0,0,18,16.875V4.5a2.25,2.25,0,0,0-2.25-2.25Z" transform="translate(0 -1.125)" fill="#081240" fill-rule="evenodd"/>
  <path id="Path_251" data-name="Path 251" d="M15.75,3.375H2.25A1.125,1.125,0,0,0,1.125,4.5V5.625h15.75V4.5A1.125,1.125,0,0,0,15.75,3.375ZM2.25,2.25A2.25,2.25,0,0,0,0,4.5V6.75H18V4.5a2.25,2.25,0,0,0-2.25-2.25Z" transform="translate(0 -1.125)" fill="#081240" fill-rule="evenodd"/>
  <path id="Path_252" data-name="Path 252" d="M7.313,0a.562.562,0,0,1,.563.563v.563a.563.563,0,1,1-1.125,0V.563A.563.563,0,0,1,7.313,0ZM17.437,0A.562.562,0,0,1,18,.563v.563a.563.563,0,1,1-1.125,0V.563A.563.563,0,0,1,17.437,0Z" transform="translate(-3.375)" fill="#081240" fill-rule="evenodd"/>
  <path id="Path_253" data-name="Path 253" d="M25.313,15.75h1.125a.563.563,0,0,1,.563.563v1.125a.562.562,0,0,1-.562.563H25.313a.562.562,0,0,1-.562-.562V16.313A.563.563,0,0,1,25.313,15.75Z" transform="translate(-12.375 -7.875)" fill="#081240"/>
</svg>
