<svg id="person-bounding-box" xmlns="http://www.w3.org/2000/svg" width="18" height="18" viewBox="0 0 18 18">
  <path id="Path_285" data-name="Path 285" d="M1.688,1.125a.562.562,0,0,0-.562.563V5.063A.563.563,0,1,1,0,5.063V1.688A1.688,1.688,0,0,1,1.688,0H5.063a.563.563,0,0,1,0,1.125ZM12.375.563A.562.562,0,0,1,12.938,0h3.375A1.688,1.688,0,0,1,18,1.688V5.063a.563.563,0,0,1-1.125,0V1.688a.563.563,0,0,0-.562-.562H12.938a.562.562,0,0,1-.562-.563ZM.563,12.375a.562.562,0,0,1,.563.563v3.375a.563.563,0,0,0,.563.563H5.063a.563.563,0,0,1,0,1.125H1.688A1.688,1.688,0,0,1,0,16.313V12.938a.562.562,0,0,1,.563-.562Zm16.875,0a.563.563,0,0,1,.563.563v3.375A1.688,1.688,0,0,1,16.313,18H12.938a.563.563,0,0,1,0-1.125h3.375a.563.563,0,0,0,.563-.562V12.938A.563.563,0,0,1,17.438,12.375Z" transform="translate(0 0)" fill="#081240" fill-rule="evenodd"/>
  <path id="Path_286" data-name="Path 286" d="M7.125,19.5A1.1,1.1,0,0,1,6,18.375c0-1.125,1.125-4.5,6.75-4.5s6.75,3.375,6.75,4.5A1.1,1.1,0,0,1,18.375,19.5Zm5.625-6.75A3.375,3.375,0,1,0,9.375,9.375,3.375,3.375,0,0,0,12.75,12.75Z" transform="translate(-3.75 -3.75)" fill="#081240" fill-rule="evenodd"/>
</svg>
