<svg width="509" height="87" viewBox="0 0 509 87" fill="none" xmlns="http://www.w3.org/2000/svg">
<g opacity="0.03">
<path fill-rule="evenodd" clip-rule="evenodd" d="M118.522 78.5436V68.6151C116.43 70.6637 114.433 72.8185 111.995 74.47C108.22 77.0219 103.057 76.7388 99.3178 74.2537C97.28 75.8076 95.1487 77.235 92.9361 78.5279C98.7674 83.3054 105.818 84.89 112.262 82.4796C114.716 81.5595 116.564 80.1912 118.522 78.5475V78.5436ZM118.522 2.5759V-7.37225C116.725 -5.75616 114.806 -3.88056 113.017 -2.119C110.925 -0.0546494 108.81 1.97037 106.675 3.98359C108.317 5.78992 109.828 7.71102 111.197 9.73228C113.682 7.37304 116.092 4.95874 118.534 2.56017L118.522 2.5759ZM-4.08398 -7.37225V2.55624C-2.0393 0.546951 0.0565262 -1.5685 2.43936 -3.18065C6.21416 -5.72864 11.377 -5.44946 15.1164 -2.96439C17.1549 -4.51736 19.2861 -5.94473 21.4981 -7.23856C14.1923 -13.231 4.98339 -14.2023 -2.60552 -8.54794C-3.11276 -8.15473 -3.6082 -7.76153 -4.08398 -7.36832V-7.37225ZM-4.08398 68.6112V78.5436C0.0564914 75.0047 3.78021 71.0255 7.75554 67.29C6.11854 65.4807 4.61263 63.557 3.24935 61.5335C0.785246 63.8691 -1.6592 66.2284 -4.08398 68.6112ZM22.9333 4.31388C28.5326 10.2356 34.065 16.2438 39.625 22.2127C41.2272 20.2971 42.6304 18.2234 43.8127 16.0236C38.9762 10.8254 34.1555 5.60361 29.2915 0.436859C27.0834 1.57488 24.9587 2.86784 22.9333 4.30602V4.31388ZM47.497 7.06634C47.5821 8.76837 47.4232 10.4738 47.0252 12.1309C46.0146 16.3028 43.5649 19.9321 40.8793 23.239C39.2043 25.2954 37.4388 27.2536 35.5946 29.2C37.3129 30.9144 39.0312 32.6248 40.7063 34.3667C42.4875 32.4911 44.2452 30.5802 45.8613 28.618C49.5063 24.2495 52.7267 19.4445 54.0832 13.8413C54.9635 10.0791 55.0118 6.17001 54.2248 2.38716L53.6192 -0.707382L50.4736 -0.550095C44.9671 -0.348518 39.5984 1.22616 34.8554 4.03078C36.5619 5.86575 38.2658 7.70071 39.9671 9.53568C42.3283 8.31316 44.8707 7.47809 47.497 7.0624V7.06634ZM21.392 78.5043C25.3948 75.2407 28.8629 71.2378 32.3743 67.4709C30.3548 66.104 28.4339 64.5969 26.6256 62.9608C24.9557 64.7512 23.278 66.5324 21.5925 68.3045C19.8742 70.1172 17.6604 72.4607 15.1754 74.124C11.6365 76.4832 6.21023 76.8764 2.59272 74.4936C0.831151 76.2316 -0.946155 77.9695 -2.82176 79.5699C0.4458 82.0392 3.96104 83.502 8.05433 83.557C13.166 83.6396 17.4167 81.7286 21.3723 78.5043H21.392ZM39.6604 59.6303C45.1181 53.7532 50.5942 47.8944 56.0886 42.0539C54.4109 40.3002 52.7384 38.5387 51.0713 36.7692C45.2832 42.9033 39.5228 49.0635 33.7898 55.25C35.6026 56.8927 37.5684 58.3582 39.6604 59.6264V59.6303ZM26.4801 10.444C23.2322 13.4245 20.1888 16.6056 16.6931 19.3265C13.3508 22.0226 9.5265 24.0589 5.4238 25.3269C6.24138 22.4923 7.39373 19.7652 8.85649 17.2032C7.07919 15.4443 5.28619 13.6984 3.47744 11.9657C0.114126 17.3112 -2.05475 23.3201 -2.88075 29.5814L-3.50987 34.351L1.25187 33.659C8.85257 32.5501 15.1596 29.7623 21.1835 25.0438C24.8443 22.1773 28.0254 18.8468 31.4305 15.7523C29.7817 13.975 28.1316 12.2016 26.4801 10.4322V10.444ZM28.2062 36.667C25.7945 39.0656 23.3986 41.4772 21.0184 43.902C22.9762 45.3522 24.8484 46.9145 26.6256 48.5812C28.8537 46.3242 31.0898 44.075 33.3337 41.8338C31.6468 40.0918 29.9285 38.3775 28.222 36.667H28.2062ZM13.516 51.4831C12.6562 52.3481 11.7924 53.2106 10.9248 54.0704C12.1981 56.1675 13.6631 58.142 15.3012 59.9685C16.6119 58.6578 17.9226 57.3471 19.2332 56.0364C17.4386 54.3768 15.5238 52.8523 13.5042 51.4752L13.516 51.4831ZM5.65184 45.9506C9.75738 47.2138 13.5847 49.2475 16.9291 51.9431C21.4234 55.4623 25.2336 59.7562 29.6375 63.3894C35.9878 68.623 42.4207 71.4108 50.7174 71.8316L53.863 71.9928L54.4686 68.8943C55.2589 65.1119 55.2119 61.2024 54.331 57.4402C53.6465 54.7205 52.5724 52.1141 51.142 49.7018C49.3883 51.5735 47.6359 53.4478 45.8849 55.3247C47.2197 58.092 47.853 61.1452 47.729 64.2151C42.6173 63.3933 38.5122 61.2739 34.2656 57.7705C29.8145 54.1018 26.0082 49.7962 21.4116 46.2141C15.3877 41.4956 9.08062 38.7078 1.48385 37.6028L-3.27789 36.9069L-2.6527 41.6765C-1.95141 46.9494 -0.290896 52.0495 2.2467 56.7245C5.50228 62.6664 9.91422 67.8965 15.2225 72.1068C17.1886 70.6205 18.8794 68.8157 20.5662 67.0384C13.5553 61.6396 8.08972 54.5265 5.6479 45.9506H5.65184ZM44.7878 41.1102C40.5923 36.2974 35.8659 31.7558 31.3794 27.2497C29.8066 25.6769 28.2338 24.0896 26.6609 22.4879C24.8852 24.1546 23.02 25.7232 21.0735 27.1868C22.7879 28.9247 24.5035 30.6575 26.2206 32.385C30.7582 36.9423 35.5907 41.5585 39.7823 46.4539L44.7878 41.1102ZM19.2726 15.0209C13.7676 9.51602 8.06616 4.22344 2.52979 -1.25001C0.630167 0.265144 -1.17292 1.89751 -2.86894 3.63757C2.56519 9.01665 8.18018 14.1991 13.5789 19.6175C15.5825 18.221 17.485 16.685 19.2726 15.0209ZM24.2978 78.1504C30.588 81.5466 37.3804 83.9161 44.4182 85.1692C53.0774 86.6806 61.9348 86.658 70.5861 85.1023C83.216 82.7431 95.543 76.6955 104.402 67.5889C102.643 65.9164 100.9 64.2282 99.1724 62.5243C97.8962 63.8372 96.5452 65.0752 95.1262 66.2323C91.1051 69.4852 86.6438 72.1527 81.8752 74.1554C77.652 75.9475 73.2377 77.2509 68.7184 78.0403C60.8577 79.3691 52.8249 79.3106 44.9844 77.8673C39.665 76.8414 34.5072 75.1063 29.6493 72.7084C27.8995 74.5604 26.1576 76.4282 24.2781 78.1504H24.2978ZM91.5009 66.9754C85.9055 61.0498 80.3691 55.0416 74.8092 49.0727C73.2073 50.9872 71.8043 53.0596 70.6216 55.2579C75.458 60.4561 80.2787 65.6779 85.1427 70.8407C87.3499 69.7026 89.4745 68.411 91.5009 66.9754ZM67.5703 41.3344C62.1597 35.5739 56.9537 29.6286 51.1578 24.2574C49.8084 26.2912 48.335 28.2399 46.746 30.0926C52.4829 35.4638 57.7558 41.4956 63.1349 47.2482C64.4875 45.1907 65.969 43.2207 67.5703 41.3501V41.3344ZM66.9372 64.223C66.8132 60.8447 67.5894 57.4943 69.1863 54.5147C71.5456 49.9063 75.3007 45.8287 78.8435 42.0893C77.1213 40.3789 75.4029 38.6645 73.7318 36.9226C71.9466 38.8021 70.1929 40.7131 68.5729 42.6713C64.9279 47.0398 61.7075 51.8448 60.3509 57.448C59.47 61.2103 59.423 65.1198 60.2133 68.9022L60.8189 72.0006L63.9645 71.8394C69.4717 71.6422 74.8415 70.0672 79.5827 67.2586C77.8762 65.4236 76.1723 63.5886 74.471 61.7537C72.1091 62.9673 69.5684 63.7956 66.945 64.2073L66.9372 64.223ZM93.0422 -7.21497C89.0433 -3.95134 85.5713 0.0554428 82.06 3.81844C84.0783 5.18689 85.9992 6.69389 87.8087 8.32853C89.4811 6.54337 91.1588 4.76214 92.8417 2.98484C94.56 1.17609 96.7738 -1.17136 99.2589 -2.83463C102.798 -5.19388 108.224 -5.58709 111.822 -3.20425C113.304 -4.66698 114.794 -6.12185 116.352 -7.50987C116.643 -7.76939 116.941 -8.02497 117.236 -8.29629C113.969 -10.7656 110.457 -12.2284 106.364 -12.2795C101.252 -12.366 96.9979 -10.4511 93.0422 -7.23069V-7.21497ZM74.7738 11.659C69.3161 17.5335 63.84 23.391 58.3456 29.2314C60.0233 30.9878 61.6957 32.7493 63.3629 34.5162C69.1509 28.3821 74.918 22.2219 80.6641 16.0354C80.1765 15.6081 79.681 15.1848 79.1777 14.7653C77.8011 13.6162 76.3351 12.5788 74.7935 11.6629L74.7738 11.659ZM87.9581 60.8493C91.202 57.8688 94.2494 54.6877 97.7411 51.9667C101.084 49.2739 104.908 47.2416 109.01 45.9782C108.278 48.5169 107.273 50.969 106.014 53.2918C105.873 53.5592 105.727 53.8187 105.578 54.0782C107.36 55.8398 109.153 57.5856 110.957 59.3158C114.322 53.9711 116.491 47.9618 117.315 41.7001L117.944 36.9305L113.182 37.6264C105.582 38.7313 99.2785 41.5192 93.2506 46.2377C89.5899 49.1042 86.4089 52.4346 83.0037 55.5331C84.6525 57.3078 86.304 59.0798 87.9581 60.8493ZM86.228 34.6263C88.6396 32.2303 91.0356 29.82 93.4158 27.3952C91.4587 25.9413 89.5866 24.3763 87.8087 22.7081C85.5779 24.9625 83.3418 27.2104 81.1005 29.4516C82.7874 31.1975 84.5096 32.9079 86.2122 34.6184L86.228 34.6263ZM100.918 19.8141C101.781 18.9491 102.644 18.0866 103.509 17.2268C102.236 15.1298 100.771 13.1553 99.133 11.3287C97.8223 12.6394 96.5116 13.9501 95.2009 15.2608C96.9934 16.9108 98.9043 18.4273 100.918 19.7984V19.8141ZM108.806 25.3426C104.699 24.08 100.87 22.0462 97.5248 19.3501C93.0304 15.8113 89.2203 11.5371 84.8164 7.9078C78.466 2.67027 72.0332 -0.117561 63.7365 -0.5383L60.5908 -0.69558L59.9853 2.39896C59.1944 6.18143 59.2427 10.0913 60.1268 13.8531C60.8076 16.5734 61.8805 19.1801 63.3118 21.5914C65.0655 19.7198 66.8179 17.8455 68.569 15.9686C67.236 13.2006 66.6028 10.1479 66.7249 7.07813C71.8366 7.90387 75.9417 10.0193 80.1922 13.5228C84.6394 17.1914 88.4496 21.4971 93.0422 25.0792C99.0662 29.7977 105.373 32.5855 112.974 33.6944L117.732 34.3864L117.095 29.6011C116.395 24.3277 114.735 19.2273 112.195 14.553C108.938 8.61259 104.526 3.38282 99.2196 -0.829269C97.2535 0.657051 95.5627 2.46188 93.8758 4.23917C100.887 9.63792 106.352 16.751 108.818 25.3269L108.806 25.3426ZM69.67 30.1791C73.8616 34.9959 78.5879 39.5335 83.0744 44.0396C84.6473 45.6125 86.2201 47.201 87.7929 48.8053C89.566 47.1311 91.43 45.5559 93.3765 44.0868C91.6621 42.3489 89.9464 40.6161 88.2294 38.8886C83.6917 34.3314 78.8632 29.719 74.6676 24.8197L69.67 30.1791ZM95.1813 56.2723C99.5066 60.5976 103.832 64.8797 108.291 69.0241C109.522 70.1683 110.725 71.3518 111.924 72.5393C113.825 71.0253 115.628 69.3929 117.323 67.6518C115.974 66.3188 114.629 64.978 113.245 63.6922C109.042 59.7837 104.937 55.7494 100.875 51.6757C98.8696 53.0698 96.9668 54.6059 95.1813 56.2723ZM90.1364 -6.86108C83.0105 -10.7157 75.245 -13.2469 67.2164 -14.332C60.5115 -15.2226 53.7183 -15.2226 47.0134 -14.332C33.2983 -12.48 19.6304 -6.18083 10.0165 3.68475C11.7754 5.35457 13.5199 7.04275 15.25 8.74927C17.1658 6.74269 19.2729 4.92796 21.5414 3.33086C24.6407 1.14428 27.9308 -0.758675 31.3716 -2.35492C36.5986 -4.70748 42.1343 -6.30291 47.8116 -7.09307C54.1877 -7.94844 60.6513 -7.92065 67.0198 -7.0105C73.1984 -6.08146 79.1954 -4.19919 84.7967 -1.43088C86.5464 -3.28682 88.2884 -5.15063 90.1679 -6.87288L90.1364 -6.86108Z" fill="#946300"/>
<path fill-rule="evenodd" clip-rule="evenodd" d="M241.14 78.5436V68.6151C239.052 70.6637 237.05 72.8185 234.613 74.47C230.842 77.0219 225.675 76.7388 221.935 74.2537C219.898 75.8076 217.766 77.235 215.554 78.5279C221.385 83.3054 228.435 84.89 234.88 82.4796C237.333 81.5595 239.182 80.1912 241.14 78.5475V78.5436ZM241.14 2.5759V-7.37225C239.343 -5.75616 237.424 -3.88056 235.635 -2.119C233.543 -0.0546494 231.428 1.97037 229.296 3.98359C230.932 5.79136 232.438 7.71237 233.802 9.73228C236.288 7.37304 238.698 4.95874 241.14 2.56017V2.5759ZM118.534 -7.37225V2.55624C120.578 0.546951 122.674 -1.5685 125.061 -3.18065C128.832 -5.72864 133.995 -5.44946 137.734 -2.96439C139.773 -4.51736 141.904 -5.94473 144.116 -7.23856C136.81 -13.231 127.601 -14.2023 120.012 -8.54794C119.504 -8.17046 119.011 -7.77725 118.534 -7.36832V-7.37225ZM118.534 68.6112V78.5436C122.674 75.0047 126.398 71.0255 130.373 67.29C128.736 65.4807 127.23 63.557 125.867 61.5335C123.403 63.8691 120.958 66.2284 118.534 68.6112ZM145.551 4.31388C151.15 10.2356 156.683 16.2438 162.243 22.2127C163.845 20.2971 165.248 18.2234 166.43 16.0236C161.594 10.8254 156.773 5.60361 151.909 0.436859C149.701 1.57488 147.576 2.86784 145.551 4.30602V4.31388ZM170.115 7.06634C170.2 8.76837 170.041 10.4738 169.643 12.1309C168.617 16.2989 166.183 19.9282 163.505 23.235C161.83 25.2915 160.064 27.2497 158.22 29.1961C159.938 30.9104 161.657 32.6209 163.332 34.3628C165.117 32.4872 166.851 30.5762 168.487 28.6141C172.155 24.2456 175.36 19.4406 176.717 13.8374C177.604 10.0765 177.658 6.16703 176.874 2.38323L176.268 -0.711311L173.123 -0.554031C167.615 -0.353096 162.245 1.2216 157.501 4.02685C159.207 5.86182 160.911 7.69678 162.612 9.53175C164.973 8.31565 167.514 7.48594 170.138 7.0742L170.115 7.06634ZM144.01 78.5043C148.012 75.2407 151.481 71.2378 154.992 67.4709C152.972 66.104 151.051 64.5969 149.243 62.9608C147.573 64.7512 145.896 66.5324 144.21 68.3045C142.492 70.1172 140.278 72.4607 137.793 74.124C134.254 76.4832 128.828 76.8764 125.23 74.4936C123.468 76.2316 121.691 77.9695 119.816 79.5699C123.083 82.0392 126.598 83.502 130.692 83.557C135.803 83.6396 140.058 81.7286 144.01 78.5043ZM162.282 59.6303C167.734 53.7532 173.209 47.8944 178.706 42.0539C177.029 40.3002 175.356 38.5387 173.689 36.7692C167.901 42.9033 162.14 49.0635 156.407 55.25C158.221 56.8937 160.188 58.3592 162.282 59.6264V59.6303ZM149.098 10.4519C145.85 13.4324 142.787 16.6134 139.311 19.3344C135.968 22.0277 132.144 24.0613 128.041 25.3269C128.859 22.4923 130.011 19.7652 131.474 17.2032C129.697 15.4443 127.904 13.6984 126.095 11.9657C122.732 17.3112 120.563 23.3201 119.737 29.5814L119.108 34.351L123.869 33.659C131.47 32.5501 137.777 29.7623 143.801 25.0438C147.462 22.197 150.643 18.8665 154.068 15.7719C152.419 13.9947 150.769 12.2213 149.117 10.4519H149.098ZM150.824 36.6749C148.415 39.0734 146.019 41.4851 143.636 43.9099C145.594 45.3601 147.466 46.9224 149.243 48.5891C151.471 46.3321 153.707 44.0829 155.951 41.8416C154.264 40.0997 152.546 38.3853 150.84 36.6749H150.824ZM136.134 51.4909C135.274 52.356 134.411 53.2184 133.546 54.0782C134.817 56.1762 136.281 58.1508 137.919 59.9764C139.23 58.6657 140.54 57.355 141.851 56.0443C140.056 54.3847 138.141 52.8601 136.122 51.4831L136.134 51.4909ZM128.25 45.9585C132.353 47.2225 136.177 49.2563 139.519 51.951C144.014 55.4702 147.824 59.764 152.228 63.3973C158.578 68.6309 165.011 71.4187 173.307 71.8394L176.453 72.0006L177.055 68.9022C177.845 65.1198 177.798 61.2103 176.917 57.448C176.233 54.7284 175.159 52.122 173.728 49.7097C171.975 51.5814 170.222 53.4557 168.471 55.3326C169.808 58.0992 170.441 61.1529 170.315 64.223C165.203 63.4012 161.098 61.2818 156.852 57.7783C152.401 54.1097 148.594 49.8041 144.002 46.222C137.974 41.5035 131.667 38.7156 124.07 37.6107L119.308 36.9147L119.933 41.6843C120.635 46.9573 122.295 52.0573 124.833 56.7324C128.088 62.6743 132.5 67.9044 137.809 72.1147C139.775 70.6283 141.469 68.8235 143.156 67.0462C136.142 61.6475 130.676 54.5344 128.214 45.9585H128.25ZM167.386 41.1181C163.19 36.3053 158.464 31.7519 153.977 27.2575C152.405 25.6847 150.832 24.0975 149.259 22.4958C147.483 24.1624 145.618 25.731 143.671 27.1946C145.386 28.9326 147.102 30.6653 148.819 32.3928C153.356 36.9501 158.189 41.5664 162.384 46.4618C164.049 44.6793 165.716 42.898 167.386 41.1181ZM141.878 15.0288C136.374 9.52389 130.672 4.23131 125.14 -1.24214C123.239 0.272972 121.434 1.90534 119.737 3.64543C125.171 9.02451 130.786 14.207 136.185 19.6254C138.188 18.2289 140.091 16.6929 141.878 15.0288ZM146.915 78.1504C153.208 81.5474 160.003 83.9169 167.044 85.1692C175.703 86.6806 184.56 86.658 193.212 85.1023C205.841 82.7431 218.169 76.6955 227.028 67.5889C225.269 65.9164 223.525 64.2282 221.798 62.5243C220.528 63.8377 219.182 65.0758 217.767 66.2323C213.746 69.4852 209.285 72.1527 204.516 74.1554C200.293 75.948 195.879 77.2515 191.36 78.0403C183.499 79.3691 175.466 79.3106 167.626 77.8673C162.306 76.8414 157.148 75.1063 152.291 72.7084C150.541 74.5604 148.799 76.4282 146.919 78.1504H146.915ZM214.118 66.9754C208.523 61.0498 202.987 55.0416 197.427 49.0727C195.825 50.9872 194.422 53.0596 193.239 55.2579C198.076 60.4561 202.896 65.6779 207.76 70.8407C209.968 69.7026 212.092 68.411 214.118 66.9754ZM190.188 41.3344C184.777 35.5739 179.571 29.6286 173.775 24.2574C172.426 26.2912 170.953 28.2399 169.364 30.0926C175.101 35.4638 180.373 41.4956 185.753 47.2482C187.105 45.1907 188.587 43.2207 190.188 41.3501V41.3344ZM189.555 64.223C189.434 60.8437 190.215 57.4931 191.816 54.5147C194.175 49.9063 197.93 45.8287 201.473 42.0893C199.751 40.3789 198.032 38.6645 196.361 36.9226C194.576 38.8021 192.822 40.7131 191.202 42.6713C187.557 47.0398 184.337 51.8448 182.98 57.448C182.099 61.2103 182.052 65.1198 182.843 68.9022L183.448 72.0006L186.594 71.8394C192.101 71.6422 197.471 70.0672 202.212 67.2586C200.506 65.4236 198.802 63.5886 197.1 61.7537C194.739 62.9673 192.198 63.7956 189.574 64.2073L189.555 64.223ZM215.66 -7.21497C211.661 -3.95134 208.189 0.0554428 204.682 3.81844C206.698 5.1879 208.617 6.69485 210.426 8.32853C212.101 6.54337 213.779 4.76214 215.459 2.98484C217.178 1.17609 219.391 -1.17136 221.877 -2.83463C225.415 -5.19388 230.842 -5.58709 234.439 -3.20425C235.922 -4.66698 237.412 -6.12185 238.969 -7.50987C239.26 -7.76939 239.559 -8.02497 239.858 -8.29629C236.586 -10.7656 233.075 -12.2284 228.982 -12.2795C223.87 -12.366 219.616 -10.4511 215.66 -7.23069V-7.21497ZM197.391 11.659C191.934 17.5283 186.458 23.3831 180.963 29.2236C182.641 30.9799 184.315 32.7415 185.985 34.5083C191.773 28.3743 197.532 22.214 203.262 16.0275C202.774 15.6003 202.279 15.1769 201.776 14.7575C200.399 13.6084 198.933 12.571 197.391 11.6551V11.659ZM210.576 60.8493C213.82 57.8688 216.867 54.6877 220.359 51.9667C223.702 49.2747 227.526 47.2424 231.628 45.9782C230.896 48.5169 229.891 50.969 228.632 53.2918C228.49 53.5592 228.345 53.8187 228.195 54.0782C229.975 55.8398 231.768 57.5856 233.574 59.3158C236.939 53.9706 239.109 47.9616 239.937 41.7001L240.574 36.9147L235.812 37.6107C228.215 38.7156 221.908 41.5035 215.88 46.222C212.219 49.0884 209.038 52.4189 205.633 55.5174C207.285 57.2921 208.936 59.0641 210.588 60.8335L210.576 60.8493ZM208.846 34.6263C211.257 32.2303 213.653 29.82 216.033 27.3952C214.077 25.9403 212.205 24.3754 210.426 22.7081C208.201 24.9625 205.966 27.2104 203.722 29.4516C205.405 31.1975 207.127 32.9079 208.834 34.6184L208.846 34.6263ZM223.536 19.7984C224.409 18.9333 225.273 18.0683 226.127 17.2032C224.854 15.1062 223.389 13.1318 221.751 11.3051C220.44 12.6158 219.129 13.9265 217.819 15.2372C219.61 16.8953 221.521 18.4198 223.536 19.7984ZM231.424 25.3269C227.311 24.0661 223.477 22.0322 220.127 19.3344C215.632 15.7955 211.822 11.5214 207.418 7.89207C201.088 2.65454 194.651 -0.133293 186.354 -0.554031L183.208 -0.711311L182.603 2.38323C181.812 6.1657 181.86 10.0756 182.744 13.8374C183.422 16.557 184.49 19.1637 185.918 21.5757C187.677 19.704 189.429 17.8297 191.175 15.9528C189.842 13.1849 189.209 10.1321 189.331 7.0624C194.442 7.88814 198.547 10.0036 202.798 13.5071C207.253 17.1757 211.083 21.4813 215.656 25.0674C221.7 29.7859 227.991 32.5698 235.588 33.6786L240.345 34.3707L239.72 29.6011C239.02 24.3284 237.361 19.2283 234.825 14.553C231.566 8.6136 227.154 3.38412 221.849 -0.829269C219.883 0.657051 218.192 2.46188 216.505 4.23917C223.516 9.63792 228.982 16.751 231.447 25.3269H231.424ZM192.288 30.1791C196.479 34.9959 201.206 39.5335 205.692 44.0396C207.265 45.6125 208.838 47.201 210.411 48.8053C212.184 47.1311 214.048 45.5559 215.994 44.0868C214.28 42.3489 212.564 40.6161 210.847 38.8886C206.309 34.3314 201.481 29.719 197.285 24.8197L192.288 30.1791ZM217.799 56.2723C222.105 60.5976 226.449 64.8797 230.908 69.0241C232.139 70.1683 233.342 71.3518 234.542 72.5393C236.442 71.0253 238.245 69.3929 239.94 67.6518C238.596 66.3188 237.247 64.978 235.863 63.6922C231.66 59.7837 227.554 55.7494 223.493 51.6757C221.487 53.0698 219.584 54.6059 217.799 56.2723ZM212.758 -6.86108C205.63 -10.7151 197.864 -13.2462 189.834 -14.332C183.129 -15.2226 176.336 -15.2226 169.631 -14.332C155.916 -12.48 142.248 -6.18083 132.634 3.68475C134.396 5.35457 136.14 7.04275 137.868 8.74927C139.783 6.74269 141.891 4.92796 144.159 3.33086C147.258 1.14428 150.548 -0.758675 153.989 -2.35492C159.217 -4.70804 164.754 -6.30349 170.433 -7.09307C176.808 -7.94838 183.27 -7.92059 189.637 -7.0105C195.816 -6.08146 201.813 -4.19919 207.414 -1.43088C209.164 -3.28682 210.906 -5.15063 212.789 -6.87288L212.758 -6.86108Z" fill="#946300"/>
<path fill-rule="evenodd" clip-rule="evenodd" d="M363.746 78.5436V68.6151C361.658 70.6637 359.657 72.8185 357.219 74.47C353.448 77.0219 348.281 76.7388 344.542 74.2537C342.505 75.8085 340.373 77.2359 338.16 78.5279C343.988 83.3014 351.042 84.8861 357.486 82.4757C359.94 81.5556 361.788 80.1872 363.746 78.5436ZM363.746 2.5759V-7.37225C361.949 -5.75616 360.03 -3.88056 358.241 -2.119C356.149 -0.0546494 354.034 1.97037 351.903 3.98359C353.539 5.79037 355.045 7.71146 356.409 9.73228C358.894 7.37304 361.304 4.95874 363.746 2.56017V2.5759ZM241.14 -7.37225V2.55624C243.185 0.546951 245.285 -1.5685 247.667 -3.18065C251.438 -5.72864 256.601 -5.44946 260.34 -2.96439C262.38 -4.51828 264.512 -5.94568 266.726 -7.23856C259.416 -13.231 250.211 -14.2023 242.619 -8.54794C242.11 -8.17046 241.617 -7.77725 241.14 -7.36832V-7.37225ZM241.14 68.6112V78.5436C245.281 75.0047 249.004 71.0255 252.98 67.29C251.343 65.4807 249.837 63.557 248.473 61.5335C246.009 63.8691 243.565 66.2284 241.14 68.6112ZM268.157 4.31388C273.757 10.2356 279.289 16.2438 284.849 22.2127C286.451 20.2971 287.854 18.2234 289.037 16.0236C284.2 10.8254 279.38 5.60361 274.516 0.436859C272.308 1.57488 270.183 2.86784 268.157 4.30602V4.31388ZM292.725 7.06634C292.807 8.76852 292.647 10.4737 292.249 12.1309C291.239 16.3028 288.789 19.9321 286.103 23.239C284.432 25.2954 282.663 27.2536 280.819 29.2C282.537 30.9144 284.255 32.6248 285.93 34.3667C287.716 32.4911 289.469 30.5802 291.085 28.618C294.73 24.2495 297.955 19.4445 299.307 13.8413C300.191 10.0795 300.24 6.16962 299.449 2.38716L298.843 -0.707382L295.698 -0.550095C290.19 -0.349167 284.82 1.22553 280.076 4.03078C281.782 5.86575 283.486 7.70071 285.187 9.53568C287.55 8.31899 290.092 7.48927 292.717 7.07813L292.725 7.06634ZM266.616 78.5043C270.619 75.2407 274.087 71.2378 277.598 67.4709C275.579 66.1049 273.66 64.5978 271.854 62.9608C270.179 64.7512 268.5 66.5324 266.817 68.3045C265.098 70.1172 262.885 72.4607 260.399 74.124C256.88 76.4832 251.434 76.8764 247.836 74.4936C246.079 76.2316 244.298 77.9695 242.422 79.5699C245.69 82.0392 249.205 83.502 253.298 83.557C258.41 83.6396 262.664 81.7286 266.616 78.5043ZM284.888 59.6303C290.344 53.7532 295.818 47.8944 301.313 42.0539C299.635 40.3002 297.963 38.5387 296.295 36.7692C290.507 42.9033 284.74 49.0635 278.994 55.25C280.808 56.8937 282.775 58.3592 284.869 59.6264L284.888 59.6303ZM271.704 10.4519C268.456 13.4324 265.413 16.6134 261.921 19.3344C258.576 22.027 254.751 24.0605 250.648 25.3269C251.465 22.4923 252.618 19.7652 254.081 17.2032C252.303 15.4443 250.51 13.6984 248.702 11.9657C245.338 17.3112 243.169 23.3201 242.343 29.5814L241.714 34.351L246.472 33.6786C254.077 32.5698 260.384 29.7859 266.408 25.0674C270.064 22.197 273.249 18.8665 276.655 15.7719C275.008 13.9947 273.358 12.2213 271.704 10.4519ZM273.43 36.6749C271.021 39.0734 268.625 41.4851 266.243 43.9099C268.2 45.3601 270.072 46.9224 271.85 48.5891C274.08 46.3321 276.316 44.0829 278.558 41.8416C276.871 40.0997 275.153 38.3853 273.446 36.6749H273.43ZM258.744 51.4909L256.153 54.0782C257.423 56.1762 258.887 58.1508 260.525 59.9764C261.836 58.6657 263.147 57.355 264.457 56.0443C262.663 54.3857 260.75 52.8612 258.732 51.4831L258.744 51.4909ZM250.856 45.9585C254.962 47.2216 258.789 49.2554 262.133 51.951C266.628 55.4702 270.442 59.764 274.842 63.3973C281.192 68.6309 287.625 71.4187 295.922 71.8394L299.067 72.0006L299.669 68.9022C300.467 65.1215 300.428 61.212 299.555 57.448C298.871 54.7284 297.796 52.122 296.366 49.7097C294.612 51.5814 292.86 53.4557 291.109 55.3326C292.446 58.0992 293.079 61.1529 292.953 64.223C287.841 63.4012 283.736 61.2818 279.49 57.7783C275.039 54.1097 271.232 49.8041 266.64 46.222C260.612 41.5035 254.309 38.7156 246.708 37.6107L241.946 36.9147L242.575 41.6843C243.27 46.956 244.924 52.056 247.455 56.7324C250.712 62.6734 255.124 67.9033 260.431 72.1147C262.397 70.6283 264.092 68.8235 265.779 67.0462C258.764 61.6475 253.298 54.5344 250.837 45.9585H250.856ZM289.992 41.1181C285.793 36.3053 281.074 31.7519 276.584 27.2575C275.011 25.6847 273.438 24.0975 271.865 22.4958C270.09 24.1624 268.224 25.731 266.278 27.1946C267.992 28.9326 269.708 30.6653 271.425 32.3928C275.963 36.9501 280.795 41.5821 285.006 46.4618C286.671 44.6793 288.338 42.898 290.008 41.1181H289.992ZM264.477 15.0288C258.972 9.52389 253.271 4.23131 247.738 -1.24214C245.837 0.272972 244.033 1.90534 242.335 3.64543C247.77 9.02451 253.385 14.207 258.787 19.6254C260.79 18.2289 262.691 16.6928 264.477 15.0288ZM269.522 78.1504C275.812 81.5466 282.604 83.9161 289.642 85.1692C298.301 86.6806 307.159 86.658 315.81 85.1023C328.44 82.7431 340.767 76.6955 349.626 67.5889C347.87 65.9164 346.127 64.2282 344.396 62.5243C343.122 63.8391 341.771 65.0772 340.35 66.2323C336.329 69.4852 331.868 72.1527 327.099 74.1554C322.876 75.948 318.462 77.2515 313.943 78.0403C306.082 79.3691 298.049 79.3106 290.208 77.8673C284.889 76.8419 279.731 75.1067 274.873 72.7084C273.12 74.5604 271.378 76.4282 269.498 78.1504H269.522ZM336.729 66.9754C331.13 61.0498 325.597 55.0416 320.037 49.053C318.433 50.9665 317.028 53.039 315.846 55.2382C320.682 60.4364 325.503 65.6582 330.371 70.821C332.577 69.6811 334.701 68.3896 336.729 66.9558V66.9754ZM312.794 41.3344C307.384 35.5739 302.197 29.6286 296.382 24.2574C295.034 26.2911 293.562 28.2399 291.974 30.0926C297.707 35.4638 302.984 41.4956 308.359 47.2482C309.712 45.1907 311.193 43.2207 312.794 41.3501V41.3344ZM312.161 64.223C312.037 60.8447 312.814 57.4943 314.41 54.5147C316.789 49.9063 320.525 45.8287 324.068 42.0893C322.345 40.3789 320.627 38.6645 318.956 36.9226C317.171 38.8021 315.437 40.7131 313.801 42.6713C310.152 47.0398 306.932 51.8448 305.575 57.448C304.694 61.2103 304.647 65.1198 305.437 68.9022L306.043 72.0006L309.189 71.8394C314.696 71.6422 320.066 70.0672 324.807 67.2586L319.695 61.7537C317.333 62.9673 314.793 63.7956 312.169 64.2073L312.161 64.223ZM338.27 -7.21497C334.267 -3.95134 330.799 0.0554428 327.288 3.81844C329.304 5.1879 331.224 6.69485 333.033 8.32853C334.705 6.54337 336.384 4.76214 338.07 2.98484C339.784 1.17609 342.002 -1.17136 344.483 -2.83463C348.022 -5.19388 353.448 -5.58709 357.046 -3.20425C358.528 -4.66698 360.019 -6.12185 361.576 -7.50987C361.867 -7.76939 362.165 -8.02497 362.464 -8.29629C359.193 -10.7656 355.681 -12.2284 351.588 -12.2795C346.477 -12.366 342.222 -10.4511 338.27 -7.23069V-7.21497ZM319.998 11.659C314.543 17.5335 309.067 23.391 303.57 29.2314C305.247 30.9878 306.921 32.7493 308.591 34.5162C314.379 28.3821 320.138 22.2219 325.868 16.0354C325.381 15.6081 324.885 15.1848 324.382 14.7653C323.007 13.6124 321.543 12.571 320.002 11.6511L319.998 11.659ZM333.182 60.8493C336.426 57.8688 339.493 54.6877 342.965 51.9667C346.308 49.2747 350.133 47.2424 354.234 45.9782C353.502 48.5169 352.498 50.969 351.238 53.2918C351.097 53.5592 350.951 53.8187 350.802 54.0782C352.584 55.8398 354.377 57.5856 356.181 59.3158C359.547 53.9714 361.717 47.9621 362.543 41.7001L363.168 36.9305L358.41 37.6264C350.81 38.7313 344.503 41.5192 338.479 46.2377C334.818 49.1042 331.633 52.4346 328.228 55.5331C329.879 57.3078 331.531 59.0798 333.182 60.8493ZM331.452 34.6263C333.861 32.2303 336.257 29.82 338.64 27.3952C336.684 25.9403 334.812 24.3754 333.033 22.7081C330.807 24.9625 328.579 27.2104 326.348 29.4516C328.035 31.1975 329.753 32.9079 331.46 34.6184L331.452 34.6263ZM346.142 19.7984C347.005 18.9333 347.868 18.0683 348.734 17.2032C347.461 15.1053 345.996 13.1307 344.357 11.3051C343.046 12.6158 341.736 13.9265 340.425 15.2372C342.216 16.8963 344.127 18.4209 346.142 19.7984ZM354.03 25.3269C349.923 24.0642 346.094 22.0305 342.749 19.3344C338.255 15.7955 334.444 11.5214 330.04 7.89207C323.694 2.65454 317.249 -0.133293 308.961 -0.554031L305.815 -0.711311L305.209 2.38323C304.418 6.1657 304.467 10.0756 305.351 13.8374C306.033 16.5571 307.106 19.1636 308.536 21.5757C310.292 19.704 312.046 17.8297 313.797 15.9528C312.461 13.1858 311.826 10.1326 311.949 7.0624C317.061 7.88814 321.17 10.0036 325.416 13.5071C329.863 17.1757 333.674 21.4813 338.266 25.0634C344.29 29.7819 350.597 32.5698 358.198 33.6786L362.956 34.3707L362.331 29.6011C361.631 24.3284 359.972 19.2283 357.435 14.553C354.176 8.6136 349.765 3.38412 344.459 -0.829269C342.493 0.657051 340.803 2.46188 339.116 4.23917C346.127 9.63792 351.592 16.751 354.058 25.3269H354.03ZM314.89 30.1791C319.082 34.9959 323.812 39.5335 328.295 44.0396C329.867 45.6125 331.44 47.201 333.013 48.8053C334.786 47.1311 336.65 45.5559 338.597 44.0868C336.882 42.3489 335.167 40.6161 333.45 38.8886C328.912 34.3314 324.083 29.719 319.888 24.8197C318.226 26.6074 316.56 28.3939 314.89 30.1791ZM340.401 56.2723C344.707 60.5976 349.052 64.8797 353.511 69.0241C354.742 70.1683 355.945 71.3518 357.144 72.5393C359.045 71.0243 360.85 69.392 362.547 67.6518C361.198 66.3188 359.849 64.978 358.465 63.6922C354.262 59.7837 350.161 55.7494 346.095 51.6757C344.09 53.0698 342.187 54.6059 340.401 56.2723ZM335.361 -6.86108C328.235 -10.7157 320.469 -13.2469 312.44 -14.332C305.736 -15.2226 298.942 -15.2226 292.237 -14.332C278.522 -12.48 264.858 -6.18083 255.241 3.68475C256.997 5.35719 258.741 7.04929 260.474 8.76106C262.384 6.75548 264.484 4.94077 266.746 3.34266C269.845 1.15607 273.135 -0.74688 276.576 -2.34312C281.804 -4.69624 287.341 -6.29169 293.02 -7.08128C299.395 -7.93658 305.857 -7.90879 312.224 -6.9987C318.399 -6.06847 324.392 -4.18623 329.989 -1.41908C331.739 -3.27502 333.481 -5.13882 335.361 -6.86108Z" fill="#946300"/>
<path fill-rule="evenodd" clip-rule="evenodd" d="M486.352 78.5436V68.6151C484.264 70.6637 482.267 72.8185 479.825 74.47C476.054 77.0219 470.887 76.7388 467.152 74.2537C465.114 75.8061 462.983 77.2322 460.77 78.524C466.601 83.3014 473.652 84.8861 480.096 82.4757C482.55 81.5556 484.398 80.1872 486.356 78.5436H486.352ZM486.352 2.5759V-7.37225C484.555 -5.75616 482.636 -3.88056 480.847 -2.119C478.759 -0.0546494 476.644 1.97037 474.509 3.98359C476.145 5.79037 477.651 7.71146 479.015 9.73228C481.5 7.37304 483.91 4.95874 486.352 2.56017V2.5759ZM363.746 -7.37225V2.55624C365.791 0.546951 367.891 -1.5685 370.273 -3.18065C374.044 -5.72864 379.207 -5.44946 382.946 -2.96439C384.986 -4.51828 387.118 -5.94568 389.332 -7.23856C382.022 -13.231 372.817 -14.2023 365.225 -8.54794C364.719 -8.17046 364.226 -7.77725 363.746 -7.36832V-7.37225ZM363.746 68.6112V78.5436C367.887 75.0047 371.63 71.0255 375.586 67.29C373.95 65.4797 372.444 63.5561 371.079 61.5335C368.615 63.8691 366.171 66.2284 363.746 68.6112ZM390.779 4.31388C396.378 10.2356 401.911 16.2438 407.471 22.2127C409.068 20.2964 410.465 18.2227 411.643 16.0236C406.806 10.8254 401.989 5.60361 397.122 0.436859C394.919 1.57896 392.8 2.8745 390.779 4.31388ZM415.347 7.06634C415.428 8.76852 415.268 10.4737 414.871 12.1309C413.86 16.3028 411.411 19.9321 408.725 23.239C407.054 25.2954 405.285 27.2536 403.44 29.2C405.159 30.9144 406.877 32.6248 408.552 34.3667C410.337 32.4911 412.071 30.5802 413.707 28.618C417.352 24.2495 420.576 19.4445 421.929 13.8413C422.813 10.0795 422.861 6.16962 422.071 2.38716L421.449 -0.711311L418.304 -0.554031C412.8 -0.351151 407.434 1.22348 402.693 4.02685C404.4 5.86182 406.104 7.69678 407.805 9.53175C410.167 8.31506 412.71 7.48534 415.335 7.0742L415.347 7.06634ZM389.206 78.5004C393.209 75.2367 396.677 71.2339 400.189 67.467C398.17 66.101 396.25 64.5938 394.444 62.9569C392.769 64.7473 391.09 66.5285 389.407 68.3006C387.689 70.1132 385.475 72.4568 382.99 74.12C379.451 76.4793 374.025 76.8725 370.407 74.4896C368.649 76.2276 366.868 77.9656 364.993 79.566C368.264 82.0353 371.775 83.498 375.869 83.5531C380.98 83.6357 385.235 81.7247 389.187 78.5004H389.206ZM407.479 59.6264C412.934 53.7493 418.41 47.8905 423.907 42.05C422.227 40.2963 420.553 38.5347 418.886 36.7653C413.098 42.8993 407.337 49.0596 401.604 55.2461C403.418 56.8897 405.385 58.3553 407.479 59.6225V59.6264ZM394.318 10.4519C391.07 13.4324 388.007 16.6134 384.535 19.3344C381.19 22.027 377.365 24.0605 373.262 25.3269C374.076 22.4919 375.228 19.7646 376.69 17.2032C374.908 15.4443 373.114 13.6984 371.307 11.9657C367.944 17.3112 365.775 23.3201 364.949 29.5814L364.324 34.351L369.082 33.659C376.683 32.5698 382.99 29.7859 389.014 25.0674C392.674 22.2009 395.855 18.8704 399.261 15.7759C397.612 13.9986 395.962 12.2252 394.31 10.4558L394.318 10.4519ZM396.044 36.6749C393.634 39.0734 391.247 41.4877 388.856 43.9099C390.815 45.361 392.688 46.9233 394.467 48.5891C396.693 46.3321 398.928 44.0829 401.172 41.8416C399.485 40.0997 397.766 38.3853 396.06 36.6749H396.044ZM381.342 51.4909C380.482 52.356 379.619 53.2184 378.751 54.0782C380.022 56.1762 381.485 58.1508 383.123 59.9764C384.434 58.6657 385.745 57.355 387.055 56.0443C385.265 54.3888 383.355 52.867 381.342 51.4909ZM373.478 45.9585C377.584 47.2224 381.413 49.2561 384.759 51.951C389.25 55.4702 393.064 59.764 397.464 63.3973C403.814 68.6309 410.247 71.4187 418.543 71.8394L421.689 72.0006L422.295 68.9022C423.084 65.1195 423.035 61.21 422.153 57.448C421.469 54.7284 420.395 52.122 418.964 49.7097C417.213 51.5814 415.458 53.4596 413.699 55.3444C415.037 58.1068 415.673 61.1562 415.551 64.223C410.439 63.4012 406.334 61.2818 402.088 57.7783C397.637 54.1097 393.811 49.8041 389.238 46.222C383.214 41.5035 376.907 38.7156 369.306 37.6107L364.544 36.9147L365.173 41.6843C365.873 46.957 367.533 52.0571 370.069 56.7324C373.326 62.6734 377.737 67.9033 383.045 72.1147C385.011 70.6283 386.705 68.8235 388.392 67.0462C381.378 61.6475 375.916 54.5344 373.45 45.9585H373.478ZM412.614 41.1181C408.403 36.3053 403.676 31.7519 399.19 27.2575C397.617 25.6847 396.044 24.0975 394.471 22.4958C392.696 24.1624 390.83 25.731 388.884 27.1946C390.598 28.9326 392.315 30.6653 394.035 32.3928C398.569 36.9501 403.401 41.5821 407.597 46.4618C409.261 44.6793 410.928 42.898 412.598 41.1181H412.614ZM387.083 15.0288C381.578 9.52389 375.877 4.23131 370.344 -1.24214C368.444 0.273979 366.64 1.9063 364.941 3.64543C370.376 9.02451 375.991 14.207 381.393 19.6254C383.396 18.2289 385.297 16.6928 387.083 15.0288ZM392.128 78.1504C398.418 81.5466 405.21 83.9161 412.248 85.1692C420.907 86.6806 429.765 86.658 438.416 85.1023C451.046 82.7431 463.373 76.6955 472.232 67.5889C470.476 65.9164 468.733 64.2282 467.002 62.5243C465.728 63.8391 464.377 65.0772 462.956 66.2323C458.935 69.4852 454.474 72.1527 449.705 74.1554C445.482 75.948 441.068 77.2515 436.548 78.0403C428.688 79.369 420.655 79.3105 412.814 77.8673C407.495 76.8419 402.337 75.1067 397.479 72.7084C395.726 74.5604 393.988 76.4282 392.104 78.1504H392.128ZM459.335 66.9754C453.736 61.0498 448.187 55.0416 442.643 49.053C441.039 50.9656 439.635 53.0382 438.456 55.2382C443.292 60.4364 448.109 65.6582 452.977 70.821C455.183 69.6811 457.307 68.3896 459.335 66.9558V66.9754ZM435.4 41.3344C429.994 35.5739 424.784 29.6286 418.988 24.2574C417.64 26.2911 416.168 28.2399 414.58 30.0926C420.317 35.4638 425.59 41.4956 430.969 47.2482C432.319 45.1898 433.799 43.2198 435.4 41.3501V41.3344ZM434.767 64.223C434.643 60.8447 435.419 57.4943 437.016 54.5147C439.376 49.9063 443.131 45.8287 446.674 42.0893C444.955 40.3789 443.237 38.6645 441.562 36.9226C439.777 38.8021 438.023 40.7131 436.407 42.6713C432.758 47.0398 429.538 51.8448 428.185 57.448C427.301 61.2098 427.252 65.1197 428.043 68.9022L428.649 72.0006L431.795 71.8394C437.298 71.6402 442.663 70.0653 447.401 67.2586L442.289 61.7537C439.927 62.9673 437.387 63.7956 434.763 64.2073L434.767 64.223ZM460.876 -7.21497C456.873 -3.95134 453.405 0.0554428 449.894 3.81844C451.917 5.18716 453.843 6.69412 455.658 8.32853C457.333 6.54337 459.012 4.76214 460.695 2.98484C462.414 1.17609 464.627 -1.17136 467.109 -2.83463C470.647 -5.19388 476.074 -5.58709 479.691 -3.20425C481.174 -4.66698 482.66 -6.12185 484.217 -7.50987L485.106 -8.29629C481.834 -10.7656 478.323 -12.2284 474.23 -12.2795C469.118 -12.366 464.863 -10.4511 460.912 -7.23069L460.876 -7.21497ZM442.604 11.659C437.151 17.5283 431.673 23.3831 426.168 29.2236C427.848 30.9799 429.522 32.7415 431.189 34.5083C436.977 28.3743 442.736 22.214 448.467 16.0275C447.979 15.6003 447.484 15.1769 446.98 14.7575C445.604 13.6084 444.138 12.571 442.596 11.6551L442.604 11.659ZM455.788 60.8493C459.032 57.8688 462.079 54.6877 465.571 51.9667C468.914 49.2747 472.739 47.2424 476.84 45.9782C476.108 48.5169 475.103 50.969 473.844 53.2918C473.703 53.5592 473.557 53.8187 473.408 54.0782C475.19 55.8398 476.985 57.5856 478.791 59.3158C482.156 53.9656 484.325 47.9511 485.149 41.6843L485.774 36.9147L481.016 37.6107C473.416 38.7156 467.109 41.5035 461.085 46.222C457.424 49.0884 454.243 52.4189 450.834 55.5174C452.485 57.2921 454.137 59.0641 455.788 60.8335V60.8493ZM454.058 34.6263C456.467 32.2303 458.863 29.82 461.246 27.3952C459.297 25.9387 457.432 24.3739 455.658 22.7081C453.433 24.9625 451.205 27.2104 448.974 29.4516C450.661 31.1975 452.379 32.9079 454.086 34.6184L454.058 34.6263ZM468.748 19.7984C469.611 18.9333 470.474 18.0683 471.339 17.2032C470.067 15.1063 468.604 13.1318 466.967 11.3051C465.656 12.6158 464.346 13.9265 463.035 15.2372C464.824 16.8962 466.734 18.4207 468.748 19.7984ZM476.636 25.3269C472.529 24.0642 468.7 22.0305 465.355 19.3344C460.86 15.7955 457.05 11.5214 452.646 7.89207C446.3 2.65454 439.863 -0.133293 431.567 -0.554031L428.421 -0.711311L427.815 2.38323C427.024 6.1657 427.073 10.0756 427.957 13.8374C428.639 16.5571 429.712 19.1636 431.142 21.5757C432.898 19.7093 434.648 17.835 436.391 15.9528C435.055 13.1858 434.421 10.1326 434.543 7.0624C439.655 7.88814 443.764 10.0036 448.01 13.5071C452.469 17.1757 456.295 21.4813 460.868 25.0674C466.892 29.7859 473.199 32.5737 480.8 33.6826L485.562 34.3746L484.933 29.605C484.233 24.3309 482.574 19.2295 480.037 14.553C476.778 8.6136 472.367 3.38412 467.061 -0.829269C465.095 0.657051 463.405 2.46188 461.718 4.23917C468.729 9.63792 474.194 16.751 476.64 25.3269H476.636ZM437.5 30.1791C441.692 34.9959 446.422 39.5335 450.908 44.0396C452.481 45.6125 454.054 47.201 455.627 48.8053C457.401 47.1321 459.265 45.5569 461.21 44.0868C459.496 42.3489 457.78 40.6161 456.063 38.8886C451.526 34.3314 446.697 29.719 442.502 24.8197C440.834 26.6048 439.167 28.3861 437.5 30.1633V30.1791ZM463.011 56.2723C467.337 60.5976 471.662 64.8797 476.121 69.0241C477.352 70.1683 478.555 71.3518 479.754 72.5393C481.653 71.0203 483.455 69.384 485.149 67.64C483.8 66.307 482.452 64.9662 481.067 63.6804C476.892 59.7719 472.771 55.7376 468.705 51.6639C466.7 53.059 464.798 54.5951 463.011 56.2605V56.2723ZM457.97 -6.86108C450.843 -10.7151 443.076 -13.2462 435.046 -14.332C428.342 -15.2226 421.548 -15.2226 414.843 -14.332C401.128 -12.48 387.464 -6.18083 377.85 3.68475C379.607 5.35457 381.35 7.04275 383.08 8.74927C384.99 6.74368 387.09 4.92898 389.352 3.33086C392.451 1.14428 395.741 -0.758675 399.182 -2.35492C404.41 -4.70804 409.947 -6.30349 415.626 -7.09307C421.997 -7.94337 428.456 -7.91162 434.818 -6.9987C440.997 -6.06966 446.994 -4.18739 452.595 -1.41908C454.345 -3.27502 456.087 -5.13882 457.97 -6.86108Z" fill="#946300"/>
<path fill-rule="evenodd" clip-rule="evenodd" d="M608.962 78.5436V68.6151C606.874 70.6637 604.877 72.8185 602.435 74.47C598.664 77.0219 593.497 76.7388 589.762 74.2537C587.724 75.8061 585.592 77.2322 583.38 78.524C589.211 83.3014 596.261 84.8861 602.706 82.4757C605.16 81.5556 607.008 80.1872 608.966 78.5436H608.962ZM608.962 2.5759V-7.37225C607.165 -5.75616 605.246 -3.88056 603.457 -2.119C601.369 -0.0546494 599.254 1.97037 597.119 3.98359C598.755 5.79037 600.261 7.71146 601.625 9.73228C604.11 7.37304 606.52 4.95874 608.962 2.56017V2.5759ZM486.356 -7.37225V2.55624C488.401 0.546951 490.5 -1.5685 492.883 -3.18065C496.654 -5.72864 501.817 -5.44946 505.556 -2.96439C507.595 -4.51828 509.728 -5.94568 511.942 -7.23856C504.632 -13.231 495.427 -14.2023 487.834 -8.54794C487.328 -8.17046 486.836 -7.77725 486.356 -7.36832V-7.37225ZM486.356 68.6112V78.5436C490.496 75.0047 494.24 71.0255 498.195 67.29C496.56 65.4797 495.054 63.5561 493.689 61.5335C491.225 63.8691 488.781 66.2284 486.356 68.6112ZM513.389 4.31388C518.988 10.2356 524.521 16.2438 530.081 22.2127C531.677 20.2964 533.075 18.2227 534.253 16.0236C529.416 10.8254 524.599 5.60361 519.731 0.436859C517.529 1.57896 515.41 2.8745 513.389 4.31388ZM537.957 7.06634C538.038 8.76852 537.878 10.4737 537.481 12.1309C536.47 16.3028 534.021 19.9321 531.335 23.239C529.664 25.2954 527.894 27.2536 526.05 29.2C527.769 30.9144 529.487 32.6248 531.162 34.3667C532.947 32.4911 534.681 30.5802 536.317 28.618C539.962 24.2495 543.186 19.4445 544.539 13.8413C545.423 10.0795 545.471 6.16962 544.68 2.38716L544.059 -0.711311L540.914 -0.554031C535.41 -0.351151 530.044 1.22348 525.303 4.02685C527.01 5.86182 528.714 7.69678 530.415 9.53175C532.777 8.31506 535.32 7.48534 537.945 7.0742L537.957 7.06634ZM511.816 78.5004C515.819 75.2367 519.287 71.2339 522.798 67.467C520.78 66.101 518.86 64.5938 517.054 62.9569C515.379 64.7473 513.7 66.5285 512.017 68.3006C510.298 70.1132 508.085 72.4568 505.6 74.12C502.061 76.4793 496.634 76.8725 493.017 74.4896C491.259 76.2276 489.478 77.9656 487.602 79.566C490.874 82.0353 494.385 83.498 498.479 83.5531C503.59 83.6357 507.845 81.7247 511.796 78.5004H511.816ZM530.089 59.6264C535.544 53.7493 541.02 47.8905 546.517 42.05C544.836 40.2963 543.163 38.5347 541.495 36.7653C535.707 42.8993 529.947 49.0596 524.214 55.2461C526.027 56.8897 527.995 58.3553 530.089 59.6225V59.6264ZM516.928 10.4519C513.68 13.4324 510.617 16.6134 507.145 19.3344C503.8 22.027 499.975 24.0605 495.872 25.3269C496.686 22.4919 497.837 19.7646 499.3 17.2032C497.518 15.4443 495.723 13.6984 493.917 11.9657C490.554 17.3112 488.385 23.3201 487.559 29.5814L486.934 34.351L491.692 33.659C499.292 32.5698 505.6 29.7859 511.623 25.0674C515.284 22.2009 518.465 18.8704 521.87 15.7759C520.222 13.9986 518.571 12.2252 516.92 10.4558L516.928 10.4519ZM518.654 36.6749C516.244 39.0734 513.857 41.4877 511.466 43.9099C513.424 45.361 515.298 46.9233 517.077 48.5891C519.303 46.3321 521.538 44.0829 523.781 41.8416C522.095 40.0997 520.376 38.3853 518.67 36.6749H518.654ZM503.952 51.4909C503.092 52.356 502.228 53.2184 501.361 54.0782C502.631 56.1762 504.095 58.1508 505.733 59.9764C507.044 58.6657 508.355 57.355 509.665 56.0443C507.875 54.3888 505.965 52.867 503.952 51.4909ZM496.088 45.9585C500.194 47.2224 504.023 49.2561 507.369 51.951C511.859 55.4702 515.674 59.764 520.074 63.3973C526.424 68.6309 532.857 71.4187 541.153 71.8394L544.299 72.0006L544.905 68.9022C545.694 65.1195 545.645 61.21 544.763 57.448C544.079 54.7284 543.004 52.122 541.574 49.7097C539.823 51.5814 538.068 53.4596 536.309 55.3444C537.646 58.1068 538.283 61.1562 538.161 64.223C533.049 63.4012 528.944 61.2818 524.698 57.7783C520.247 54.1097 516.421 49.8041 511.848 46.222C505.824 41.5035 499.517 38.7156 491.916 37.6107L487.154 36.9147L487.783 41.6843C488.483 46.957 490.142 52.0571 492.679 56.7324C495.936 62.6734 500.347 67.9033 505.655 72.1147C507.621 70.6283 509.315 68.8235 511.002 67.0462C503.987 61.6475 498.526 54.5344 496.06 45.9585H496.088ZM535.224 41.1181C531.013 36.3053 526.286 31.7519 521.8 27.2575C520.227 25.6847 518.654 24.0975 517.081 22.4958C515.305 24.1624 513.44 25.731 511.494 27.1946C513.208 28.9326 514.925 30.6653 516.645 32.3928C521.178 36.9501 526.011 41.5821 530.206 46.4618C531.871 44.6793 533.538 42.898 535.208 41.1181H535.224ZM509.693 15.0288C504.188 9.52389 498.486 4.23131 492.954 -1.24214C491.054 0.273979 489.25 1.9063 487.551 3.64543C492.985 9.02451 498.6 14.207 504.003 19.6254C506.005 18.2289 507.907 16.6928 509.693 15.0288ZM514.738 78.1504C521.028 81.5466 527.82 83.9161 534.858 85.1692C543.517 86.6806 552.375 86.658 561.026 85.1023C573.656 82.7431 585.983 76.6955 594.842 67.5889C593.086 65.9164 591.342 64.2282 589.612 62.5243C588.338 63.8391 586.987 65.0772 585.566 66.2323C581.545 69.4852 577.084 72.1527 572.315 74.1554C568.092 75.948 563.678 77.2515 559.158 78.0403C551.298 79.369 543.265 79.3105 535.424 77.8673C530.105 76.8419 524.947 75.1067 520.089 72.7084C518.336 74.5604 516.598 76.4282 514.714 78.1504H514.738ZM581.945 66.9754C576.345 61.0498 570.797 55.0416 565.253 49.053C563.649 50.9656 562.245 53.0382 561.065 55.2382C565.902 60.4364 570.719 65.6582 575.587 70.821C577.793 69.6811 579.917 68.3896 581.945 66.9558V66.9754ZM558.01 41.3344C552.604 35.5739 547.394 29.6286 541.598 24.2574C540.25 26.2911 538.778 28.2399 537.19 30.0926C542.927 35.4638 548.2 41.4956 553.579 47.2482C554.929 45.1898 556.409 43.2198 558.01 41.3501V41.3344ZM557.377 64.223C557.253 60.8447 558.029 57.4943 559.626 54.5147C561.985 49.9063 565.741 45.8287 569.283 42.0893C567.565 40.3789 565.847 38.6645 564.172 36.9226C562.387 38.8021 560.633 40.7131 559.017 42.6713C555.368 47.0398 552.147 51.8448 550.795 57.448C549.911 61.2098 549.862 65.1197 550.653 68.9022L551.259 72.0006L554.404 71.8394C559.908 71.6402 565.273 70.0653 570.011 67.2586L564.899 61.7537C562.537 62.9673 559.997 63.7956 557.373 64.2073L557.377 64.223ZM583.486 -7.21497C579.483 -3.95134 576.015 0.0554428 572.504 3.81844C574.527 5.18716 576.453 6.69412 578.268 8.32853C579.943 6.54337 581.622 4.76214 583.305 2.98484C585.024 1.17609 587.237 -1.17136 589.718 -2.83463C593.257 -5.19388 598.684 -5.58709 602.301 -3.20425C603.783 -4.66698 605.27 -6.12185 606.827 -7.50987L607.716 -8.29629C604.444 -10.7656 600.933 -12.2284 596.839 -12.2795C591.728 -12.366 587.473 -10.4511 583.521 -7.23069L583.486 -7.21497ZM565.214 11.659C559.761 17.5283 554.283 23.3831 548.778 29.2236C550.458 30.9799 552.132 32.7415 553.799 34.5083C559.587 28.3743 565.346 22.214 571.076 16.0275C570.589 15.6003 570.093 15.1769 569.59 14.7575C568.214 13.6084 566.747 12.571 565.206 11.6551L565.214 11.659ZM578.398 60.8493C581.642 57.8688 584.689 54.6877 588.181 51.9667C591.524 49.2747 595.348 47.2424 599.45 45.9782C598.718 48.5169 597.713 50.969 596.454 53.2918C596.313 53.5592 596.167 53.8187 596.018 54.0782C597.8 55.8398 599.594 57.5856 601.401 59.3158C604.766 53.9656 606.935 47.9511 607.759 41.6843L608.384 36.9147L603.626 37.6107C596.025 38.7156 589.718 41.5035 583.694 46.222C580.034 49.0884 576.853 52.4189 573.444 55.5174C575.095 57.2921 576.747 59.0641 578.398 60.8335V60.8493ZM576.668 34.6263C579.077 32.2303 581.473 29.82 583.856 27.3952C581.907 25.9387 580.041 24.3739 578.268 22.7081C576.043 24.9625 573.814 27.2104 571.584 29.4516C573.271 31.1975 574.989 32.9079 576.695 34.6184L576.668 34.6263ZM591.358 19.7984C592.221 18.9333 593.084 18.0683 593.949 17.2032C592.677 15.1063 591.214 13.1318 589.577 11.3051C588.266 12.6158 586.955 13.9265 585.645 15.2372C587.434 16.8962 589.344 18.4207 591.358 19.7984ZM599.246 25.3269C595.139 24.0642 591.31 22.0305 587.965 19.3344C583.47 15.7955 579.66 11.5214 575.256 7.89207C568.91 2.65454 562.473 -0.133293 554.176 -0.554031L551.031 -0.711311L550.425 2.38323C549.634 6.1657 549.683 10.0756 550.567 13.8374C551.249 16.5571 552.322 19.1636 553.752 21.5757C555.508 19.7093 557.258 17.835 559.001 15.9528C557.665 13.1858 557.03 10.1326 557.153 7.0624C562.265 7.88814 566.374 10.0036 570.62 13.5071C575.079 17.1757 578.905 21.4813 583.478 25.0674C589.502 29.7859 595.809 32.5737 603.41 33.6826L608.172 34.3746L607.543 29.605C606.843 24.3309 605.184 19.2295 602.647 14.553C599.388 8.6136 594.977 3.38412 589.671 -0.829269C587.705 0.657051 586.014 2.46188 584.328 4.23917C591.338 9.63792 596.804 16.751 599.25 25.3269H599.246ZM560.11 30.1791C564.301 34.9959 569.032 39.5335 573.518 44.0396C575.091 45.6125 576.664 47.201 578.237 48.8053C580.011 47.1321 581.875 45.5569 583.82 44.0868C582.106 42.3489 580.39 40.6161 578.673 38.8886C574.136 34.3314 569.307 29.719 565.111 24.8197C563.444 26.6048 561.777 28.3861 560.11 30.1633V30.1791ZM585.621 56.2723C589.946 60.5976 594.272 64.8797 598.731 69.0241C599.961 70.1683 601.165 71.3518 602.364 72.5393C604.263 71.0203 606.064 69.384 607.759 67.64C606.41 66.307 605.061 64.9662 603.677 63.6804C599.501 59.7719 595.381 55.7376 591.315 51.6639C589.31 53.059 587.408 54.5951 585.621 56.2605V56.2723ZM580.58 -6.86108C573.453 -10.7151 565.686 -13.2462 557.656 -14.332C550.951 -15.2226 544.158 -15.2226 537.453 -14.332C523.738 -12.48 510.074 -6.18083 500.46 3.68475C502.217 5.35457 503.96 7.04275 505.69 8.74927C507.6 6.74368 509.7 4.92898 511.962 3.33086C515.061 1.14428 518.351 -0.758675 521.792 -2.35492C527.02 -4.70804 532.557 -6.30349 538.236 -7.09307C544.607 -7.94337 551.065 -7.91162 557.428 -6.9987C563.607 -6.06966 569.604 -4.18739 575.205 -1.41908C576.955 -3.27502 578.697 -5.13882 580.58 -6.86108Z" fill="#946300"/>
</g>
</svg>
